ISO-10303-21;
HEADER;
FILE_DESCRIPTION (( 'STEP AP214' ),
    '1' );
FILE_NAME ('LTL-4231NHBP.STEP',
    '2023-03-21T11:56:35',
    ( '' ),
    ( '' ),
    'SwSTEP 2.0',
    'SolidWorks 2019',
    '' );
FILE_SCHEMA (( 'AUTOMOTIVE_DESIGN' ));
ENDSEC;

DATA;
#1 = UNCERTAINTY_MEASURE_WITH_UNIT (LENGTH_MEASURE( 1.000000000000000082E-05 ), #664, 'distance_accuracy_value', 'NONE');
#2 = CARTESIAN_POINT ( 'NONE',  ( -3.174999999999999822, -3.649999999999999467, 4.599999999999999645 ) ) ;
#3 = ORIENTED_EDGE ( 'NONE', *, *, #614, .F. ) ;
#4 = FACE_OUTER_BOUND ( 'NONE', #579, .T. ) ;
#5 =( NAMED_UNIT ( * ) SI_UNIT ( $, .STERADIAN. ) SOLID_ANGLE_UNIT ( ) );
#6 = DIRECTION ( 'NONE',  ( -0.000000000000000000, -0.000000000000000000, 1.000000000000000000 ) ) ;
#7 = LINE ( 'NONE', #808, #31 ) ;
#8 = MECHANICAL_DESIGN_GEOMETRIC_PRESENTATION_REPRESENTATION (  '', ( #309 ), #290 ) ;
#9 = ORIENTED_EDGE ( 'NONE', *, *, #1021, .T. ) ;
#10 = SURFACE_SIDE_STYLE ('',( #458 ) ) ;
#11 = VECTOR ( 'NONE', #89, 1000.000000000000000 ) ;
#12 = ADVANCED_FACE ( 'NONE', ( #637 ), #649, .F. ) ;
#13 = CARTESIAN_POINT ( 'NONE',  ( 3.174999999999999378, 1.350000000000000533, 3.219999999999998863 ) ) ;
#14 = ORIENTED_EDGE ( 'NONE', *, *, #299, .T. ) ;
#15 = FACE_BOUND ( 'NONE', #108, .T. ) ;
#16 = SURFACE_STYLE_FILL_AREA ( #98 ) ;
#17 = LINE ( 'NONE', #358, #1106 ) ;
#18 = LINE ( 'NONE', #382, #1071 ) ;
#19 = CARTESIAN_POINT ( 'NONE',  ( -4.125000000000000000, 1.350000000000000533, 2.299999999999999822 ) ) ;
#20 = VERTEX_POINT ( 'NONE', #456 ) ;
#21 = ADVANCED_FACE ( 'NONE', ( #817 ), #571, .T. ) ;
#22 = PLANE ( 'NONE',  #982 ) ;
#23 = UNCERTAINTY_MEASURE_WITH_UNIT (LENGTH_MEASURE( 1.000000000000000082E-05 ), #809, 'distance_accuracy_value', 'NONE');
#24 =( LENGTH_UNIT ( ) NAMED_UNIT ( * ) SI_UNIT ( .MILLI., .METRE. ) );
#25 = DIRECTION ( 'NONE',  ( 0.000000000000000000, 0.000000000000000000, -1.000000000000000000 ) ) ;
#26 = LINE ( 'NONE', #748, #1119 ) ;
#27 = ORIENTED_EDGE ( 'NONE', *, *, #654, .F. ) ;
#28 = PRESENTATION_LAYER_ASSIGNMENT (  '', '', ( #1088 ) ) ;
#29 = EDGE_CURVE ( 'NONE', #302, #1024, #390, .T. ) ;
#30 = VECTOR ( 'NONE', #1100, 1000.000000000000000 ) ;
#31 = VECTOR ( 'NONE', #697, 1000.000000000000000 ) ;
#32 =( GEOMETRIC_REPRESENTATION_CONTEXT ( 3 ) GLOBAL_UNCERTAINTY_ASSIGNED_CONTEXT ( ( #1 ) ) GLOBAL_UNIT_ASSIGNED_CONTEXT ( ( #664, #157, #858 ) ) REPRESENTATION_CONTEXT ( 'NONE', 'WORKASPACE' ) );
#33 = SURFACE_SIDE_STYLE ('',( #655 ) ) ;
#34 = DIRECTION ( 'NONE',  ( -1.188166764367676342E-16, 1.000000000000000000, -0.000000000000000000 ) ) ;
#35 = LINE ( 'NONE', #42, #702 ) ;
#36 = VERTEX_POINT ( 'NONE', #661 ) ;
#37 = FILL_AREA_STYLE ('',( #1025 ) ) ;
#38 = DIRECTION ( 'NONE',  ( 1.000000000000000000, 0.000000000000000000, 0.000000000000000000 ) ) ;
#39 = SURFACE_SIDE_STYLE ('',( #742 ) ) ;
#40 = LINE ( 'NONE', #846, #981 ) ;
#41 = PLANE ( 'NONE',  #587 ) ;
#42 = CARTESIAN_POINT ( 'NONE',  ( -3.175000000000000711, 3.649999999999999911, 0.000000000000000000 ) ) ;
#43 = EDGE_LOOP ( 'NONE', ( #890, #172 ) ) ;
#44 = CARTESIAN_POINT ( 'NONE',  ( 1.450000000000000178, -7.150000000000000355, 3.370000000000000107 ) ) ;
#45 = FILL_AREA_STYLE ('',( #118 ) ) ;
#46 = EDGE_CURVE ( 'NONE', #987, #663, #18, .T. ) ;
#47 = APPLICATION_PROTOCOL_DEFINITION ( 'draft international standard', 'automotive_design', 1998, #65 ) ;
#48 = ORIENTED_EDGE ( 'NONE', *, *, #412, .T. ) ;
#49 = CARTESIAN_POINT ( 'NONE',  ( 3.174999999999999378, -3.649999999999999467, 3.219999999999999307 ) ) ;
#50 = PRESENTATION_LAYER_ASSIGNMENT (  '', '', ( #444 ) ) ;
#51 = PRESENTATION_STYLE_ASSIGNMENT (( #915 ) ) ;
#52 = MECHANICAL_DESIGN_GEOMETRIC_PRESENTATION_REPRESENTATION (  '', ( #784 ), #628 ) ;
#53 = VECTOR ( 'NONE', #448, 1000.000000000000000 ) ;
#54 = LINE ( 'NONE', #772, #944 ) ;
#55 = DIRECTION ( 'NONE',  ( -0.000000000000000000, -0.000000000000000000, 1.000000000000000000 ) ) ;
#56 = EDGE_LOOP ( 'NONE', ( #81, #793, #953, #613 ) ) ;
#57 = CARTESIAN_POINT ( 'NONE',  ( 1.000000000000000222, -7.150000000000000355, 3.770000000000000462 ) ) ;
#58 = DIRECTION ( 'NONE',  ( -0.000000000000000000, -1.000000000000000000, -0.000000000000000000 ) ) ;
#59 = FACE_OUTER_BOUND ( 'NONE', #90, .T. ) ;
#60 =( LENGTH_UNIT ( ) NAMED_UNIT ( * ) SI_UNIT ( .MILLI., .METRE. ) );
#61 = EDGE_LOOP ( 'NONE', ( #1080, #696, #333, #324 ) ) ;
#62 = FACE_OUTER_BOUND ( 'NONE', #999, .T. ) ;
#63 = ADVANCED_FACE ( 'NONE', ( #370 ), #737, .F. ) ;
#64 = CARTESIAN_POINT ( 'NONE',  ( 0.8000000000000003775, 1.350000000000000533, 1.380000000000001004 ) ) ;
#65 = APPLICATION_CONTEXT ( 'automotive_design' ) ;
#66 = CARTESIAN_POINT ( 'NONE',  ( 0.8000000000000003775, -3.649999999999999467, 1.380000000000001004 ) ) ;
#67 = DIRECTION ( 'NONE',  ( -1.000000000000000000, -1.188166764367676342E-16, -0.000000000000000000 ) ) ;
#68 = LINE ( 'NONE', #419, #443 ) ;
#69 = EDGE_LOOP ( 'NONE', ( #447, #604, #556, #905 ) ) ;
#70 = SURFACE_STYLE_USAGE ( .BOTH. , #870 ) ;
#71 = ADVANCED_FACE ( 'NONE', ( #1084 ), #1003, .F. ) ;
#72 = DIRECTION ( 'NONE',  ( 0.000000000000000000, -1.000000000000000000, 0.000000000000000000 ) ) ;
#73 =( GEOMETRIC_REPRESENTATION_CONTEXT ( 3 ) GLOBAL_UNCERTAINTY_ASSIGNED_CONTEXT ( ( #342 ) ) GLOBAL_UNIT_ASSIGNED_CONTEXT ( ( #491, #325, #320 ) ) REPRESENTATION_CONTEXT ( 'NONE', 'WORKASPACE' ) );
#74 = LINE ( 'NONE', #530, #149 ) ;
#75 =( GEOMETRIC_REPRESENTATION_CONTEXT ( 3 ) GLOBAL_UNCERTAINTY_ASSIGNED_CONTEXT ( ( #23 ) ) GLOBAL_UNIT_ASSIGNED_CONTEXT ( ( #809, #1142, #641 ) ) REPRESENTATION_CONTEXT ( 'NONE', 'WORKASPACE' ) );
#76 = ORIENTED_EDGE ( 'NONE', *, *, #1045, .T. ) ;
#77 = FACE_OUTER_BOUND ( 'NONE', #345, .T. ) ;
#78 = EDGE_CURVE ( 'NONE', #490, #768, #365, .T. ) ;
#79 =( LENGTH_UNIT ( ) NAMED_UNIT ( * ) SI_UNIT ( .MILLI., .METRE. ) );
#80 = DIRECTION ( 'NONE',  ( 1.000000000000000000, 1.188166764367676342E-16, -0.000000000000000000 ) ) ;
#81 = ORIENTED_EDGE ( 'NONE', *, *, #29, .T. ) ;
#82 = LINE ( 'NONE', #1132, #942 ) ;
#83 = EDGE_LOOP ( 'NONE', ( #959, #27, #612, #399 ) ) ;
#84 = LINE ( 'NONE', #414, #168 ) ;
#85 = UNCERTAINTY_MEASURE_WITH_UNIT (LENGTH_MEASURE( 1.000000000000000082E-05 ), #294, 'distance_accuracy_value', 'NONE');
#86 = CARTESIAN_POINT ( 'NONE',  ( 0.8000000000000003775, 1.350000000000000533, 1.380000000000001004 ) ) ;
#87 = EDGE_CURVE ( 'NONE', #966, #716, #559, .T. ) ;
#88 = EDGE_LOOP ( 'NONE', ( #233, #844, #468, #569, #143, #1137, #794, #265, #394, #788, #76, #739 ) ) ;
#89 = DIRECTION ( 'NONE',  ( -0.000000000000000000, -0.000000000000000000, 1.000000000000000000 ) ) ;
#90 = EDGE_LOOP ( 'NONE', ( #777, #497, #561, #484 ) ) ;
#91 = FILL_AREA_STYLE_COLOUR ( '', #782 ) ;
#92 = VECTOR ( 'NONE', #841, 1000.000000000000000 ) ;
#93 = ORIENTED_EDGE ( 'NONE', *, *, #640, .F. ) ;
#94 = CARTESIAN_POINT ( 'NONE',  ( 0.7999999999999999334, 1.350000000000000533, 3.919999999999999041 ) ) ;
#95 = ORIENTED_EDGE ( 'NONE', *, *, #195, .F. ) ;
#96 = AXIS2_PLACEMENT_3D ( 'NONE', #560, #391, #843 ) ;
#97 =( GEOMETRIC_REPRESENTATION_CONTEXT ( 3 ) GLOBAL_UNCERTAINTY_ASSIGNED_CONTEXT ( ( #564 ) ) GLOBAL_UNIT_ASSIGNED_CONTEXT ( ( #607, #495, #936 ) ) REPRESENTATION_CONTEXT ( 'NONE', 'WORKASPACE' ) );
#98 = FILL_AREA_STYLE ('',( #91 ) ) ;
#99 = DIRECTION ( 'NONE',  ( -0.000000000000000000, -1.000000000000000000, -0.000000000000000000 ) ) ;
#100 = EDGE_LOOP ( 'NONE', ( #217, #914, #386, #520 ) ) ;
#101 =( LENGTH_UNIT ( ) NAMED_UNIT ( * ) SI_UNIT ( .MILLI., .METRE. ) );
#102 = ORIENTED_EDGE ( 'NONE', *, *, #226, .F. ) ;
#103 = DIRECTION ( 'NONE',  ( -1.000000000000000000, 0.000000000000000000, 0.000000000000000000 ) ) ;
#104 = DIRECTION ( 'NONE',  ( -0.000000000000000000, 0.000000000000000000, 1.000000000000000000 ) ) ;
#105 = UNCERTAINTY_MEASURE_WITH_UNIT (LENGTH_MEASURE( 1.000000000000000082E-05 ), #1078, 'distance_accuracy_value', 'NONE');
#106 = DIRECTION ( 'NONE',  ( 1.826024711554534160E-16, 0.000000000000000000, -1.000000000000000000 ) ) ;
#107 = SURFACE_STYLE_FILL_AREA ( #540 ) ;
#108 = EDGE_LOOP ( 'NONE', ( #317, #537, #881, #993 ) ) ;
#109 = FACE_OUTER_BOUND ( 'NONE', #1028, .T. ) ;
#110 = EDGE_CURVE ( 'NONE', #1050, #833, #724, .T. ) ;
#111 =( NAMED_UNIT ( * ) SI_UNIT ( $, .STERADIAN. ) SOLID_ANGLE_UNIT ( ) );
#112 = LINE ( 'NONE', #466, #1143 ) ;
#113 = COLOUR_RGB ( '',0.6666666666666666297, 0.6980392156862744724, 0.7686274509803920907 ) ;
#114 = ORIENTED_EDGE ( 'NONE', *, *, #338, .F. ) ;
#115 = PLANE ( 'NONE',  #985 ) ;
#116 = VECTOR ( 'NONE', #383, 1000.000000000000000 ) ;
#117 = FACE_OUTER_BOUND ( 'NONE', #339, .T. ) ;
#118 = FILL_AREA_STYLE_COLOUR ( '', #113 ) ;
#119 = ADVANCED_FACE ( 'NONE', ( #120 ), #214, .T. ) ;
#120 = FACE_OUTER_BOUND ( 'NONE', #69, .T. ) ;
#121 = DIRECTION ( 'NONE',  ( -0.000000000000000000, -1.000000000000000000, -0.000000000000000000 ) ) ;
#122 = VERTEX_POINT ( 'NONE', #136 ) ;
#123 = CARTESIAN_POINT ( 'NONE',  ( 0.000000000000000000, -7.150000000000000355, 0.000000000000000000 ) ) ;
#124 = LINE ( 'NONE', #378, #293 ) ;
#125 = EDGE_CURVE ( 'NONE', #658, #138, #40, .T. ) ;
#126 = VERTEX_POINT ( 'NONE', #927 ) ;
#127 = ORIENTED_EDGE ( 'NONE', *, *, #866, .T. ) ;
#128 = CARTESIAN_POINT ( 'NONE',  ( 3.174999999999998934, 3.649999999999999911, 4.599999999999999645 ) ) ;
#129 = CARTESIAN_POINT ( 'NONE',  ( -3.174999999999999822, -2.149999999999999023, 2.299999999999999822 ) ) ;
#130 = ORIENTED_EDGE ( 'NONE', *, *, #931, .F. ) ;
#131 = STYLED_ITEM ( 'NONE', ( #277 ), #119 ) ;
#132 = MECHANICAL_DESIGN_GEOMETRIC_PRESENTATION_REPRESENTATION (  '', ( #1088 ), #385 ) ;
#133 = COLOUR_RGB ( '',0.6666666666666666297, 0.6980392156862744724, 0.7686274509803920907 ) ;
#134 = VECTOR ( 'NONE', #180, 1000.000000000000000 ) ;
#135 = CARTESIAN_POINT ( 'NONE',  ( -2.674999999999999822, -2.149999999999999023, 2.299999999999999822 ) ) ;
#136 = CARTESIAN_POINT ( 'NONE',  ( 1.000000000000000444, 1.350000000000000533, 1.230000000000000648 ) ) ;
#137 = CARTESIAN_POINT ( 'NONE',  ( 0.7999999999999999334, 1.350000000000000533, 3.919999999999999041 ) ) ;
#138 = VERTEX_POINT ( 'NONE', #488 ) ;
#139 = DIRECTION ( 'NONE',  ( -1.000000000000000000, 0.000000000000000000, -0.000000000000000000 ) ) ;
#140 = EDGE_CURVE ( 'NONE', #138, #865, #684, .T. ) ;
#141 =( LENGTH_UNIT ( ) NAMED_UNIT ( * ) SI_UNIT ( .MILLI., .METRE. ) );
#142 = PRESENTATION_STYLE_ASSIGNMENT (( #316 ) ) ;
#143 = ORIENTED_EDGE ( 'NONE', *, *, #29, .F. ) ;
#144 = FACE_OUTER_BOUND ( 'NONE', #623, .T. ) ;
#145 = DIRECTION ( 'NONE',  ( -1.000000000000000000, 0.000000000000000000, 9.130123557772670799E-17 ) ) ;
#146 = EDGE_LOOP ( 'NONE', ( #114, #501, #451, #937 ) ) ;
#147 = COLOUR_RGB ( '',0.6666666666666666297, 0.6980392156862744724, 0.7686274509803920907 ) ;
#148 = DIRECTION ( 'NONE',  ( -1.000000000000000000, -1.188166764367676342E-16, 0.000000000000000000 ) ) ;
#149 = VECTOR ( 'NONE', #1057, 1000.000000000000000 ) ;
#150 = VECTOR ( 'NONE', #197, 1000.000000000000000 ) ;
#151 = CARTESIAN_POINT ( 'NONE',  ( 0.000000000000000000, 0.000000000000000000, 0.000000000000000000 ) ) ;
#152 = EDGE_CURVE ( 'NONE', #36, #285, #741, .T. ) ;
#153 = VERTEX_POINT ( 'NONE', #504 ) ;
#154 = DIRECTION ( 'NONE',  ( -0.000000000000000000, -1.000000000000000000, -0.000000000000000000 ) ) ;
#155 = DIRECTION ( 'NONE',  ( 0.000000000000000000, -1.000000000000000000, 0.000000000000000000 ) ) ;
#156 = CARTESIAN_POINT ( 'NONE',  ( 0.8000000000000003775, 1.350000000000000533, 0.6800000000000001599 ) ) ;
#157 =( NAMED_UNIT ( * ) PLANE_ANGLE_UNIT ( ) SI_UNIT ( $, .RADIAN. ) );
#158 = ORIENTED_EDGE ( 'NONE', *, *, #299, .F. ) ;
#159 = EDGE_CURVE ( 'NONE', #979, #807, #244, .T. ) ;
#160 = CYLINDRICAL_SURFACE ( 'NONE', #171, 0.5000000000000000000 ) ;
#161 = FACE_OUTER_BOUND ( 'NONE', #164, .T. ) ;
#162 = DIRECTION ( 'NONE',  ( 0.000000000000000000, 0.000000000000000000, 1.000000000000000000 ) ) ;
#163 = PLANE ( 'NONE',  #906 ) ;
#164 = EDGE_LOOP ( 'NONE', ( #828, #887, #1073, #653 ) ) ;
#165 = DIRECTION ( 'NONE',  ( 0.000000000000000000, 0.000000000000000000, -1.000000000000000000 ) ) ;
#166 = FILL_AREA_STYLE_COLOUR ( '', #1053 ) ;
#167 = ADVANCED_FACE ( 'NONE', ( #1112 ), #321, .F. ) ;
#168 = VECTOR ( 'NONE', #259, 1000.000000000000000 ) ;
#169 = CARTESIAN_POINT ( 'NONE',  ( -3.174999999999999822, -2.149999999999999023, 2.299999999999999822 ) ) ;
#170 = AXIS2_PLACEMENT_3D ( 'NONE', #1144, #356, #1065 ) ;
#171 = AXIS2_PLACEMENT_3D ( 'NONE', #735, #903, #1115 ) ;
#172 = ORIENTED_EDGE ( 'NONE', *, *, #412, .F. ) ;
#173 = DIRECTION ( 'NONE',  ( 1.000000000000000000, 0.000000000000000000, 0.000000000000000000 ) ) ;
#174 = VERTEX_POINT ( 'NONE', #64 ) ;
#175 = EDGE_CURVE ( 'NONE', #247, #687, #950, .T. ) ;
#176 = ORIENTED_EDGE ( 'NONE', *, *, #125, .F. ) ;
#177 = CARTESIAN_POINT ( 'NONE',  ( -5.575000000000000178, 1.350000000000000311, 2.299999999999999822 ) ) ;
#178 = ORIENTED_EDGE ( 'NONE', *, *, #78, .F. ) ;
#179 = ORIENTED_EDGE ( 'NONE', *, *, #389, .T. ) ;
#180 = DIRECTION ( 'NONE',  ( -1.548860246407863336E-16, 0.000000000000000000, -1.000000000000000000 ) ) ;
#181 = ORIENTED_EDGE ( 'NONE', *, *, #152, .T. ) ;
#182 =( GEOMETRIC_REPRESENTATION_CONTEXT ( 3 ) GLOBAL_UNCERTAINTY_ASSIGNED_CONTEXT ( ( #709 ) ) GLOBAL_UNIT_ASSIGNED_CONTEXT ( ( #728, #363, #111 ) ) REPRESENTATION_CONTEXT ( 'NONE', 'WORKASPACE' ) );
#183 = SURFACE_SIDE_STYLE ('',( #900 ) ) ;
#184 = CARTESIAN_POINT ( 'NONE',  ( -2.674999999999999822, -1.649999999999999023, 2.299999999999999822 ) ) ;
#185 = ORIENTED_EDGE ( 'NONE', *, *, #175, .T. ) ;
#186 = VECTOR ( 'NONE', #885, 1000.000000000000000 ) ;
#187 = FACE_OUTER_BOUND ( 'NONE', #1107, .T. ) ;
#188 = VECTOR ( 'NONE', #121, 1000.000000000000000 ) ;
#189 = CARTESIAN_POINT ( 'NONE',  ( 1.000000000000000444, -7.150000000000000355, 1.230000000000000648 ) ) ;
#190 = MECHANICAL_DESIGN_GEOMETRIC_PRESENTATION_REPRESENTATION (  '', ( #276 ), #97 ) ;
#191 = CARTESIAN_POINT ( 'NONE',  ( 1.450000000000000178, 1.350000000000000533, 3.770000000000000462 ) ) ;
#192 = ORIENTED_EDGE ( 'NONE', *, *, #322, .T. ) ;
#193 = LINE ( 'NONE', #960, #1089 ) ;
#194 = EDGE_LOOP ( 'NONE', ( #836, #917, #547, #411 ) ) ;
#195 = EDGE_CURVE ( 'NONE', #983, #995, #436, .T. ) ;
#196 = DIRECTION ( 'NONE',  ( 1.000000000000000000, -0.000000000000000000, 1.826024711554534160E-16 ) ) ;
#197 = DIRECTION ( 'NONE',  ( -0.000000000000000000, -0.000000000000000000, -1.000000000000000000 ) ) ;
#198 = ORIENTED_EDGE ( 'NONE', *, *, #1116, .T. ) ;
#199 = DIRECTION ( 'NONE',  ( 0.000000000000000000, 0.000000000000000000, 1.000000000000000000 ) ) ;
#200 = DIRECTION ( 'NONE',  ( 1.000000000000000000, 1.188166764367676342E-16, -0.000000000000000000 ) ) ;
#201 = ORIENTED_EDGE ( 'NONE', *, *, #87, .F. ) ;
#202 = MECHANICAL_DESIGN_GEOMETRIC_PRESENTATION_REPRESENTATION (  '', ( #861 ), #745 ) ;
#203 = VECTOR ( 'NONE', #1146, 1000.000000000000000 ) ;
#204 = EDGE_CURVE ( 'NONE', #666, #122, #84, .T. ) ;
#205 = DIRECTION ( 'NONE',  ( 1.000000000000000000, 1.188166764367676342E-16, -0.000000000000000000 ) ) ;
#206 = DIRECTION ( 'NONE',  ( 0.000000000000000000, -0.000000000000000000, 1.000000000000000000 ) ) ;
#207 = APPLICATION_CONTEXT ( 'automotive_design' ) ;
#208 = CARTESIAN_POINT ( 'NONE',  ( 1.450000000000000178, 1.350000000000000533, 3.370000000000000107 ) ) ;
#209 = ORIENTED_EDGE ( 'NONE', *, *, #402, .T. ) ;
#210 = CARTESIAN_POINT ( 'NONE',  ( -3.175000000000000711, 3.649999999999999911, 4.599999999999999645 ) ) ;
#211 =( NAMED_UNIT ( * ) PLANE_ANGLE_UNIT ( ) SI_UNIT ( $, .RADIAN. ) );
#212 = CARTESIAN_POINT ( 'NONE',  ( -4.125000000000000000, -0.09999999999999939493, 2.299999999999999822 ) ) ;
#213 = EDGE_LOOP ( 'NONE', ( #373, #930, #1012 ) ) ;
#214 = PLANE ( 'NONE',  #218 ) ;
#215 = CARTESIAN_POINT ( 'NONE',  ( 3.174999999999998934, 3.649999999999999911, 4.599999999999999645 ) ) ;
#216 = CARTESIAN_POINT ( 'NONE',  ( -4.125000000000000000, 1.350000000000000533, 2.299999999999999822 ) ) ;
#217 = ORIENTED_EDGE ( 'NONE', *, *, #609, .T. ) ;
#218 = AXIS2_PLACEMENT_3D ( 'NONE', #123, #997, #901 ) ;
#219 = COLOUR_RGB ( '',0.2980392156862745057, 0.2980392156862745057, 0.2980392156862745057 ) ;
#220 = VECTOR ( 'NONE', #225, 1000.000000000000000 ) ;
#221 = PRESENTATION_LAYER_ASSIGNMENT (  '', '', ( #615 ) ) ;
#222 =( NAMED_UNIT ( * ) PLANE_ANGLE_UNIT ( ) SI_UNIT ( $, .RADIAN. ) );
#223 = CARTESIAN_POINT ( 'NONE',  ( 1.450000000000000178, -7.150000000000000355, 3.770000000000000462 ) ) ;
#224 = ORIENTED_EDGE ( 'NONE', *, *, #792, .F. ) ;
#225 = DIRECTION ( 'NONE',  ( -1.188166764367676342E-16, 1.000000000000000000, -0.000000000000000000 ) ) ;
#226 = EDGE_CURVE ( 'NONE', #1008, #285, #68, .T. ) ;
#227 = CARTESIAN_POINT ( 'NONE',  ( 1.450000000000000622, -7.150000000000000355, 0.8300000000000004041 ) ) ;
#228 = CARTESIAN_POINT ( 'NONE',  ( 3.174999999999999822, -3.649999999999999467, 1.380000000000000782 ) ) ;
#229 = ORIENTED_EDGE ( 'NONE', *, *, #1141, .F. ) ;
#230 = ADVANCED_FACE ( 'NONE', ( #704, #59 ), #163, .F. ) ;
#231 = ADVANCED_BREP_SHAPE_REPRESENTATION ( 'LTL-4231NHBP', ( #486, #527 ), #32 ) ;
#232 = PRESENTATION_STYLE_ASSIGNMENT (( #246 ) ) ;
#233 = ORIENTED_EDGE ( 'NONE', *, *, #110, .F. ) ;
#234 = DIRECTION ( 'NONE',  ( 0.000000000000000000, -1.000000000000000000, 0.000000000000000000 ) ) ;
#235 = AXIS2_PLACEMENT_3D ( 'NONE', #744, #565, #199 ) ;
#236 = DIRECTION ( 'NONE',  ( -1.000000000000000000, -1.188166764367676342E-16, -0.000000000000000000 ) ) ;
#237 = VECTOR ( 'NONE', #867, 1000.000000000000000 ) ;
#238 =( GEOMETRIC_REPRESENTATION_CONTEXT ( 3 ) GLOBAL_UNCERTAINTY_ASSIGNED_CONTEXT ( ( #796 ) ) GLOBAL_UNIT_ASSIGNED_CONTEXT ( ( #496, #1040, #337 ) ) REPRESENTATION_CONTEXT ( 'NONE', 'WORKASPACE' ) );
#239 = LINE ( 'NONE', #86, #804 ) ;
#240 = EDGE_CURVE ( 'NONE', #625, #595, #332, .T. ) ;
#241 = AXIS2_PLACEMENT_3D ( 'NONE', #644, #200, #913 ) ;
#242 = ORIENTED_EDGE ( 'NONE', *, *, #766, .T. ) ;
#243 = FILL_AREA_STYLE ('',( #1036 ) ) ;
#244 = LINE ( 'NONE', #775, #289 ) ;
#245 = DIRECTION ( 'NONE',  ( 0.000000000000000000, -1.000000000000000000, 0.000000000000000000 ) ) ;
#246 = SURFACE_STYLE_USAGE ( .BOTH. , #686 ) ;
#247 = VERTEX_POINT ( 'NONE', #1128 ) ;
#248 = PRODUCT_RELATED_PRODUCT_CATEGORY ( 'part', '', ( #731 ) ) ;
#249 = CARTESIAN_POINT ( 'NONE',  ( 1.000000000000000444, -7.150000000000000355, 1.230000000000000648 ) ) ;
#250 = SURFACE_STYLE_FILL_AREA ( #689 ) ;
#251 = DIRECTION ( 'NONE',  ( 0.000000000000000000, 0.000000000000000000, -1.000000000000000000 ) ) ;
#252 = VERTEX_POINT ( 'NONE', #886 ) ;
#253 = DIRECTION ( 'NONE',  ( 0.000000000000000000, 0.000000000000000000, -1.000000000000000000 ) ) ;
#254 = ORIENTED_EDGE ( 'NONE', *, *, #524, .F. ) ;
#255 = ADVANCED_FACE ( 'NONE', ( #376 ), #553, .T. ) ;
#256 = COLOUR_RGB ( '',0.6666666666666666297, 0.6980392156862744724, 0.7686274509803920907 ) ;
#257 = AXIS2_PLACEMENT_3D ( 'NONE', #1099, #493, #400 ) ;
#258 = VECTOR ( 'NONE', #99, 1000.000000000000000 ) ;
#259 = DIRECTION ( 'NONE',  ( -0.000000000000000000, 1.000000000000000000, -0.000000000000000000 ) ) ;
#260 = CIRCLE ( 'NONE', #96, 1.449999999999999956 ) ;
#261 = EDGE_LOOP ( 'NONE', ( #813, #229, #549, #531 ) ) ;
#262 = DIRECTION ( 'NONE',  ( 1.000000000000000000, 0.000000000000000000, 0.000000000000000000 ) ) ;
#263 = ORIENTED_EDGE ( 'NONE', *, *, #1041, .T. ) ;
#264 = ORIENTED_EDGE ( 'NONE', *, *, #449, .F. ) ;
#265 = ORIENTED_EDGE ( 'NONE', *, *, #723, .T. ) ;
#266 = CARTESIAN_POINT ( 'NONE',  ( 3.174999999999999822, 1.350000000000000533, 0.6800000000000002709 ) ) ;
#267 = ADVANCED_FACE ( 'NONE', ( #4 ), #1074, .T. ) ;
#268 = DIRECTION ( 'NONE',  ( 0.000000000000000000, 1.000000000000000000, 0.000000000000000000 ) ) ;
#269 = EDGE_LOOP ( 'NONE', ( #185, #369, #554, #726 ) ) ;
#270 = CARTESIAN_POINT ( 'NONE',  ( -3.175000000000000711, 3.649999999999999911, 4.599999999999999645 ) ) ;
#271 = PLANE ( 'NONE',  #767 ) ;
#272 = EDGE_CURVE ( 'NONE', #680, #987, #546, .T. ) ;
#273 = ORIENTED_EDGE ( 'NONE', *, *, #897, .T. ) ;
#274 = STYLED_ITEM ( 'NONE', ( #1009 ), #699 ) ;
#275 = DIRECTION ( 'NONE',  ( 1.000000000000000000, 0.000000000000000000, 0.000000000000000000 ) ) ;
#276 = STYLED_ITEM ( 'NONE', ( #232 ), #231 ) ;
#277 = PRESENTATION_STYLE_ASSIGNMENT (( #729 ) ) ;
#278 = LINE ( 'NONE', #1052, #630 ) ;
#279 = ORIENTED_EDGE ( 'NONE', *, *, #159, .T. ) ;
#280 = ADVANCED_FACE ( 'NONE', ( #643 ), #911, .F. ) ;
#281 = PLANE ( 'NONE',  #838 ) ;
#282 = DIRECTION ( 'NONE',  ( 0.000000000000000000, 0.000000000000000000, -1.000000000000000000 ) ) ;
#283 =( NAMED_UNIT ( * ) SI_UNIT ( $, .STERADIAN. ) SOLID_ANGLE_UNIT ( ) );
#284 = CARTESIAN_POINT ( 'NONE',  ( -4.125000000000000000, 2.800000000000000266, 2.299999999999999822 ) ) ;
#285 = VERTEX_POINT ( 'NONE', #924 ) ;
#286 = ADVANCED_FACE ( 'NONE', ( #764 ), #22, .T. ) ;
#287 = CARTESIAN_POINT ( 'NONE',  ( -3.174999999999999822, -3.649999999999999467, 4.599999999999999645 ) ) ;
#288 = PLANE ( 'NONE',  #747 ) ;
#289 = VECTOR ( 'NONE', #770, 1000.000000000000000 ) ;
#290 =( GEOMETRIC_REPRESENTATION_CONTEXT ( 3 ) GLOBAL_UNCERTAINTY_ASSIGNED_CONTEXT ( ( #974 ) ) GLOBAL_UNIT_ASSIGNED_CONTEXT ( ( #141, #222, #590 ) ) REPRESENTATION_CONTEXT ( 'NONE', 'WORKASPACE' ) );
#291 = ORIENTED_EDGE ( 'NONE', *, *, #634, .T. ) ;
#292 = CIRCLE ( 'NONE', #1105, 1.449999999999999956 ) ;
#293 = VECTOR ( 'NONE', #477, 1000.000000000000000 ) ;
#294 =( LENGTH_UNIT ( ) NAMED_UNIT ( * ) SI_UNIT ( .MILLI., .METRE. ) );
#295 = DIRECTION ( 'NONE',  ( 1.000000000000000000, -0.000000000000000000, 4.565061778886335400E-17 ) ) ;
#296 = CARTESIAN_POINT ( 'NONE',  ( 3.174999999999999822, 1.350000000000000533, 0.6800000000000002709 ) ) ;
#297 = EDGE_LOOP ( 'NONE', ( #799, #95, #254, #1069 ) ) ;
#298 = SURFACE_SIDE_STYLE ('',( #469 ) ) ;
#299 = EDGE_CURVE ( 'NONE', #619, #698, #1072, .T. ) ;
#300 = CARTESIAN_POINT ( 'NONE',  ( 3.174999999999999378, -3.649999999999999467, 3.219999999999999307 ) ) ;
#301 = CARTESIAN_POINT ( 'NONE',  ( 3.174999999999999822, 1.350000000000000533, 3.919999999999999041 ) ) ;
#302 = VERTEX_POINT ( 'NONE', #675 ) ;
#303 = SURFACE_STYLE_USAGE ( .BOTH. , #39 ) ;
#304 = LINE ( 'NONE', #1016, #961 ) ;
#305 = EDGE_CURVE ( 'NONE', #833, #1060, #1027, .T. ) ;
#306 = SURFACE_STYLE_FILL_AREA ( #392 ) ;
#307 = ORIENTED_EDGE ( 'NONE', *, *, #802, .F. ) ;
#308 = AXIS2_PLACEMENT_3D ( 'NONE', #991, #205, #268 ) ;
#309 = STYLED_ITEM ( 'NONE', ( #51 ), #280 ) ;
#310 = AXIS2_PLACEMENT_3D ( 'NONE', #210, #734, #750 ) ;
#311 = LINE ( 'NONE', #228, #368 ) ;
#312 = CIRCLE ( 'NONE', #241, 1.449999999999999956 ) ;
#313 = PRESENTATION_LAYER_ASSIGNMENT (  '', '', ( #276 ) ) ;
#314 = CARTESIAN_POINT ( 'NONE',  ( 3.174999999999999822, -3.649999999999999467, 0.6800000000000002709 ) ) ;
#315 = DIRECTION ( 'NONE',  ( 1.000000000000000000, 0.000000000000000000, 0.000000000000000000 ) ) ;
#316 = SURFACE_STYLE_USAGE ( .BOTH. , #1097 ) ;
#317 = ORIENTED_EDGE ( 'NONE', *, *, #940, .F. ) ;
#318 = EDGE_LOOP ( 'NONE', ( #158, #632, #48, #593 ) ) ;
#319 = SPHERICAL_SURFACE ( 'NONE', #1017, 1.449999999999999956 ) ;
#320 =( NAMED_UNIT ( * ) SI_UNIT ( $, .STERADIAN. ) SOLID_ANGLE_UNIT ( ) );
#321 = CYLINDRICAL_SURFACE ( 'NONE', #1103, 0.5000000000000000000 ) ;
#322 = EDGE_CURVE ( 'NONE', #698, #619, #1051, .T. ) ;
#323 = DIRECTION ( 'NONE',  ( -0.000000000000000000, 0.000000000000000000, 1.000000000000000000 ) ) ;
#324 = ORIENTED_EDGE ( 'NONE', *, *, #634, .F. ) ;
#325 =( NAMED_UNIT ( * ) PLANE_ANGLE_UNIT ( ) SI_UNIT ( $, .RADIAN. ) );
#326 = AXIS2_PLACEMENT_3D ( 'NONE', #287, #481, #206 ) ;
#327 = COLOUR_RGB ( '',0.2862745098039215508, 0.6627450980392156632, 0.3294117647058823484 ) ;
#328 = CIRCLE ( 'NONE', #1001, 0.5000000000000000000 ) ;
#329 = MECHANICAL_DESIGN_GEOMETRIC_PRESENTATION_REPRESENTATION (  '', ( #842 ), #75 ) ;
#330 = PRODUCT_DEFINITION_FORMATION_WITH_SPECIFIED_SOURCE ( 'ANY', '', #731, .NOT_KNOWN. ) ;
#331 = SURFACE_STYLE_FILL_AREA ( #1118 ) ;
#332 = LINE ( 'NONE', #1113, #597 ) ;
#333 = ORIENTED_EDGE ( 'NONE', *, *, #175, .F. ) ;
#334 = PLANE ( 'NONE',  #721 ) ;
#335 = DIRECTION ( 'NONE',  ( -1.000000000000000000, 0.000000000000000000, 0.000000000000000000 ) ) ;
#336 = DIRECTION ( 'NONE',  ( 0.000000000000000000, 1.000000000000000000, 0.000000000000000000 ) ) ;
#337 =( NAMED_UNIT ( * ) SI_UNIT ( $, .STERADIAN. ) SOLID_ANGLE_UNIT ( ) );
#338 = EDGE_CURVE ( 'NONE', #619, #1005, #703, .T. ) ;
#339 = EDGE_LOOP ( 'NONE', ( #438, #616, #224, #1019 ) ) ;
#340 = PRESENTATION_STYLE_ASSIGNMENT (( #790 ) ) ;
#341 =( NAMED_UNIT ( * ) PLANE_ANGLE_UNIT ( ) SI_UNIT ( $, .RADIAN. ) );
#342 = UNCERTAINTY_MEASURE_WITH_UNIT (LENGTH_MEASURE( 1.000000000000000082E-05 ), #491, 'distance_accuracy_value', 'NONE');
#343 = VERTEX_POINT ( 'NONE', #785 ) ;
#344 =( NAMED_UNIT ( * ) SI_UNIT ( $, .STERADIAN. ) SOLID_ANGLE_UNIT ( ) );
#345 = EDGE_LOOP ( 'NONE', ( #508, #209, #93, #934 ) ) ;
#346 = DIRECTION ( 'NONE',  ( -0.000000000000000000, -1.000000000000000000, -0.000000000000000000 ) ) ;
#347 = COLOUR_RGB ( '',0.2862745098039215508, 0.6627450980392156632, 0.3294117647058823484 ) ;
#348 = MECHANICAL_DESIGN_GEOMETRIC_PRESENTATION_REPRESENTATION (  '', ( #444 ), #743 ) ;
#349 = ORIENTED_EDGE ( 'NONE', *, *, #204, .F. ) ;
#350 = PRESENTATION_STYLE_ASSIGNMENT (( #1059 ) ) ;
#351 = EDGE_CURVE ( 'NONE', #979, #666, #506, .T. ) ;
#352 = LINE ( 'NONE', #266, #427 ) ;
#353 = DIRECTION ( 'NONE',  ( -1.000000000000000000, -1.188166764367676342E-16, 0.000000000000000000 ) ) ;
#354 = VERTEX_POINT ( 'NONE', #156 ) ;
#355 = LINE ( 'NONE', #457, #568 ) ;
#356 = DIRECTION ( 'NONE',  ( -1.000000000000000000, 0.000000000000000000, -0.000000000000000000 ) ) ;
#357 = ADVANCED_FACE ( 'NONE', ( #77 ), #951, .F. ) ;
#358 = CARTESIAN_POINT ( 'NONE',  ( 1.000000000000000444, -7.150000000000000355, 0.8300000000000004041 ) ) ;
#359 = EDGE_LOOP ( 'NONE', ( #1145, #533, #645 ) ) ;
#360 = LINE ( 'NONE', #555, #769 ) ;
#361 = DIRECTION ( 'NONE',  ( 4.565061778886335400E-17, 0.000000000000000000, -1.000000000000000000 ) ) ;
#362 = VECTOR ( 'NONE', #346, 1000.000000000000000 ) ;
#363 =( NAMED_UNIT ( * ) PLANE_ANGLE_UNIT ( ) SI_UNIT ( $, .RADIAN. ) );
#364 = STYLED_ITEM ( 'NONE', ( #771 ), #286 ) ;
#365 = LINE ( 'NONE', #300, #1031 ) ;
#366 = STYLED_ITEM ( 'NONE', ( #923 ), #740 ) ;
#367 = CARTESIAN_POINT ( 'NONE',  ( 3.174999999999999822, 1.350000000000000533, 1.380000000000000782 ) ) ;
#368 = VECTOR ( 'NONE', #145, 1000.000000000000000 ) ;
#369 = ORIENTED_EDGE ( 'NONE', *, *, #603, .F. ) ;
#370 = FACE_OUTER_BOUND ( 'NONE', #514, .T. ) ;
#371 = LINE ( 'NONE', #296, #188 ) ;
#372 = EDGE_CURVE ( 'NONE', #539, #126, #475, .T. ) ;
#373 = ORIENTED_EDGE ( 'NONE', *, *, #970, .F. ) ;
#374 =( LENGTH_UNIT ( ) NAMED_UNIT ( * ) SI_UNIT ( .MILLI., .METRE. ) );
#375 = LINE ( 'NONE', #629, #893 ) ;
#376 = FACE_OUTER_BOUND ( 'NONE', #732, .T. ) ;
#377 = CARTESIAN_POINT ( 'NONE',  ( 3.174999999999999822, 1.350000000000000533, 1.380000000000000782 ) ) ;
#378 = CARTESIAN_POINT ( 'NONE',  ( 1.000000000000000222, -7.150000000000000355, 3.370000000000000107 ) ) ;
#379 = ORIENTED_EDGE ( 'NONE', *, *, #426, .T. ) ;
#380 = DIRECTION ( 'NONE',  ( 0.000000000000000000, -0.000000000000000000, -1.000000000000000000 ) ) ;
#381 =( GEOMETRIC_REPRESENTATION_CONTEXT ( 3 ) GLOBAL_UNCERTAINTY_ASSIGNED_CONTEXT ( ( #1055 ) ) GLOBAL_UNIT_ASSIGNED_CONTEXT ( ( #1083, #722, #636 ) ) REPRESENTATION_CONTEXT ( 'NONE', 'WORKASPACE' ) );
#382 = CARTESIAN_POINT ( 'NONE',  ( 3.174999999999999822, -3.649999999999999467, 0.6800000000000002709 ) ) ;
#383 = DIRECTION ( 'NONE',  ( -0.000000000000000000, -0.000000000000000000, -1.000000000000000000 ) ) ;
#384 = VECTOR ( 'NONE', #822, 1000.000000000000000 ) ;
#385 =( GEOMETRIC_REPRESENTATION_CONTEXT ( 3 ) GLOBAL_UNCERTAINTY_ASSIGNED_CONTEXT ( ( #542 ) ) GLOBAL_UNIT_ASSIGNED_CONTEXT ( ( #79, #341, #1047 ) ) REPRESENTATION_CONTEXT ( 'NONE', 'WORKASPACE' ) );
#386 = ORIENTED_EDGE ( 'NONE', *, *, #691, .T. ) ;
#387 = STYLED_ITEM ( 'NONE', ( #142 ), #486 ) ;
#388 = AXIS2_PLACEMENT_3D ( 'NONE', #413, #323, #315 ) ;
#389 = EDGE_CURVE ( 'NONE', #153, #889, #395, .T. ) ;
#390 = LINE ( 'NONE', #377, #1048 ) ;
#391 = DIRECTION ( 'NONE',  ( 1.455084624836142179E-32, -1.224646799147353207E-16, 1.000000000000000000 ) ) ;
#392 = FILL_AREA_STYLE ('',( #859 ) ) ;
#393 = DIRECTION ( 'NONE',  ( 0.000000000000000000, -1.000000000000000000, 0.000000000000000000 ) ) ;
#394 = ORIENTED_EDGE ( 'NONE', *, *, #1026, .F. ) ;
#395 = LINE ( 'NONE', #671, #1138 ) ;
#396 = ADVANCED_FACE ( 'NONE', ( #694 ), #611, .F. ) ;
#397 = DIRECTION ( 'NONE',  ( -1.000000000000000000, 0.000000000000000000, 1.548860246407863336E-16 ) ) ;
#398 = DIRECTION ( 'NONE',  ( -1.000000000000000000, -0.000000000000000000, -0.000000000000000000 ) ) ;
#399 = ORIENTED_EDGE ( 'NONE', *, *, #195, .T. ) ;
#400 = DIRECTION ( 'NONE',  ( -0.000000000000000000, 0.000000000000000000, 1.000000000000000000 ) ) ;
#401 = SURFACE_STYLE_FILL_AREA ( #1034 ) ;
#402 = EDGE_CURVE ( 'NONE', #876, #966, #535, .T. ) ;
#403 = ORIENTED_EDGE ( 'NONE', *, *, #685, .T. ) ;
#404 = STYLED_ITEM ( 'NONE', ( #631 ), #255 ) ;
#405 = MECHANICAL_DESIGN_GEOMETRIC_PRESENTATION_REPRESENTATION (  '', ( #364 ), #765 ) ;
#406 = AXIS2_PLACEMENT_3D ( 'NONE', #954, #789, #253 ) ;
#407 = CIRCLE ( 'NONE', #823, 1.449999999999999956 ) ;
#408 = UNCERTAINTY_MEASURE_WITH_UNIT (LENGTH_MEASURE( 1.000000000000000082E-05 ), #423, 'distance_accuracy_value', 'NONE');
#409 = LINE ( 'NONE', #753, #30 ) ;
#410 = LINE ( 'NONE', #705, #665 ) ;
#411 = ORIENTED_EDGE ( 'NONE', *, *, #609, .F. ) ;
#412 = EDGE_CURVE ( 'NONE', #1005, #1120, #1014, .T. ) ;
#413 = CARTESIAN_POINT ( 'NONE',  ( 0.000000000000000000, 0.000000000000000000, 0.000000000000000000 ) ) ;
#414 = CARTESIAN_POINT ( 'NONE',  ( 1.000000000000000444, -7.150000000000000355, 1.230000000000000648 ) ) ;
#415 =( NAMED_UNIT ( * ) PLANE_ANGLE_UNIT ( ) SI_UNIT ( $, .RADIAN. ) );
#416 = EDGE_LOOP ( 'NONE', ( #192, #14 ) ) ;
#417 = CARTESIAN_POINT ( 'NONE',  ( -3.174999999999999822, -3.649999999999999467, 0.000000000000000000 ) ) ;
#418 = DIRECTION ( 'NONE',  ( -0.000000000000000000, -1.000000000000000000, -0.000000000000000000 ) ) ;
#419 = CARTESIAN_POINT ( 'NONE',  ( -5.575000000000000178, -0.09999999999999961697, 2.299999999999999822 ) ) ;
#420 = ORIENTED_EDGE ( 'NONE', *, *, #815, .F. ) ;
#421 = PRESENTATION_STYLE_ASSIGNMENT (( #70 ) ) ;
#422 = VECTOR ( 'NONE', #795, 1000.000000000000000 ) ;
#423 =( LENGTH_UNIT ( ) NAMED_UNIT ( * ) SI_UNIT ( .MILLI., .METRE. ) );
#424 =( GEOMETRIC_REPRESENTATION_CONTEXT ( 3 ) GLOBAL_UNCERTAINTY_ASSIGNED_CONTEXT ( ( #1066 ) ) GLOBAL_UNIT_ASSIGNED_CONTEXT ( ( #60, #415, #941 ) ) REPRESENTATION_CONTEXT ( 'NONE', 'WORKASPACE' ) );
#425 = MECHANICAL_DESIGN_GEOMETRIC_PRESENTATION_REPRESENTATION (  '', ( #274 ), #73 ) ;
#426 = EDGE_CURVE ( 'NONE', #889, #625, #606, .T. ) ;
#427 = VECTOR ( 'NONE', #975, 1000.000000000000000 ) ;
#428 = SURFACE_STYLE_FILL_AREA ( #432 ) ;
#429 = ORIENTED_EDGE ( 'NONE', *, *, #617, .T. ) ;
#430 =( NAMED_UNIT ( * ) SI_UNIT ( $, .STERADIAN. ) SOLID_ANGLE_UNIT ( ) );
#431 = ADVANCED_FACE ( 'NONE', ( #161 ), #518, .F. ) ;
#432 = FILL_AREA_STYLE ('',( #873 ) ) ;
#433 = ORIENTED_EDGE ( 'NONE', *, *, #603, .T. ) ;
#434 = LINE ( 'NONE', #972, #11 ) ;
#435 = SURFACE_SIDE_STYLE ('',( #522 ) ) ;
#436 = LINE ( 'NONE', #701, #362 ) ;
#437 = DIRECTION ( 'NONE',  ( 0.000000000000000000, 0.000000000000000000, -1.000000000000000000 ) ) ;
#438 = ORIENTED_EDGE ( 'NONE', *, *, #204, .T. ) ;
#439 = LINE ( 'NONE', #717, #203 ) ;
#440 = EDGE_CURVE ( 'NONE', #666, #539, #375, .T. ) ;
#441 = ORIENTED_EDGE ( 'NONE', *, *, #272, .F. ) ;
#442 = CARTESIAN_POINT ( 'NONE',  ( 3.174999999999999822, 1.350000000000000533, 0.6800000000000002709 ) ) ;
#443 = VECTOR ( 'NONE', #80, 1000.000000000000000 ) ;
#444 = STYLED_ITEM ( 'NONE', ( #340 ), #357 ) ;
#445 = DIRECTION ( 'NONE',  ( 1.000000000000000000, 1.188166764367676342E-16, -0.000000000000000000 ) ) ;
#446 = LINE ( 'NONE', #978, #258 ) ;
#447 = ORIENTED_EDGE ( 'NONE', *, *, #851, .T. ) ;
#448 = DIRECTION ( 'NONE',  ( -1.548860246407863336E-16, 0.000000000000000000, -1.000000000000000000 ) ) ;
#449 = EDGE_CURVE ( 'NONE', #1060, #995, #558, .T. ) ;
#450 = FILL_AREA_STYLE_COLOUR ( '', #347 ) ;
#451 = ORIENTED_EDGE ( 'NONE', *, *, #1131, .T. ) ;
#452 = ORIENTED_EDGE ( 'NONE', *, *, #617, .F. ) ;
#453 = DIRECTION ( 'NONE',  ( 1.000000000000000000, 0.000000000000000000, 0.000000000000000000 ) ) ;
#454 = FACE_OUTER_BOUND ( 'NONE', #56, .T. ) ;
#455 = SURFACE_SIDE_STYLE ('',( #16 ) ) ;
#456 = CARTESIAN_POINT ( 'NONE',  ( 1.450000000000000622, 1.350000000000000533, 0.8300000000000004041 ) ) ;
#457 = CARTESIAN_POINT ( 'NONE',  ( 1.450000000000000622, 1.350000000000000533, 0.8300000000000004041 ) ) ;
#458 = SURFACE_STYLE_FILL_AREA ( #480 ) ;
#459 =( NAMED_UNIT ( * ) SI_UNIT ( $, .STERADIAN. ) SOLID_ANGLE_UNIT ( ) );
#460 = EDGE_CURVE ( 'NONE', #663, #761, #986, .T. ) ;
#461 = DIRECTION ( 'NONE',  ( -0.000000000000000000, -0.000000000000000000, -1.000000000000000000 ) ) ;
#462 = CARTESIAN_POINT ( 'NONE',  ( -5.575000000000000178, 1.350000000000000311, 2.299999999999999822 ) ) ;
#463 = VECTOR ( 'NONE', #58, 1000.000000000000000 ) ;
#464 = ORIENTED_EDGE ( 'NONE', *, *, #851, .F. ) ;
#465 = AXIS2_PLACEMENT_3D ( 'NONE', #216, #708, #103 ) ;
#466 = CARTESIAN_POINT ( 'NONE',  ( -5.575000000000000178, 2.800000000000000266, 2.299999999999999822 ) ) ;
#467 = MECHANICAL_DESIGN_GEOMETRIC_PRESENTATION_REPRESENTATION (  '', ( #615 ), #863 ) ;
#468 = ORIENTED_EDGE ( 'NONE', *, *, #667, .T. ) ;
#469 = SURFACE_STYLE_FILL_AREA ( #711 ) ;
#470 = DIRECTION ( 'NONE',  ( 0.000000000000000000, 0.000000000000000000, -1.000000000000000000 ) ) ;
#471 = DIRECTION ( 'NONE',  ( -1.000000000000000000, 0.000000000000000000, -1.826024711554534160E-16 ) ) ;
#472 = DIRECTION ( 'NONE',  ( 1.000000000000000000, 0.000000000000000000, -0.000000000000000000 ) ) ;
#473 = PRODUCT_DEFINITION ( 'UNKNOWN', '', #330, #576 ) ;
#474 = ORIENTED_EDGE ( 'NONE', *, *, #679, .F. ) ;
#475 = LINE ( 'NONE', #751, #877 ) ;
#476 = DIRECTION ( 'NONE',  ( -1.000000000000000000, -1.188166764367676342E-16, 0.000000000000000000 ) ) ;
#477 = DIRECTION ( 'NONE',  ( -0.000000000000000000, 1.000000000000000000, -0.000000000000000000 ) ) ;
#478 = ORIENTED_EDGE ( 'NONE', *, *, #766, .F. ) ;
#479 = ADVANCED_FACE ( 'NONE', ( #15, #454 ), #281, .F. ) ;
#480 = FILL_AREA_STYLE ('',( #659 ) ) ;
#481 = DIRECTION ( 'NONE',  ( 0.000000000000000000, 1.000000000000000000, 0.000000000000000000 ) ) ;
#482 = LINE ( 'NONE', #489, #910 ) ;
#483 = STYLED_ITEM ( 'NONE', ( #948 ), #485 ) ;
#484 = ORIENTED_EDGE ( 'NONE', *, *, #492, .T. ) ;
#485 = ADVANCED_FACE ( 'NONE', ( #592 ), #756, .T. ) ;
#486 = MANIFOLD_SOLID_BREP ( 'Cut-Extrude2', #837 ) ;
#487 = FILL_AREA_STYLE_COLOUR ( '', #681 ) ;
#488 = CARTESIAN_POINT ( 'NONE',  ( 1.000000000000000222, -7.150000000000000355, 3.770000000000000462 ) ) ;
#489 = CARTESIAN_POINT ( 'NONE',  ( 3.174999999999998934, 3.649999999999999911, 4.599999999999999645 ) ) ;
#490 = VERTEX_POINT ( 'NONE', #695 ) ;
#491 =( LENGTH_UNIT ( ) NAMED_UNIT ( * ) SI_UNIT ( .MILLI., .METRE. ) );
#492 = EDGE_CURVE ( 'NONE', #1058, #1050, #760, .T. ) ;
#493 = DIRECTION ( 'NONE',  ( -1.000000000000000000, 0.000000000000000000, -0.000000000000000000 ) ) ;
#494 = CARTESIAN_POINT ( 'NONE',  ( 1.450000000000000178, -7.150000000000000355, 3.770000000000000462 ) ) ;
#495 =( NAMED_UNIT ( * ) PLANE_ANGLE_UNIT ( ) SI_UNIT ( $, .RADIAN. ) );
#496 =( LENGTH_UNIT ( ) NAMED_UNIT ( * ) SI_UNIT ( .MILLI., .METRE. ) );
#497 = ORIENTED_EDGE ( 'NONE', *, *, #524, .T. ) ;
#498 = EDGE_CURVE ( 'NONE', #126, #20, #670, .T. ) ;
#499 = FACE_OUTER_BOUND ( 'NONE', #61, .T. ) ;
#500 = LINE ( 'NONE', #223, #544 ) ;
#501 = ORIENTED_EDGE ( 'NONE', *, *, #322, .F. ) ;
#502 = AXIS2_PLACEMENT_3D ( 'NONE', #710, #551, #453 ) ;
#503 = VECTOR ( 'NONE', #674, 1000.000000000000000 ) ;
#504 = CARTESIAN_POINT ( 'NONE',  ( 3.174999999999998934, 3.649999999999999911, 4.599999999999999645 ) ) ;
#505 = AXIS2_PLACEMENT_3D ( 'NONE', #883, #1130, #1070 ) ;
#506 = LINE ( 'NONE', #602, #563 ) ;
#507 = LINE ( 'NONE', #1039, #963 ) ;
#508 = ORIENTED_EDGE ( 'NONE', *, *, #1108, .T. ) ;
#509 = FACE_OUTER_BOUND ( 'NONE', #194, .T. ) ;
#510 = DIRECTION ( 'NONE',  ( -1.000000000000000000, -1.188166764367676342E-16, 0.000000000000000000 ) ) ;
#511 = DIRECTION ( 'NONE',  ( 1.000000000000000000, 0.000000000000000000, -9.130123557772670799E-17 ) ) ;
#512 = PRODUCT_CONTEXT ( 'NONE', #65, 'mechanical' ) ;
#513 = DIRECTION ( 'NONE',  ( 0.000000000000000000, -1.000000000000000000, 0.000000000000000000 ) ) ;
#514 = EDGE_LOOP ( 'NONE', ( #673, #178, #130, #264, #1124, #690, #433, #862, #573, #713, #441, #478 ) ) ;
#515 = PRESENTATION_STYLE_ASSIGNMENT (( #683 ) ) ;
#516 = ADVANCED_FACE ( 'NONE', ( #855 ), #588, .F. ) ;
#517 = FILL_AREA_STYLE_COLOUR ( '', #700 ) ;
#518 = PLANE ( 'NONE',  #1032 ) ;
#519 = APPLICATION_PROTOCOL_DEFINITION ( 'draft international standard', 'automotive_design', 1998, #207 ) ;
#520 = ORIENTED_EDGE ( 'NONE', *, *, #845, .T. ) ;
#521 = VECTOR ( 'NONE', #282, 1000.000000000000000 ) ;
#522 = SURFACE_STYLE_FILL_AREA ( #1126 ) ;
#523 = VECTOR ( 'NONE', #952, 1000.000000000000000 ) ;
#524 = EDGE_CURVE ( 'NONE', #833, #983, #962, .T. ) ;
#525 = PRESENTATION_LAYER_ASSIGNMENT (  '', '', ( #366 ) ) ;
#526 = COLOUR_RGB ( '',0.6666666666666666297, 0.6980392156862744724, 0.7686274509803920907 ) ;
#527 = AXIS2_PLACEMENT_3D ( 'NONE', #151, #162, #852 ) ;
#528 = DIRECTION ( 'NONE',  ( 1.000000000000000000, 0.000000000000000000, 0.000000000000000000 ) ) ;
#529 = CARTESIAN_POINT ( 'NONE',  ( 3.174999999999999378, 1.350000000000000533, 3.219999999999999307 ) ) ;
#530 = CARTESIAN_POINT ( 'NONE',  ( 1.450000000000000178, -7.150000000000000355, 3.370000000000000107 ) ) ;
#531 = ORIENTED_EDGE ( 'NONE', *, *, #654, .T. ) ;
#532 = CARTESIAN_POINT ( 'NONE',  ( 3.174999999999999822, 1.350000000000000533, 3.919999999999999041 ) ) ;
#533 = ORIENTED_EDGE ( 'NONE', *, *, #970, .T. ) ;
#534 = EDGE_CURVE ( 'NONE', #1024, #1114, #82, .T. ) ;
#535 = LINE ( 'NONE', #956, #237 ) ;
#536 = ORIENTED_EDGE ( 'NONE', *, *, #498, .T. ) ;
#537 = ORIENTED_EDGE ( 'NONE', *, *, #860, .F. ) ;
#538 = ADVANCED_FACE ( 'NONE', ( #509 ), #992, .F. ) ;
#539 = VERTEX_POINT ( 'NONE', #657 ) ;
#540 = FILL_AREA_STYLE ('',( #902 ) ) ;
#541 = MECHANICAL_DESIGN_GEOMETRIC_PRESENTATION_REPRESENTATION (  '', ( #131 ), #801 ) ;
#542 = UNCERTAINTY_MEASURE_WITH_UNIT (LENGTH_MEASURE( 1.000000000000000082E-05 ), #79, 'distance_accuracy_value', 'NONE');
#543 = VECTOR ( 'NONE', #461, 1000.000000000000000 ) ;
#544 = VECTOR ( 'NONE', #55, 1000.000000000000000 ) ;
#545 = CIRCLE ( 'NONE', #465, 1.449999999999999956 ) ;
#546 = LINE ( 'NONE', #895, #521 ) ;
#547 = ORIENTED_EDGE ( 'NONE', *, *, #866, .F. ) ;
#548 = SURFACE_SIDE_STYLE ('',( #107 ) ) ;
#549 = ORIENTED_EDGE ( 'NONE', *, *, #492, .F. ) ;
#550 = DIRECTION ( 'NONE',  ( -1.000000000000000000, 0.000000000000000000, -4.565061778886335400E-17 ) ) ;
#551 = DIRECTION ( 'NONE',  ( -0.000000000000000000, 0.000000000000000000, 1.000000000000000000 ) ) ;
#552 = LINE ( 'NONE', #191, #668 ) ;
#553 = CYLINDRICAL_SURFACE ( 'NONE', #1087, 1.450000000000000178 ) ;
#554 = ORIENTED_EDGE ( 'NONE', *, *, #426, .F. ) ;
#555 = CARTESIAN_POINT ( 'NONE',  ( 1.000000000000000222, -7.150000000000000355, 3.370000000000000107 ) ) ;
#556 = ORIENTED_EDGE ( 'NONE', *, *, #440, .T. ) ;
#557 = ADVANCED_FACE ( 'NONE', ( #109 ), #271, .F. ) ;
#558 = LINE ( 'NONE', #976, #384 ) ;
#559 = LINE ( 'NONE', #1090, #958 ) ;
#560 = CARTESIAN_POINT ( 'NONE',  ( -4.125000000000000000, 1.350000000000000533, 2.299999999999999822 ) ) ;
#561 = ORIENTED_EDGE ( 'NONE', *, *, #832, .T. ) ;
#562 = PRESENTATION_LAYER_ASSIGNMENT (  '', '', ( #404 ) ) ;
#563 = VECTOR ( 'NONE', #864, 1000.000000000000000 ) ;
#564 = UNCERTAINTY_MEASURE_WITH_UNIT (LENGTH_MEASURE( 1.000000000000000082E-05 ), #607, 'distance_accuracy_value', 'NONE');
#565 = DIRECTION ( 'NONE',  ( -1.000000000000000000, 0.000000000000000000, 0.000000000000000000 ) ) ;
#566 = COLOUR_RGB ( '',0.6666666666666666297, 0.6980392156862744724, 0.7686274509803920907 ) ;
#567 = CARTESIAN_POINT ( 'NONE',  ( 1.450000000000000622, -7.150000000000000355, 1.230000000000000648 ) ) ;
#568 = VECTOR ( 'NONE', #714, 1000.000000000000000 ) ;
#569 = ORIENTED_EDGE ( 'NONE', *, *, #534, .F. ) ;
#570 = CARTESIAN_POINT ( 'NONE',  ( 3.174999999999999822, 1.350000000000000533, 3.919999999999999041 ) ) ;
#571 = PLANE ( 'NONE',  #719 ) ;
#572 = FACE_BOUND ( 'NONE', #749, .T. ) ;
#573 = ORIENTED_EDGE ( 'NONE', *, *, #460, .F. ) ;
#574 = FACE_OUTER_BOUND ( 'NONE', #359, .T. ) ;
#575 = FACE_OUTER_BOUND ( 'NONE', #146, .T. ) ;
#576 = PRODUCT_DEFINITION_CONTEXT ( 'detailed design', #207, 'design' ) ;
#577 = FACE_OUTER_BOUND ( 'NONE', #269, .T. ) ;
#578 = EDGE_CURVE ( 'NONE', #1120, #1005, #328, .T. ) ;
#579 = EDGE_LOOP ( 'NONE', ( #102, #596, #9, #181 ) ) ;
#580 = SURFACE_STYLE_USAGE ( .BOTH. , #10 ) ;
#581 = SURFACE_STYLE_FILL_AREA ( #45 ) ;
#582 = AXIS2_PLACEMENT_3D ( 'NONE', #693, #1043, #946 ) ;
#583 = DIRECTION ( 'NONE',  ( -1.000000000000000000, -0.000000000000000000, -0.000000000000000000 ) ) ;
#584 = CARTESIAN_POINT ( 'NONE',  ( -3.175000000000000711, 3.649999999999999911, 4.599999999999999645 ) ) ;
#585 = AXIS2_PLACEMENT_3D ( 'NONE', #169, #353, #245 ) ;
#586 = ORIENTED_EDGE ( 'NONE', *, *, #1108, .F. ) ;
#587 = AXIS2_PLACEMENT_3D ( 'NONE', #662, #397, #759 ) ;
#588 = PLANE ( 'NONE',  #406 ) ;
#589 = DIRECTION ( 'NONE',  ( 0.000000000000000000, 0.000000000000000000, -1.000000000000000000 ) ) ;
#590 =( NAMED_UNIT ( * ) SI_UNIT ( $, .STERADIAN. ) SOLID_ANGLE_UNIT ( ) );
#591 = DIRECTION ( 'NONE',  ( -0.000000000000000000, -1.000000000000000000, -0.000000000000000000 ) ) ;
#592 = FACE_OUTER_BOUND ( 'NONE', #213, .T. ) ;
#593 = ORIENTED_EDGE ( 'NONE', *, *, #1131, .F. ) ;
#594 = EDGE_CURVE ( 'NONE', #1008, #949, #545, .T. ) ;
#595 = VERTEX_POINT ( 'NONE', #1061 ) ;
#596 = ORIENTED_EDGE ( 'NONE', *, *, #1094, .T. ) ;
#597 = VECTOR ( 'NONE', #528, 1000.000000000000000 ) ;
#598 =( NAMED_UNIT ( * ) SI_UNIT ( $, .STERADIAN. ) SOLID_ANGLE_UNIT ( ) );
#599 = AXIS2_PLACEMENT_3D ( 'NONE', #135, #857, #1109 ) ;
#600 = VECTOR ( 'NONE', #1049, 1000.000000000000000 ) ;
#601 = VECTOR ( 'NONE', #1076, 1000.000000000000000 ) ;
#602 = CARTESIAN_POINT ( 'NONE',  ( 1.000000000000000444, -7.150000000000000355, 1.230000000000000648 ) ) ;
#603 = EDGE_CURVE ( 'NONE', #625, #687, #973, .T. ) ;
#604 = ORIENTED_EDGE ( 'NONE', *, *, #351, .T. ) ;
#605 = SURFACE_STYLE_FILL_AREA ( #243 ) ;
#606 = LINE ( 'NONE', #712, #523 ) ;
#607 =( LENGTH_UNIT ( ) NAMED_UNIT ( * ) SI_UNIT ( .MILLI., .METRE. ) );
#608 = ORIENTED_EDGE ( 'NONE', *, *, #802, .T. ) ;
#609 = EDGE_CURVE ( 'NONE', #718, #658, #500, .T. ) ;
#610 = SURFACE_SIDE_STYLE ('',( #250 ) ) ;
#611 = PLANE ( 'NONE',  #648 ) ;
#612 = ORIENTED_EDGE ( 'NONE', *, *, #832, .F. ) ;
#613 = ORIENTED_EDGE ( 'NONE', *, *, #778, .T. ) ;
#614 = EDGE_CURVE ( 'NONE', #889, #247, #410, .T. ) ;
#615 = STYLED_ITEM ( 'NONE', ( #350 ), #955 ) ;
#616 = ORIENTED_EDGE ( 'NONE', *, *, #860, .T. ) ;
#617 = EDGE_CURVE ( 'NONE', #174, #680, #446, .T. ) ;
#618 = DIRECTION ( 'NONE',  ( -0.000000000000000000, -0.000000000000000000, -1.000000000000000000 ) ) ;
#619 = VERTEX_POINT ( 'NONE', #184 ) ;
#620 = LINE ( 'NONE', #800, #601 ) ;
#621 = ORIENTED_EDGE ( 'NONE', *, *, #1021, .F. ) ;
#622 = CARTESIAN_POINT ( 'NONE',  ( 1.000000000000000444, 1.350000000000000533, 0.8300000000000004041 ) ) ;
#623 = EDGE_LOOP ( 'NONE', ( #291, #3, #1129, #854 ) ) ;
#624 = PLANE ( 'NONE',  #505 ) ;
#625 = VERTEX_POINT ( 'NONE', #2 ) ;
#626 = AXIS2_PLACEMENT_3D ( 'NONE', #826, #106, #471 ) ;
#627 = MECHANICAL_DESIGN_GEOMETRIC_PRESENTATION_REPRESENTATION (  '', ( #483 ), #424 ) ;
#628 =( GEOMETRIC_REPRESENTATION_CONTEXT ( 3 ) GLOBAL_UNCERTAINTY_ASSIGNED_CONTEXT ( ( #408 ) ) GLOBAL_UNIT_ASSIGNED_CONTEXT ( ( #423, #688, #5 ) ) REPRESENTATION_CONTEXT ( 'NONE', 'WORKASPACE' ) );
#629 = CARTESIAN_POINT ( 'NONE',  ( 1.000000000000000444, -7.150000000000000355, 1.230000000000000648 ) ) ;
#630 = VECTOR ( 'NONE', #262, 1000.000000000000000 ) ;
#631 = PRESENTATION_STYLE_ASSIGNMENT (( #736 ) ) ;
#632 = ORIENTED_EDGE ( 'NONE', *, *, #338, .T. ) ;
#633 = LINE ( 'NONE', #988, #134 ) ;
#634 = EDGE_CURVE ( 'NONE', #252, #247, #35, .T. ) ;
#635 = ORIENTED_EDGE ( 'NONE', *, *, #272, .T. ) ;
#636 =( NAMED_UNIT ( * ) SI_UNIT ( $, .STERADIAN. ) SOLID_ANGLE_UNIT ( ) );
#637 = FACE_OUTER_BOUND ( 'NONE', #783, .T. ) ;
#638 = FACE_BOUND ( 'NONE', #43, .T. ) ;
#639 = VERTEX_POINT ( 'NONE', #622 ) ;
#640 = EDGE_CURVE ( 'NONE', #718, #966, #74, .T. ) ;
#641 =( NAMED_UNIT ( * ) SI_UNIT ( $, .STERADIAN. ) SOLID_ANGLE_UNIT ( ) );
#642 = CARTESIAN_POINT ( 'NONE',  ( 0.000000000000000000, 1.350000000000000533, 0.000000000000000000 ) ) ;
#643 = FACE_OUTER_BOUND ( 'NONE', #1042, .T. ) ;
#644 = CARTESIAN_POINT ( 'NONE',  ( -4.125000000000000000, 1.350000000000000533, 2.299999999999999822 ) ) ;
#645 = ORIENTED_EDGE ( 'NONE', *, *, #594, .F. ) ;
#646 = EDGE_CURVE ( 'NONE', #865, #876, #409, .T. ) ;
#647 = SURFACE_STYLE_USAGE ( .BOTH. , #183 ) ;
#648 = AXIS2_PLACEMENT_3D ( 'NONE', #1056, #780, #511 ) ;
#649 = PLANE ( 'NONE',  #235 ) ;
#650 = PRESENTATION_LAYER_ASSIGNMENT (  '', '', ( #784 ) ) ;
#651 = DIRECTION ( 'NONE',  ( -1.188166764367676342E-16, 1.000000000000000000, 0.000000000000000000 ) ) ;
#652 = AXIS2_PLACEMENT_3D ( 'NONE', #584, #921, #651 ) ;
#653 = ORIENTED_EDGE ( 'NONE', *, *, #372, .F. ) ;
#654 = EDGE_CURVE ( 'NONE', #1058, #490, #304, .T. ) ;
#655 = SURFACE_STYLE_FILL_AREA ( #1075 ) ;
#656 = CARTESIAN_POINT ( 'NONE',  ( 0.8000000000000003775, -3.649999999999999467, 0.6800000000000001599 ) ) ;
#657 = CARTESIAN_POINT ( 'NONE',  ( 1.000000000000000444, -7.150000000000000355, 0.8300000000000004041 ) ) ;
#658 = VERTEX_POINT ( 'NONE', #494 ) ;
#659 = FILL_AREA_STYLE_COLOUR ( '', #878 ) ;
#660 =( LENGTH_UNIT ( ) NAMED_UNIT ( * ) SI_UNIT ( .MILLI., .METRE. ) );
#661 = CARTESIAN_POINT ( 'NONE',  ( -3.175000000000000266, 2.800000000000000266, 2.299999999999999822 ) ) ;
#662 = CARTESIAN_POINT ( 'NONE',  ( 0.7999999999999999334, 1.350000000000000533, 3.919999999999999041 ) ) ;
#663 = VERTEX_POINT ( 'NONE', #314 ) ;
#664 =( LENGTH_UNIT ( ) NAMED_UNIT ( * ) SI_UNIT ( .MILLI., .METRE. ) );
#665 = VECTOR ( 'NONE', #618, 1000.000000000000000 ) ;
#666 = VERTEX_POINT ( 'NONE', #786 ) ;
#667 = EDGE_CURVE ( 'NONE', #768, #1114, #791, .T. ) ;
#668 = VECTOR ( 'NONE', #816, 1000.000000000000000 ) ;
#669 = LINE ( 'NONE', #1020, #220 ) ;
#670 = LINE ( 'NONE', #227, #503 ) ;
#671 = CARTESIAN_POINT ( 'NONE',  ( -3.175000000000000711, 3.649999999999999911, 4.599999999999999645 ) ) ;
#672 = DIRECTION ( 'NONE',  ( 0.000000000000000000, 0.000000000000000000, 1.000000000000000000 ) ) ;
#673 = ORIENTED_EDGE ( 'NONE', *, *, #667, .F. ) ;
#674 = DIRECTION ( 'NONE',  ( -0.000000000000000000, 1.000000000000000000, -0.000000000000000000 ) ) ;
#675 = CARTESIAN_POINT ( 'NONE',  ( 3.174999999999999378, 1.350000000000000533, 0.6800000000000000488 ) ) ;
#676 = FILL_AREA_STYLE_COLOUR ( '', #945 ) ;
#677 = DIRECTION ( 'NONE',  ( 0.000000000000000000, 1.000000000000000000, 0.000000000000000000 ) ) ;
#678 = ORIENTED_EDGE ( 'NONE', *, *, #778, .F. ) ;
#679 = EDGE_CURVE ( 'NONE', #174, #354, #239, .T. ) ;
#680 = VERTEX_POINT ( 'NONE', #66 ) ;
#681 = COLOUR_RGB ( '',0.6666666666666666297, 0.6980392156862744724, 0.7686274509803920907 ) ;
#682 = PRESENTATION_LAYER_ASSIGNMENT (  '', '', ( #387 ) ) ;
#683 = SURFACE_STYLE_USAGE ( .BOTH. , #435 ) ;
#684 = LINE ( 'NONE', #57, #939 ) ;
#685 = EDGE_CURVE ( 'NONE', #285, #36, #292, .T. ) ;
#686 = SURFACE_SIDE_STYLE ('',( #331 ) ) ;
#687 = VERTEX_POINT ( 'NONE', #417 ) ;
#688 =( NAMED_UNIT ( * ) PLANE_ANGLE_UNIT ( ) SI_UNIT ( $, .RADIAN. ) );
#689 = FILL_AREA_STYLE ('',( #517 ) ) ;
#690 = ORIENTED_EDGE ( 'NONE', *, *, #240, .F. ) ;
#691 = EDGE_CURVE ( 'NONE', #138, #343, #1135, .T. ) ;
#692 =( NAMED_UNIT ( * ) PLANE_ANGLE_UNIT ( ) SI_UNIT ( $, .RADIAN. ) );
#693 = CARTESIAN_POINT ( 'NONE',  ( -3.175000000000000266, 1.350000000000000533, 2.299999999999999822 ) ) ;
#694 = FACE_OUTER_BOUND ( 'NONE', #869, .T. ) ;
#695 = CARTESIAN_POINT ( 'NONE',  ( 0.7999999999999998224, -3.649999999999999467, 3.219999999999998863 ) ) ;
#696 = ORIENTED_EDGE ( 'NONE', *, *, #880, .F. ) ;
#697 = DIRECTION ( 'NONE',  ( 0.000000000000000000, 0.000000000000000000, -1.000000000000000000 ) ) ;
#698 = VERTEX_POINT ( 'NONE', #969 ) ;
#699 = ADVANCED_FACE ( 'NONE', ( #117 ), #334, .F. ) ;
#700 = COLOUR_RGB ( '',0.6666666666666666297, 0.6980392156862744724, 0.7686274509803920907 ) ;
#701 = CARTESIAN_POINT ( 'NONE',  ( 0.7999999999999999334, 1.350000000000000533, 3.919999999999999041 ) ) ;
#702 = VECTOR ( 'NONE', #398, 1000.000000000000000 ) ;
#703 = LINE ( 'NONE', #1038, #821 ) ;
#704 = FACE_BOUND ( 'NONE', #968, .T. ) ;
#705 = CARTESIAN_POINT ( 'NONE',  ( -3.175000000000000711, 3.649999999999999911, 4.599999999999999645 ) ) ;
#706 = ORIENTED_EDGE ( 'NONE', *, *, #825, .T. ) ;
#707 = FACE_OUTER_BOUND ( 'NONE', #849, .T. ) ;
#708 = DIRECTION ( 'NONE',  ( 0.000000000000000000, -0.000000000000000000, -1.000000000000000000 ) ) ;
#709 = UNCERTAINTY_MEASURE_WITH_UNIT (LENGTH_MEASURE( 1.000000000000000082E-05 ), #728, 'distance_accuracy_value', 'NONE');
#710 = CARTESIAN_POINT ( 'NONE',  ( 1.000000000000000222, -7.150000000000000355, 3.370000000000000107 ) ) ;
#711 = FILL_AREA_STYLE ('',( #1082 ) ) ;
#712 = CARTESIAN_POINT ( 'NONE',  ( -3.175000000000000711, 3.649999999999999911, 4.599999999999999645 ) ) ;
#713 = ORIENTED_EDGE ( 'NONE', *, *, #46, .F. ) ;
#714 = DIRECTION ( 'NONE',  ( 0.000000000000000000, 0.000000000000000000, 1.000000000000000000 ) ) ;
#715 = DIRECTION ( 'NONE',  ( 0.000000000000000000, 1.000000000000000000, 0.000000000000000000 ) ) ;
#716 = VERTEX_POINT ( 'NONE', #850 ) ;
#717 = CARTESIAN_POINT ( 'NONE',  ( 1.450000000000000622, 1.350000000000000533, 1.230000000000000648 ) ) ;
#718 = VERTEX_POINT ( 'NONE', #44 ) ;
#719 = AXIS2_PLACEMENT_3D ( 'NONE', #912, #476, #830 ) ;
#720 = AXIS2_PLACEMENT_3D ( 'NONE', #933, #672, #513 ) ;
#721 = AXIS2_PLACEMENT_3D ( 'NONE', #249, #762, #165 ) ;
#722 =( NAMED_UNIT ( * ) PLANE_ANGLE_UNIT ( ) SI_UNIT ( $, .RADIAN. ) );
#723 = EDGE_CURVE ( 'NONE', #761, #252, #669, .T. ) ;
#724 = LINE ( 'NONE', #1006, #92 ) ;
#725 = CARTESIAN_POINT ( 'NONE',  ( 3.174999999999999822, 1.350000000000000533, 3.919999999999999041 ) ) ;
#726 = ORIENTED_EDGE ( 'NONE', *, *, #614, .T. ) ;
#727 = CARTESIAN_POINT ( 'NONE',  ( 1.000000000000000444, -7.150000000000000355, 0.8300000000000004041 ) ) ;
#728 =( LENGTH_UNIT ( ) NAMED_UNIT ( * ) SI_UNIT ( .MILLI., .METRE. ) );
#729 = SURFACE_STYLE_USAGE ( .BOTH. , #33 ) ;
#730 = FACE_OUTER_BOUND ( 'NONE', #297, .T. ) ;
#731 = PRODUCT ( 'LTL-4231NHBP', 'LTL-4231NHBP', '', ( #512 ) ) ;
#732 = EDGE_LOOP ( 'NONE', ( #198, #922, #403, #621 ) ) ;
#733 = ADVANCED_FACE ( 'NONE', ( #144 ), #965, .F. ) ;
#734 = DIRECTION ( 'NONE',  ( 0.000000000000000000, -1.000000000000000000, 0.000000000000000000 ) ) ;
#735 = CARTESIAN_POINT ( 'NONE',  ( -2.674999999999999822, -2.149999999999999023, 2.299999999999999822 ) ) ;
#736 = SURFACE_STYLE_USAGE ( .BOTH. , #455 ) ;
#737 = PLANE ( 'NONE',  #326 ) ;
#738 = DIRECTION ( 'NONE',  ( 0.000000000000000000, 1.000000000000000000, 0.000000000000000000 ) ) ;
#739 = ORIENTED_EDGE ( 'NONE', *, *, #305, .F. ) ;
#740 = ADVANCED_FACE ( 'NONE', ( #574 ), #319, .T. ) ;
#741 = CIRCLE ( 'NONE', #582, 1.449999999999999956 ) ;
#742 = SURFACE_STYLE_FILL_AREA ( #839 ) ;
#743 =( GEOMETRIC_REPRESENTATION_CONTEXT ( 3 ) GLOBAL_UNCERTAINTY_ASSIGNED_CONTEXT ( ( #811 ) ) GLOBAL_UNIT_ASSIGNED_CONTEXT ( ( #374, #1067, #459 ) ) REPRESENTATION_CONTEXT ( 'NONE', 'WORKASPACE' ) );
#744 = CARTESIAN_POINT ( 'NONE',  ( 0.8000000000000003775, 1.350000000000000533, 1.380000000000001004 ) ) ;
#745 =( GEOMETRIC_REPRESENTATION_CONTEXT ( 3 ) GLOBAL_UNCERTAINTY_ASSIGNED_CONTEXT ( ( #899 ) ) GLOBAL_UNIT_ASSIGNED_CONTEXT ( ( #660, #692, #430 ) ) REPRESENTATION_CONTEXT ( 'NONE', 'WORKASPACE' ) );
#746 = DIRECTION ( 'NONE',  ( 1.188166764367676342E-16, -1.000000000000000000, 0.000000000000000000 ) ) ;
#747 = AXIS2_PLACEMENT_3D ( 'NONE', #301, #994, #472 ) ;
#748 = CARTESIAN_POINT ( 'NONE',  ( 0.8000000000000003775, 1.350000000000000533, 0.6800000000000001599 ) ) ;
#749 = EDGE_LOOP ( 'NONE', ( #1093, #1110 ) ) ;
#750 = DIRECTION ( 'NONE',  ( 0.000000000000000000, -0.000000000000000000, -1.000000000000000000 ) ) ;
#751 = CARTESIAN_POINT ( 'NONE',  ( 1.000000000000000444, -7.150000000000000355, 0.8300000000000004041 ) ) ;
#752 = CARTESIAN_POINT ( 'NONE',  ( 0.000000000000000000, -7.150000000000000355, 0.000000000000000000 ) ) ;
#753 = CARTESIAN_POINT ( 'NONE',  ( 1.000000000000000222, 1.350000000000000533, 3.770000000000000462 ) ) ;
#754 = DIRECTION ( 'NONE',  ( 0.000000000000000000, 0.000000000000000000, 1.000000000000000000 ) ) ;
#755 = CARTESIAN_POINT ( 'NONE',  ( 0.7999999999999998224, 1.350000000000000533, 3.219999999999998863 ) ) ;
#756 = SPHERICAL_SURFACE ( 'NONE', #720, 1.449999999999999956 ) ;
#757 = ORIENTED_EDGE ( 'NONE', *, *, #646, .T. ) ;
#758 = ADVANCED_FACE ( 'NONE', ( #62 ), #115, .F. ) ;
#759 = DIRECTION ( 'NONE',  ( 1.548860246407863336E-16, 0.000000000000000000, 1.000000000000000000 ) ) ;
#760 = LINE ( 'NONE', #529, #600 ) ;
#761 = VERTEX_POINT ( 'NONE', #763 ) ;
#762 = DIRECTION ( 'NONE',  ( 1.000000000000000000, 0.000000000000000000, 0.000000000000000000 ) ) ;
#763 = CARTESIAN_POINT ( 'NONE',  ( 3.174999999999999822, -3.649999999999999467, 0.000000000000000000 ) ) ;
#764 = FACE_OUTER_BOUND ( 'NONE', #100, .T. ) ;
#765 =( GEOMETRIC_REPRESENTATION_CONTEXT ( 3 ) GLOBAL_UNCERTAINTY_ASSIGNED_CONTEXT ( ( #85 ) ) GLOBAL_UNIT_ASSIGNED_CONTEXT ( ( #294, #1095, #1022 ) ) REPRESENTATION_CONTEXT ( 'NONE', 'WORKASPACE' ) );
#766 = EDGE_CURVE ( 'NONE', #1114, #680, #311, .T. ) ;
#767 = AXIS2_PLACEMENT_3D ( 'NONE', #442, #361, #550 ) ;
#768 = VERTEX_POINT ( 'NONE', #49 ) ;
#769 = VECTOR ( 'NONE', #275, 1000.000000000000000 ) ;
#770 = DIRECTION ( 'NONE',  ( -0.000000000000000000, 1.000000000000000000, -0.000000000000000000 ) ) ;
#771 = PRESENTATION_STYLE_ASSIGNMENT (( #303 ) ) ;
#772 = CARTESIAN_POINT ( 'NONE',  ( 3.174999999999999378, 1.350000000000000533, 3.219999999999999307 ) ) ;
#773 = ORIENTED_EDGE ( 'NONE', *, *, #691, .F. ) ;
#774 = EDGE_CURVE ( 'NONE', #716, #865, #552, .T. ) ;
#775 = CARTESIAN_POINT ( 'NONE',  ( 1.450000000000000622, -7.150000000000000355, 1.230000000000000648 ) ) ;
#776 = PLANE ( 'NONE',  #388 ) ;
#777 = ORIENTED_EDGE ( 'NONE', *, *, #110, .T. ) ;
#778 = EDGE_CURVE ( 'NONE', #354, #302, #352, .T. ) ;
#779 = DIRECTION ( 'NONE',  ( -1.000000000000000000, -1.188166764367676342E-16, -0.000000000000000000 ) ) ;
#780 = DIRECTION ( 'NONE',  ( 9.130123557772670799E-17, -0.000000000000000000, 1.000000000000000000 ) ) ;
#781 = CARTESIAN_POINT ( 'NONE',  ( 0.000000000000000000, 1.350000000000000533, 0.000000000000000000 ) ) ;
#782 = COLOUR_RGB ( '',0.2862745098039215508, 0.6627450980392156632, 0.3294117647058823484 ) ;
#783 = EDGE_LOOP ( 'NONE', ( #635, #307, #474, #429 ) ) ;
#784 = STYLED_ITEM ( 'NONE', ( #515 ), #538 ) ;
#785 = CARTESIAN_POINT ( 'NONE',  ( 1.000000000000000222, -7.150000000000000355, 3.370000000000000107 ) ) ;
#786 = CARTESIAN_POINT ( 'NONE',  ( 1.000000000000000444, -7.150000000000000355, 1.230000000000000648 ) ) ;
#787 = SURFACE_STYLE_USAGE ( .BOTH. , #798 ) ;
#788 = ORIENTED_EDGE ( 'NONE', *, *, #1041, .F. ) ;
#789 = DIRECTION ( 'NONE',  ( 1.000000000000000000, 0.000000000000000000, 0.000000000000000000 ) ) ;
#790 = SURFACE_STYLE_USAGE ( .BOTH. , #610 ) ;
#791 = LINE ( 'NONE', #797, #186 ) ;
#792 = EDGE_CURVE ( 'NONE', #539, #639, #17, .T. ) ;
#793 = ORIENTED_EDGE ( 'NONE', *, *, #815, .T. ) ;
#794 = ORIENTED_EDGE ( 'NONE', *, *, #460, .T. ) ;
#795 = DIRECTION ( 'NONE',  ( 1.188166764367676342E-16, -1.000000000000000000, 0.000000000000000000 ) ) ;
#796 = UNCERTAINTY_MEASURE_WITH_UNIT (LENGTH_MEASURE( 1.000000000000000082E-05 ), #496, 'distance_accuracy_value', 'NONE');
#797 = CARTESIAN_POINT ( 'NONE',  ( 3.174999999999999822, -3.649999999999999467, 4.599999999999999645 ) ) ;
#798 = SURFACE_SIDE_STYLE ('',( #428 ) ) ;
#799 = ORIENTED_EDGE ( 'NONE', *, *, #449, .T. ) ;
#800 = CARTESIAN_POINT ( 'NONE',  ( 1.450000000000000178, -7.150000000000000355, 3.770000000000000462 ) ) ;
#801 =( GEOMETRIC_REPRESENTATION_CONTEXT ( 3 ) GLOBAL_UNCERTAINTY_ASSIGNED_CONTEXT ( ( #1127 ) ) GLOBAL_UNIT_ASSIGNED_CONTEXT ( ( #24, #211, #283 ) ) REPRESENTATION_CONTEXT ( 'NONE', 'WORKASPACE' ) );
#802 = EDGE_CURVE ( 'NONE', #354, #987, #26, .T. ) ;
#803 = PRESENTATION_LAYER_ASSIGNMENT (  '', '', ( #309 ) ) ;
#804 = VECTOR ( 'NONE', #251, 1000.000000000000000 ) ;
#805 = COLOUR_RGB ( '',0.6666666666666666297, 0.6980392156862744724, 0.7686274509803920907 ) ;
#806 = PRESENTATION_STYLE_ASSIGNMENT (( #647 ) ) ;
#807 = VERTEX_POINT ( 'NONE', #926 ) ;
#808 = CARTESIAN_POINT ( 'NONE',  ( 1.000000000000000444, 1.350000000000000533, 1.230000000000000648 ) ) ;
#809 =( LENGTH_UNIT ( ) NAMED_UNIT ( * ) SI_UNIT ( .MILLI., .METRE. ) );
#810 = ADVANCED_FACE ( 'NONE', ( #575 ), #160, .F. ) ;
#811 = UNCERTAINTY_MEASURE_WITH_UNIT (LENGTH_MEASURE( 1.000000000000000082E-05 ), #374, 'distance_accuracy_value', 'NONE');
#812 = DIRECTION ( 'NONE',  ( 1.000000000000000000, 0.000000000000000000, 0.000000000000000000 ) ) ;
#813 = ORIENTED_EDGE ( 'NONE', *, *, #78, .T. ) ;
#814 = PLANE ( 'NONE',  #879 ) ;
#815 = EDGE_CURVE ( 'NONE', #1024, #174, #818, .T. ) ;
#816 = DIRECTION ( 'NONE',  ( -1.000000000000000000, 0.000000000000000000, 0.000000000000000000 ) ) ;
#817 = FACE_OUTER_BOUND ( 'NONE', #416, .T. ) ;
#818 = LINE ( 'NONE', #367, #1002 ) ;
#819 = ORIENTED_EDGE ( 'NONE', *, *, #140, .T. ) ;
#820 = MECHANICAL_DESIGN_GEOMETRIC_PRESENTATION_REPRESENTATION (  '', ( #404 ), #182 ) ;
#821 = VECTOR ( 'NONE', #779, 1000.000000000000000 ) ;
#822 = DIRECTION ( 'NONE',  ( -1.000000000000000000, 0.000000000000000000, 0.000000000000000000 ) ) ;
#823 = AXIS2_PLACEMENT_3D ( 'NONE', #19, #1079, #738 ) ;
#824 = FILL_AREA_STYLE ('',( #450 ) ) ;
#825 = EDGE_CURVE ( 'NONE', #20, #807, #355, .T. ) ;
#826 = CARTESIAN_POINT ( 'NONE',  ( 3.174999999999999378, 1.350000000000000533, 3.219999999999999307 ) ) ;
#827 = CARTESIAN_POINT ( 'NONE',  ( 3.174999999999999822, -3.649999999999999467, 4.599999999999999645 ) ) ;
#828 = ORIENTED_EDGE ( 'NONE', *, *, #792, .T. ) ;
#829 = CARTESIAN_POINT ( 'NONE',  ( 3.174999999999999822, -3.649999999999999467, 4.599999999999999645 ) ) ;
#830 = DIRECTION ( 'NONE',  ( 1.188166764367676342E-16, -1.000000000000000000, 0.000000000000000000 ) ) ;
#831 = PLANE ( 'NONE',  #652 ) ;
#832 = EDGE_CURVE ( 'NONE', #983, #1058, #1139, .T. ) ;
#833 = VERTEX_POINT ( 'NONE', #725 ) ;
#834 = FILL_AREA_STYLE_COLOUR ( '', #256 ) ;
#835 = FACE_OUTER_BOUND ( 'NONE', #88, .T. ) ;
#836 = ORIENTED_EDGE ( 'NONE', *, *, #640, .T. ) ;
#837 = CLOSED_SHELL ( 'NONE', ( #167, #740, #255, #63, #964, #733, #1011, #909, #1122, #267, #485, #557, #12, #396, #479, #71, #1081, #1062, #230, #119, #431, #699, #758, #280, #286, #357, #516, #955, #538, #810, #21 ) ) ;
#838 = AXIS2_PLACEMENT_3D ( 'NONE', #642, #677, #1023 ) ;
#839 = FILL_AREA_STYLE ('',( #487 ) ) ;
#840 = VECTOR ( 'NONE', #335, 1000.000000000000000 ) ;
#841 = DIRECTION ( 'NONE',  ( 6.195440985631457289E-16, -0.000000000000000000, 1.000000000000000000 ) ) ;
#842 = STYLED_ITEM ( 'NONE', ( #421 ), #758 ) ;
#843 = DIRECTION ( 'NONE',  ( 0.000000000000000000, -1.000000000000000000, 0.000000000000000000 ) ) ;
#844 = ORIENTED_EDGE ( 'NONE', *, *, #1141, .T. ) ;
#845 = EDGE_CURVE ( 'NONE', #343, #718, #360, .T. ) ;
#846 = CARTESIAN_POINT ( 'NONE',  ( 1.000000000000000222, -7.150000000000000355, 3.770000000000000462 ) ) ;
#847 = FACE_OUTER_BOUND ( 'NONE', #83, .T. ) ;
#848 = FILL_AREA_STYLE_COLOUR ( '', #327 ) ;
#849 = EDGE_LOOP ( 'NONE', ( #127, #1044, #1063, #176 ) ) ;
#850 = CARTESIAN_POINT ( 'NONE',  ( 1.450000000000000178, 1.350000000000000533, 3.770000000000000462 ) ) ;
#851 = EDGE_CURVE ( 'NONE', #126, #979, #434, .T. ) ;
#852 = DIRECTION ( 'NONE',  ( 1.000000000000000000, 0.000000000000000000, 0.000000000000000000 ) ) ;
#853 = SURFACE_STYLE_USAGE ( .BOTH. , #1018 ) ;
#854 = ORIENTED_EDGE ( 'NONE', *, *, #1026, .T. ) ;
#855 = FACE_OUTER_BOUND ( 'NONE', #1046, .T. ) ;
#856 = DIRECTION ( 'NONE',  ( -1.000000000000000000, -0.000000000000000000, -0.000000000000000000 ) ) ;
#857 = DIRECTION ( 'NONE',  ( -1.000000000000000000, -1.188166764367676342E-16, 0.000000000000000000 ) ) ;
#858 =( NAMED_UNIT ( * ) SI_UNIT ( $, .STERADIAN. ) SOLID_ANGLE_UNIT ( ) );
#859 = FILL_AREA_STYLE_COLOUR ( '', #219 ) ;
#860 = EDGE_CURVE ( 'NONE', #122, #639, #7, .T. ) ;
#861 = STYLED_ITEM ( 'NONE', ( #1111 ), #516 ) ;
#862 = ORIENTED_EDGE ( 'NONE', *, *, #880, .T. ) ;
#863 =( GEOMETRIC_REPRESENTATION_CONTEXT ( 3 ) GLOBAL_UNCERTAINTY_ASSIGNED_CONTEXT ( ( #916 ) ) GLOBAL_UNIT_ASSIGNED_CONTEXT ( ( #101, #891, #344 ) ) REPRESENTATION_CONTEXT ( 'NONE', 'WORKASPACE' ) );
#864 = DIRECTION ( 'NONE',  ( -1.000000000000000000, -0.000000000000000000, -0.000000000000000000 ) ) ;
#865 = VERTEX_POINT ( 'NONE', #967 ) ;
#866 = EDGE_CURVE ( 'NONE', #658, #716, #620, .T. ) ;
#867 = DIRECTION ( 'NONE',  ( 1.000000000000000000, 0.000000000000000000, 0.000000000000000000 ) ) ;
#868 = DIRECTION ( 'NONE',  ( -0.000000000000000000, -0.000000000000000000, -1.000000000000000000 ) ) ;
#869 = EDGE_LOOP ( 'NONE', ( #242, #452, #420, #1098 ) ) ;
#870 = SURFACE_SIDE_STYLE ('',( #605 ) ) ;
#871 = CARTESIAN_POINT ( 'NONE',  ( -2.674999999999999822, -2.149999999999999023, 2.299999999999999822 ) ) ;
#872 = CARTESIAN_POINT ( 'NONE',  ( -3.175000000000000266, 1.350000000000000533, 2.299999999999999822 ) ) ;
#873 = FILL_AREA_STYLE_COLOUR ( '', #147 ) ;
#874 = SHAPE_DEFINITION_REPRESENTATION ( #1125, #231 ) ;
#875 = PRESENTATION_LAYER_ASSIGNMENT (  '', '', ( #131 ) ) ;
#876 = VERTEX_POINT ( 'NONE', #1064 ) ;
#877 = VECTOR ( 'NONE', #38, 1000.000000000000000 ) ;
#878 = COLOUR_RGB ( '',0.2862745098039215508, 0.6627450980392156632, 0.3294117647058823484 ) ;
#879 = AXIS2_PLACEMENT_3D ( 'NONE', #888, #25, #1085 ) ;
#880 = EDGE_CURVE ( 'NONE', #687, #761, #278, .T. ) ;
#881 = ORIENTED_EDGE ( 'NONE', *, *, #897, .F. ) ;
#882 = CARTESIAN_POINT ( 'NONE',  ( -4.125000000000000000, 1.350000000000000533, 2.299999999999999822 ) ) ;
#883 = CARTESIAN_POINT ( 'NONE',  ( 0.000000000000000000, 0.000000000000000000, 4.599999999999999645 ) ) ;
#884 = CARTESIAN_POINT ( 'NONE',  ( -2.674999999999999822, -2.149999999999999023, 2.299999999999999822 ) ) ;
#885 = DIRECTION ( 'NONE',  ( -0.000000000000000000, -0.000000000000000000, -1.000000000000000000 ) ) ;
#886 = CARTESIAN_POINT ( 'NONE',  ( 3.174999999999998934, 3.649999999999999911, 0.000000000000000000 ) ) ;
#887 = ORIENTED_EDGE ( 'NONE', *, *, #940, .T. ) ;
#888 = CARTESIAN_POINT ( 'NONE',  ( 1.000000000000000222, -7.150000000000000355, 3.770000000000000462 ) ) ;
#889 = VERTEX_POINT ( 'NONE', #270 ) ;
#890 = ORIENTED_EDGE ( 'NONE', *, *, #578, .F. ) ;
#891 =( NAMED_UNIT ( * ) PLANE_ANGLE_UNIT ( ) SI_UNIT ( $, .RADIAN. ) );
#892 = PRESENTATION_LAYER_ASSIGNMENT (  '', '', ( #1000 ) ) ;
#893 = VECTOR ( 'NONE', #470, 1000.000000000000000 ) ;
#894 = AXIS2_PLACEMENT_3D ( 'NONE', #215, #1091, #746 ) ;
#895 = CARTESIAN_POINT ( 'NONE',  ( 0.8000000000000003775, -3.649999999999999467, 1.380000000000001004 ) ) ;
#896 = ORIENTED_EDGE ( 'NONE', *, *, #46, .T. ) ;
#897 = EDGE_CURVE ( 'NONE', #807, #122, #439, .T. ) ;
#898 = CARTESIAN_POINT ( 'NONE',  ( -3.174999999999999822, -3.649999999999999467, 4.599999999999999645 ) ) ;
#899 = UNCERTAINTY_MEASURE_WITH_UNIT (LENGTH_MEASURE( 1.000000000000000082E-05 ), #660, 'distance_accuracy_value', 'NONE');
#900 = SURFACE_STYLE_FILL_AREA ( #824 ) ;
#901 = DIRECTION ( 'NONE',  ( 0.000000000000000000, -0.000000000000000000, -1.000000000000000000 ) ) ;
#902 = FILL_AREA_STYLE_COLOUR ( '', #805 ) ;
#903 = DIRECTION ( 'NONE',  ( -1.000000000000000000, -1.188166764367676342E-16, -0.000000000000000000 ) ) ;
#904 = CARTESIAN_POINT ( 'NONE',  ( -3.174999999999999822, -1.649999999999999023, 2.299999999999999822 ) ) ;
#905 = ORIENTED_EDGE ( 'NONE', *, *, #372, .T. ) ;
#906 = AXIS2_PLACEMENT_3D ( 'NONE', #781, #336, #957 ) ;
#907 = PRESENTATION_LAYER_ASSIGNMENT (  '', '', ( #364 ) ) ;
#908 = PRESENTATION_LAYER_ASSIGNMENT (  '', '', ( #861 ) ) ;
#909 = ADVANCED_FACE ( 'NONE', ( #187 ), #624, .T. ) ;
#910 = VECTOR ( 'NONE', #34, 1000.000000000000000 ) ;
#911 = PLANE ( 'NONE',  #257 ) ;
#912 = CARTESIAN_POINT ( 'NONE',  ( -2.674999999999999822, -2.149999999999999023, 2.299999999999999822 ) ) ;
#913 = DIRECTION ( 'NONE',  ( 0.000000000000000000, 1.000000000000000000, 0.000000000000000000 ) ) ;
#914 = ORIENTED_EDGE ( 'NONE', *, *, #125, .T. ) ;
#915 = SURFACE_STYLE_USAGE ( .BOTH. , #920 ) ;
#916 = UNCERTAINTY_MEASURE_WITH_UNIT (LENGTH_MEASURE( 1.000000000000000082E-05 ), #101, 'distance_accuracy_value', 'NONE');
#917 = ORIENTED_EDGE ( 'NONE', *, *, #87, .T. ) ;
#918 = DIRECTION ( 'NONE',  ( 1.000000000000000000, 1.188166764367676342E-16, -0.000000000000000000 ) ) ;
#919 = ORIENTED_EDGE ( 'NONE', *, *, #159, .F. ) ;
#920 = SURFACE_SIDE_STYLE ('',( #581 ) ) ;
#921 = DIRECTION ( 'NONE',  ( 1.000000000000000000, 1.188166764367676342E-16, -0.000000000000000000 ) ) ;
#922 = ORIENTED_EDGE ( 'NONE', *, *, #226, .T. ) ;
#923 = PRESENTATION_STYLE_ASSIGNMENT (( #580 ) ) ;
#924 = CARTESIAN_POINT ( 'NONE',  ( -3.175000000000000266, -0.09999999999999939493, 2.299999999999999822 ) ) ;
#925 = PRESENTATION_LAYER_ASSIGNMENT (  '', '', ( #274 ) ) ;
#926 = CARTESIAN_POINT ( 'NONE',  ( 1.450000000000000622, 1.350000000000000533, 1.230000000000000648 ) ) ;
#927 = CARTESIAN_POINT ( 'NONE',  ( 1.450000000000000622, -7.150000000000000355, 0.8300000000000004041 ) ) ;
#928 = PRESENTATION_LAYER_ASSIGNMENT (  '', '', ( #842 ) ) ;
#929 = LINE ( 'NONE', #827, #150 ) ;
#930 = ORIENTED_EDGE ( 'NONE', *, *, #1094, .F. ) ;
#931 = EDGE_CURVE ( 'NONE', #995, #490, #633, .T. ) ;
#932 = SURFACE_SIDE_STYLE ('',( #1030 ) ) ;
#933 = CARTESIAN_POINT ( 'NONE',  ( -4.125000000000000000, 1.350000000000000533, 2.299999999999999822 ) ) ;
#934 = ORIENTED_EDGE ( 'NONE', *, *, #845, .F. ) ;
#935 = DIRECTION ( 'NONE',  ( 0.000000000000000000, -1.000000000000000000, 0.000000000000000000 ) ) ;
#936 =( NAMED_UNIT ( * ) SI_UNIT ( $, .STERADIAN. ) SOLID_ANGLE_UNIT ( ) );
#937 = ORIENTED_EDGE ( 'NONE', *, *, #578, .T. ) ;
#938 = SURFACE_STYLE_USAGE ( .BOTH. , #932 ) ;
#939 = VECTOR ( 'NONE', #1037, 1000.000000000000000 ) ;
#940 = EDGE_CURVE ( 'NONE', #639, #20, #193, .T. ) ;
#941 =( NAMED_UNIT ( * ) SI_UNIT ( $, .STERADIAN. ) SOLID_ANGLE_UNIT ( ) );
#942 = VECTOR ( 'NONE', #154, 1000.000000000000000 ) ;
#943 = ORIENTED_EDGE ( 'NONE', *, *, #977, .F. ) ;
#944 = VECTOR ( 'NONE', #418, 1000.000000000000000 ) ;
#945 = COLOUR_RGB ( '',0.2980392156862745057, 0.2980392156862745057, 0.2980392156862745057 ) ;
#946 = DIRECTION ( 'NONE',  ( 0.000000000000000000, -1.000000000000000000, 0.000000000000000000 ) ) ;
#947 = CARTESIAN_POINT ( 'NONE',  ( -3.174999999999999822, -2.649999999999999023, 2.299999999999999822 ) ) ;
#948 = PRESENTATION_STYLE_ASSIGNMENT (( #853 ) ) ;
#949 = VERTEX_POINT ( 'NONE', #177 ) ;
#950 = LINE ( 'NONE', #1133, #422 ) ;
#951 = PLANE ( 'NONE',  #502 ) ;
#952 = DIRECTION ( 'NONE',  ( 1.188166764367676342E-16, -1.000000000000000000, 0.000000000000000000 ) ) ;
#953 = ORIENTED_EDGE ( 'NONE', *, *, #679, .T. ) ;
#954 = CARTESIAN_POINT ( 'NONE',  ( 1.000000000000000222, -7.150000000000000355, 3.770000000000000462 ) ) ;
#955 = ADVANCED_FACE ( 'NONE', ( #707 ), #814, .F. ) ;
#956 = CARTESIAN_POINT ( 'NONE',  ( 1.000000000000000222, 1.350000000000000533, 3.370000000000000107 ) ) ;
#957 = DIRECTION ( 'NONE',  ( 0.000000000000000000, -0.000000000000000000, 1.000000000000000000 ) ) ;
#958 = VECTOR ( 'NONE', #754, 1000.000000000000000 ) ;
#959 = ORIENTED_EDGE ( 'NONE', *, *, #931, .T. ) ;
#960 = CARTESIAN_POINT ( 'NONE',  ( 1.000000000000000444, 1.350000000000000533, 0.8300000000000004041 ) ) ;
#961 = VECTOR ( 'NONE', #591, 1000.000000000000000 ) ;
#962 = LINE ( 'NONE', #532, #840 ) ;
#963 = VECTOR ( 'NONE', #67, 1000.000000000000000 ) ;
#964 = ADVANCED_FACE ( 'NONE', ( #835 ), #1007, .F. ) ;
#965 = PLANE ( 'NONE',  #310 ) ;
#966 = VERTEX_POINT ( 'NONE', #208 ) ;
#967 = CARTESIAN_POINT ( 'NONE',  ( 1.000000000000000222, 1.350000000000000533, 3.770000000000000462 ) ) ;
#968 = EDGE_LOOP ( 'NONE', ( #1086, #989, #1035, #201 ) ) ;
#969 = CARTESIAN_POINT ( 'NONE',  ( -2.674999999999999822, -2.649999999999999023, 2.299999999999999822 ) ) ;
#970 = EDGE_CURVE ( 'NONE', #1102, #949, #260, .T. ) ;
#971 = ORIENTED_EDGE ( 'NONE', *, *, #240, .T. ) ;
#972 = CARTESIAN_POINT ( 'NONE',  ( 1.450000000000000622, -7.150000000000000355, 1.230000000000000648 ) ) ;
#973 = LINE ( 'NONE', #898, #1033 ) ;
#974 = UNCERTAINTY_MEASURE_WITH_UNIT (LENGTH_MEASURE( 1.000000000000000082E-05 ), #141, 'distance_accuracy_value', 'NONE');
#975 = DIRECTION ( 'NONE',  ( 1.000000000000000000, -0.000000000000000000, 4.565061778886335400E-17 ) ) ;
#976 = CARTESIAN_POINT ( 'NONE',  ( 3.174999999999999822, -3.649999999999999467, 3.919999999999999041 ) ) ;
#977 = EDGE_CURVE ( 'NONE', #302, #663, #371, .T. ) ;
#978 = CARTESIAN_POINT ( 'NONE',  ( 0.8000000000000003775, 1.350000000000000533, 1.380000000000001004 ) ) ;
#979 = VERTEX_POINT ( 'NONE', #567 ) ;
#980 = DIRECTION ( 'NONE',  ( -1.000000000000000000, 0.000000000000000000, 9.130123557772670799E-17 ) ) ;
#981 = VECTOR ( 'NONE', #583, 1000.000000000000000 ) ;
#982 = AXIS2_PLACEMENT_3D ( 'NONE', #752, #935, #380 ) ;
#983 = VERTEX_POINT ( 'NONE', #137 ) ;
#984 = VECTOR ( 'NONE', #437, 1000.000000000000000 ) ;
#985 = AXIS2_PLACEMENT_3D ( 'NONE', #189, #589, #139 ) ;
#986 = LINE ( 'NONE', #829, #543 ) ;
#987 = VERTEX_POINT ( 'NONE', #656 ) ;
#988 = CARTESIAN_POINT ( 'NONE',  ( 0.7999999999999999334, -3.649999999999999467, 3.919999999999999041 ) ) ;
#989 = ORIENTED_EDGE ( 'NONE', *, *, #646, .F. ) ;
#990 = DIRECTION ( 'NONE',  ( -1.000000000000000000, -1.188166764367676342E-16, 0.000000000000000000 ) ) ;
#991 = CARTESIAN_POINT ( 'NONE',  ( -5.575000000000000178, 1.350000000000000311, 2.299999999999999822 ) ) ;
#992 = PLANE ( 'NONE',  #170 ) ;
#993 = ORIENTED_EDGE ( 'NONE', *, *, #825, .F. ) ;
#994 = DIRECTION ( 'NONE',  ( 0.000000000000000000, -0.000000000000000000, 1.000000000000000000 ) ) ;
#995 = VERTEX_POINT ( 'NONE', #1010 ) ;
#996 =( NAMED_UNIT ( * ) PLANE_ANGLE_UNIT ( ) SI_UNIT ( $, .RADIAN. ) );
#997 = DIRECTION ( 'NONE',  ( 0.000000000000000000, -1.000000000000000000, 0.000000000000000000 ) ) ;
#998 = LINE ( 'NONE', #128, #116 ) ;
#999 = EDGE_LOOP ( 'NONE', ( #279, #273, #349, #1077 ) ) ;
#1000 = STYLED_ITEM ( 'NONE', ( #806 ), #267 ) ;
#1001 = AXIS2_PLACEMENT_3D ( 'NONE', #129, #990, #393 ) ;
#1002 = VECTOR ( 'NONE', #980, 1000.000000000000000 ) ;
#1003 = PLANE ( 'NONE',  #626 ) ;
#1004 = CARTESIAN_POINT ( 'NONE',  ( 3.174999999999999822, 1.350000000000000533, 1.380000000000000782 ) ) ;
#1005 = VERTEX_POINT ( 'NONE', #904 ) ;
#1006 = CARTESIAN_POINT ( 'NONE',  ( 3.174999999999999822, 1.350000000000000533, 3.919999999999999041 ) ) ;
#1007 = PLANE ( 'NONE',  #894 ) ;
#1008 = VERTEX_POINT ( 'NONE', #212 ) ;
#1009 = PRESENTATION_STYLE_ASSIGNMENT (( #1013 ) ) ;
#1010 = CARTESIAN_POINT ( 'NONE',  ( 0.7999999999999999334, -3.649999999999999467, 3.919999999999999041 ) ) ;
#1011 = ADVANCED_FACE ( 'NONE', ( #638, #572, #577 ), #831, .F. ) ;
#1012 = ORIENTED_EDGE ( 'NONE', *, *, #594, .T. ) ;
#1013 = SURFACE_STYLE_USAGE ( .BOTH. , #298 ) ;
#1014 = CIRCLE ( 'NONE', #585, 0.5000000000000000000 ) ;
#1015 = MECHANICAL_DESIGN_GEOMETRIC_PRESENTATION_REPRESENTATION (  '', ( #366 ), #1054 ) ;
#1016 = CARTESIAN_POINT ( 'NONE',  ( 0.7999999999999998224, 1.350000000000000533, 3.219999999999998863 ) ) ;
#1017 = AXIS2_PLACEMENT_3D ( 'NONE', #882, #1029, #234 ) ;
#1018 = SURFACE_SIDE_STYLE ('',( #401 ) ) ;
#1019 = ORIENTED_EDGE ( 'NONE', *, *, #440, .F. ) ;
#1020 = CARTESIAN_POINT ( 'NONE',  ( 3.174999999999998934, 3.649999999999999911, 0.000000000000000000 ) ) ;
#1021 = EDGE_CURVE ( 'NONE', #1102, #36, #112, .T. ) ;
#1022 =( NAMED_UNIT ( * ) SI_UNIT ( $, .STERADIAN. ) SOLID_ANGLE_UNIT ( ) );
#1023 = DIRECTION ( 'NONE',  ( 0.000000000000000000, -0.000000000000000000, 1.000000000000000000 ) ) ;
#1024 = VERTEX_POINT ( 'NONE', #1004 ) ;
#1025 = FILL_AREA_STYLE_COLOUR ( '', #566 ) ;
#1026 = EDGE_CURVE ( 'NONE', #153, #252, #998, .T. ) ;
#1027 = LINE ( 'NONE', #570, #463 ) ;
#1028 = EDGE_LOOP ( 'NONE', ( #896, #943, #678, #608 ) ) ;
#1029 = DIRECTION ( 'NONE',  ( 0.000000000000000000, 0.000000000000000000, 1.000000000000000000 ) ) ;
#1030 = SURFACE_STYLE_FILL_AREA ( #37 ) ;
#1031 = VECTOR ( 'NONE', #196, 1000.000000000000000 ) ;
#1032 = AXIS2_PLACEMENT_3D ( 'NONE', #727, #104, #812 ) ;
#1033 = VECTOR ( 'NONE', #868, 1000.000000000000000 ) ;
#1034 = FILL_AREA_STYLE ('',( #848 ) ) ;
#1035 = ORIENTED_EDGE ( 'NONE', *, *, #774, .F. ) ;
#1036 = FILL_AREA_STYLE_COLOUR ( '', #526 ) ;
#1037 = DIRECTION ( 'NONE',  ( -0.000000000000000000, 1.000000000000000000, -0.000000000000000000 ) ) ;
#1038 = CARTESIAN_POINT ( 'NONE',  ( -2.674999999999999822, -1.649999999999999023, 2.299999999999999822 ) ) ;
#1039 = CARTESIAN_POINT ( 'NONE',  ( -2.674999999999999822, -2.649999999999999023, 2.299999999999999822 ) ) ;
#1040 =( NAMED_UNIT ( * ) PLANE_ANGLE_UNIT ( ) SI_UNIT ( $, .RADIAN. ) );
#1041 = EDGE_CURVE ( 'NONE', #595, #153, #482, .T. ) ;
#1042 = EDGE_LOOP ( 'NONE', ( #536, #706, #919, #464 ) ) ;
#1043 = DIRECTION ( 'NONE',  ( -1.000000000000000000, -1.188166764367676342E-16, 0.000000000000000000 ) ) ;
#1044 = ORIENTED_EDGE ( 'NONE', *, *, #774, .T. ) ;
#1045 = EDGE_CURVE ( 'NONE', #595, #1060, #929, .T. ) ;
#1046 = EDGE_LOOP ( 'NONE', ( #819, #757, #586, #773 ) ) ;
#1047 =( NAMED_UNIT ( * ) SI_UNIT ( $, .STERADIAN. ) SOLID_ANGLE_UNIT ( ) );
#1048 = VECTOR ( 'NONE', #6, 1000.000000000000000 ) ;
#1049 = DIRECTION ( 'NONE',  ( 1.000000000000000000, -0.000000000000000000, 1.826024711554534160E-16 ) ) ;
#1050 = VERTEX_POINT ( 'NONE', #13 ) ;
#1051 = CIRCLE ( 'NONE', #1104, 0.5000000000000000000 ) ;
#1052 = CARTESIAN_POINT ( 'NONE',  ( -3.174999999999999822, -3.649999999999999467, 0.000000000000000000 ) ) ;
#1053 = COLOUR_RGB ( '',0.6666666666666666297, 0.6980392156862744724, 0.7686274509803920907 ) ;
#1054 =( GEOMETRIC_REPRESENTATION_CONTEXT ( 3 ) GLOBAL_UNCERTAINTY_ASSIGNED_CONTEXT ( ( #105 ) ) GLOBAL_UNIT_ASSIGNED_CONTEXT ( ( #1078, #996, #598 ) ) REPRESENTATION_CONTEXT ( 'NONE', 'WORKASPACE' ) );
#1055 = UNCERTAINTY_MEASURE_WITH_UNIT (LENGTH_MEASURE( 1.000000000000000082E-05 ), #1083, 'distance_accuracy_value', 'NONE');
#1056 = CARTESIAN_POINT ( 'NONE',  ( 3.174999999999999822, 1.350000000000000533, 1.380000000000000782 ) ) ;
#1057 = DIRECTION ( 'NONE',  ( -0.000000000000000000, 1.000000000000000000, -0.000000000000000000 ) ) ;
#1058 = VERTEX_POINT ( 'NONE', #755 ) ;
#1059 = SURFACE_STYLE_USAGE ( .BOTH. , #548 ) ;
#1060 = VERTEX_POINT ( 'NONE', #1096 ) ;
#1061 = CARTESIAN_POINT ( 'NONE',  ( 3.174999999999999822, -3.649999999999999467, 4.599999999999999645 ) ) ;
#1062 = ADVANCED_FACE ( 'NONE', ( #730 ), #288, .F. ) ;
#1063 = ORIENTED_EDGE ( 'NONE', *, *, #140, .F. ) ;
#1064 = CARTESIAN_POINT ( 'NONE',  ( 1.000000000000000222, 1.350000000000000533, 3.370000000000000107 ) ) ;
#1065 = DIRECTION ( 'NONE',  ( -0.000000000000000000, 0.000000000000000000, 1.000000000000000000 ) ) ;
#1066 = UNCERTAINTY_MEASURE_WITH_UNIT (LENGTH_MEASURE( 1.000000000000000082E-05 ), #60, 'distance_accuracy_value', 'NONE');
#1067 =( NAMED_UNIT ( * ) PLANE_ANGLE_UNIT ( ) SI_UNIT ( $, .RADIAN. ) );
#1068 = DIRECTION ( 'NONE',  ( -0.000000000000000000, 1.000000000000000000, -0.000000000000000000 ) ) ;
#1069 = ORIENTED_EDGE ( 'NONE', *, *, #305, .T. ) ;
#1070 = DIRECTION ( 'NONE',  ( 1.000000000000000000, 0.000000000000000000, 0.000000000000000000 ) ) ;
#1071 = VECTOR ( 'NONE', #295, 1000.000000000000000 ) ;
#1072 = CIRCLE ( 'NONE', #599, 0.5000000000000000000 ) ;
#1073 = ORIENTED_EDGE ( 'NONE', *, *, #498, .F. ) ;
#1074 = CYLINDRICAL_SURFACE ( 'NONE', #308, 1.450000000000000178 ) ;
#1075 = FILL_AREA_STYLE ('',( #834 ) ) ;
#1076 = DIRECTION ( 'NONE',  ( -0.000000000000000000, 1.000000000000000000, -0.000000000000000000 ) ) ;
#1077 = ORIENTED_EDGE ( 'NONE', *, *, #351, .F. ) ;
#1078 =( LENGTH_UNIT ( ) NAMED_UNIT ( * ) SI_UNIT ( .MILLI., .METRE. ) );
#1079 = DIRECTION ( 'NONE',  ( 1.000000000000000000, 1.188166764367676342E-16, -0.000000000000000000 ) ) ;
#1080 = ORIENTED_EDGE ( 'NONE', *, *, #723, .F. ) ;
#1081 = ADVANCED_FACE ( 'NONE', ( #847 ), #41, .F. ) ;
#1082 = FILL_AREA_STYLE_COLOUR ( '', #133 ) ;
#1083 =( LENGTH_UNIT ( ) NAMED_UNIT ( * ) SI_UNIT ( .MILLI., .METRE. ) );
#1084 = FACE_OUTER_BOUND ( 'NONE', #261, .T. ) ;
#1085 = DIRECTION ( 'NONE',  ( -1.000000000000000000, 0.000000000000000000, -0.000000000000000000 ) ) ;
#1086 = ORIENTED_EDGE ( 'NONE', *, *, #402, .F. ) ;
#1087 = AXIS2_PLACEMENT_3D ( 'NONE', #462, #445, #715 ) ;
#1088 = STYLED_ITEM ( 'NONE', ( #1123 ), #431 ) ;
#1089 = VECTOR ( 'NONE', #173, 1000.000000000000000 ) ;
#1090 = CARTESIAN_POINT ( 'NONE',  ( 1.450000000000000178, 1.350000000000000533, 3.370000000000000107 ) ) ;
#1091 = DIRECTION ( 'NONE',  ( -1.000000000000000000, -1.188166764367676342E-16, 0.000000000000000000 ) ) ;
#1092 = DIRECTION ( 'NONE',  ( -0.000000000000000000, -1.000000000000000000, -0.000000000000000000 ) ) ;
#1093 = ORIENTED_EDGE ( 'NONE', *, *, #152, .F. ) ;
#1094 = EDGE_CURVE ( 'NONE', #1008, #1102, #407, .T. ) ;
#1095 =( NAMED_UNIT ( * ) PLANE_ANGLE_UNIT ( ) SI_UNIT ( $, .RADIAN. ) );
#1096 = CARTESIAN_POINT ( 'NONE',  ( 3.174999999999999822, -3.649999999999999467, 3.919999999999999041 ) ) ;
#1097 = SURFACE_SIDE_STYLE ('',( #306 ) ) ;
#1098 = ORIENTED_EDGE ( 'NONE', *, *, #534, .T. ) ;
#1099 = CARTESIAN_POINT ( 'NONE',  ( 1.450000000000000622, -7.150000000000000355, 1.230000000000000648 ) ) ;
#1100 = DIRECTION ( 'NONE',  ( 0.000000000000000000, 0.000000000000000000, -1.000000000000000000 ) ) ;
#1101 = CARTESIAN_POINT ( 'NONE',  ( 3.174999999999999822, -3.649999999999999467, 1.380000000000000782 ) ) ;
#1102 = VERTEX_POINT ( 'NONE', #284 ) ;
#1103 = AXIS2_PLACEMENT_3D ( 'NONE', #871, #236, #155 ) ;
#1104 = AXIS2_PLACEMENT_3D ( 'NONE', #884, #148, #1134 ) ;
#1105 = AXIS2_PLACEMENT_3D ( 'NONE', #872, #510, #72 ) ;
#1106 = VECTOR ( 'NONE', #1068, 1000.000000000000000 ) ;
#1107 = EDGE_LOOP ( 'NONE', ( #263, #179, #379, #971 ) ) ;
#1108 = EDGE_CURVE ( 'NONE', #343, #876, #124, .T. ) ;
#1109 = DIRECTION ( 'NONE',  ( 0.000000000000000000, -1.000000000000000000, 0.000000000000000000 ) ) ;
#1110 = ORIENTED_EDGE ( 'NONE', *, *, #685, .F. ) ;
#1111 = PRESENTATION_STYLE_ASSIGNMENT (( #938 ) ) ;
#1112 = FACE_OUTER_BOUND ( 'NONE', #318, .T. ) ;
#1113 = CARTESIAN_POINT ( 'NONE',  ( -3.174999999999999822, -3.649999999999999467, 4.599999999999999645 ) ) ;
#1114 = VERTEX_POINT ( 'NONE', #1101 ) ;
#1115 = DIRECTION ( 'NONE',  ( 0.000000000000000000, -1.000000000000000000, 0.000000000000000000 ) ) ;
#1116 = EDGE_CURVE ( 'NONE', #1102, #1008, #312, .T. ) ;
#1117 = PRESENTATION_LAYER_ASSIGNMENT (  '', '', ( #483 ) ) ;
#1118 = FILL_AREA_STYLE ('',( #676 ) ) ;
#1119 = VECTOR ( 'NONE', #1092, 1000.000000000000000 ) ;
#1120 = VERTEX_POINT ( 'NONE', #947 ) ;
#1121 = CARTESIAN_POINT ( 'NONE',  ( 1.000000000000000222, -7.150000000000000355, 3.770000000000000462 ) ) ;
#1122 = ADVANCED_FACE ( 'NONE', ( #499 ), #776, .F. ) ;
#1123 = PRESENTATION_STYLE_ASSIGNMENT (( #787 ) ) ;
#1124 = ORIENTED_EDGE ( 'NONE', *, *, #1045, .F. ) ;
#1125 = PRODUCT_DEFINITION_SHAPE ( 'NONE', 'NONE',  #473 ) ;
#1126 = FILL_AREA_STYLE ('',( #166 ) ) ;
#1127 = UNCERTAINTY_MEASURE_WITH_UNIT (LENGTH_MEASURE( 1.000000000000000082E-05 ), #24, 'distance_accuracy_value', 'NONE');
#1128 = CARTESIAN_POINT ( 'NONE',  ( -3.175000000000000711, 3.649999999999999911, 0.000000000000000000 ) ) ;
#1129 = ORIENTED_EDGE ( 'NONE', *, *, #389, .F. ) ;
#1130 = DIRECTION ( 'NONE',  ( -0.000000000000000000, 0.000000000000000000, 1.000000000000000000 ) ) ;
#1131 = EDGE_CURVE ( 'NONE', #698, #1120, #507, .T. ) ;
#1132 = CARTESIAN_POINT ( 'NONE',  ( 3.174999999999999822, 1.350000000000000533, 1.380000000000000782 ) ) ;
#1133 = CARTESIAN_POINT ( 'NONE',  ( -3.175000000000000711, 3.649999999999999911, 0.000000000000000000 ) ) ;
#1134 = DIRECTION ( 'NONE',  ( 0.000000000000000000, -1.000000000000000000, 0.000000000000000000 ) ) ;
#1135 = LINE ( 'NONE', #1121, #984 ) ;
#1136 = MECHANICAL_DESIGN_GEOMETRIC_PRESENTATION_REPRESENTATION (  '', ( #1000 ), #381 ) ;
#1137 = ORIENTED_EDGE ( 'NONE', *, *, #977, .T. ) ;
#1138 = VECTOR ( 'NONE', #856, 1000.000000000000000 ) ;
#1139 = LINE ( 'NONE', #94, #53 ) ;
#1140 = MECHANICAL_DESIGN_GEOMETRIC_PRESENTATION_REPRESENTATION (  '', ( #387 ), #238 ) ;
#1141 = EDGE_CURVE ( 'NONE', #1050, #768, #54, .T. ) ;
#1142 =( NAMED_UNIT ( * ) PLANE_ANGLE_UNIT ( ) SI_UNIT ( $, .RADIAN. ) );
#1143 = VECTOR ( 'NONE', #918, 1000.000000000000000 ) ;
#1144 = CARTESIAN_POINT ( 'NONE',  ( 1.450000000000000178, -7.150000000000000355, 3.770000000000000462 ) ) ;
#1145 = ORIENTED_EDGE ( 'NONE', *, *, #1116, .F. ) ;
#1146 = DIRECTION ( 'NONE',  ( -1.000000000000000000, 0.000000000000000000, 0.000000000000000000 ) ) ;
ENDSEC;
END-ISO-10303-21;
