%TF.GenerationSoftware,KiCad,Pcbnew,10.0.5*%
%TF.CreationDate,2026-08-23T14:46:19-07:00*%
%TF.ProjectId,RP2350A Dev Board,52503233-3530-4412-9044-657620426f61,rev?*%
%TF.SameCoordinates,Original*%
%TF.FileFunction,Soldermask,Bot*%
%TF.FilePolarity,Negative*%
%FSLAX46Y46*%
G04 Gerber Fmt 4.6, Leading zero omitted, Abs format (unit mm)*
G04 Created by KiCad (PCBNEW 10.0.5) date 2026-08-23 14:46:19*
%MOMM*%
%LPD*%
G01*
G04 APERTURE LIST*
G04 Aperture macros list*
%AMRoundRect*
0 Rectangle with rounded corners*
0 $1 Rounding radius*
0 $2 $3 $4 $5 $6 $7 $8 $9 X,Y pos of 4 corners*
0 Add a 4 corners polygon primitive as box body*
4,1,4,$2,$3,$4,$5,$6,$7,$8,$9,$2,$3,0*
0 Add four circle primitives for the rounded corners*
1,1,$1+$1,$2,$3*
1,1,$1+$1,$4,$5*
1,1,$1+$1,$6,$7*
1,1,$1+$1,$8,$9*
0 Add four rect primitives between the rounded corners*
20,1,$1+$1,$2,$3,$4,$5,0*
20,1,$1+$1,$4,$5,$6,$7,0*
20,1,$1+$1,$6,$7,$8,$9,0*
20,1,$1+$1,$8,$9,$2,$3,0*%
G04 Aperture macros list end*
%ADD10C,0.800000*%
%ADD11C,6.400000*%
%ADD12R,1.700000X1.700000*%
%ADD13C,1.700000*%
%ADD14C,0.650000*%
%ADD15O,1.000000X2.100000*%
%ADD16O,1.000000X1.800000*%
%ADD17RoundRect,0.135000X0.185000X-0.135000X0.185000X0.135000X-0.185000X0.135000X-0.185000X-0.135000X0*%
%ADD18RoundRect,0.135000X-0.185000X0.135000X-0.185000X-0.135000X0.185000X-0.135000X0.185000X0.135000X0*%
G04 APERTURE END LIST*
D10*
%TO.C,H1*%
X193600000Y-54000000D03*
X194302944Y-52302944D03*
X194302944Y-55697056D03*
X196000000Y-51600000D03*
D11*
X196000000Y-54000000D03*
D10*
X196000000Y-56400000D03*
X197697056Y-52302944D03*
X197697056Y-55697056D03*
X198400000Y-54000000D03*
%TD*%
D12*
%TO.C,J2*%
X152000000Y-145000000D03*
D13*
X152000000Y-142460000D03*
X154540000Y-145000000D03*
X154540000Y-142460000D03*
X157080000Y-145000000D03*
X157080000Y-142460000D03*
X159620000Y-145000000D03*
X159620000Y-142460000D03*
X162160000Y-145000000D03*
X162160000Y-142460000D03*
X164700000Y-145000000D03*
X164700000Y-142460000D03*
X167240000Y-145000000D03*
X167240000Y-142460000D03*
X169780000Y-145000000D03*
X169780000Y-142460000D03*
X172320000Y-145000000D03*
X172320000Y-142460000D03*
X174860000Y-145000000D03*
X174860000Y-142460000D03*
X177400000Y-145000000D03*
X177400000Y-142460000D03*
X179940000Y-145000000D03*
X179940000Y-142460000D03*
X182480000Y-145000000D03*
X182480000Y-142460000D03*
X185020000Y-145000000D03*
X185020000Y-142460000D03*
X187560000Y-145000000D03*
X187560000Y-142460000D03*
X190100000Y-145000000D03*
X190100000Y-142460000D03*
%TD*%
D12*
%TO.C,J1*%
X110000000Y-145000000D03*
D13*
X110000000Y-142460000D03*
X112540000Y-145000000D03*
X112540000Y-142460000D03*
X115080000Y-145000000D03*
X115080000Y-142460000D03*
X117620000Y-145000000D03*
X117620000Y-142460000D03*
X120160000Y-145000000D03*
X120160000Y-142460000D03*
X122700000Y-145000000D03*
X122700000Y-142460000D03*
X125240000Y-145000000D03*
X125240000Y-142460000D03*
X127780000Y-145000000D03*
X127780000Y-142460000D03*
X130320000Y-145000000D03*
X130320000Y-142460000D03*
X132860000Y-145000000D03*
X132860000Y-142460000D03*
X135400000Y-145000000D03*
X135400000Y-142460000D03*
X137940000Y-145000000D03*
X137940000Y-142460000D03*
X140480000Y-145000000D03*
X140480000Y-142460000D03*
X143020000Y-145000000D03*
X143020000Y-142460000D03*
X145560000Y-145000000D03*
X145560000Y-142460000D03*
X148100000Y-145000000D03*
X148100000Y-142460000D03*
%TD*%
D10*
%TO.C,H4*%
X101600000Y-146000000D03*
X102302944Y-144302944D03*
X102302944Y-147697056D03*
X104000000Y-143600000D03*
D11*
X104000000Y-146000000D03*
D10*
X104000000Y-148400000D03*
X105697056Y-144302944D03*
X105697056Y-147697056D03*
X106400000Y-146000000D03*
%TD*%
D14*
%TO.C,J3*%
X182890000Y-55105000D03*
X177110000Y-55105000D03*
D15*
X184320000Y-55605000D03*
D16*
X184320000Y-51425000D03*
D15*
X175680000Y-55605000D03*
D16*
X175680000Y-51425000D03*
%TD*%
D14*
%TO.C,J4*%
X122890000Y-55105000D03*
X117110000Y-55105000D03*
D15*
X124320000Y-55605000D03*
D16*
X124320000Y-51425000D03*
D15*
X115680000Y-55605000D03*
D16*
X115680000Y-51425000D03*
%TD*%
D10*
%TO.C,H3*%
X193600000Y-146000000D03*
X194302944Y-144302944D03*
X194302944Y-147697056D03*
X196000000Y-143600000D03*
D11*
X196000000Y-146000000D03*
D10*
X196000000Y-148400000D03*
X197697056Y-144302944D03*
X197697056Y-147697056D03*
X198400000Y-146000000D03*
%TD*%
%TO.C,H2*%
X101600000Y-54000000D03*
X102302944Y-52302944D03*
X102302944Y-55697056D03*
X104000000Y-51600000D03*
D11*
X104000000Y-54000000D03*
D10*
X104000000Y-56400000D03*
X105697056Y-52302944D03*
X105697056Y-55697056D03*
X106400000Y-54000000D03*
%TD*%
D17*
%TO.C,R18*%
X112170000Y-65730000D03*
X112170000Y-64710000D03*
%TD*%
%TO.C,R12*%
X113798091Y-64842574D03*
X113798091Y-63822574D03*
%TD*%
%TO.C,R19*%
X112110000Y-63030000D03*
X112110000Y-62010000D03*
%TD*%
D18*
%TO.C,R21*%
X113750000Y-68390000D03*
X113750000Y-69410000D03*
%TD*%
%TO.C,R20*%
X113798091Y-65762574D03*
X113798091Y-66782574D03*
%TD*%
%TO.C,R24*%
X115740000Y-68550000D03*
X115740000Y-69570000D03*
%TD*%
%TO.C,R23*%
X115728091Y-65772574D03*
X115728091Y-66792574D03*
%TD*%
D17*
%TO.C,R13*%
X113798091Y-62452574D03*
X113798091Y-61432574D03*
%TD*%
M02*
