M48
; DRILL file KiCad 10.0.5 date 2026-08-23T14:46:21
; FORMAT={-:-/ absolute / metric / decimal}
; #@! TF.CreationDate,2026-08-23T14:46:21-07:00
; #@! TF.GenerationSoftware,Kicad,Pcbnew,10.0.5
; #@! TF.FileFunction,Plated,1,2,PTH
FMAT,2
METRIC
; #@! TA.AperFunction,Plated,PTH,ViaDrill
T1C0.300
; #@! TA.AperFunction,Plated,PTH,ComponentDrill
T2C0.300
; #@! TA.AperFunction,Plated,PTH,ComponentDrill
T3C0.500
; #@! TA.AperFunction,Plated,PTH,ComponentDrill
T4C0.600
; #@! TA.AperFunction,Plated,PTH,ComponentDrill
T5C1.000
; #@! TA.AperFunction,Plated,PTH,ComponentDrill
T6C3.200
%
G90
G05
T1
X102.12Y-65.52
X105.32Y-67.22
X105.32Y-68.22
X105.32Y-69.17
X106.07Y-67.22
X106.07Y-68.22
X106.07Y-69.17
X106.136Y-102.79
X106.216Y-120.98
X106.3Y-84.97
X106.82Y-67.22
X106.82Y-68.22
X106.82Y-69.17
X106.886Y-102.79
X106.966Y-120.98
X107.01Y-84.98
X107.636Y-102.79
X107.71Y-84.97
X107.716Y-120.98
X107.83Y-69.88
X107.83Y-75.45
X107.906Y-115.7
X107.936Y-79.62
X107.986Y-97.45
X108.366Y-84.97
X108.386Y-102.79
X108.466Y-120.98
X108.7Y-117.15
X108.706Y-80.17
X108.706Y-81.17
X108.72Y-118.15
X108.74Y-98.84
X108.76Y-99.91
X108.82Y-66.84
X111.786Y-121.26
X111.786Y-122.06
X111.866Y-85.204
X111.866Y-86.004
X111.936Y-103.0
X111.936Y-103.8
X112.16Y-63.853
X112.536Y-121.26
X112.536Y-122.06
X112.616Y-85.204
X112.616Y-86.004
X112.686Y-103.0
X112.686Y-103.8
X112.93Y-62.06
X112.95Y-60.11
X112.98Y-61.11
X112.99Y-64.61
X113.09Y-135.5
X113.286Y-121.41
X113.286Y-122.41
X113.286Y-123.41
X113.366Y-85.354
X113.366Y-86.354
X113.366Y-87.354
X113.436Y-103.15
X113.436Y-104.15
X113.436Y-105.15
X113.736Y-114.34
X113.736Y-115.34
X113.75Y-67.6
X113.788Y-63.173
X113.936Y-78.3
X113.936Y-79.3
X114.006Y-96.11
X114.006Y-97.11
X114.036Y-121.41
X114.036Y-122.41
X114.036Y-123.41
X114.116Y-85.354
X114.116Y-86.354
X114.116Y-87.354
X114.186Y-103.15
X114.186Y-104.15
X114.186Y-105.15
X114.486Y-114.34
X114.486Y-115.34
X114.686Y-78.3
X114.686Y-79.3
X114.688Y-66.593
X114.756Y-96.11
X114.756Y-97.11
X114.786Y-121.41
X114.786Y-122.41
X114.786Y-123.41
X114.786Y-124.36
X114.786Y-125.36
X114.786Y-126.36
X114.786Y-127.27
X114.786Y-128.27
X114.866Y-85.354
X114.866Y-86.354
X114.866Y-87.354
X114.866Y-88.304
X114.866Y-89.304
X114.866Y-90.304
X114.866Y-91.214
X114.866Y-92.214
X114.936Y-103.15
X114.936Y-104.15
X114.936Y-105.15
X114.936Y-106.1
X114.936Y-107.1
X114.936Y-108.1
X114.936Y-109.01
X114.936Y-110.01
X114.994Y-62.786
X115.236Y-114.34
X115.236Y-115.34
X115.436Y-78.3
X115.436Y-79.3
X115.506Y-96.11
X115.506Y-97.11
X115.536Y-121.41
X115.536Y-122.41
X115.536Y-123.41
X115.536Y-124.36
X115.536Y-125.36
X115.536Y-126.36
X115.536Y-127.27
X115.536Y-128.27
X115.616Y-85.354
X115.616Y-86.354
X115.616Y-87.354
X115.616Y-88.304
X115.616Y-89.304
X115.616Y-90.304
X115.616Y-91.214
X115.616Y-92.214
X115.686Y-103.15
X115.686Y-104.15
X115.686Y-105.15
X115.686Y-106.1
X115.686Y-107.1
X115.686Y-108.1
X115.686Y-109.01
X115.686Y-110.01
X115.738Y-67.67
X115.986Y-114.34
X115.986Y-115.34
X116.186Y-78.3
X116.186Y-79.3
X116.256Y-96.11
X116.256Y-97.11
X116.286Y-121.41
X116.286Y-122.41
X116.286Y-123.41
X116.286Y-124.36
X116.286Y-125.36
X116.286Y-126.36
X116.286Y-127.27
X116.286Y-128.27
X116.366Y-85.354
X116.366Y-86.354
X116.366Y-87.354
X116.366Y-88.304
X116.366Y-89.304
X116.366Y-90.304
X116.366Y-91.214
X116.366Y-92.214
X116.436Y-103.15
X116.436Y-104.15
X116.436Y-105.15
X116.436Y-106.1
X116.436Y-107.1
X116.436Y-108.1
X116.436Y-109.01
X116.436Y-110.01
X116.673Y-68.77
X116.69Y-61.24
X116.7Y-60.64
X116.71Y-60.04
X117.036Y-121.41
X117.036Y-122.41
X117.036Y-123.41
X117.036Y-124.36
X117.036Y-125.36
X117.036Y-126.36
X117.036Y-127.27
X117.036Y-128.27
X117.116Y-85.354
X117.116Y-86.354
X117.116Y-87.354
X117.116Y-88.304
X117.116Y-89.304
X117.116Y-90.304
X117.116Y-91.214
X117.116Y-92.214
X117.186Y-103.15
X117.186Y-104.15
X117.186Y-105.15
X117.186Y-106.1
X117.186Y-107.1
X117.186Y-108.1
X117.186Y-109.01
X117.186Y-110.01
X117.29Y-61.25
X117.3Y-60.65
X117.31Y-60.05
X117.52Y-69.76
X117.856Y-123.4
X117.856Y-124.4
X117.856Y-125.4
X117.936Y-87.344
X117.936Y-88.344
X117.936Y-89.344
X118.006Y-105.14
X118.006Y-106.14
X118.006Y-107.14
X118.06Y-135.52
X118.3Y-55.08
X118.606Y-123.4
X118.606Y-124.4
X118.606Y-125.4
X118.686Y-87.344
X118.686Y-88.344
X118.686Y-89.344
X118.756Y-105.14
X118.756Y-106.14
X118.756Y-107.14
X119.23Y-60.22
X119.356Y-123.4
X119.356Y-124.4
X119.356Y-125.4
X119.436Y-87.344
X119.436Y-88.344
X119.436Y-89.344
X119.506Y-105.14
X119.506Y-106.14
X119.506Y-107.14
X120.106Y-123.4
X120.106Y-124.4
X120.106Y-125.4
X120.186Y-87.344
X120.186Y-88.344
X120.186Y-89.344
X120.256Y-105.14
X120.256Y-106.14
X120.256Y-107.14
X120.36Y-60.22
X120.456Y-117.47
X120.49Y-58.48
X120.696Y-81.02
X120.906Y-123.4
X120.906Y-124.4
X120.906Y-125.4
X120.986Y-87.344
X120.986Y-88.344
X120.986Y-89.344
X121.056Y-105.14
X121.056Y-106.14
X121.056Y-107.14
X121.136Y-98.87
X121.146Y-60.326
X121.26Y-54.99
X121.656Y-123.4
X121.656Y-124.4
X121.656Y-125.4
X121.736Y-87.344
X121.736Y-88.344
X121.736Y-89.344
X121.806Y-105.14
X121.806Y-106.14
X121.806Y-107.14
X121.828Y-60.33
X122.406Y-123.4
X122.406Y-124.4
X122.406Y-125.4
X122.486Y-87.344
X122.486Y-88.344
X122.486Y-89.344
X122.556Y-105.14
X122.556Y-106.14
X122.556Y-107.14
X123.156Y-123.4
X123.156Y-124.4
X123.156Y-125.4
X123.236Y-87.344
X123.236Y-88.344
X123.236Y-89.344
X123.28Y-136.94
X123.306Y-105.14
X123.306Y-106.14
X123.306Y-107.14
X123.976Y-123.4
X123.976Y-124.4
X123.976Y-125.4
X124.056Y-87.344
X124.056Y-88.344
X124.056Y-89.344
X124.126Y-105.14
X124.126Y-106.14
X124.126Y-107.14
X124.726Y-123.4
X124.726Y-124.4
X124.726Y-125.4
X124.806Y-87.344
X124.806Y-88.344
X124.806Y-89.344
X124.876Y-105.14
X124.876Y-106.14
X124.876Y-107.14
X125.81Y-71.97
X125.84Y-73.12
X127.28Y-61.08
X127.28Y-62.08
X127.28Y-63.08
X128.05Y-61.07
X128.05Y-62.07
X128.05Y-63.07
X128.06Y-64.0
X128.06Y-65.0
X128.06Y-66.0
X128.06Y-66.95
X128.06Y-67.95
X128.06Y-68.95
X128.06Y-69.86
X128.06Y-70.86
X128.46Y-137.02
X128.8Y-61.07
X128.8Y-62.07
X128.8Y-63.07
X128.81Y-64.0
X128.81Y-65.0
X128.81Y-66.0
X128.81Y-66.95
X128.81Y-67.95
X128.81Y-68.95
X128.81Y-69.86
X128.81Y-70.86
X129.55Y-61.07
X129.55Y-62.07
X129.55Y-63.07
X129.56Y-64.0
X129.56Y-65.0
X129.56Y-66.0
X129.56Y-66.95
X129.56Y-67.95
X129.56Y-68.95
X129.56Y-69.86
X129.56Y-70.86
X131.97Y-107.7
X133.79Y-76.27
X134.43Y-94.06
X135.28Y-75.1
X144.55Y-99.15
X144.56Y-94.06
X144.66Y-87.01
X144.665Y-84.545
X154.55Y-83.83
X159.03Y-83.85
X160.296Y-105.84
X160.4Y-95.07
X160.41Y-108.08
X161.07Y-103.55
X162.57Y-97.95
X162.71Y-105.84
X163.67Y-113.355
X164.4Y-89.67
X166.87Y-119.27
X166.97Y-116.49
X167.31Y-105.84
X167.47Y-114.87
X168.46Y-105.04
X168.47Y-106.04
X168.48Y-107.24
X168.58Y-95.85
X169.57Y-105.04
X169.57Y-106.04
X169.57Y-107.24
X170.32Y-108.3
X170.32Y-113.22
X170.66Y-105.04
X170.67Y-106.04
X170.67Y-107.24
X171.22Y-98.8
X171.22Y-99.4
X171.22Y-103.8
X171.77Y-114.89
X171.82Y-105.8
X172.27Y-120.87
X172.37Y-116.49
X173.24Y-124.25
X173.67Y-99.09
X173.69Y-99.69
X174.635Y-100.405
X176.03Y-57.81
X176.32Y-105.8
X178.36Y-110.54
X178.95Y-106.19
X179.06Y-105.09
X179.23Y-101.19
X183.57Y-57.88
T2
X116.728Y-64.443
X117.763Y-63.443
X117.763Y-64.443
X117.763Y-65.443
X118.728Y-64.443
X120.288Y-63.443
X120.288Y-64.443
X120.288Y-65.443
T3
X101.6Y-54.0
X101.6Y-146.0
X102.303Y-52.303
X102.303Y-55.697
X102.303Y-144.303
X102.303Y-147.697
X104.0Y-51.6
X104.0Y-56.4
X104.0Y-143.6
X104.0Y-148.4
X105.697Y-52.303
X105.697Y-55.697
X105.697Y-144.303
X105.697Y-147.697
X106.4Y-54.0
X106.4Y-146.0
X193.6Y-54.0
X193.6Y-146.0
X194.303Y-52.303
X194.303Y-55.697
X194.303Y-144.303
X194.303Y-147.697
X196.0Y-51.6
X196.0Y-56.4
X196.0Y-143.6
X196.0Y-148.4
X197.697Y-52.303
X197.697Y-55.697
X197.697Y-144.303
X197.697Y-147.697
X198.4Y-54.0
X198.4Y-146.0
T5
X110.0Y-142.46
X110.0Y-145.0
X112.54Y-142.46
X112.54Y-145.0
X115.08Y-142.46
X115.08Y-145.0
X117.62Y-142.46
X117.62Y-145.0
X120.16Y-142.46
X120.16Y-145.0
X122.7Y-142.46
X122.7Y-145.0
X125.24Y-142.46
X125.24Y-145.0
X127.78Y-142.46
X127.78Y-145.0
X130.32Y-142.46
X130.32Y-145.0
X132.86Y-142.46
X132.86Y-145.0
X135.4Y-142.46
X135.4Y-145.0
X137.94Y-142.46
X137.94Y-145.0
X140.48Y-142.46
X140.48Y-145.0
X143.02Y-142.46
X143.02Y-145.0
X145.56Y-142.46
X145.56Y-145.0
X148.1Y-142.46
X148.1Y-145.0
X152.0Y-142.46
X152.0Y-145.0
X154.54Y-142.46
X154.54Y-145.0
X157.08Y-142.46
X157.08Y-145.0
X159.62Y-142.46
X159.62Y-145.0
X162.16Y-142.46
X162.16Y-145.0
X164.7Y-142.46
X164.7Y-145.0
X167.24Y-142.46
X167.24Y-145.0
X169.78Y-142.46
X169.78Y-145.0
X172.32Y-142.46
X172.32Y-145.0
X174.86Y-142.46
X174.86Y-145.0
X177.4Y-142.46
X177.4Y-145.0
X179.94Y-142.46
X179.94Y-145.0
X182.48Y-142.46
X182.48Y-145.0
X185.02Y-142.46
X185.02Y-145.0
X187.56Y-142.46
X187.56Y-145.0
X190.1Y-142.46
X190.1Y-145.0
T6
X104.0Y-54.0
X104.0Y-146.0
X196.0Y-54.0
X196.0Y-146.0
T4
G00X115.68Y-51.825
M15
G01X115.68Y-51.025
M16
G05
G00X115.68Y-56.155
M15
G01X115.68Y-55.055
M16
G05
G00X124.32Y-51.825
M15
G01X124.32Y-51.025
M16
G05
G00X124.32Y-56.155
M15
G01X124.32Y-55.055
M16
G05
G00X175.68Y-51.825
M15
G01X175.68Y-51.025
M16
G05
G00X175.68Y-56.155
M15
G01X175.68Y-55.055
M16
G05
G00X184.32Y-51.825
M15
G01X184.32Y-51.025
M16
G05
G00X184.32Y-56.155
M15
G01X184.32Y-55.055
M16
G05
M30
