%TF.GenerationSoftware,KiCad,Pcbnew,10.0.5*%
%TF.CreationDate,2026-08-23T14:46:19-07:00*%
%TF.ProjectId,RP2350A Dev Board,52503233-3530-4412-9044-657620426f61,rev?*%
%TF.SameCoordinates,Original*%
%TF.FileFunction,Paste,Top*%
%TF.FilePolarity,Positive*%
%FSLAX46Y46*%
G04 Gerber Fmt 4.6, Leading zero omitted, Abs format (unit mm)*
G04 Created by KiCad (PCBNEW 10.0.5) date 2026-08-23 14:46:19*
%MOMM*%
%LPD*%
G01*
G04 APERTURE LIST*
G04 Aperture macros list*
%AMRoundRect*
0 Rectangle with rounded corners*
0 $1 Rounding radius*
0 $2 $3 $4 $5 $6 $7 $8 $9 X,Y pos of 4 corners*
0 Add a 4 corners polygon primitive as box body*
4,1,4,$2,$3,$4,$5,$6,$7,$8,$9,$2,$3,0*
0 Add four circle primitives for the rounded corners*
1,1,$1+$1,$2,$3*
1,1,$1+$1,$4,$5*
1,1,$1+$1,$6,$7*
1,1,$1+$1,$8,$9*
0 Add four rect primitives between the rounded corners*
20,1,$1+$1,$2,$3,$4,$5,0*
20,1,$1+$1,$4,$5,$6,$7,0*
20,1,$1+$1,$6,$7,$8,$9,0*
20,1,$1+$1,$8,$9,$2,$3,0*%
G04 Aperture macros list end*
%ADD10C,0.100000*%
%ADD11RoundRect,0.135000X-0.135000X-0.185000X0.135000X-0.185000X0.135000X0.185000X-0.135000X0.185000X0*%
%ADD12RoundRect,0.250000X-0.325000X-0.650000X0.325000X-0.650000X0.325000X0.650000X-0.325000X0.650000X0*%
%ADD13R,1.500000X3.000000*%
%ADD14RoundRect,0.140000X-0.140000X-0.170000X0.140000X-0.170000X0.140000X0.170000X-0.140000X0.170000X0*%
%ADD15RoundRect,0.140000X0.170000X-0.140000X0.170000X0.140000X-0.170000X0.140000X-0.170000X-0.140000X0*%
%ADD16RoundRect,0.225000X-0.225000X-0.250000X0.225000X-0.250000X0.225000X0.250000X-0.225000X0.250000X0*%
%ADD17RoundRect,0.135000X0.185000X-0.135000X0.185000X0.135000X-0.185000X0.135000X-0.185000X-0.135000X0*%
%ADD18RoundRect,0.135000X-0.185000X0.135000X-0.185000X-0.135000X0.185000X-0.135000X0.185000X0.135000X0*%
%ADD19RoundRect,0.140000X0.140000X0.170000X-0.140000X0.170000X-0.140000X-0.170000X0.140000X-0.170000X0*%
%ADD20RoundRect,0.050000X0.100000X-0.285000X0.100000X0.285000X-0.100000X0.285000X-0.100000X-0.285000X0*%
%ADD21RoundRect,0.135000X0.135000X0.185000X-0.135000X0.185000X-0.135000X-0.185000X0.135000X-0.185000X0*%
%ADD22RoundRect,0.250000X-1.100000X0.325000X-1.100000X-0.325000X1.100000X-0.325000X1.100000X0.325000X0*%
%ADD23R,0.980000X3.400000*%
%ADD24RoundRect,0.150000X0.150000X0.425000X-0.150000X0.425000X-0.150000X-0.425000X0.150000X-0.425000X0*%
%ADD25RoundRect,0.075000X0.075000X0.500000X-0.075000X0.500000X-0.075000X-0.500000X0.075000X-0.500000X0*%
%ADD26O,1.000000X2.100000*%
%ADD27O,1.000000X1.800000*%
%ADD28R,0.470000X0.530000*%
%ADD29RoundRect,0.175000X0.175000X-0.325000X0.175000X0.325000X-0.175000X0.325000X-0.175000X-0.325000X0*%
%ADD30R,0.700000X1.700000*%
%ADD31RoundRect,0.225000X-0.250000X0.225000X-0.250000X-0.225000X0.250000X-0.225000X0.250000X0.225000X0*%
%ADD32RoundRect,0.218750X-0.218750X-0.256250X0.218750X-0.256250X0.218750X0.256250X-0.218750X0.256250X0*%
%ADD33RoundRect,0.140000X-0.170000X0.140000X-0.170000X-0.140000X0.170000X-0.140000X0.170000X0.140000X0*%
%ADD34RoundRect,0.227500X-0.227500X-0.227500X0.227500X-0.227500X0.227500X0.227500X-0.227500X0.227500X0*%
%ADD35RoundRect,0.050000X-0.350000X-0.050000X0.350000X-0.050000X0.350000X0.050000X-0.350000X0.050000X0*%
%ADD36RoundRect,0.050000X-0.050000X-0.350000X0.050000X-0.350000X0.050000X0.350000X-0.050000X0.350000X0*%
%ADD37RoundRect,0.250000X0.335000X0.335000X-0.335000X0.335000X-0.335000X-0.335000X0.335000X-0.335000X0*%
%ADD38RoundRect,0.250000X0.345000X0.335000X-0.345000X0.335000X-0.345000X-0.335000X0.345000X-0.335000X0*%
%ADD39RoundRect,0.250000X0.450000X0.335000X-0.450000X0.335000X-0.450000X-0.335000X0.450000X-0.335000X0*%
%ADD40RoundRect,0.050000X-0.225000X-0.050000X0.225000X-0.050000X0.225000X0.050000X-0.225000X0.050000X0*%
%ADD41RoundRect,0.050000X0.050000X-0.225000X0.050000X0.225000X-0.050000X0.225000X-0.050000X-0.225000X0*%
%ADD42RoundRect,0.162500X-0.650000X-0.162500X0.650000X-0.162500X0.650000X0.162500X-0.650000X0.162500X0*%
%ADD43RoundRect,0.175000X-0.325000X-0.175000X0.325000X-0.175000X0.325000X0.175000X-0.325000X0.175000X0*%
%ADD44RoundRect,0.250000X-0.450000X-0.350000X0.450000X-0.350000X0.450000X0.350000X-0.450000X0.350000X0*%
%ADD45RoundRect,0.200000X0.275000X-0.200000X0.275000X0.200000X-0.275000X0.200000X-0.275000X-0.200000X0*%
%ADD46RoundRect,0.218750X-0.256250X0.218750X-0.256250X-0.218750X0.256250X-0.218750X0.256250X0.218750X0*%
G04 APERTURE END LIST*
D10*
%TO.C,U3*%
X117978091Y-62742574D02*
X117478091Y-62742574D01*
X117478091Y-62292574D01*
X117578091Y-62292574D01*
X117578091Y-62642574D01*
X117878091Y-62642574D01*
X117878091Y-62292574D01*
X117978091Y-62292574D01*
X117978091Y-62742574D01*
G36*
X117578091Y-62642574D02*
G01*
X117878091Y-62642574D01*
X117878091Y-62292574D01*
X117978091Y-62292574D01*
X117978091Y-62742574D01*
X117478091Y-62742574D01*
X117478091Y-62292574D01*
X117578091Y-62292574D01*
X117578091Y-62642574D01*
G37*
X118778091Y-62742574D02*
X118278091Y-62742574D01*
X118278091Y-62292574D01*
X118378091Y-62292574D01*
X118378091Y-62642574D01*
X118678091Y-62642574D01*
X118678091Y-62292574D01*
X118778091Y-62292574D01*
X118778091Y-62742574D01*
G36*
X118378091Y-62642574D02*
G01*
X118678091Y-62642574D01*
X118678091Y-62292574D01*
X118778091Y-62292574D01*
X118778091Y-62742574D01*
X118278091Y-62742574D01*
X118278091Y-62292574D01*
X118378091Y-62292574D01*
X118378091Y-62642574D01*
G37*
X121428091Y-63280074D02*
X121428091Y-64280074D01*
X121878091Y-64280074D01*
X121878091Y-64180074D01*
X121528091Y-64180074D01*
X121528091Y-63830074D01*
X121878091Y-63830074D01*
X121878091Y-63730074D01*
X121528091Y-63730074D01*
X121528091Y-63380074D01*
X121878091Y-63380074D01*
X121878091Y-63280074D01*
X121428091Y-63280074D01*
G36*
X121878091Y-63380074D02*
G01*
X121528091Y-63380074D01*
X121528091Y-63730074D01*
X121878091Y-63730074D01*
X121878091Y-63830074D01*
X121528091Y-63830074D01*
X121528091Y-64180074D01*
X121878091Y-64180074D01*
X121878091Y-64280074D01*
X121428091Y-64280074D01*
X121428091Y-63280074D01*
X121878091Y-63280074D01*
X121878091Y-63380074D01*
G37*
X121428091Y-64605074D02*
X121428091Y-65605074D01*
X121878091Y-65605074D01*
X121878091Y-65505074D01*
X121528091Y-65505074D01*
X121528091Y-65155074D01*
X121878091Y-65155074D01*
X121878091Y-65055074D01*
X121528091Y-65055074D01*
X121528091Y-64705074D01*
X121878091Y-64705074D01*
X121878091Y-64605074D01*
X121428091Y-64605074D01*
G36*
X121878091Y-64705074D02*
G01*
X121528091Y-64705074D01*
X121528091Y-65055074D01*
X121878091Y-65055074D01*
X121878091Y-65155074D01*
X121528091Y-65155074D01*
X121528091Y-65505074D01*
X121878091Y-65505074D01*
X121878091Y-65605074D01*
X121428091Y-65605074D01*
X121428091Y-64605074D01*
X121878091Y-64605074D01*
X121878091Y-64705074D01*
G37*
%TD*%
D11*
%TO.C,R16*%
X114750000Y-68560000D03*
X115770000Y-68560000D03*
%TD*%
D12*
%TO.C,C32*%
X123825000Y-67810000D03*
X126775000Y-67810000D03*
%TD*%
D13*
%TO.C,TP6*%
X103190000Y-72240000D03*
%TD*%
D14*
%TO.C,C14*%
X176550000Y-110530000D03*
X177510000Y-110530000D03*
%TD*%
D13*
%TO.C,TP9*%
X127886069Y-87070000D03*
%TD*%
D15*
%TO.C,C43*%
X109336069Y-82980000D03*
X109336069Y-82020000D03*
%TD*%
D16*
%TO.C,C26*%
X124625000Y-63032574D03*
X126175000Y-63032574D03*
%TD*%
D17*
%TO.C,R22*%
X110020000Y-70640000D03*
X110020000Y-69620000D03*
%TD*%
D18*
%TO.C,R1*%
X174040000Y-123230000D03*
X174040000Y-124250000D03*
%TD*%
D12*
%TO.C,C35*%
X110771069Y-109330000D03*
X113721069Y-109330000D03*
%TD*%
D14*
%TO.C,C21*%
X177240000Y-105180000D03*
X178200000Y-105180000D03*
%TD*%
D17*
%TO.C,R45*%
X130220000Y-116460000D03*
X130220000Y-115440000D03*
%TD*%
D19*
%TO.C,C23*%
X119698091Y-61152574D03*
X118738091Y-61152574D03*
%TD*%
D11*
%TO.C,R14*%
X114770000Y-69570000D03*
X115790000Y-69570000D03*
%TD*%
D17*
%TO.C,R33*%
X111016069Y-82130000D03*
X111016069Y-81110000D03*
%TD*%
D19*
%TO.C,C25*%
X114698091Y-61102574D03*
X113738091Y-61102574D03*
%TD*%
D14*
%TO.C,C48*%
X111116069Y-96930000D03*
X112076069Y-96930000D03*
%TD*%
D16*
%TO.C,C42*%
X110811385Y-87240000D03*
X112361385Y-87240000D03*
%TD*%
%TO.C,C5*%
X110385000Y-135530000D03*
X111935000Y-135530000D03*
%TD*%
D14*
%TO.C,C28*%
X124960000Y-60790000D03*
X125920000Y-60790000D03*
%TD*%
D18*
%TO.C,R3*%
X174800000Y-96750000D03*
X174800000Y-97770000D03*
%TD*%
D20*
%TO.C,U4*%
X109296385Y-85750000D03*
X109796385Y-85750000D03*
X110296385Y-85750000D03*
X110796385Y-85750000D03*
X110796385Y-84270000D03*
X110296385Y-84270000D03*
X109796385Y-84270000D03*
X109296385Y-84270000D03*
%TD*%
D21*
%TO.C,R29*%
X108016069Y-104150000D03*
X106996069Y-104150000D03*
%TD*%
D22*
%TO.C,C55*%
X122336069Y-83195000D03*
X122336069Y-86145000D03*
%TD*%
D18*
%TO.C,R8*%
X160160000Y-88520000D03*
X160160000Y-89540000D03*
%TD*%
D16*
%TO.C,C8*%
X120655000Y-136940000D03*
X122205000Y-136940000D03*
%TD*%
D14*
%TO.C,C18*%
X177470000Y-101190000D03*
X178430000Y-101190000D03*
%TD*%
D23*
%TO.C,L4*%
X113401069Y-118320000D03*
X115771069Y-118320000D03*
%TD*%
D22*
%TO.C,C56*%
X122396069Y-100965000D03*
X122396069Y-103915000D03*
%TD*%
D11*
%TO.C,R41*%
X106976069Y-98240000D03*
X107996069Y-98240000D03*
%TD*%
D24*
%TO.C,J3*%
X183200000Y-56180000D03*
X182400000Y-56180000D03*
D25*
X181250000Y-56180000D03*
X180250000Y-56180000D03*
X179750000Y-56180000D03*
X178750000Y-56180000D03*
D24*
X177600000Y-56180000D03*
X176800000Y-56180000D03*
X176800000Y-56180000D03*
X177600000Y-56180000D03*
D25*
X178250000Y-56180000D03*
X179250000Y-56180000D03*
X180750000Y-56180000D03*
X181750000Y-56180000D03*
D24*
X182400000Y-56180000D03*
X183200000Y-56180000D03*
D26*
X184320000Y-55605000D03*
D27*
X184320000Y-51425000D03*
D26*
X175680000Y-55605000D03*
D27*
X175680000Y-51425000D03*
%TD*%
D19*
%TO.C,C2*%
X171690000Y-116462858D03*
X170730000Y-116462858D03*
%TD*%
D28*
%TO.C,C4*%
X172055000Y-99970000D03*
X173085000Y-99970000D03*
%TD*%
D16*
%TO.C,C39*%
X110861069Y-105000000D03*
X112411069Y-105000000D03*
%TD*%
D19*
%TO.C,C22*%
X166110000Y-89680000D03*
X165150000Y-89680000D03*
%TD*%
D18*
%TO.C,R25*%
X102120000Y-63560000D03*
X102120000Y-64580000D03*
%TD*%
D29*
%TO.C,SW1*%
X174090000Y-122020000D03*
X174090000Y-117520000D03*
X176240000Y-122020000D03*
X176240000Y-117520000D03*
%TD*%
D14*
%TO.C,C24*%
X120658091Y-61142574D03*
X121618091Y-61142574D03*
%TD*%
D30*
%TO.C,L1*%
X171870000Y-97370000D03*
X173270000Y-97370000D03*
%TD*%
D16*
%TO.C,C7*%
X115415000Y-135530000D03*
X116965000Y-135530000D03*
%TD*%
D11*
%TO.C,R7*%
X158090000Y-89490000D03*
X159110000Y-89490000D03*
%TD*%
D15*
%TO.C,C15*%
X168570000Y-97620000D03*
X168570000Y-96660000D03*
%TD*%
D31*
%TO.C,C59*%
X124826069Y-101675000D03*
X124826069Y-103225000D03*
%TD*%
D20*
%TO.C,U5*%
X109376069Y-103530000D03*
X109876069Y-103530000D03*
X110376069Y-103530000D03*
X110876069Y-103530000D03*
X110876069Y-102050000D03*
X110376069Y-102050000D03*
X109876069Y-102050000D03*
X109376069Y-102050000D03*
%TD*%
D32*
%TO.C,D4*%
X128442500Y-114190000D03*
X130017500Y-114190000D03*
%TD*%
D19*
%TO.C,C13*%
X162850000Y-103550000D03*
X161890000Y-103550000D03*
%TD*%
D21*
%TO.C,R32*%
X107996069Y-101260000D03*
X106976069Y-101260000D03*
%TD*%
D12*
%TO.C,C40*%
X110745000Y-89320000D03*
X113695000Y-89320000D03*
%TD*%
D21*
%TO.C,R30*%
X107936069Y-122550000D03*
X106916069Y-122550000D03*
%TD*%
%TO.C,R17*%
X122290000Y-58510000D03*
X121270000Y-58510000D03*
%TD*%
D31*
%TO.C,C58*%
X124786069Y-83915000D03*
X124786069Y-85465000D03*
%TD*%
D14*
%TO.C,C50*%
X111086069Y-115190000D03*
X112046069Y-115190000D03*
%TD*%
D22*
%TO.C,C52*%
X119056069Y-83195000D03*
X119056069Y-86145000D03*
%TD*%
D19*
%TO.C,C20*%
X162020000Y-105860000D03*
X161060000Y-105860000D03*
%TD*%
D12*
%TO.C,C38*%
X110641069Y-125260000D03*
X113591069Y-125260000D03*
%TD*%
D22*
%TO.C,C57*%
X122316069Y-119235000D03*
X122316069Y-122185000D03*
%TD*%
D13*
%TO.C,TP7*%
X103220000Y-68230000D03*
%TD*%
D24*
%TO.C,J4*%
X123200000Y-56180000D03*
X122400000Y-56180000D03*
D25*
X121250000Y-56180000D03*
X120250000Y-56180000D03*
X119750000Y-56180000D03*
X118750000Y-56180000D03*
D24*
X117600000Y-56180000D03*
X116800000Y-56180000D03*
X116800000Y-56180000D03*
X117600000Y-56180000D03*
D25*
X118250000Y-56180000D03*
X119250000Y-56180000D03*
X120750000Y-56180000D03*
X121750000Y-56180000D03*
D24*
X122400000Y-56180000D03*
X123200000Y-56180000D03*
D26*
X124320000Y-55605000D03*
D27*
X124320000Y-51425000D03*
D26*
X115680000Y-55605000D03*
D27*
X115680000Y-51425000D03*
%TD*%
D23*
%TO.C,L2*%
X113451069Y-82380000D03*
X115821069Y-82380000D03*
%TD*%
D21*
%TO.C,R27*%
X107936069Y-123550000D03*
X106916069Y-123550000D03*
%TD*%
D12*
%TO.C,C33*%
X123835000Y-70170000D03*
X126785000Y-70170000D03*
%TD*%
D18*
%TO.C,R2*%
X169570000Y-96630000D03*
X169570000Y-97650000D03*
%TD*%
D13*
%TO.C,TP10*%
X127506069Y-99380000D03*
%TD*%
D21*
%TO.C,R28*%
X107956069Y-86410000D03*
X106936069Y-86410000D03*
%TD*%
D33*
%TO.C,C12*%
X168330000Y-113870000D03*
X168330000Y-114830000D03*
%TD*%
D13*
%TO.C,TP12*%
X127436069Y-118330000D03*
%TD*%
D14*
%TO.C,C51*%
X106946069Y-117510000D03*
X107906069Y-117510000D03*
%TD*%
D17*
%TO.C,R34*%
X111076069Y-99880000D03*
X111076069Y-98860000D03*
%TD*%
D34*
%TO.C,U1*%
X168440000Y-104910000D03*
X168440000Y-106040000D03*
X168440000Y-107170000D03*
X169570000Y-104910000D03*
X169570000Y-106040000D03*
X169570000Y-107170000D03*
X170700000Y-104910000D03*
X170700000Y-106040000D03*
X170700000Y-107170000D03*
D35*
X164620000Y-102240000D03*
X164620000Y-102640000D03*
X164620000Y-103040000D03*
X164620000Y-103440000D03*
X164620000Y-103840000D03*
X164620000Y-104240000D03*
X164620000Y-104640000D03*
X164620000Y-105040000D03*
X164620000Y-105440000D03*
X164620000Y-105840000D03*
X164620000Y-106240000D03*
X164620000Y-106640000D03*
X164620000Y-107040000D03*
X164620000Y-107440000D03*
X164620000Y-107840000D03*
X164620000Y-108240000D03*
X164620000Y-108640000D03*
X164620000Y-109040000D03*
X164620000Y-109440000D03*
X164620000Y-109840000D03*
D36*
X165770000Y-110990000D03*
X166170000Y-110990000D03*
X166570000Y-110990000D03*
X166970000Y-110990000D03*
X167370000Y-110990000D03*
X167770000Y-110990000D03*
X168170000Y-110990000D03*
X168570000Y-110990000D03*
X168970000Y-110990000D03*
X169370000Y-110990000D03*
X169770000Y-110990000D03*
X170170000Y-110990000D03*
X170570000Y-110990000D03*
X170970000Y-110990000D03*
X171370000Y-110990000D03*
X171770000Y-110990000D03*
X172170000Y-110990000D03*
X172570000Y-110990000D03*
X172970000Y-110990000D03*
X173370000Y-110990000D03*
D35*
X174520000Y-109840000D03*
X174520000Y-109440000D03*
X174520000Y-109040000D03*
X174520000Y-108640000D03*
X174520000Y-108240000D03*
X174520000Y-107840000D03*
X174520000Y-107440000D03*
X174520000Y-107040000D03*
X174520000Y-106640000D03*
X174520000Y-106240000D03*
X174520000Y-105840000D03*
X174520000Y-105440000D03*
X174520000Y-105040000D03*
X174520000Y-104640000D03*
X174520000Y-104240000D03*
X174520000Y-103840000D03*
X174520000Y-103440000D03*
X174520000Y-103040000D03*
X174520000Y-102640000D03*
X174520000Y-102240000D03*
D36*
X173370000Y-101090000D03*
X172970000Y-101090000D03*
X172570000Y-101090000D03*
X172170000Y-101090000D03*
X171770000Y-101090000D03*
X171370000Y-101090000D03*
X170970000Y-101090000D03*
X170570000Y-101090000D03*
X170170000Y-101090000D03*
X169770000Y-101090000D03*
X169370000Y-101090000D03*
X168970000Y-101090000D03*
X168570000Y-101090000D03*
X168170000Y-101090000D03*
X167770000Y-101090000D03*
X167370000Y-101090000D03*
X166970000Y-101090000D03*
X166570000Y-101090000D03*
X166170000Y-101090000D03*
X165770000Y-101090000D03*
%TD*%
D21*
%TO.C,R36*%
X107926069Y-82450000D03*
X106906069Y-82450000D03*
%TD*%
D11*
%TO.C,R42*%
X106916069Y-116520000D03*
X107936069Y-116520000D03*
%TD*%
D37*
%TO.C,U3*%
X117068091Y-63752574D03*
D38*
X117068091Y-65132574D03*
D37*
X118458091Y-63752574D03*
D38*
X118458091Y-65132574D03*
D39*
X120288091Y-63752574D03*
X120288091Y-65132574D03*
D40*
X115803091Y-63442574D03*
X115803091Y-63842574D03*
X115803091Y-64242574D03*
X115803091Y-64642574D03*
X115803091Y-65042574D03*
X115803091Y-65442574D03*
D41*
X116328091Y-66367574D03*
X116728091Y-66367574D03*
X117128091Y-66367574D03*
X117528091Y-66367574D03*
X117928091Y-66367574D03*
X118328091Y-66367574D03*
X118728091Y-66367574D03*
X119128091Y-66367574D03*
X119528091Y-66367574D03*
X119928091Y-66367574D03*
X120328091Y-66367574D03*
X120728091Y-66367574D03*
X121128091Y-66367574D03*
X121128091Y-62517574D03*
X120728091Y-62517574D03*
X120328091Y-62517574D03*
X119928091Y-62517574D03*
X119528091Y-62517574D03*
X119128091Y-62517574D03*
X117128091Y-62517574D03*
X116728091Y-62517574D03*
X116328091Y-62517574D03*
%TD*%
D21*
%TO.C,R39*%
X107936069Y-118510000D03*
X106916069Y-118510000D03*
%TD*%
D14*
%TO.C,C49*%
X107006069Y-99250000D03*
X107966069Y-99250000D03*
%TD*%
D42*
%TO.C,U2*%
X158952500Y-91277500D03*
X158952500Y-92547500D03*
X158952500Y-93817500D03*
X158952500Y-95087500D03*
X166127500Y-95087500D03*
X166127500Y-93817500D03*
X166127500Y-92547500D03*
X166127500Y-91277500D03*
%TD*%
D16*
%TO.C,C41*%
X110741069Y-123310000D03*
X112291069Y-123310000D03*
%TD*%
D43*
%TO.C,SW3*%
X103320000Y-63520000D03*
X107820000Y-63520000D03*
X103320000Y-65670000D03*
X107820000Y-65670000D03*
%TD*%
D22*
%TO.C,C53*%
X119116069Y-100965000D03*
X119116069Y-103915000D03*
%TD*%
D32*
%TO.C,D2*%
X128292500Y-77620000D03*
X129867500Y-77620000D03*
%TD*%
D11*
%TO.C,R6*%
X158080000Y-88450000D03*
X159100000Y-88450000D03*
%TD*%
D21*
%TO.C,R35*%
X107936069Y-119520000D03*
X106916069Y-119520000D03*
%TD*%
D11*
%TO.C,R40*%
X106916069Y-80430000D03*
X107936069Y-80430000D03*
%TD*%
D21*
%TO.C,R9*%
X177920000Y-57840000D03*
X176900000Y-57840000D03*
%TD*%
D13*
%TO.C,TP13*%
X127406069Y-123150000D03*
%TD*%
D19*
%TO.C,C10*%
X162280000Y-108080000D03*
X161320000Y-108080000D03*
%TD*%
D18*
%TO.C,R4*%
X170570000Y-96630000D03*
X170570000Y-97650000D03*
%TD*%
D44*
%TO.C,Y1*%
X168420000Y-120772858D03*
X170620000Y-120772858D03*
X170620000Y-119072858D03*
X168420000Y-119072858D03*
%TD*%
D14*
%TO.C,C46*%
X111026069Y-79250000D03*
X111986069Y-79250000D03*
%TD*%
D28*
%TO.C,C6*%
X172055000Y-99000000D03*
X173085000Y-99000000D03*
%TD*%
D13*
%TO.C,TP11*%
X127706069Y-106300000D03*
%TD*%
D31*
%TO.C,C9*%
X127190000Y-135485000D03*
X127190000Y-137035000D03*
%TD*%
D45*
%TO.C,R44*%
X130120000Y-98225000D03*
X130120000Y-96575000D03*
%TD*%
D20*
%TO.C,U6*%
X109336069Y-121760000D03*
X109836069Y-121760000D03*
X110336069Y-121760000D03*
X110836069Y-121760000D03*
X110836069Y-120280000D03*
X110336069Y-120280000D03*
X109836069Y-120280000D03*
X109336069Y-120280000D03*
%TD*%
D12*
%TO.C,C34*%
X110781069Y-106960000D03*
X113731069Y-106960000D03*
%TD*%
D15*
%TO.C,C44*%
X109606069Y-100840000D03*
X109606069Y-99880000D03*
%TD*%
D22*
%TO.C,C54*%
X119016069Y-119225000D03*
X119016069Y-122175000D03*
%TD*%
D46*
%TO.C,D1*%
X110090000Y-66862500D03*
X110090000Y-68437500D03*
%TD*%
D17*
%TO.C,R37*%
X111056069Y-118050000D03*
X111056069Y-117030000D03*
%TD*%
D12*
%TO.C,C31*%
X123835000Y-65440000D03*
X126785000Y-65440000D03*
%TD*%
D21*
%TO.C,R15*%
X122258091Y-59520000D03*
X121238091Y-59520000D03*
%TD*%
D32*
%TO.C,D3*%
X128242500Y-95030000D03*
X129817500Y-95030000D03*
%TD*%
D19*
%TO.C,C17*%
X165480000Y-112880000D03*
X164520000Y-112880000D03*
%TD*%
D14*
%TO.C,C1*%
X167630000Y-116462858D03*
X168590000Y-116462858D03*
%TD*%
D21*
%TO.C,R38*%
X107996069Y-100250000D03*
X106976069Y-100250000D03*
%TD*%
D33*
%TO.C,C3*%
X174780000Y-98680000D03*
X174780000Y-99640000D03*
%TD*%
D15*
%TO.C,C45*%
X109510000Y-118960000D03*
X109510000Y-118000000D03*
%TD*%
D21*
%TO.C,R31*%
X107926069Y-83470000D03*
X106906069Y-83470000D03*
%TD*%
D45*
%TO.C,R43*%
X130590000Y-80735000D03*
X130590000Y-79085000D03*
%TD*%
D19*
%TO.C,C27*%
X114688091Y-62082574D03*
X113728091Y-62082574D03*
%TD*%
%TO.C,C29*%
X114723091Y-64662574D03*
X113763091Y-64662574D03*
%TD*%
D12*
%TO.C,C36*%
X110651069Y-127650000D03*
X113601069Y-127650000D03*
%TD*%
%TO.C,C37*%
X110735000Y-91700000D03*
X113685000Y-91700000D03*
%TD*%
D14*
%TO.C,C30*%
X124960000Y-61770000D03*
X125920000Y-61770000D03*
%TD*%
D13*
%TO.C,TP8*%
X127926069Y-82360000D03*
%TD*%
D23*
%TO.C,L3*%
X113501069Y-100380000D03*
X115871069Y-100380000D03*
%TD*%
D14*
%TO.C,C16*%
X177220000Y-106190000D03*
X178180000Y-106190000D03*
%TD*%
D11*
%TO.C,R10*%
X181810000Y-57890000D03*
X182830000Y-57890000D03*
%TD*%
D21*
%TO.C,R26*%
X108036069Y-105170000D03*
X107016069Y-105170000D03*
%TD*%
D17*
%TO.C,R5*%
X169770000Y-114840000D03*
X169770000Y-113820000D03*
%TD*%
D14*
%TO.C,C47*%
X106966069Y-81440000D03*
X107926069Y-81440000D03*
%TD*%
D43*
%TO.C,SW2*%
X154530000Y-84830000D03*
X159030000Y-84830000D03*
X154530000Y-86980000D03*
X159030000Y-86980000D03*
%TD*%
D21*
%TO.C,R11*%
X114758091Y-60102574D03*
X113738091Y-60102574D03*
%TD*%
D31*
%TO.C,C60*%
X124766069Y-119965000D03*
X124766069Y-121515000D03*
%TD*%
D33*
%TO.C,C19*%
X170940000Y-113840000D03*
X170940000Y-114800000D03*
%TD*%
D19*
%TO.C,C11*%
X164260000Y-97930000D03*
X163300000Y-97930000D03*
%TD*%
M02*
