%TF.GenerationSoftware,KiCad,Pcbnew,10.0.5*%
%TF.CreationDate,2026-08-23T14:46:19-07:00*%
%TF.ProjectId,RP2350A Dev Board,52503233-3530-4412-9044-657620426f61,rev?*%
%TF.SameCoordinates,Original*%
%TF.FileFunction,Soldermask,Top*%
%TF.FilePolarity,Negative*%
%FSLAX46Y46*%
G04 Gerber Fmt 4.6, Leading zero omitted, Abs format (unit mm)*
G04 Created by KiCad (PCBNEW 10.0.5) date 2026-08-23 14:46:19*
%MOMM*%
%LPD*%
G01*
G04 APERTURE LIST*
G04 Aperture macros list*
%AMRoundRect*
0 Rectangle with rounded corners*
0 $1 Rounding radius*
0 $2 $3 $4 $5 $6 $7 $8 $9 X,Y pos of 4 corners*
0 Add a 4 corners polygon primitive as box body*
4,1,4,$2,$3,$4,$5,$6,$7,$8,$9,$2,$3,0*
0 Add four circle primitives for the rounded corners*
1,1,$1+$1,$2,$3*
1,1,$1+$1,$4,$5*
1,1,$1+$1,$6,$7*
1,1,$1+$1,$8,$9*
0 Add four rect primitives between the rounded corners*
20,1,$1+$1,$2,$3,$4,$5,0*
20,1,$1+$1,$4,$5,$6,$7,0*
20,1,$1+$1,$6,$7,$8,$9,0*
20,1,$1+$1,$8,$9,$2,$3,0*%
G04 Aperture macros list end*
%ADD10C,0.150000*%
%ADD11C,0.100000*%
%ADD12RoundRect,0.135000X-0.135000X-0.185000X0.135000X-0.185000X0.135000X0.185000X-0.135000X0.185000X0*%
%ADD13RoundRect,0.250000X-0.325000X-0.650000X0.325000X-0.650000X0.325000X0.650000X-0.325000X0.650000X0*%
%ADD14RoundRect,0.102000X0.750000X-1.500000X0.750000X1.500000X-0.750000X1.500000X-0.750000X-1.500000X0*%
%ADD15RoundRect,0.140000X-0.140000X-0.170000X0.140000X-0.170000X0.140000X0.170000X-0.140000X0.170000X0*%
%ADD16RoundRect,0.102000X-0.750000X1.500000X-0.750000X-1.500000X0.750000X-1.500000X0.750000X1.500000X0*%
%ADD17RoundRect,0.140000X0.170000X-0.140000X0.170000X0.140000X-0.170000X0.140000X-0.170000X-0.140000X0*%
%ADD18RoundRect,0.225000X-0.225000X-0.250000X0.225000X-0.250000X0.225000X0.250000X-0.225000X0.250000X0*%
%ADD19RoundRect,0.135000X0.185000X-0.135000X0.185000X0.135000X-0.185000X0.135000X-0.185000X-0.135000X0*%
%ADD20RoundRect,0.135000X-0.185000X0.135000X-0.185000X-0.135000X0.185000X-0.135000X0.185000X0.135000X0*%
%ADD21RoundRect,0.140000X0.140000X0.170000X-0.140000X0.170000X-0.140000X-0.170000X0.140000X-0.170000X0*%
%ADD22C,0.800000*%
%ADD23C,6.400000*%
%ADD24RoundRect,0.050000X0.100000X-0.285000X0.100000X0.285000X-0.100000X0.285000X-0.100000X-0.285000X0*%
%ADD25RoundRect,0.135000X0.135000X0.185000X-0.135000X0.185000X-0.135000X-0.185000X0.135000X-0.185000X0*%
%ADD26R,1.700000X1.700000*%
%ADD27C,1.700000*%
%ADD28RoundRect,0.250000X-1.100000X0.325000X-1.100000X-0.325000X1.100000X-0.325000X1.100000X0.325000X0*%
%ADD29R,0.980000X3.400000*%
%ADD30C,0.650000*%
%ADD31RoundRect,0.150000X0.150000X0.425000X-0.150000X0.425000X-0.150000X-0.425000X0.150000X-0.425000X0*%
%ADD32RoundRect,0.075000X0.075000X0.500000X-0.075000X0.500000X-0.075000X-0.500000X0.075000X-0.500000X0*%
%ADD33O,1.000000X2.100000*%
%ADD34O,1.000000X1.800000*%
%ADD35R,0.470000X0.530000*%
%ADD36RoundRect,0.175000X0.175000X-0.325000X0.175000X0.325000X-0.175000X0.325000X-0.175000X-0.325000X0*%
%ADD37R,0.700000X1.700000*%
%ADD38RoundRect,0.225000X-0.250000X0.225000X-0.250000X-0.225000X0.250000X-0.225000X0.250000X0.225000X0*%
%ADD39RoundRect,0.218750X-0.218750X-0.256250X0.218750X-0.256250X0.218750X0.256250X-0.218750X0.256250X0*%
%ADD40RoundRect,0.140000X-0.170000X0.140000X-0.170000X-0.140000X0.170000X-0.140000X0.170000X0.140000X0*%
%ADD41RoundRect,0.050000X-0.350000X-0.050000X0.350000X-0.050000X0.350000X0.050000X-0.350000X0.050000X0*%
%ADD42RoundRect,0.050000X-0.050000X-0.350000X0.050000X-0.350000X0.050000X0.350000X-0.050000X0.350000X0*%
%ADD43R,3.400000X3.400000*%
%ADD44RoundRect,0.050000X-0.225000X-0.050000X0.225000X-0.050000X0.225000X0.050000X-0.225000X0.050000X0*%
%ADD45RoundRect,0.050000X0.050000X-0.225000X0.050000X0.225000X-0.050000X0.225000X-0.050000X-0.225000X0*%
%ADD46RoundRect,0.250000X1.110000X1.075000X-1.110000X1.075000X-1.110000X-1.075000X1.110000X-1.075000X0*%
%ADD47RoundRect,0.250000X0.515000X1.075000X-0.515000X1.075000X-0.515000X-1.075000X0.515000X-1.075000X0*%
%ADD48RoundRect,0.162500X-0.650000X-0.162500X0.650000X-0.162500X0.650000X0.162500X-0.650000X0.162500X0*%
%ADD49RoundRect,0.175000X-0.325000X-0.175000X0.325000X-0.175000X0.325000X0.175000X-0.325000X0.175000X0*%
%ADD50RoundRect,0.250000X-0.450000X-0.350000X0.450000X-0.350000X0.450000X0.350000X-0.450000X0.350000X0*%
%ADD51RoundRect,0.200000X0.275000X-0.200000X0.275000X0.200000X-0.275000X0.200000X-0.275000X-0.200000X0*%
%ADD52C,1.000000*%
%ADD53RoundRect,0.218750X-0.256250X0.218750X-0.256250X-0.218750X0.256250X-0.218750X0.256250X0.218750X0*%
G04 APERTURE END LIST*
D10*
X185156303Y-89782194D02*
X185118207Y-89820290D01*
X185118207Y-89820290D02*
X185003922Y-89858385D01*
X185003922Y-89858385D02*
X184927731Y-89858385D01*
X184927731Y-89858385D02*
X184813445Y-89820290D01*
X184813445Y-89820290D02*
X184737255Y-89744099D01*
X184737255Y-89744099D02*
X184699160Y-89667909D01*
X184699160Y-89667909D02*
X184661064Y-89515528D01*
X184661064Y-89515528D02*
X184661064Y-89401242D01*
X184661064Y-89401242D02*
X184699160Y-89248861D01*
X184699160Y-89248861D02*
X184737255Y-89172670D01*
X184737255Y-89172670D02*
X184813445Y-89096480D01*
X184813445Y-89096480D02*
X184927731Y-89058385D01*
X184927731Y-89058385D02*
X185003922Y-89058385D01*
X185003922Y-89058385D02*
X185118207Y-89096480D01*
X185118207Y-89096480D02*
X185156303Y-89134575D01*
X185499160Y-89858385D02*
X185499160Y-89058385D01*
X185499160Y-89439337D02*
X185956303Y-89439337D01*
X185956303Y-89858385D02*
X185956303Y-89058385D01*
X185156303Y-91146340D02*
X184889636Y-90765387D01*
X184699160Y-91146340D02*
X184699160Y-90346340D01*
X184699160Y-90346340D02*
X185003922Y-90346340D01*
X185003922Y-90346340D02*
X185080112Y-90384435D01*
X185080112Y-90384435D02*
X185118207Y-90422530D01*
X185118207Y-90422530D02*
X185156303Y-90498721D01*
X185156303Y-90498721D02*
X185156303Y-90613006D01*
X185156303Y-90613006D02*
X185118207Y-90689197D01*
X185118207Y-90689197D02*
X185080112Y-90727292D01*
X185080112Y-90727292D02*
X185003922Y-90765387D01*
X185003922Y-90765387D02*
X184699160Y-90765387D01*
X185499160Y-91146340D02*
X185499160Y-90346340D01*
X185499160Y-90346340D02*
X185803922Y-90346340D01*
X185803922Y-90346340D02*
X185880112Y-90384435D01*
X185880112Y-90384435D02*
X185918207Y-90422530D01*
X185918207Y-90422530D02*
X185956303Y-90498721D01*
X185956303Y-90498721D02*
X185956303Y-90613006D01*
X185956303Y-90613006D02*
X185918207Y-90689197D01*
X185918207Y-90689197D02*
X185880112Y-90727292D01*
X185880112Y-90727292D02*
X185803922Y-90765387D01*
X185803922Y-90765387D02*
X185499160Y-90765387D01*
X186261064Y-90422530D02*
X186299160Y-90384435D01*
X186299160Y-90384435D02*
X186375350Y-90346340D01*
X186375350Y-90346340D02*
X186565826Y-90346340D01*
X186565826Y-90346340D02*
X186642017Y-90384435D01*
X186642017Y-90384435D02*
X186680112Y-90422530D01*
X186680112Y-90422530D02*
X186718207Y-90498721D01*
X186718207Y-90498721D02*
X186718207Y-90574911D01*
X186718207Y-90574911D02*
X186680112Y-90689197D01*
X186680112Y-90689197D02*
X186222969Y-91146340D01*
X186222969Y-91146340D02*
X186718207Y-91146340D01*
X186984874Y-90346340D02*
X187480112Y-90346340D01*
X187480112Y-90346340D02*
X187213446Y-90651102D01*
X187213446Y-90651102D02*
X187327731Y-90651102D01*
X187327731Y-90651102D02*
X187403922Y-90689197D01*
X187403922Y-90689197D02*
X187442017Y-90727292D01*
X187442017Y-90727292D02*
X187480112Y-90803483D01*
X187480112Y-90803483D02*
X187480112Y-90993959D01*
X187480112Y-90993959D02*
X187442017Y-91070149D01*
X187442017Y-91070149D02*
X187403922Y-91108245D01*
X187403922Y-91108245D02*
X187327731Y-91146340D01*
X187327731Y-91146340D02*
X187099160Y-91146340D01*
X187099160Y-91146340D02*
X187022969Y-91108245D01*
X187022969Y-91108245D02*
X186984874Y-91070149D01*
X188203922Y-90346340D02*
X187822970Y-90346340D01*
X187822970Y-90346340D02*
X187784874Y-90727292D01*
X187784874Y-90727292D02*
X187822970Y-90689197D01*
X187822970Y-90689197D02*
X187899160Y-90651102D01*
X187899160Y-90651102D02*
X188089636Y-90651102D01*
X188089636Y-90651102D02*
X188165827Y-90689197D01*
X188165827Y-90689197D02*
X188203922Y-90727292D01*
X188203922Y-90727292D02*
X188242017Y-90803483D01*
X188242017Y-90803483D02*
X188242017Y-90993959D01*
X188242017Y-90993959D02*
X188203922Y-91070149D01*
X188203922Y-91070149D02*
X188165827Y-91108245D01*
X188165827Y-91108245D02*
X188089636Y-91146340D01*
X188089636Y-91146340D02*
X187899160Y-91146340D01*
X187899160Y-91146340D02*
X187822970Y-91108245D01*
X187822970Y-91108245D02*
X187784874Y-91070149D01*
X188737256Y-90346340D02*
X188813446Y-90346340D01*
X188813446Y-90346340D02*
X188889637Y-90384435D01*
X188889637Y-90384435D02*
X188927732Y-90422530D01*
X188927732Y-90422530D02*
X188965827Y-90498721D01*
X188965827Y-90498721D02*
X189003922Y-90651102D01*
X189003922Y-90651102D02*
X189003922Y-90841578D01*
X189003922Y-90841578D02*
X188965827Y-90993959D01*
X188965827Y-90993959D02*
X188927732Y-91070149D01*
X188927732Y-91070149D02*
X188889637Y-91108245D01*
X188889637Y-91108245D02*
X188813446Y-91146340D01*
X188813446Y-91146340D02*
X188737256Y-91146340D01*
X188737256Y-91146340D02*
X188661065Y-91108245D01*
X188661065Y-91108245D02*
X188622970Y-91070149D01*
X188622970Y-91070149D02*
X188584875Y-90993959D01*
X188584875Y-90993959D02*
X188546779Y-90841578D01*
X188546779Y-90841578D02*
X188546779Y-90651102D01*
X188546779Y-90651102D02*
X188584875Y-90498721D01*
X188584875Y-90498721D02*
X188622970Y-90422530D01*
X188622970Y-90422530D02*
X188661065Y-90384435D01*
X188661065Y-90384435D02*
X188737256Y-90346340D01*
X189613446Y-90727292D02*
X189727732Y-90765387D01*
X189727732Y-90765387D02*
X189765827Y-90803483D01*
X189765827Y-90803483D02*
X189803923Y-90879673D01*
X189803923Y-90879673D02*
X189803923Y-90993959D01*
X189803923Y-90993959D02*
X189765827Y-91070149D01*
X189765827Y-91070149D02*
X189727732Y-91108245D01*
X189727732Y-91108245D02*
X189651542Y-91146340D01*
X189651542Y-91146340D02*
X189346780Y-91146340D01*
X189346780Y-91146340D02*
X189346780Y-90346340D01*
X189346780Y-90346340D02*
X189613446Y-90346340D01*
X189613446Y-90346340D02*
X189689637Y-90384435D01*
X189689637Y-90384435D02*
X189727732Y-90422530D01*
X189727732Y-90422530D02*
X189765827Y-90498721D01*
X189765827Y-90498721D02*
X189765827Y-90574911D01*
X189765827Y-90574911D02*
X189727732Y-90651102D01*
X189727732Y-90651102D02*
X189689637Y-90689197D01*
X189689637Y-90689197D02*
X189613446Y-90727292D01*
X189613446Y-90727292D02*
X189346780Y-90727292D01*
X190756304Y-91146340D02*
X190756304Y-90346340D01*
X190756304Y-90346340D02*
X190946780Y-90346340D01*
X190946780Y-90346340D02*
X191061066Y-90384435D01*
X191061066Y-90384435D02*
X191137256Y-90460625D01*
X191137256Y-90460625D02*
X191175351Y-90536816D01*
X191175351Y-90536816D02*
X191213447Y-90689197D01*
X191213447Y-90689197D02*
X191213447Y-90803483D01*
X191213447Y-90803483D02*
X191175351Y-90955864D01*
X191175351Y-90955864D02*
X191137256Y-91032054D01*
X191137256Y-91032054D02*
X191061066Y-91108245D01*
X191061066Y-91108245D02*
X190946780Y-91146340D01*
X190946780Y-91146340D02*
X190756304Y-91146340D01*
X191861066Y-91108245D02*
X191784875Y-91146340D01*
X191784875Y-91146340D02*
X191632494Y-91146340D01*
X191632494Y-91146340D02*
X191556304Y-91108245D01*
X191556304Y-91108245D02*
X191518208Y-91032054D01*
X191518208Y-91032054D02*
X191518208Y-90727292D01*
X191518208Y-90727292D02*
X191556304Y-90651102D01*
X191556304Y-90651102D02*
X191632494Y-90613006D01*
X191632494Y-90613006D02*
X191784875Y-90613006D01*
X191784875Y-90613006D02*
X191861066Y-90651102D01*
X191861066Y-90651102D02*
X191899161Y-90727292D01*
X191899161Y-90727292D02*
X191899161Y-90803483D01*
X191899161Y-90803483D02*
X191518208Y-90879673D01*
X192165827Y-90613006D02*
X192356303Y-91146340D01*
X192356303Y-91146340D02*
X192546780Y-90613006D01*
X193727732Y-90727292D02*
X193842018Y-90765387D01*
X193842018Y-90765387D02*
X193880113Y-90803483D01*
X193880113Y-90803483D02*
X193918209Y-90879673D01*
X193918209Y-90879673D02*
X193918209Y-90993959D01*
X193918209Y-90993959D02*
X193880113Y-91070149D01*
X193880113Y-91070149D02*
X193842018Y-91108245D01*
X193842018Y-91108245D02*
X193765828Y-91146340D01*
X193765828Y-91146340D02*
X193461066Y-91146340D01*
X193461066Y-91146340D02*
X193461066Y-90346340D01*
X193461066Y-90346340D02*
X193727732Y-90346340D01*
X193727732Y-90346340D02*
X193803923Y-90384435D01*
X193803923Y-90384435D02*
X193842018Y-90422530D01*
X193842018Y-90422530D02*
X193880113Y-90498721D01*
X193880113Y-90498721D02*
X193880113Y-90574911D01*
X193880113Y-90574911D02*
X193842018Y-90651102D01*
X193842018Y-90651102D02*
X193803923Y-90689197D01*
X193803923Y-90689197D02*
X193727732Y-90727292D01*
X193727732Y-90727292D02*
X193461066Y-90727292D01*
X194375351Y-91146340D02*
X194299161Y-91108245D01*
X194299161Y-91108245D02*
X194261066Y-91070149D01*
X194261066Y-91070149D02*
X194222970Y-90993959D01*
X194222970Y-90993959D02*
X194222970Y-90765387D01*
X194222970Y-90765387D02*
X194261066Y-90689197D01*
X194261066Y-90689197D02*
X194299161Y-90651102D01*
X194299161Y-90651102D02*
X194375351Y-90613006D01*
X194375351Y-90613006D02*
X194489637Y-90613006D01*
X194489637Y-90613006D02*
X194565828Y-90651102D01*
X194565828Y-90651102D02*
X194603923Y-90689197D01*
X194603923Y-90689197D02*
X194642018Y-90765387D01*
X194642018Y-90765387D02*
X194642018Y-90993959D01*
X194642018Y-90993959D02*
X194603923Y-91070149D01*
X194603923Y-91070149D02*
X194565828Y-91108245D01*
X194565828Y-91108245D02*
X194489637Y-91146340D01*
X194489637Y-91146340D02*
X194375351Y-91146340D01*
X195327733Y-91146340D02*
X195327733Y-90727292D01*
X195327733Y-90727292D02*
X195289638Y-90651102D01*
X195289638Y-90651102D02*
X195213447Y-90613006D01*
X195213447Y-90613006D02*
X195061066Y-90613006D01*
X195061066Y-90613006D02*
X194984876Y-90651102D01*
X195327733Y-91108245D02*
X195251542Y-91146340D01*
X195251542Y-91146340D02*
X195061066Y-91146340D01*
X195061066Y-91146340D02*
X194984876Y-91108245D01*
X194984876Y-91108245D02*
X194946780Y-91032054D01*
X194946780Y-91032054D02*
X194946780Y-90955864D01*
X194946780Y-90955864D02*
X194984876Y-90879673D01*
X194984876Y-90879673D02*
X195061066Y-90841578D01*
X195061066Y-90841578D02*
X195251542Y-90841578D01*
X195251542Y-90841578D02*
X195327733Y-90803483D01*
X195708686Y-91146340D02*
X195708686Y-90613006D01*
X195708686Y-90765387D02*
X195746781Y-90689197D01*
X195746781Y-90689197D02*
X195784876Y-90651102D01*
X195784876Y-90651102D02*
X195861067Y-90613006D01*
X195861067Y-90613006D02*
X195937257Y-90613006D01*
X196546781Y-91146340D02*
X196546781Y-90346340D01*
X196546781Y-91108245D02*
X196470590Y-91146340D01*
X196470590Y-91146340D02*
X196318209Y-91146340D01*
X196318209Y-91146340D02*
X196242019Y-91108245D01*
X196242019Y-91108245D02*
X196203924Y-91070149D01*
X196203924Y-91070149D02*
X196165828Y-90993959D01*
X196165828Y-90993959D02*
X196165828Y-90765387D01*
X196165828Y-90765387D02*
X196203924Y-90689197D01*
X196203924Y-90689197D02*
X196242019Y-90651102D01*
X196242019Y-90651102D02*
X196318209Y-90613006D01*
X196318209Y-90613006D02*
X196470590Y-90613006D01*
X196470590Y-90613006D02*
X196546781Y-90651102D01*
X184584874Y-91634295D02*
X184851541Y-92434295D01*
X184851541Y-92434295D02*
X185118207Y-91634295D01*
X185803921Y-92434295D02*
X185346778Y-92434295D01*
X185575350Y-92434295D02*
X185575350Y-91634295D01*
X185575350Y-91634295D02*
X185499159Y-91748580D01*
X185499159Y-91748580D02*
X185422969Y-91824771D01*
X185422969Y-91824771D02*
X185346778Y-91862866D01*
X186146779Y-92358104D02*
X186184874Y-92396200D01*
X186184874Y-92396200D02*
X186146779Y-92434295D01*
X186146779Y-92434295D02*
X186108683Y-92396200D01*
X186108683Y-92396200D02*
X186146779Y-92358104D01*
X186146779Y-92358104D02*
X186146779Y-92434295D01*
X186680112Y-91634295D02*
X186756302Y-91634295D01*
X186756302Y-91634295D02*
X186832493Y-91672390D01*
X186832493Y-91672390D02*
X186870588Y-91710485D01*
X186870588Y-91710485D02*
X186908683Y-91786676D01*
X186908683Y-91786676D02*
X186946778Y-91939057D01*
X186946778Y-91939057D02*
X186946778Y-92129533D01*
X186946778Y-92129533D02*
X186908683Y-92281914D01*
X186908683Y-92281914D02*
X186870588Y-92358104D01*
X186870588Y-92358104D02*
X186832493Y-92396200D01*
X186832493Y-92396200D02*
X186756302Y-92434295D01*
X186756302Y-92434295D02*
X186680112Y-92434295D01*
X186680112Y-92434295D02*
X186603921Y-92396200D01*
X186603921Y-92396200D02*
X186565826Y-92358104D01*
X186565826Y-92358104D02*
X186527731Y-92281914D01*
X186527731Y-92281914D02*
X186489635Y-92129533D01*
X186489635Y-92129533D02*
X186489635Y-91939057D01*
X186489635Y-91939057D02*
X186527731Y-91786676D01*
X186527731Y-91786676D02*
X186565826Y-91710485D01*
X186565826Y-91710485D02*
X186603921Y-91672390D01*
X186603921Y-91672390D02*
X186680112Y-91634295D01*
%TO.C,TP3*%
G36*
X184110000Y-64090000D02*
G01*
X184610000Y-64090000D01*
X184610000Y-64590000D01*
X184110000Y-64590000D01*
X184110000Y-64090000D01*
G37*
G36*
X184110000Y-65090000D02*
G01*
X184610000Y-65090000D01*
X184610000Y-65590000D01*
X184110000Y-65590000D01*
X184110000Y-65090000D01*
G37*
G36*
X184110000Y-68090000D02*
G01*
X184610000Y-68090000D01*
X184610000Y-68590000D01*
X184110000Y-68590000D01*
X184110000Y-68090000D01*
G37*
G36*
X184110000Y-68590000D02*
G01*
X184610000Y-68590000D01*
X184610000Y-69090000D01*
X184110000Y-69090000D01*
X184110000Y-68590000D01*
G37*
G36*
X184110000Y-69090000D02*
G01*
X184610000Y-69090000D01*
X184610000Y-69590000D01*
X184110000Y-69590000D01*
X184110000Y-69090000D01*
G37*
G36*
X184110000Y-69590000D02*
G01*
X184610000Y-69590000D01*
X184610000Y-70090000D01*
X184110000Y-70090000D01*
X184110000Y-69590000D01*
G37*
G36*
X184110000Y-70090000D02*
G01*
X184610000Y-70090000D01*
X184610000Y-70590000D01*
X184110000Y-70590000D01*
X184110000Y-70090000D01*
G37*
G36*
X184110000Y-70590000D02*
G01*
X184610000Y-70590000D01*
X184610000Y-71090000D01*
X184110000Y-71090000D01*
X184110000Y-70590000D01*
G37*
G36*
X184110000Y-71090000D02*
G01*
X184610000Y-71090000D01*
X184610000Y-71590000D01*
X184110000Y-71590000D01*
X184110000Y-71090000D01*
G37*
G36*
X184610000Y-64090000D02*
G01*
X185110000Y-64090000D01*
X185110000Y-64590000D01*
X184610000Y-64590000D01*
X184610000Y-64090000D01*
G37*
G36*
X184610000Y-65090000D02*
G01*
X185110000Y-65090000D01*
X185110000Y-65590000D01*
X184610000Y-65590000D01*
X184610000Y-65090000D01*
G37*
G36*
X184610000Y-66090000D02*
G01*
X185110000Y-66090000D01*
X185110000Y-66590000D01*
X184610000Y-66590000D01*
X184610000Y-66090000D01*
G37*
G36*
X184610000Y-66590000D02*
G01*
X185110000Y-66590000D01*
X185110000Y-67090000D01*
X184610000Y-67090000D01*
X184610000Y-66590000D01*
G37*
G36*
X184610000Y-67090000D02*
G01*
X185110000Y-67090000D01*
X185110000Y-67590000D01*
X184610000Y-67590000D01*
X184610000Y-67090000D01*
G37*
G36*
X184610000Y-67590000D02*
G01*
X185110000Y-67590000D01*
X185110000Y-68090000D01*
X184610000Y-68090000D01*
X184610000Y-67590000D01*
G37*
G36*
X184610000Y-71590000D02*
G01*
X185110000Y-71590000D01*
X185110000Y-72090000D01*
X184610000Y-72090000D01*
X184610000Y-71590000D01*
G37*
G36*
X185110000Y-64590000D02*
G01*
X185610000Y-64590000D01*
X185610000Y-65090000D01*
X185110000Y-65090000D01*
X185110000Y-64590000D01*
G37*
G36*
X185110000Y-65090000D02*
G01*
X185610000Y-65090000D01*
X185610000Y-65590000D01*
X185110000Y-65590000D01*
X185110000Y-65090000D01*
G37*
G36*
X185110000Y-65590000D02*
G01*
X185610000Y-65590000D01*
X185610000Y-66090000D01*
X185110000Y-66090000D01*
X185110000Y-65590000D01*
G37*
G36*
X185110000Y-72090000D02*
G01*
X185610000Y-72090000D01*
X185610000Y-72590000D01*
X185110000Y-72590000D01*
X185110000Y-72090000D01*
G37*
G36*
X185610000Y-63590000D02*
G01*
X186110000Y-63590000D01*
X186110000Y-64090000D01*
X185610000Y-64090000D01*
X185610000Y-63590000D01*
G37*
G36*
X185610000Y-64090000D02*
G01*
X186110000Y-64090000D01*
X186110000Y-64590000D01*
X185610000Y-64590000D01*
X185610000Y-64090000D01*
G37*
G36*
X185610000Y-72090000D02*
G01*
X186110000Y-72090000D01*
X186110000Y-72590000D01*
X185610000Y-72590000D01*
X185610000Y-72090000D01*
G37*
G36*
X186110000Y-62590000D02*
G01*
X186610000Y-62590000D01*
X186610000Y-63090000D01*
X186110000Y-63090000D01*
X186110000Y-62590000D01*
G37*
G36*
X186110000Y-63090000D02*
G01*
X186610000Y-63090000D01*
X186610000Y-63590000D01*
X186110000Y-63590000D01*
X186110000Y-63090000D01*
G37*
G36*
X186110000Y-64090000D02*
G01*
X186610000Y-64090000D01*
X186610000Y-64590000D01*
X186110000Y-64590000D01*
X186110000Y-64090000D01*
G37*
G36*
X186110000Y-64590000D02*
G01*
X186610000Y-64590000D01*
X186610000Y-65090000D01*
X186110000Y-65090000D01*
X186110000Y-64590000D01*
G37*
G36*
X186110000Y-65090000D02*
G01*
X186610000Y-65090000D01*
X186610000Y-65590000D01*
X186110000Y-65590000D01*
X186110000Y-65090000D01*
G37*
G36*
X186110000Y-70590000D02*
G01*
X186610000Y-70590000D01*
X186610000Y-71090000D01*
X186110000Y-71090000D01*
X186110000Y-70590000D01*
G37*
G36*
X186110000Y-71090000D02*
G01*
X186610000Y-71090000D01*
X186610000Y-71590000D01*
X186110000Y-71590000D01*
X186110000Y-71090000D01*
G37*
G36*
X186110000Y-71590000D02*
G01*
X186610000Y-71590000D01*
X186610000Y-72090000D01*
X186110000Y-72090000D01*
X186110000Y-71590000D01*
G37*
G36*
X186110000Y-72090000D02*
G01*
X186610000Y-72090000D01*
X186610000Y-72590000D01*
X186110000Y-72590000D01*
X186110000Y-72090000D01*
G37*
G36*
X186110000Y-72590000D02*
G01*
X186610000Y-72590000D01*
X186610000Y-73090000D01*
X186110000Y-73090000D01*
X186110000Y-72590000D01*
G37*
G36*
X186610000Y-62090000D02*
G01*
X187110000Y-62090000D01*
X187110000Y-62590000D01*
X186610000Y-62590000D01*
X186610000Y-62090000D01*
G37*
G36*
X186610000Y-64090000D02*
G01*
X187110000Y-64090000D01*
X187110000Y-64590000D01*
X186610000Y-64590000D01*
X186610000Y-64090000D01*
G37*
G36*
X186610000Y-64590000D02*
G01*
X187110000Y-64590000D01*
X187110000Y-65090000D01*
X186610000Y-65090000D01*
X186610000Y-64590000D01*
G37*
G36*
X186610000Y-65090000D02*
G01*
X187110000Y-65090000D01*
X187110000Y-65590000D01*
X186610000Y-65590000D01*
X186610000Y-65090000D01*
G37*
G36*
X186610000Y-72590000D02*
G01*
X187110000Y-72590000D01*
X187110000Y-73090000D01*
X186610000Y-73090000D01*
X186610000Y-72590000D01*
G37*
G36*
X187110000Y-62590000D02*
G01*
X187610000Y-62590000D01*
X187610000Y-63090000D01*
X187110000Y-63090000D01*
X187110000Y-62590000D01*
G37*
G36*
X187110000Y-64090000D02*
G01*
X187610000Y-64090000D01*
X187610000Y-64590000D01*
X187110000Y-64590000D01*
X187110000Y-64090000D01*
G37*
G36*
X187110000Y-64590000D02*
G01*
X187610000Y-64590000D01*
X187610000Y-65090000D01*
X187110000Y-65090000D01*
X187110000Y-64590000D01*
G37*
G36*
X187110000Y-65090000D02*
G01*
X187610000Y-65090000D01*
X187610000Y-65590000D01*
X187110000Y-65590000D01*
X187110000Y-65090000D01*
G37*
G36*
X187110000Y-71090000D02*
G01*
X187610000Y-71090000D01*
X187610000Y-71590000D01*
X187110000Y-71590000D01*
X187110000Y-71090000D01*
G37*
G36*
X187110000Y-71590000D02*
G01*
X187610000Y-71590000D01*
X187610000Y-72090000D01*
X187110000Y-72090000D01*
X187110000Y-71590000D01*
G37*
G36*
X187110000Y-72090000D02*
G01*
X187610000Y-72090000D01*
X187610000Y-72590000D01*
X187110000Y-72590000D01*
X187110000Y-72090000D01*
G37*
G36*
X187110000Y-72590000D02*
G01*
X187610000Y-72590000D01*
X187610000Y-73090000D01*
X187110000Y-73090000D01*
X187110000Y-72590000D01*
G37*
G36*
X187610000Y-63090000D02*
G01*
X188110000Y-63090000D01*
X188110000Y-63590000D01*
X187610000Y-63590000D01*
X187610000Y-63090000D01*
G37*
G36*
X187610000Y-64090000D02*
G01*
X188110000Y-64090000D01*
X188110000Y-64590000D01*
X187610000Y-64590000D01*
X187610000Y-64090000D01*
G37*
G36*
X187610000Y-64590000D02*
G01*
X188110000Y-64590000D01*
X188110000Y-65090000D01*
X187610000Y-65090000D01*
X187610000Y-64590000D01*
G37*
G36*
X187610000Y-65590000D02*
G01*
X188110000Y-65590000D01*
X188110000Y-66090000D01*
X187610000Y-66090000D01*
X187610000Y-65590000D01*
G37*
G36*
X187610000Y-72090000D02*
G01*
X188110000Y-72090000D01*
X188110000Y-72590000D01*
X187610000Y-72590000D01*
X187610000Y-72090000D01*
G37*
G36*
X188110000Y-63090000D02*
G01*
X188610000Y-63090000D01*
X188610000Y-63590000D01*
X188110000Y-63590000D01*
X188110000Y-63090000D01*
G37*
G36*
X188110000Y-64090000D02*
G01*
X188610000Y-64090000D01*
X188610000Y-64590000D01*
X188110000Y-64590000D01*
X188110000Y-64090000D01*
G37*
G36*
X188110000Y-65090000D02*
G01*
X188610000Y-65090000D01*
X188610000Y-65590000D01*
X188110000Y-65590000D01*
X188110000Y-65090000D01*
G37*
G36*
X188110000Y-72090000D02*
G01*
X188610000Y-72090000D01*
X188610000Y-72590000D01*
X188110000Y-72590000D01*
X188110000Y-72090000D01*
G37*
G36*
X188610000Y-63090000D02*
G01*
X189110000Y-63090000D01*
X189110000Y-63590000D01*
X188610000Y-63590000D01*
X188610000Y-63090000D01*
G37*
G36*
X188610000Y-64090000D02*
G01*
X189110000Y-64090000D01*
X189110000Y-64590000D01*
X188610000Y-64590000D01*
X188610000Y-64090000D01*
G37*
G36*
X188610000Y-64590000D02*
G01*
X189110000Y-64590000D01*
X189110000Y-65090000D01*
X188610000Y-65090000D01*
X188610000Y-64590000D01*
G37*
G36*
X188610000Y-65590000D02*
G01*
X189110000Y-65590000D01*
X189110000Y-66090000D01*
X188610000Y-66090000D01*
X188610000Y-65590000D01*
G37*
G36*
X188610000Y-72090000D02*
G01*
X189110000Y-72090000D01*
X189110000Y-72590000D01*
X188610000Y-72590000D01*
X188610000Y-72090000D01*
G37*
G36*
X189110000Y-62590000D02*
G01*
X189610000Y-62590000D01*
X189610000Y-63090000D01*
X189110000Y-63090000D01*
X189110000Y-62590000D01*
G37*
G36*
X189110000Y-64090000D02*
G01*
X189610000Y-64090000D01*
X189610000Y-64590000D01*
X189110000Y-64590000D01*
X189110000Y-64090000D01*
G37*
G36*
X189110000Y-64590000D02*
G01*
X189610000Y-64590000D01*
X189610000Y-65090000D01*
X189110000Y-65090000D01*
X189110000Y-64590000D01*
G37*
G36*
X189110000Y-65090000D02*
G01*
X189610000Y-65090000D01*
X189610000Y-65590000D01*
X189110000Y-65590000D01*
X189110000Y-65090000D01*
G37*
G36*
X189110000Y-71090000D02*
G01*
X189610000Y-71090000D01*
X189610000Y-71590000D01*
X189110000Y-71590000D01*
X189110000Y-71090000D01*
G37*
G36*
X189110000Y-71590000D02*
G01*
X189610000Y-71590000D01*
X189610000Y-72090000D01*
X189110000Y-72090000D01*
X189110000Y-71590000D01*
G37*
G36*
X189110000Y-72090000D02*
G01*
X189610000Y-72090000D01*
X189610000Y-72590000D01*
X189110000Y-72590000D01*
X189110000Y-72090000D01*
G37*
G36*
X189110000Y-72590000D02*
G01*
X189610000Y-72590000D01*
X189610000Y-73090000D01*
X189110000Y-73090000D01*
X189110000Y-72590000D01*
G37*
G36*
X189610000Y-62090000D02*
G01*
X190110000Y-62090000D01*
X190110000Y-62590000D01*
X189610000Y-62590000D01*
X189610000Y-62090000D01*
G37*
G36*
X189610000Y-64090000D02*
G01*
X190110000Y-64090000D01*
X190110000Y-64590000D01*
X189610000Y-64590000D01*
X189610000Y-64090000D01*
G37*
G36*
X189610000Y-64590000D02*
G01*
X190110000Y-64590000D01*
X190110000Y-65090000D01*
X189610000Y-65090000D01*
X189610000Y-64590000D01*
G37*
G36*
X189610000Y-65090000D02*
G01*
X190110000Y-65090000D01*
X190110000Y-65590000D01*
X189610000Y-65590000D01*
X189610000Y-65090000D01*
G37*
G36*
X189610000Y-72590000D02*
G01*
X190110000Y-72590000D01*
X190110000Y-73090000D01*
X189610000Y-73090000D01*
X189610000Y-72590000D01*
G37*
G36*
X190110000Y-62590000D02*
G01*
X190610000Y-62590000D01*
X190610000Y-63090000D01*
X190110000Y-63090000D01*
X190110000Y-62590000D01*
G37*
G36*
X190110000Y-63090000D02*
G01*
X190610000Y-63090000D01*
X190610000Y-63590000D01*
X190110000Y-63590000D01*
X190110000Y-63090000D01*
G37*
G36*
X190110000Y-64090000D02*
G01*
X190610000Y-64090000D01*
X190610000Y-64590000D01*
X190110000Y-64590000D01*
X190110000Y-64090000D01*
G37*
G36*
X190110000Y-64590000D02*
G01*
X190610000Y-64590000D01*
X190610000Y-65090000D01*
X190110000Y-65090000D01*
X190110000Y-64590000D01*
G37*
G36*
X190110000Y-65090000D02*
G01*
X190610000Y-65090000D01*
X190610000Y-65590000D01*
X190110000Y-65590000D01*
X190110000Y-65090000D01*
G37*
G36*
X190110000Y-70590000D02*
G01*
X190610000Y-70590000D01*
X190610000Y-71090000D01*
X190110000Y-71090000D01*
X190110000Y-70590000D01*
G37*
G36*
X190110000Y-71090000D02*
G01*
X190610000Y-71090000D01*
X190610000Y-71590000D01*
X190110000Y-71590000D01*
X190110000Y-71090000D01*
G37*
G36*
X190110000Y-71590000D02*
G01*
X190610000Y-71590000D01*
X190610000Y-72090000D01*
X190110000Y-72090000D01*
X190110000Y-71590000D01*
G37*
G36*
X190110000Y-72090000D02*
G01*
X190610000Y-72090000D01*
X190610000Y-72590000D01*
X190110000Y-72590000D01*
X190110000Y-72090000D01*
G37*
G36*
X190110000Y-72590000D02*
G01*
X190610000Y-72590000D01*
X190610000Y-73090000D01*
X190110000Y-73090000D01*
X190110000Y-72590000D01*
G37*
G36*
X190610000Y-63590000D02*
G01*
X191110000Y-63590000D01*
X191110000Y-64090000D01*
X190610000Y-64090000D01*
X190610000Y-63590000D01*
G37*
G36*
X190610000Y-64090000D02*
G01*
X191110000Y-64090000D01*
X191110000Y-64590000D01*
X190610000Y-64590000D01*
X190610000Y-64090000D01*
G37*
G36*
X190610000Y-72090000D02*
G01*
X191110000Y-72090000D01*
X191110000Y-72590000D01*
X190610000Y-72590000D01*
X190610000Y-72090000D01*
G37*
G36*
X191110000Y-64590000D02*
G01*
X191610000Y-64590000D01*
X191610000Y-65090000D01*
X191110000Y-65090000D01*
X191110000Y-64590000D01*
G37*
G36*
X191110000Y-65090000D02*
G01*
X191610000Y-65090000D01*
X191610000Y-65590000D01*
X191110000Y-65590000D01*
X191110000Y-65090000D01*
G37*
G36*
X191110000Y-65590000D02*
G01*
X191610000Y-65590000D01*
X191610000Y-66090000D01*
X191110000Y-66090000D01*
X191110000Y-65590000D01*
G37*
G36*
X191110000Y-72090000D02*
G01*
X191610000Y-72090000D01*
X191610000Y-72590000D01*
X191110000Y-72590000D01*
X191110000Y-72090000D01*
G37*
G36*
X191610000Y-64090000D02*
G01*
X192110000Y-64090000D01*
X192110000Y-64590000D01*
X191610000Y-64590000D01*
X191610000Y-64090000D01*
G37*
G36*
X191610000Y-65090000D02*
G01*
X192110000Y-65090000D01*
X192110000Y-65590000D01*
X191610000Y-65590000D01*
X191610000Y-65090000D01*
G37*
G36*
X191610000Y-66090000D02*
G01*
X192110000Y-66090000D01*
X192110000Y-66590000D01*
X191610000Y-66590000D01*
X191610000Y-66090000D01*
G37*
G36*
X191610000Y-66590000D02*
G01*
X192110000Y-66590000D01*
X192110000Y-67090000D01*
X191610000Y-67090000D01*
X191610000Y-66590000D01*
G37*
G36*
X191610000Y-67090000D02*
G01*
X192110000Y-67090000D01*
X192110000Y-67590000D01*
X191610000Y-67590000D01*
X191610000Y-67090000D01*
G37*
G36*
X191610000Y-67590000D02*
G01*
X192110000Y-67590000D01*
X192110000Y-68090000D01*
X191610000Y-68090000D01*
X191610000Y-67590000D01*
G37*
G36*
X191610000Y-71590000D02*
G01*
X192110000Y-71590000D01*
X192110000Y-72090000D01*
X191610000Y-72090000D01*
X191610000Y-71590000D01*
G37*
G36*
X191610000Y-72090000D02*
G01*
X192110000Y-72090000D01*
X192110000Y-72590000D01*
X191610000Y-72590000D01*
X191610000Y-72090000D01*
G37*
G36*
X192110000Y-64090000D02*
G01*
X192610000Y-64090000D01*
X192610000Y-64590000D01*
X192110000Y-64590000D01*
X192110000Y-64090000D01*
G37*
G36*
X192110000Y-65090000D02*
G01*
X192610000Y-65090000D01*
X192610000Y-65590000D01*
X192110000Y-65590000D01*
X192110000Y-65090000D01*
G37*
G36*
X192110000Y-68090000D02*
G01*
X192610000Y-68090000D01*
X192610000Y-68590000D01*
X192110000Y-68590000D01*
X192110000Y-68090000D01*
G37*
G36*
X192110000Y-68590000D02*
G01*
X192610000Y-68590000D01*
X192610000Y-69090000D01*
X192110000Y-69090000D01*
X192110000Y-68590000D01*
G37*
G36*
X192110000Y-69090000D02*
G01*
X192610000Y-69090000D01*
X192610000Y-69590000D01*
X192110000Y-69590000D01*
X192110000Y-69090000D01*
G37*
G36*
X192110000Y-69590000D02*
G01*
X192610000Y-69590000D01*
X192610000Y-70090000D01*
X192110000Y-70090000D01*
X192110000Y-69590000D01*
G37*
G36*
X192110000Y-70090000D02*
G01*
X192610000Y-70090000D01*
X192610000Y-70590000D01*
X192110000Y-70590000D01*
X192110000Y-70090000D01*
G37*
G36*
X192110000Y-70590000D02*
G01*
X192610000Y-70590000D01*
X192610000Y-71090000D01*
X192110000Y-71090000D01*
X192110000Y-70590000D01*
G37*
G36*
X192110000Y-71090000D02*
G01*
X192610000Y-71090000D01*
X192610000Y-71590000D01*
X192110000Y-71590000D01*
X192110000Y-71090000D01*
G37*
G36*
X192110000Y-72090000D02*
G01*
X192610000Y-72090000D01*
X192610000Y-72590000D01*
X192110000Y-72590000D01*
X192110000Y-72090000D01*
G37*
G36*
X192610000Y-71090000D02*
G01*
X193110000Y-71090000D01*
X193110000Y-71590000D01*
X192610000Y-71590000D01*
X192610000Y-71090000D01*
G37*
G36*
X192610000Y-72090000D02*
G01*
X193110000Y-72090000D01*
X193110000Y-72590000D01*
X192610000Y-72590000D01*
X192610000Y-72090000D01*
G37*
G36*
X193110000Y-71090000D02*
G01*
X193610000Y-71090000D01*
X193610000Y-71590000D01*
X193110000Y-71590000D01*
X193110000Y-71090000D01*
G37*
G36*
X193110000Y-72090000D02*
G01*
X193610000Y-72090000D01*
X193610000Y-72590000D01*
X193110000Y-72590000D01*
X193110000Y-72090000D01*
G37*
G36*
X193610000Y-69090000D02*
G01*
X194110000Y-69090000D01*
X194110000Y-69590000D01*
X193610000Y-69590000D01*
X193610000Y-69090000D01*
G37*
G36*
X193610000Y-69590000D02*
G01*
X194110000Y-69590000D01*
X194110000Y-70090000D01*
X193610000Y-70090000D01*
X193610000Y-69590000D01*
G37*
G36*
X193610000Y-70090000D02*
G01*
X194110000Y-70090000D01*
X194110000Y-70590000D01*
X193610000Y-70590000D01*
X193610000Y-70090000D01*
G37*
G36*
X193610000Y-70590000D02*
G01*
X194110000Y-70590000D01*
X194110000Y-71090000D01*
X193610000Y-71090000D01*
X193610000Y-70590000D01*
G37*
G36*
X193610000Y-72090000D02*
G01*
X194110000Y-72090000D01*
X194110000Y-72590000D01*
X193610000Y-72590000D01*
X193610000Y-72090000D01*
G37*
G36*
X194110000Y-68590000D02*
G01*
X194610000Y-68590000D01*
X194610000Y-69090000D01*
X194110000Y-69090000D01*
X194110000Y-68590000D01*
G37*
G36*
X194110000Y-71590000D02*
G01*
X194610000Y-71590000D01*
X194610000Y-72090000D01*
X194110000Y-72090000D01*
X194110000Y-71590000D01*
G37*
G36*
X194610000Y-68590000D02*
G01*
X195110000Y-68590000D01*
X195110000Y-69090000D01*
X194610000Y-69090000D01*
X194610000Y-68590000D01*
G37*
G36*
X194610000Y-69590000D02*
G01*
X195110000Y-69590000D01*
X195110000Y-70090000D01*
X194610000Y-70090000D01*
X194610000Y-69590000D01*
G37*
G36*
X194610000Y-70090000D02*
G01*
X195110000Y-70090000D01*
X195110000Y-70590000D01*
X194610000Y-70590000D01*
X194610000Y-70090000D01*
G37*
G36*
X194610000Y-70590000D02*
G01*
X195110000Y-70590000D01*
X195110000Y-71090000D01*
X194610000Y-71090000D01*
X194610000Y-70590000D01*
G37*
G36*
X194610000Y-71090000D02*
G01*
X195110000Y-71090000D01*
X195110000Y-71590000D01*
X194610000Y-71590000D01*
X194610000Y-71090000D01*
G37*
G36*
X195110000Y-69090000D02*
G01*
X195610000Y-69090000D01*
X195610000Y-69590000D01*
X195110000Y-69590000D01*
X195110000Y-69090000D01*
G37*
D11*
%TO.C,U3*%
X117978091Y-62742574D02*
X117478091Y-62742574D01*
X117478091Y-62292574D01*
X117578091Y-62292574D01*
X117578091Y-62642574D01*
X117878091Y-62642574D01*
X117878091Y-62292574D01*
X117978091Y-62292574D01*
X117978091Y-62742574D01*
G36*
X117578091Y-62642574D02*
G01*
X117878091Y-62642574D01*
X117878091Y-62292574D01*
X117978091Y-62292574D01*
X117978091Y-62742574D01*
X117478091Y-62742574D01*
X117478091Y-62292574D01*
X117578091Y-62292574D01*
X117578091Y-62642574D01*
G37*
X118778091Y-62742574D02*
X118278091Y-62742574D01*
X118278091Y-62292574D01*
X118378091Y-62292574D01*
X118378091Y-62642574D01*
X118678091Y-62642574D01*
X118678091Y-62292574D01*
X118778091Y-62292574D01*
X118778091Y-62742574D01*
G36*
X118378091Y-62642574D02*
G01*
X118678091Y-62642574D01*
X118678091Y-62292574D01*
X118778091Y-62292574D01*
X118778091Y-62742574D01*
X118278091Y-62742574D01*
X118278091Y-62292574D01*
X118378091Y-62292574D01*
X118378091Y-62642574D01*
G37*
X121428091Y-63280074D02*
X121428091Y-64280074D01*
X121878091Y-64280074D01*
X121878091Y-64180074D01*
X121528091Y-64180074D01*
X121528091Y-63830074D01*
X121878091Y-63830074D01*
X121878091Y-63730074D01*
X121528091Y-63730074D01*
X121528091Y-63380074D01*
X121878091Y-63380074D01*
X121878091Y-63280074D01*
X121428091Y-63280074D01*
G36*
X121878091Y-63380074D02*
G01*
X121528091Y-63380074D01*
X121528091Y-63730074D01*
X121878091Y-63730074D01*
X121878091Y-63830074D01*
X121528091Y-63830074D01*
X121528091Y-64180074D01*
X121878091Y-64180074D01*
X121878091Y-64280074D01*
X121428091Y-64280074D01*
X121428091Y-63280074D01*
X121878091Y-63280074D01*
X121878091Y-63380074D01*
G37*
X121428091Y-64605074D02*
X121428091Y-65605074D01*
X121878091Y-65605074D01*
X121878091Y-65505074D01*
X121528091Y-65505074D01*
X121528091Y-65155074D01*
X121878091Y-65155074D01*
X121878091Y-65055074D01*
X121528091Y-65055074D01*
X121528091Y-64705074D01*
X121878091Y-64705074D01*
X121878091Y-64605074D01*
X121428091Y-64605074D01*
G36*
X121878091Y-64705074D02*
G01*
X121528091Y-64705074D01*
X121528091Y-65055074D01*
X121878091Y-65055074D01*
X121878091Y-65155074D01*
X121528091Y-65155074D01*
X121528091Y-65505074D01*
X121878091Y-65505074D01*
X121878091Y-65605074D01*
X121428091Y-65605074D01*
X121428091Y-64605074D01*
X121878091Y-64605074D01*
X121878091Y-64705074D01*
G37*
%TO.C,TP4*%
G36*
X149280000Y-57000000D02*
G01*
X149780000Y-57000000D01*
X149780000Y-57500000D01*
X149280000Y-57500000D01*
X149280000Y-57000000D01*
G37*
G36*
X149280000Y-57500000D02*
G01*
X149780000Y-57500000D01*
X149780000Y-58000000D01*
X149280000Y-58000000D01*
X149280000Y-57500000D01*
G37*
G36*
X149280000Y-58000000D02*
G01*
X149780000Y-58000000D01*
X149780000Y-58500000D01*
X149280000Y-58500000D01*
X149280000Y-58000000D01*
G37*
G36*
X149280000Y-58500000D02*
G01*
X149780000Y-58500000D01*
X149780000Y-59000000D01*
X149280000Y-59000000D01*
X149280000Y-58500000D01*
G37*
G36*
X149280000Y-59000000D02*
G01*
X149780000Y-59000000D01*
X149780000Y-59500000D01*
X149280000Y-59500000D01*
X149280000Y-59000000D01*
G37*
G36*
X149280000Y-59500000D02*
G01*
X149780000Y-59500000D01*
X149780000Y-60000000D01*
X149280000Y-60000000D01*
X149280000Y-59500000D01*
G37*
G36*
X149280000Y-60000000D02*
G01*
X149780000Y-60000000D01*
X149780000Y-60500000D01*
X149280000Y-60500000D01*
X149280000Y-60000000D01*
G37*
G36*
X149280000Y-60500000D02*
G01*
X149780000Y-60500000D01*
X149780000Y-61000000D01*
X149280000Y-61000000D01*
X149280000Y-60500000D01*
G37*
G36*
X149280000Y-61000000D02*
G01*
X149780000Y-61000000D01*
X149780000Y-61500000D01*
X149280000Y-61500000D01*
X149280000Y-61000000D01*
G37*
G36*
X149780000Y-56000000D02*
G01*
X150280000Y-56000000D01*
X150280000Y-56500000D01*
X149780000Y-56500000D01*
X149780000Y-56000000D01*
G37*
G36*
X149780000Y-56500000D02*
G01*
X150280000Y-56500000D01*
X150280000Y-57000000D01*
X149780000Y-57000000D01*
X149780000Y-56500000D01*
G37*
G36*
X149780000Y-61500000D02*
G01*
X150280000Y-61500000D01*
X150280000Y-62000000D01*
X149780000Y-62000000D01*
X149780000Y-61500000D01*
G37*
G36*
X150280000Y-55000000D02*
G01*
X150780000Y-55000000D01*
X150780000Y-55500000D01*
X150280000Y-55500000D01*
X150280000Y-55000000D01*
G37*
G36*
X150280000Y-55500000D02*
G01*
X150780000Y-55500000D01*
X150780000Y-56000000D01*
X150280000Y-56000000D01*
X150280000Y-55500000D01*
G37*
G36*
X150280000Y-62000000D02*
G01*
X150780000Y-62000000D01*
X150780000Y-62500000D01*
X150280000Y-62500000D01*
X150280000Y-62000000D01*
G37*
G36*
X150780000Y-54500000D02*
G01*
X151280000Y-54500000D01*
X151280000Y-55000000D01*
X150780000Y-55000000D01*
X150780000Y-54500000D01*
G37*
G36*
X150780000Y-57500000D02*
G01*
X151280000Y-57500000D01*
X151280000Y-58000000D01*
X150780000Y-58000000D01*
X150780000Y-57500000D01*
G37*
G36*
X150780000Y-62500000D02*
G01*
X151280000Y-62500000D01*
X151280000Y-63000000D01*
X150780000Y-63000000D01*
X150780000Y-62500000D01*
G37*
G36*
X150780000Y-63000000D02*
G01*
X151280000Y-63000000D01*
X151280000Y-63500000D01*
X150780000Y-63500000D01*
X150780000Y-63000000D01*
G37*
G36*
X151280000Y-55000000D02*
G01*
X151780000Y-55000000D01*
X151780000Y-55500000D01*
X151280000Y-55500000D01*
X151280000Y-55000000D01*
G37*
G36*
X151280000Y-63000000D02*
G01*
X151780000Y-63000000D01*
X151780000Y-63500000D01*
X151280000Y-63500000D01*
X151280000Y-63000000D01*
G37*
G36*
X151780000Y-55500000D02*
G01*
X152280000Y-55500000D01*
X152280000Y-56000000D01*
X151780000Y-56000000D01*
X151780000Y-55500000D01*
G37*
G36*
X151780000Y-58000000D02*
G01*
X152280000Y-58000000D01*
X152280000Y-58500000D01*
X151780000Y-58500000D01*
X151780000Y-58000000D01*
G37*
G36*
X151780000Y-62500000D02*
G01*
X152280000Y-62500000D01*
X152280000Y-63000000D01*
X151780000Y-63000000D01*
X151780000Y-62500000D01*
G37*
G36*
X152280000Y-55500000D02*
G01*
X152780000Y-55500000D01*
X152780000Y-56000000D01*
X152280000Y-56000000D01*
X152280000Y-55500000D01*
G37*
G36*
X152280000Y-57500000D02*
G01*
X152780000Y-57500000D01*
X152780000Y-58000000D01*
X152280000Y-58000000D01*
X152280000Y-57500000D01*
G37*
G36*
X152280000Y-62500000D02*
G01*
X152780000Y-62500000D01*
X152780000Y-63000000D01*
X152280000Y-63000000D01*
X152280000Y-62500000D01*
G37*
G36*
X152780000Y-55500000D02*
G01*
X153280000Y-55500000D01*
X153280000Y-56000000D01*
X152780000Y-56000000D01*
X152780000Y-55500000D01*
G37*
G36*
X152780000Y-58000000D02*
G01*
X153280000Y-58000000D01*
X153280000Y-58500000D01*
X152780000Y-58500000D01*
X152780000Y-58000000D01*
G37*
G36*
X152780000Y-63000000D02*
G01*
X153280000Y-63000000D01*
X153280000Y-63500000D01*
X152780000Y-63500000D01*
X152780000Y-63000000D01*
G37*
G36*
X153280000Y-55500000D02*
G01*
X153780000Y-55500000D01*
X153780000Y-56000000D01*
X153280000Y-56000000D01*
X153280000Y-55500000D01*
G37*
G36*
X153280000Y-62500000D02*
G01*
X153780000Y-62500000D01*
X153780000Y-63000000D01*
X153280000Y-63000000D01*
X153280000Y-62500000D01*
G37*
G36*
X153280000Y-63000000D02*
G01*
X153780000Y-63000000D01*
X153780000Y-63500000D01*
X153280000Y-63500000D01*
X153280000Y-63000000D01*
G37*
G36*
X153780000Y-55000000D02*
G01*
X154280000Y-55000000D01*
X154280000Y-55500000D01*
X153780000Y-55500000D01*
X153780000Y-55000000D01*
G37*
G36*
X153780000Y-57500000D02*
G01*
X154280000Y-57500000D01*
X154280000Y-58000000D01*
X153780000Y-58000000D01*
X153780000Y-57500000D01*
G37*
G36*
X153780000Y-62500000D02*
G01*
X154280000Y-62500000D01*
X154280000Y-63000000D01*
X153780000Y-63000000D01*
X153780000Y-62500000D01*
G37*
G36*
X154280000Y-54500000D02*
G01*
X154780000Y-54500000D01*
X154780000Y-55000000D01*
X154280000Y-55000000D01*
X154280000Y-54500000D01*
G37*
G36*
X154280000Y-62500000D02*
G01*
X154780000Y-62500000D01*
X154780000Y-63000000D01*
X154280000Y-63000000D01*
X154280000Y-62500000D01*
G37*
G36*
X154780000Y-55000000D02*
G01*
X155280000Y-55000000D01*
X155280000Y-55500000D01*
X154780000Y-55500000D01*
X154780000Y-55000000D01*
G37*
G36*
X154780000Y-55500000D02*
G01*
X155280000Y-55500000D01*
X155280000Y-56000000D01*
X154780000Y-56000000D01*
X154780000Y-55500000D01*
G37*
G36*
X154780000Y-62500000D02*
G01*
X155280000Y-62500000D01*
X155280000Y-63000000D01*
X154780000Y-63000000D01*
X154780000Y-62500000D01*
G37*
G36*
X155280000Y-55500000D02*
G01*
X155780000Y-55500000D01*
X155780000Y-56000000D01*
X155280000Y-56000000D01*
X155280000Y-55500000D01*
G37*
G36*
X155280000Y-62500000D02*
G01*
X155780000Y-62500000D01*
X155780000Y-63000000D01*
X155280000Y-63000000D01*
X155280000Y-62500000D01*
G37*
G36*
X155780000Y-56000000D02*
G01*
X156280000Y-56000000D01*
X156280000Y-56500000D01*
X155780000Y-56500000D01*
X155780000Y-56000000D01*
G37*
G36*
X155780000Y-56500000D02*
G01*
X156280000Y-56500000D01*
X156280000Y-57000000D01*
X155780000Y-57000000D01*
X155780000Y-56500000D01*
G37*
G36*
X155780000Y-62500000D02*
G01*
X156280000Y-62500000D01*
X156280000Y-63000000D01*
X155780000Y-63000000D01*
X155780000Y-62500000D01*
G37*
G36*
X155780000Y-63000000D02*
G01*
X156280000Y-63000000D01*
X156280000Y-63500000D01*
X155780000Y-63500000D01*
X155780000Y-63000000D01*
G37*
G36*
X156280000Y-57000000D02*
G01*
X156780000Y-57000000D01*
X156780000Y-57500000D01*
X156280000Y-57500000D01*
X156280000Y-57000000D01*
G37*
G36*
X156280000Y-63000000D02*
G01*
X156780000Y-63000000D01*
X156780000Y-63500000D01*
X156280000Y-63500000D01*
X156280000Y-63000000D01*
G37*
G36*
X156780000Y-57000000D02*
G01*
X157280000Y-57000000D01*
X157280000Y-57500000D01*
X156780000Y-57500000D01*
X156780000Y-57000000D01*
G37*
G36*
X156780000Y-62500000D02*
G01*
X157280000Y-62500000D01*
X157280000Y-63000000D01*
X156780000Y-63000000D01*
X156780000Y-62500000D01*
G37*
G36*
X157280000Y-57000000D02*
G01*
X157780000Y-57000000D01*
X157780000Y-57500000D01*
X157280000Y-57500000D01*
X157280000Y-57000000D01*
G37*
G36*
X157280000Y-62500000D02*
G01*
X157780000Y-62500000D01*
X157780000Y-63000000D01*
X157280000Y-63000000D01*
X157280000Y-62500000D01*
G37*
G36*
X157780000Y-57000000D02*
G01*
X158280000Y-57000000D01*
X158280000Y-57500000D01*
X157780000Y-57500000D01*
X157780000Y-57000000D01*
G37*
G36*
X157780000Y-63000000D02*
G01*
X158280000Y-63000000D01*
X158280000Y-63500000D01*
X157780000Y-63500000D01*
X157780000Y-63000000D01*
G37*
G36*
X158280000Y-57500000D02*
G01*
X158780000Y-57500000D01*
X158780000Y-58000000D01*
X158280000Y-58000000D01*
X158280000Y-57500000D01*
G37*
G36*
X158280000Y-62500000D02*
G01*
X158780000Y-62500000D01*
X158780000Y-63000000D01*
X158280000Y-63000000D01*
X158280000Y-62500000D01*
G37*
G36*
X158280000Y-63000000D02*
G01*
X158780000Y-63000000D01*
X158780000Y-63500000D01*
X158280000Y-63500000D01*
X158280000Y-63000000D01*
G37*
G36*
X158780000Y-58000000D02*
G01*
X159280000Y-58000000D01*
X159280000Y-58500000D01*
X158780000Y-58500000D01*
X158780000Y-58000000D01*
G37*
G36*
X158780000Y-62000000D02*
G01*
X159280000Y-62000000D01*
X159280000Y-62500000D01*
X158780000Y-62500000D01*
X158780000Y-62000000D01*
G37*
G36*
X159280000Y-56000000D02*
G01*
X159780000Y-56000000D01*
X159780000Y-56500000D01*
X159280000Y-56500000D01*
X159280000Y-56000000D01*
G37*
G36*
X159280000Y-56500000D02*
G01*
X159780000Y-56500000D01*
X159780000Y-57000000D01*
X159280000Y-57000000D01*
X159280000Y-56500000D01*
G37*
G36*
X159280000Y-58000000D02*
G01*
X159780000Y-58000000D01*
X159780000Y-58500000D01*
X159280000Y-58500000D01*
X159280000Y-58000000D01*
G37*
G36*
X159280000Y-58500000D02*
G01*
X159780000Y-58500000D01*
X159780000Y-59000000D01*
X159280000Y-59000000D01*
X159280000Y-58500000D01*
G37*
G36*
X159280000Y-59000000D02*
G01*
X159780000Y-59000000D01*
X159780000Y-59500000D01*
X159280000Y-59500000D01*
X159280000Y-59000000D01*
G37*
G36*
X159280000Y-61500000D02*
G01*
X159780000Y-61500000D01*
X159780000Y-62000000D01*
X159280000Y-62000000D01*
X159280000Y-61500000D01*
G37*
G36*
X159280000Y-61500000D02*
G01*
X159780000Y-61500000D01*
X159780000Y-62000000D01*
X159280000Y-62000000D01*
X159280000Y-61500000D01*
G37*
G36*
X159780000Y-55500000D02*
G01*
X160280000Y-55500000D01*
X160280000Y-56000000D01*
X159780000Y-56000000D01*
X159780000Y-55500000D01*
G37*
G36*
X159780000Y-57000000D02*
G01*
X160280000Y-57000000D01*
X160280000Y-57500000D01*
X159780000Y-57500000D01*
X159780000Y-57000000D01*
G37*
G36*
X159780000Y-57500000D02*
G01*
X160280000Y-57500000D01*
X160280000Y-58000000D01*
X159780000Y-58000000D01*
X159780000Y-57500000D01*
G37*
G36*
X159780000Y-58000000D02*
G01*
X160280000Y-58000000D01*
X160280000Y-58500000D01*
X159780000Y-58500000D01*
X159780000Y-58000000D01*
G37*
G36*
X159780000Y-59500000D02*
G01*
X160280000Y-59500000D01*
X160280000Y-60000000D01*
X159780000Y-60000000D01*
X159780000Y-59500000D01*
G37*
G36*
X159780000Y-60000000D02*
G01*
X160280000Y-60000000D01*
X160280000Y-60500000D01*
X159780000Y-60500000D01*
X159780000Y-60000000D01*
G37*
G36*
X159780000Y-60500000D02*
G01*
X160280000Y-60500000D01*
X160280000Y-61000000D01*
X159780000Y-61000000D01*
X159780000Y-60500000D01*
G37*
G36*
X159780000Y-61000000D02*
G01*
X160280000Y-61000000D01*
X160280000Y-61500000D01*
X159780000Y-61500000D01*
X159780000Y-61000000D01*
G37*
G36*
X160280000Y-55500000D02*
G01*
X160780000Y-55500000D01*
X160780000Y-56000000D01*
X160280000Y-56000000D01*
X160280000Y-55500000D01*
G37*
G36*
X160280000Y-58500000D02*
G01*
X160780000Y-58500000D01*
X160780000Y-59000000D01*
X160280000Y-59000000D01*
X160280000Y-58500000D01*
G37*
G36*
X160280000Y-59000000D02*
G01*
X160780000Y-59000000D01*
X160780000Y-59500000D01*
X160280000Y-59500000D01*
X160280000Y-59000000D01*
G37*
G36*
X160780000Y-56000000D02*
G01*
X161280000Y-56000000D01*
X161280000Y-56500000D01*
X160780000Y-56500000D01*
X160780000Y-56000000D01*
G37*
G36*
X160780000Y-56500000D02*
G01*
X161280000Y-56500000D01*
X161280000Y-57000000D01*
X160780000Y-57000000D01*
X160780000Y-56500000D01*
G37*
G36*
X160780000Y-57000000D02*
G01*
X161280000Y-57000000D01*
X161280000Y-57500000D01*
X160780000Y-57500000D01*
X160780000Y-57000000D01*
G37*
G36*
X160780000Y-57500000D02*
G01*
X161280000Y-57500000D01*
X161280000Y-58000000D01*
X160780000Y-58000000D01*
X160780000Y-57500000D01*
G37*
G36*
X160780000Y-58000000D02*
G01*
X161280000Y-58000000D01*
X161280000Y-58500000D01*
X160780000Y-58500000D01*
X160780000Y-58000000D01*
G37*
%TO.C,TP1*%
G36*
X149390000Y-71120000D02*
G01*
X149890000Y-71120000D01*
X149890000Y-71620000D01*
X149390000Y-71620000D01*
X149390000Y-71120000D01*
G37*
G36*
X149390000Y-72120000D02*
G01*
X149890000Y-72120000D01*
X149890000Y-72620000D01*
X149390000Y-72620000D01*
X149390000Y-72120000D01*
G37*
G36*
X149890000Y-71120000D02*
G01*
X150390000Y-71120000D01*
X150390000Y-71620000D01*
X149890000Y-71620000D01*
X149890000Y-71120000D01*
G37*
G36*
X149890000Y-72120000D02*
G01*
X150390000Y-72120000D01*
X150390000Y-72620000D01*
X149890000Y-72620000D01*
X149890000Y-72120000D01*
G37*
G36*
X149890000Y-72620000D02*
G01*
X150390000Y-72620000D01*
X150390000Y-73120000D01*
X149890000Y-73120000D01*
X149890000Y-72620000D01*
G37*
G36*
X149890000Y-73120000D02*
G01*
X150390000Y-73120000D01*
X150390000Y-73620000D01*
X149890000Y-73620000D01*
X149890000Y-73120000D01*
G37*
G36*
X149890000Y-73620000D02*
G01*
X150390000Y-73620000D01*
X150390000Y-74120000D01*
X149890000Y-74120000D01*
X149890000Y-73620000D01*
G37*
G36*
X149890000Y-74120000D02*
G01*
X150390000Y-74120000D01*
X150390000Y-74620000D01*
X149890000Y-74620000D01*
X149890000Y-74120000D01*
G37*
G36*
X149890000Y-74620000D02*
G01*
X150390000Y-74620000D01*
X150390000Y-75120000D01*
X149890000Y-75120000D01*
X149890000Y-74620000D01*
G37*
G36*
X149890000Y-75120000D02*
G01*
X150390000Y-75120000D01*
X150390000Y-75620000D01*
X149890000Y-75620000D01*
X149890000Y-75120000D01*
G37*
G36*
X150390000Y-70620000D02*
G01*
X150890000Y-70620000D01*
X150890000Y-71120000D01*
X150390000Y-71120000D01*
X150390000Y-70620000D01*
G37*
G36*
X150390000Y-71120000D02*
G01*
X150890000Y-71120000D01*
X150890000Y-71620000D01*
X150390000Y-71620000D01*
X150390000Y-71120000D01*
G37*
G36*
X150390000Y-71620000D02*
G01*
X150890000Y-71620000D01*
X150890000Y-72120000D01*
X150390000Y-72120000D01*
X150390000Y-71620000D01*
G37*
G36*
X150390000Y-75620000D02*
G01*
X150890000Y-75620000D01*
X150890000Y-76120000D01*
X150390000Y-76120000D01*
X150390000Y-75620000D01*
G37*
G36*
X150890000Y-69620000D02*
G01*
X151390000Y-69620000D01*
X151390000Y-70120000D01*
X150890000Y-70120000D01*
X150890000Y-69620000D01*
G37*
G36*
X150890000Y-70120000D02*
G01*
X151390000Y-70120000D01*
X151390000Y-70620000D01*
X150890000Y-70620000D01*
X150890000Y-70120000D01*
G37*
G36*
X150890000Y-76120000D02*
G01*
X151390000Y-76120000D01*
X151390000Y-76620000D01*
X150890000Y-76620000D01*
X150890000Y-76120000D01*
G37*
G36*
X151390000Y-69120000D02*
G01*
X151890000Y-69120000D01*
X151890000Y-69620000D01*
X151390000Y-69620000D01*
X151390000Y-69120000D01*
G37*
G36*
X151390000Y-71620000D02*
G01*
X151890000Y-71620000D01*
X151890000Y-72120000D01*
X151390000Y-72120000D01*
X151390000Y-71620000D01*
G37*
G36*
X151390000Y-76120000D02*
G01*
X151890000Y-76120000D01*
X151890000Y-76620000D01*
X151390000Y-76620000D01*
X151390000Y-76120000D01*
G37*
G36*
X151890000Y-69620000D02*
G01*
X152390000Y-69620000D01*
X152390000Y-70120000D01*
X151890000Y-70120000D01*
X151890000Y-69620000D01*
G37*
G36*
X151890000Y-76120000D02*
G01*
X152390000Y-76120000D01*
X152390000Y-76620000D01*
X151890000Y-76620000D01*
X151890000Y-76120000D01*
G37*
G36*
X152390000Y-70120000D02*
G01*
X152890000Y-70120000D01*
X152890000Y-70620000D01*
X152390000Y-70620000D01*
X152390000Y-70120000D01*
G37*
G36*
X152390000Y-72120000D02*
G01*
X152890000Y-72120000D01*
X152890000Y-72620000D01*
X152390000Y-72620000D01*
X152390000Y-72120000D01*
G37*
G36*
X152390000Y-76120000D02*
G01*
X152890000Y-76120000D01*
X152890000Y-76620000D01*
X152390000Y-76620000D01*
X152390000Y-76120000D01*
G37*
G36*
X152890000Y-70120000D02*
G01*
X153390000Y-70120000D01*
X153390000Y-70620000D01*
X152890000Y-70620000D01*
X152890000Y-70120000D01*
G37*
G36*
X152890000Y-71620000D02*
G01*
X153390000Y-71620000D01*
X153390000Y-72120000D01*
X152890000Y-72120000D01*
X152890000Y-71620000D01*
G37*
G36*
X152890000Y-72120000D02*
G01*
X153390000Y-72120000D01*
X153390000Y-72620000D01*
X152890000Y-72620000D01*
X152890000Y-72120000D01*
G37*
G36*
X152890000Y-76120000D02*
G01*
X153390000Y-76120000D01*
X153390000Y-76620000D01*
X152890000Y-76620000D01*
X152890000Y-76120000D01*
G37*
G36*
X153390000Y-70120000D02*
G01*
X153890000Y-70120000D01*
X153890000Y-70620000D01*
X153390000Y-70620000D01*
X153390000Y-70120000D01*
G37*
G36*
X153390000Y-72120000D02*
G01*
X153890000Y-72120000D01*
X153890000Y-72620000D01*
X153390000Y-72620000D01*
X153390000Y-72120000D01*
G37*
G36*
X153390000Y-76120000D02*
G01*
X153890000Y-76120000D01*
X153890000Y-76620000D01*
X153390000Y-76620000D01*
X153390000Y-76120000D01*
G37*
G36*
X153890000Y-69620000D02*
G01*
X154390000Y-69620000D01*
X154390000Y-70120000D01*
X153890000Y-70120000D01*
X153890000Y-69620000D01*
G37*
G36*
X153890000Y-76120000D02*
G01*
X154390000Y-76120000D01*
X154390000Y-76620000D01*
X153890000Y-76620000D01*
X153890000Y-76120000D01*
G37*
G36*
X154390000Y-69120000D02*
G01*
X154890000Y-69120000D01*
X154890000Y-69620000D01*
X154390000Y-69620000D01*
X154390000Y-69120000D01*
G37*
G36*
X154390000Y-71620000D02*
G01*
X154890000Y-71620000D01*
X154890000Y-72120000D01*
X154390000Y-72120000D01*
X154390000Y-71620000D01*
G37*
G36*
X154390000Y-76120000D02*
G01*
X154890000Y-76120000D01*
X154890000Y-76620000D01*
X154390000Y-76620000D01*
X154390000Y-76120000D01*
G37*
G36*
X154890000Y-69620000D02*
G01*
X155390000Y-69620000D01*
X155390000Y-70120000D01*
X154890000Y-70120000D01*
X154890000Y-69620000D01*
G37*
G36*
X154890000Y-74120000D02*
G01*
X155390000Y-74120000D01*
X155390000Y-74620000D01*
X154890000Y-74620000D01*
X154890000Y-74120000D01*
G37*
G36*
X154890000Y-74620000D02*
G01*
X155390000Y-74620000D01*
X155390000Y-75120000D01*
X154890000Y-75120000D01*
X154890000Y-74620000D01*
G37*
G36*
X154890000Y-75120000D02*
G01*
X155390000Y-75120000D01*
X155390000Y-75620000D01*
X154890000Y-75620000D01*
X154890000Y-75120000D01*
G37*
G36*
X154890000Y-76120000D02*
G01*
X155390000Y-76120000D01*
X155390000Y-76620000D01*
X154890000Y-76620000D01*
X154890000Y-76120000D01*
G37*
G36*
X155390000Y-70120000D02*
G01*
X155890000Y-70120000D01*
X155890000Y-70620000D01*
X155390000Y-70620000D01*
X155390000Y-70120000D01*
G37*
G36*
X155390000Y-71120000D02*
G01*
X155890000Y-71120000D01*
X155890000Y-71620000D01*
X155390000Y-71620000D01*
X155390000Y-71120000D01*
G37*
G36*
X155390000Y-72120000D02*
G01*
X155890000Y-72120000D01*
X155890000Y-72620000D01*
X155390000Y-72620000D01*
X155390000Y-72120000D01*
G37*
G36*
X155390000Y-73620000D02*
G01*
X155890000Y-73620000D01*
X155890000Y-74120000D01*
X155390000Y-74120000D01*
X155390000Y-73620000D01*
G37*
G36*
X155390000Y-75620000D02*
G01*
X155890000Y-75620000D01*
X155890000Y-76120000D01*
X155390000Y-76120000D01*
X155390000Y-75620000D01*
G37*
G36*
X155390000Y-76120000D02*
G01*
X155890000Y-76120000D01*
X155890000Y-76620000D01*
X155390000Y-76620000D01*
X155390000Y-76120000D01*
G37*
G36*
X155890000Y-70120000D02*
G01*
X156390000Y-70120000D01*
X156390000Y-70620000D01*
X155890000Y-70620000D01*
X155890000Y-70120000D01*
G37*
G36*
X155890000Y-71120000D02*
G01*
X156390000Y-71120000D01*
X156390000Y-71620000D01*
X155890000Y-71620000D01*
X155890000Y-71120000D01*
G37*
G36*
X155890000Y-72120000D02*
G01*
X156390000Y-72120000D01*
X156390000Y-72620000D01*
X155890000Y-72620000D01*
X155890000Y-72120000D01*
G37*
G36*
X155890000Y-73620000D02*
G01*
X156390000Y-73620000D01*
X156390000Y-74120000D01*
X155890000Y-74120000D01*
X155890000Y-73620000D01*
G37*
G36*
X155890000Y-74620000D02*
G01*
X156390000Y-74620000D01*
X156390000Y-75120000D01*
X155890000Y-75120000D01*
X155890000Y-74620000D01*
G37*
G36*
X155890000Y-76120000D02*
G01*
X156390000Y-76120000D01*
X156390000Y-76620000D01*
X155890000Y-76620000D01*
X155890000Y-76120000D01*
G37*
G36*
X156390000Y-70120000D02*
G01*
X156890000Y-70120000D01*
X156890000Y-70620000D01*
X156390000Y-70620000D01*
X156390000Y-70120000D01*
G37*
G36*
X156390000Y-74120000D02*
G01*
X156890000Y-74120000D01*
X156890000Y-74620000D01*
X156390000Y-74620000D01*
X156390000Y-74120000D01*
G37*
G36*
X156390000Y-75120000D02*
G01*
X156890000Y-75120000D01*
X156890000Y-75620000D01*
X156390000Y-75620000D01*
X156390000Y-75120000D01*
G37*
G36*
X156390000Y-76120000D02*
G01*
X156890000Y-76120000D01*
X156890000Y-76620000D01*
X156390000Y-76620000D01*
X156390000Y-76120000D01*
G37*
G36*
X156890000Y-70120000D02*
G01*
X157390000Y-70120000D01*
X157390000Y-70620000D01*
X156890000Y-70620000D01*
X156890000Y-70120000D01*
G37*
G36*
X156890000Y-75120000D02*
G01*
X157390000Y-75120000D01*
X157390000Y-75620000D01*
X156890000Y-75620000D01*
X156890000Y-75120000D01*
G37*
G36*
X156890000Y-76120000D02*
G01*
X157390000Y-76120000D01*
X157390000Y-76620000D01*
X156890000Y-76620000D01*
X156890000Y-76120000D01*
G37*
G36*
X157390000Y-70120000D02*
G01*
X157890000Y-70120000D01*
X157890000Y-70620000D01*
X157390000Y-70620000D01*
X157390000Y-70120000D01*
G37*
G36*
X157390000Y-75120000D02*
G01*
X157890000Y-75120000D01*
X157890000Y-75620000D01*
X157390000Y-75620000D01*
X157390000Y-75120000D01*
G37*
G36*
X157390000Y-76120000D02*
G01*
X157890000Y-76120000D01*
X157890000Y-76620000D01*
X157390000Y-76620000D01*
X157390000Y-76120000D01*
G37*
G36*
X157890000Y-70620000D02*
G01*
X158390000Y-70620000D01*
X158390000Y-71120000D01*
X157890000Y-71120000D01*
X157890000Y-70620000D01*
G37*
G36*
X157890000Y-75120000D02*
G01*
X158390000Y-75120000D01*
X158390000Y-75620000D01*
X157890000Y-75620000D01*
X157890000Y-75120000D01*
G37*
G36*
X157890000Y-76120000D02*
G01*
X158390000Y-76120000D01*
X158390000Y-76620000D01*
X157890000Y-76620000D01*
X157890000Y-76120000D01*
G37*
G36*
X158390000Y-70620000D02*
G01*
X158890000Y-70620000D01*
X158890000Y-71120000D01*
X158390000Y-71120000D01*
X158390000Y-70620000D01*
G37*
G36*
X158390000Y-74620000D02*
G01*
X158890000Y-74620000D01*
X158890000Y-75120000D01*
X158390000Y-75120000D01*
X158390000Y-74620000D01*
G37*
G36*
X158390000Y-76120000D02*
G01*
X158890000Y-76120000D01*
X158890000Y-76620000D01*
X158390000Y-76620000D01*
X158390000Y-76120000D01*
G37*
G36*
X158890000Y-71120000D02*
G01*
X159390000Y-71120000D01*
X159390000Y-71620000D01*
X158890000Y-71620000D01*
X158890000Y-71120000D01*
G37*
G36*
X158890000Y-75620000D02*
G01*
X159390000Y-75620000D01*
X159390000Y-76120000D01*
X158890000Y-76120000D01*
X158890000Y-75620000D01*
G37*
G36*
X159390000Y-71620000D02*
G01*
X159890000Y-71620000D01*
X159890000Y-72120000D01*
X159390000Y-72120000D01*
X159390000Y-71620000D01*
G37*
G36*
X159390000Y-72120000D02*
G01*
X159890000Y-72120000D01*
X159890000Y-72620000D01*
X159390000Y-72620000D01*
X159390000Y-72120000D01*
G37*
G36*
X159390000Y-75120000D02*
G01*
X159890000Y-75120000D01*
X159890000Y-75620000D01*
X159390000Y-75620000D01*
X159390000Y-75120000D01*
G37*
G36*
X159890000Y-72620000D02*
G01*
X160390000Y-72620000D01*
X160390000Y-73120000D01*
X159890000Y-73120000D01*
X159890000Y-72620000D01*
G37*
G36*
X159890000Y-73120000D02*
G01*
X160390000Y-73120000D01*
X160390000Y-73620000D01*
X159890000Y-73620000D01*
X159890000Y-73120000D01*
G37*
G36*
X159890000Y-73620000D02*
G01*
X160390000Y-73620000D01*
X160390000Y-74120000D01*
X159890000Y-74120000D01*
X159890000Y-73620000D01*
G37*
G36*
X159890000Y-74120000D02*
G01*
X160390000Y-74120000D01*
X160390000Y-74620000D01*
X159890000Y-74620000D01*
X159890000Y-74120000D01*
G37*
G36*
X159890000Y-74620000D02*
G01*
X160390000Y-74620000D01*
X160390000Y-75120000D01*
X159890000Y-75120000D01*
X159890000Y-74620000D01*
G37*
%TO.C,TP2*%
G36*
X184060000Y-82270000D02*
G01*
X184560000Y-82270000D01*
X184560000Y-82770000D01*
X184060000Y-82770000D01*
X184060000Y-82270000D01*
G37*
G36*
X184060000Y-82770000D02*
G01*
X184560000Y-82770000D01*
X184560000Y-83270000D01*
X184060000Y-83270000D01*
X184060000Y-82770000D01*
G37*
G36*
X184060000Y-83270000D02*
G01*
X184560000Y-83270000D01*
X184560000Y-83770000D01*
X184060000Y-83770000D01*
X184060000Y-83270000D01*
G37*
G36*
X184060000Y-83770000D02*
G01*
X184560000Y-83770000D01*
X184560000Y-84270000D01*
X184060000Y-84270000D01*
X184060000Y-83770000D01*
G37*
G36*
X184060000Y-84270000D02*
G01*
X184560000Y-84270000D01*
X184560000Y-84770000D01*
X184060000Y-84770000D01*
X184060000Y-84270000D01*
G37*
G36*
X184060000Y-84770000D02*
G01*
X184560000Y-84770000D01*
X184560000Y-85270000D01*
X184060000Y-85270000D01*
X184060000Y-84770000D01*
G37*
G36*
X184060000Y-85270000D02*
G01*
X184560000Y-85270000D01*
X184560000Y-85770000D01*
X184060000Y-85770000D01*
X184060000Y-85270000D01*
G37*
G36*
X184560000Y-80270000D02*
G01*
X185060000Y-80270000D01*
X185060000Y-80770000D01*
X184560000Y-80770000D01*
X184560000Y-80270000D01*
G37*
G36*
X184560000Y-80770000D02*
G01*
X185060000Y-80770000D01*
X185060000Y-81270000D01*
X184560000Y-81270000D01*
X184560000Y-80770000D01*
G37*
G36*
X184560000Y-81270000D02*
G01*
X185060000Y-81270000D01*
X185060000Y-81770000D01*
X184560000Y-81770000D01*
X184560000Y-81270000D01*
G37*
G36*
X184560000Y-81770000D02*
G01*
X185060000Y-81770000D01*
X185060000Y-82270000D01*
X184560000Y-82270000D01*
X184560000Y-81770000D01*
G37*
G36*
X184560000Y-85770000D02*
G01*
X185060000Y-85770000D01*
X185060000Y-86270000D01*
X184560000Y-86270000D01*
X184560000Y-85770000D01*
G37*
G36*
X185060000Y-78770000D02*
G01*
X185560000Y-78770000D01*
X185560000Y-79270000D01*
X185060000Y-79270000D01*
X185060000Y-78770000D01*
G37*
G36*
X185060000Y-79270000D02*
G01*
X185560000Y-79270000D01*
X185560000Y-79770000D01*
X185060000Y-79770000D01*
X185060000Y-79270000D01*
G37*
G36*
X185060000Y-79770000D02*
G01*
X185560000Y-79770000D01*
X185560000Y-80270000D01*
X185060000Y-80270000D01*
X185060000Y-79770000D01*
G37*
G36*
X185060000Y-86270000D02*
G01*
X185560000Y-86270000D01*
X185560000Y-86770000D01*
X185060000Y-86770000D01*
X185060000Y-86270000D01*
G37*
G36*
X185560000Y-77770000D02*
G01*
X186060000Y-77770000D01*
X186060000Y-78270000D01*
X185560000Y-78270000D01*
X185560000Y-77770000D01*
G37*
G36*
X185560000Y-78270000D02*
G01*
X186060000Y-78270000D01*
X186060000Y-78770000D01*
X185560000Y-78770000D01*
X185560000Y-78270000D01*
G37*
G36*
X185560000Y-86270000D02*
G01*
X186060000Y-86270000D01*
X186060000Y-86770000D01*
X185560000Y-86770000D01*
X185560000Y-86270000D01*
G37*
G36*
X186060000Y-76770000D02*
G01*
X186560000Y-76770000D01*
X186560000Y-77270000D01*
X186060000Y-77270000D01*
X186060000Y-76770000D01*
G37*
G36*
X186060000Y-77270000D02*
G01*
X186560000Y-77270000D01*
X186560000Y-77770000D01*
X186060000Y-77770000D01*
X186060000Y-77270000D01*
G37*
G36*
X186060000Y-84770000D02*
G01*
X186560000Y-84770000D01*
X186560000Y-85270000D01*
X186060000Y-85270000D01*
X186060000Y-84770000D01*
G37*
G36*
X186060000Y-85270000D02*
G01*
X186560000Y-85270000D01*
X186560000Y-85770000D01*
X186060000Y-85770000D01*
X186060000Y-85270000D01*
G37*
G36*
X186060000Y-85770000D02*
G01*
X186560000Y-85770000D01*
X186560000Y-86270000D01*
X186060000Y-86270000D01*
X186060000Y-85770000D01*
G37*
G36*
X186060000Y-86270000D02*
G01*
X186560000Y-86270000D01*
X186560000Y-86770000D01*
X186060000Y-86770000D01*
X186060000Y-86270000D01*
G37*
G36*
X186060000Y-86770000D02*
G01*
X186560000Y-86770000D01*
X186560000Y-87270000D01*
X186060000Y-87270000D01*
X186060000Y-86770000D01*
G37*
G36*
X186560000Y-76270000D02*
G01*
X187060000Y-76270000D01*
X187060000Y-76770000D01*
X186560000Y-76770000D01*
X186560000Y-76270000D01*
G37*
G36*
X186560000Y-79270000D02*
G01*
X187060000Y-79270000D01*
X187060000Y-79770000D01*
X186560000Y-79770000D01*
X186560000Y-79270000D01*
G37*
G36*
X186560000Y-86770000D02*
G01*
X187060000Y-86770000D01*
X187060000Y-87270000D01*
X186560000Y-87270000D01*
X186560000Y-86770000D01*
G37*
G36*
X187060000Y-76770000D02*
G01*
X187560000Y-76770000D01*
X187560000Y-77270000D01*
X187060000Y-77270000D01*
X187060000Y-76770000D01*
G37*
G36*
X187060000Y-85270000D02*
G01*
X187560000Y-85270000D01*
X187560000Y-85770000D01*
X187060000Y-85770000D01*
X187060000Y-85270000D01*
G37*
G36*
X187060000Y-85770000D02*
G01*
X187560000Y-85770000D01*
X187560000Y-86270000D01*
X187060000Y-86270000D01*
X187060000Y-85770000D01*
G37*
G36*
X187060000Y-86270000D02*
G01*
X187560000Y-86270000D01*
X187560000Y-86770000D01*
X187060000Y-86770000D01*
X187060000Y-86270000D01*
G37*
G36*
X187060000Y-86770000D02*
G01*
X187560000Y-86770000D01*
X187560000Y-87270000D01*
X187060000Y-87270000D01*
X187060000Y-86770000D01*
G37*
G36*
X187560000Y-77270000D02*
G01*
X188060000Y-77270000D01*
X188060000Y-77770000D01*
X187560000Y-77770000D01*
X187560000Y-77270000D01*
G37*
G36*
X187560000Y-79770000D02*
G01*
X188060000Y-79770000D01*
X188060000Y-80270000D01*
X187560000Y-80270000D01*
X187560000Y-79770000D01*
G37*
G36*
X187560000Y-86270000D02*
G01*
X188060000Y-86270000D01*
X188060000Y-86770000D01*
X187560000Y-86770000D01*
X187560000Y-86270000D01*
G37*
G36*
X188060000Y-77270000D02*
G01*
X188560000Y-77270000D01*
X188560000Y-77770000D01*
X188060000Y-77770000D01*
X188060000Y-77270000D01*
G37*
G36*
X188060000Y-79270000D02*
G01*
X188560000Y-79270000D01*
X188560000Y-79770000D01*
X188060000Y-79770000D01*
X188060000Y-79270000D01*
G37*
G36*
X188060000Y-86270000D02*
G01*
X188560000Y-86270000D01*
X188560000Y-86770000D01*
X188060000Y-86770000D01*
X188060000Y-86270000D01*
G37*
G36*
X188560000Y-77270000D02*
G01*
X189060000Y-77270000D01*
X189060000Y-77770000D01*
X188560000Y-77770000D01*
X188560000Y-77270000D01*
G37*
G36*
X188560000Y-79770000D02*
G01*
X189060000Y-79770000D01*
X189060000Y-80270000D01*
X188560000Y-80270000D01*
X188560000Y-79770000D01*
G37*
G36*
X188560000Y-86270000D02*
G01*
X189060000Y-86270000D01*
X189060000Y-86770000D01*
X188560000Y-86770000D01*
X188560000Y-86270000D01*
G37*
G36*
X189060000Y-76770000D02*
G01*
X189560000Y-76770000D01*
X189560000Y-77270000D01*
X189060000Y-77270000D01*
X189060000Y-76770000D01*
G37*
G36*
X189060000Y-85270000D02*
G01*
X189560000Y-85270000D01*
X189560000Y-85770000D01*
X189060000Y-85770000D01*
X189060000Y-85270000D01*
G37*
G36*
X189060000Y-85770000D02*
G01*
X189560000Y-85770000D01*
X189560000Y-86270000D01*
X189060000Y-86270000D01*
X189060000Y-85770000D01*
G37*
G36*
X189060000Y-86270000D02*
G01*
X189560000Y-86270000D01*
X189560000Y-86770000D01*
X189060000Y-86770000D01*
X189060000Y-86270000D01*
G37*
G36*
X189060000Y-86770000D02*
G01*
X189560000Y-86770000D01*
X189560000Y-87270000D01*
X189060000Y-87270000D01*
X189060000Y-86770000D01*
G37*
G36*
X189560000Y-76270000D02*
G01*
X190060000Y-76270000D01*
X190060000Y-76770000D01*
X189560000Y-76770000D01*
X189560000Y-76270000D01*
G37*
G36*
X189560000Y-79270000D02*
G01*
X190060000Y-79270000D01*
X190060000Y-79770000D01*
X189560000Y-79770000D01*
X189560000Y-79270000D01*
G37*
G36*
X189560000Y-86770000D02*
G01*
X190060000Y-86770000D01*
X190060000Y-87270000D01*
X189560000Y-87270000D01*
X189560000Y-86770000D01*
G37*
G36*
X190060000Y-76770000D02*
G01*
X190560000Y-76770000D01*
X190560000Y-77270000D01*
X190060000Y-77270000D01*
X190060000Y-76770000D01*
G37*
G36*
X190060000Y-77270000D02*
G01*
X190560000Y-77270000D01*
X190560000Y-77770000D01*
X190060000Y-77770000D01*
X190060000Y-77270000D01*
G37*
G36*
X190060000Y-84770000D02*
G01*
X190560000Y-84770000D01*
X190560000Y-85270000D01*
X190060000Y-85270000D01*
X190060000Y-84770000D01*
G37*
G36*
X190060000Y-85270000D02*
G01*
X190560000Y-85270000D01*
X190560000Y-85770000D01*
X190060000Y-85770000D01*
X190060000Y-85270000D01*
G37*
G36*
X190060000Y-85770000D02*
G01*
X190560000Y-85770000D01*
X190560000Y-86270000D01*
X190060000Y-86270000D01*
X190060000Y-85770000D01*
G37*
G36*
X190060000Y-86270000D02*
G01*
X190560000Y-86270000D01*
X190560000Y-86770000D01*
X190060000Y-86770000D01*
X190060000Y-86270000D01*
G37*
G36*
X190060000Y-86770000D02*
G01*
X190560000Y-86770000D01*
X190560000Y-87270000D01*
X190060000Y-87270000D01*
X190060000Y-86770000D01*
G37*
G36*
X190560000Y-77770000D02*
G01*
X191060000Y-77770000D01*
X191060000Y-78270000D01*
X190560000Y-78270000D01*
X190560000Y-77770000D01*
G37*
G36*
X190560000Y-78270000D02*
G01*
X191060000Y-78270000D01*
X191060000Y-78770000D01*
X190560000Y-78770000D01*
X190560000Y-78270000D01*
G37*
G36*
X190560000Y-86270000D02*
G01*
X191060000Y-86270000D01*
X191060000Y-86770000D01*
X190560000Y-86770000D01*
X190560000Y-86270000D01*
G37*
G36*
X191060000Y-78770000D02*
G01*
X191560000Y-78770000D01*
X191560000Y-79270000D01*
X191060000Y-79270000D01*
X191060000Y-78770000D01*
G37*
G36*
X191060000Y-79270000D02*
G01*
X191560000Y-79270000D01*
X191560000Y-79770000D01*
X191060000Y-79770000D01*
X191060000Y-79270000D01*
G37*
G36*
X191060000Y-79770000D02*
G01*
X191560000Y-79770000D01*
X191560000Y-80270000D01*
X191060000Y-80270000D01*
X191060000Y-79770000D01*
G37*
G36*
X191060000Y-86270000D02*
G01*
X191560000Y-86270000D01*
X191560000Y-86770000D01*
X191060000Y-86770000D01*
X191060000Y-86270000D01*
G37*
G36*
X191560000Y-80270000D02*
G01*
X192060000Y-80270000D01*
X192060000Y-80770000D01*
X191560000Y-80770000D01*
X191560000Y-80270000D01*
G37*
G36*
X191560000Y-80770000D02*
G01*
X192060000Y-80770000D01*
X192060000Y-81270000D01*
X191560000Y-81270000D01*
X191560000Y-80770000D01*
G37*
G36*
X191560000Y-81270000D02*
G01*
X192060000Y-81270000D01*
X192060000Y-81770000D01*
X191560000Y-81770000D01*
X191560000Y-81270000D01*
G37*
G36*
X191560000Y-81770000D02*
G01*
X192060000Y-81770000D01*
X192060000Y-82270000D01*
X191560000Y-82270000D01*
X191560000Y-81770000D01*
G37*
G36*
X191560000Y-85770000D02*
G01*
X192060000Y-85770000D01*
X192060000Y-86270000D01*
X191560000Y-86270000D01*
X191560000Y-85770000D01*
G37*
G36*
X191560000Y-86270000D02*
G01*
X192060000Y-86270000D01*
X192060000Y-86770000D01*
X191560000Y-86770000D01*
X191560000Y-86270000D01*
G37*
G36*
X192060000Y-82270000D02*
G01*
X192560000Y-82270000D01*
X192560000Y-82770000D01*
X192060000Y-82770000D01*
X192060000Y-82270000D01*
G37*
G36*
X192060000Y-82770000D02*
G01*
X192560000Y-82770000D01*
X192560000Y-83270000D01*
X192060000Y-83270000D01*
X192060000Y-82770000D01*
G37*
G36*
X192060000Y-83270000D02*
G01*
X192560000Y-83270000D01*
X192560000Y-83770000D01*
X192060000Y-83770000D01*
X192060000Y-83270000D01*
G37*
G36*
X192060000Y-83770000D02*
G01*
X192560000Y-83770000D01*
X192560000Y-84270000D01*
X192060000Y-84270000D01*
X192060000Y-83770000D01*
G37*
G36*
X192060000Y-84270000D02*
G01*
X192560000Y-84270000D01*
X192560000Y-84770000D01*
X192060000Y-84770000D01*
X192060000Y-84270000D01*
G37*
G36*
X192060000Y-84770000D02*
G01*
X192560000Y-84770000D01*
X192560000Y-85270000D01*
X192060000Y-85270000D01*
X192060000Y-84770000D01*
G37*
G36*
X192060000Y-85270000D02*
G01*
X192560000Y-85270000D01*
X192560000Y-85770000D01*
X192060000Y-85770000D01*
X192060000Y-85270000D01*
G37*
G36*
X192060000Y-86270000D02*
G01*
X192560000Y-86270000D01*
X192560000Y-86770000D01*
X192060000Y-86770000D01*
X192060000Y-86270000D01*
G37*
G36*
X192560000Y-85270000D02*
G01*
X193060000Y-85270000D01*
X193060000Y-85770000D01*
X192560000Y-85770000D01*
X192560000Y-85270000D01*
G37*
G36*
X192560000Y-86270000D02*
G01*
X193060000Y-86270000D01*
X193060000Y-86770000D01*
X192560000Y-86770000D01*
X192560000Y-86270000D01*
G37*
G36*
X193060000Y-83270000D02*
G01*
X193560000Y-83270000D01*
X193560000Y-83770000D01*
X193060000Y-83770000D01*
X193060000Y-83270000D01*
G37*
G36*
X193060000Y-85270000D02*
G01*
X193560000Y-85270000D01*
X193560000Y-85770000D01*
X193060000Y-85770000D01*
X193060000Y-85270000D01*
G37*
G36*
X193060000Y-86270000D02*
G01*
X193560000Y-86270000D01*
X193560000Y-86770000D01*
X193060000Y-86770000D01*
X193060000Y-86270000D01*
G37*
G36*
X193560000Y-82770000D02*
G01*
X194060000Y-82770000D01*
X194060000Y-83270000D01*
X193560000Y-83270000D01*
X193560000Y-82770000D01*
G37*
G36*
X193560000Y-83770000D02*
G01*
X194060000Y-83770000D01*
X194060000Y-84270000D01*
X193560000Y-84270000D01*
X193560000Y-83770000D01*
G37*
G36*
X193560000Y-84270000D02*
G01*
X194060000Y-84270000D01*
X194060000Y-84770000D01*
X193560000Y-84770000D01*
X193560000Y-84270000D01*
G37*
G36*
X193560000Y-84770000D02*
G01*
X194060000Y-84770000D01*
X194060000Y-85270000D01*
X193560000Y-85270000D01*
X193560000Y-84770000D01*
G37*
G36*
X193560000Y-86270000D02*
G01*
X194060000Y-86270000D01*
X194060000Y-86770000D01*
X193560000Y-86770000D01*
X193560000Y-86270000D01*
G37*
G36*
X194060000Y-82770000D02*
G01*
X194560000Y-82770000D01*
X194560000Y-83270000D01*
X194060000Y-83270000D01*
X194060000Y-82770000D01*
G37*
G36*
X194060000Y-85770000D02*
G01*
X194560000Y-85770000D01*
X194560000Y-86270000D01*
X194060000Y-86270000D01*
X194060000Y-85770000D01*
G37*
G36*
X194560000Y-83270000D02*
G01*
X195060000Y-83270000D01*
X195060000Y-83770000D01*
X194560000Y-83770000D01*
X194560000Y-83270000D01*
G37*
G36*
X194560000Y-83770000D02*
G01*
X195060000Y-83770000D01*
X195060000Y-84270000D01*
X194560000Y-84270000D01*
X194560000Y-83770000D01*
G37*
G36*
X194560000Y-84270000D02*
G01*
X195060000Y-84270000D01*
X195060000Y-84770000D01*
X194560000Y-84770000D01*
X194560000Y-84270000D01*
G37*
G36*
X194560000Y-84770000D02*
G01*
X195060000Y-84770000D01*
X195060000Y-85270000D01*
X194560000Y-85270000D01*
X194560000Y-84770000D01*
G37*
G36*
X194560000Y-85270000D02*
G01*
X195060000Y-85270000D01*
X195060000Y-85770000D01*
X194560000Y-85770000D01*
X194560000Y-85270000D01*
G37*
%TD*%
D12*
%TO.C,R16*%
X114750000Y-68560000D03*
X115770000Y-68560000D03*
%TD*%
D13*
%TO.C,C32*%
X123825000Y-67810000D03*
X126775000Y-67810000D03*
%TD*%
D14*
%TO.C,TP6*%
X103190000Y-72240000D03*
%TD*%
D15*
%TO.C,C14*%
X176550000Y-110530000D03*
X177510000Y-110530000D03*
%TD*%
D16*
%TO.C,TP9*%
X127886069Y-87070000D03*
%TD*%
D17*
%TO.C,C43*%
X109336069Y-82980000D03*
X109336069Y-82020000D03*
%TD*%
D18*
%TO.C,C26*%
X124625000Y-63032574D03*
X126175000Y-63032574D03*
%TD*%
D19*
%TO.C,R22*%
X110020000Y-70640000D03*
X110020000Y-69620000D03*
%TD*%
D20*
%TO.C,R1*%
X174040000Y-123230000D03*
X174040000Y-124250000D03*
%TD*%
D13*
%TO.C,C35*%
X110771069Y-109330000D03*
X113721069Y-109330000D03*
%TD*%
D15*
%TO.C,C21*%
X177240000Y-105180000D03*
X178200000Y-105180000D03*
%TD*%
D19*
%TO.C,R45*%
X130220000Y-116460000D03*
X130220000Y-115440000D03*
%TD*%
D21*
%TO.C,C23*%
X119698091Y-61152574D03*
X118738091Y-61152574D03*
%TD*%
D12*
%TO.C,R14*%
X114770000Y-69570000D03*
X115790000Y-69570000D03*
%TD*%
D19*
%TO.C,R33*%
X111016069Y-82130000D03*
X111016069Y-81110000D03*
%TD*%
D21*
%TO.C,C25*%
X114698091Y-61102574D03*
X113738091Y-61102574D03*
%TD*%
D15*
%TO.C,C48*%
X111116069Y-96930000D03*
X112076069Y-96930000D03*
%TD*%
D22*
%TO.C,H1*%
X193600000Y-54000000D03*
X194302944Y-52302944D03*
X194302944Y-55697056D03*
X196000000Y-51600000D03*
D23*
X196000000Y-54000000D03*
D22*
X196000000Y-56400000D03*
X197697056Y-52302944D03*
X197697056Y-55697056D03*
X198400000Y-54000000D03*
%TD*%
D18*
%TO.C,C42*%
X110811385Y-87240000D03*
X112361385Y-87240000D03*
%TD*%
%TO.C,C5*%
X110385000Y-135530000D03*
X111935000Y-135530000D03*
%TD*%
D15*
%TO.C,C28*%
X124960000Y-60790000D03*
X125920000Y-60790000D03*
%TD*%
D20*
%TO.C,R3*%
X174800000Y-96750000D03*
X174800000Y-97770000D03*
%TD*%
D24*
%TO.C,U4*%
X109296385Y-85750000D03*
X109796385Y-85750000D03*
X110296385Y-85750000D03*
X110796385Y-85750000D03*
X110796385Y-84270000D03*
X110296385Y-84270000D03*
X109796385Y-84270000D03*
X109296385Y-84270000D03*
%TD*%
D25*
%TO.C,R29*%
X108016069Y-104150000D03*
X106996069Y-104150000D03*
%TD*%
D26*
%TO.C,J2*%
X152000000Y-145000000D03*
D27*
X152000000Y-142460000D03*
X154540000Y-145000000D03*
X154540000Y-142460000D03*
X157080000Y-145000000D03*
X157080000Y-142460000D03*
X159620000Y-145000000D03*
X159620000Y-142460000D03*
X162160000Y-145000000D03*
X162160000Y-142460000D03*
X164700000Y-145000000D03*
X164700000Y-142460000D03*
X167240000Y-145000000D03*
X167240000Y-142460000D03*
X169780000Y-145000000D03*
X169780000Y-142460000D03*
X172320000Y-145000000D03*
X172320000Y-142460000D03*
X174860000Y-145000000D03*
X174860000Y-142460000D03*
X177400000Y-145000000D03*
X177400000Y-142460000D03*
X179940000Y-145000000D03*
X179940000Y-142460000D03*
X182480000Y-145000000D03*
X182480000Y-142460000D03*
X185020000Y-145000000D03*
X185020000Y-142460000D03*
X187560000Y-145000000D03*
X187560000Y-142460000D03*
X190100000Y-145000000D03*
X190100000Y-142460000D03*
%TD*%
D28*
%TO.C,C55*%
X122336069Y-83195000D03*
X122336069Y-86145000D03*
%TD*%
D26*
%TO.C,J1*%
X110000000Y-145000000D03*
D27*
X110000000Y-142460000D03*
X112540000Y-145000000D03*
X112540000Y-142460000D03*
X115080000Y-145000000D03*
X115080000Y-142460000D03*
X117620000Y-145000000D03*
X117620000Y-142460000D03*
X120160000Y-145000000D03*
X120160000Y-142460000D03*
X122700000Y-145000000D03*
X122700000Y-142460000D03*
X125240000Y-145000000D03*
X125240000Y-142460000D03*
X127780000Y-145000000D03*
X127780000Y-142460000D03*
X130320000Y-145000000D03*
X130320000Y-142460000D03*
X132860000Y-145000000D03*
X132860000Y-142460000D03*
X135400000Y-145000000D03*
X135400000Y-142460000D03*
X137940000Y-145000000D03*
X137940000Y-142460000D03*
X140480000Y-145000000D03*
X140480000Y-142460000D03*
X143020000Y-145000000D03*
X143020000Y-142460000D03*
X145560000Y-145000000D03*
X145560000Y-142460000D03*
X148100000Y-145000000D03*
X148100000Y-142460000D03*
%TD*%
D20*
%TO.C,R8*%
X160160000Y-88520000D03*
X160160000Y-89540000D03*
%TD*%
D18*
%TO.C,C8*%
X120655000Y-136940000D03*
X122205000Y-136940000D03*
%TD*%
D22*
%TO.C,H4*%
X101600000Y-146000000D03*
X102302944Y-144302944D03*
X102302944Y-147697056D03*
X104000000Y-143600000D03*
D23*
X104000000Y-146000000D03*
D22*
X104000000Y-148400000D03*
X105697056Y-144302944D03*
X105697056Y-147697056D03*
X106400000Y-146000000D03*
%TD*%
D15*
%TO.C,C18*%
X177470000Y-101190000D03*
X178430000Y-101190000D03*
%TD*%
D29*
%TO.C,L4*%
X113401069Y-118320000D03*
X115771069Y-118320000D03*
%TD*%
D28*
%TO.C,C56*%
X122396069Y-100965000D03*
X122396069Y-103915000D03*
%TD*%
D12*
%TO.C,R41*%
X106976069Y-98240000D03*
X107996069Y-98240000D03*
%TD*%
D30*
%TO.C,J3*%
X182890000Y-55105000D03*
X177110000Y-55105000D03*
D31*
X183200000Y-56180000D03*
X182400000Y-56180000D03*
D32*
X181250000Y-56180000D03*
X180250000Y-56180000D03*
X179750000Y-56180000D03*
X178750000Y-56180000D03*
D31*
X177600000Y-56180000D03*
X176800000Y-56180000D03*
X176800000Y-56180000D03*
X177600000Y-56180000D03*
D32*
X178250000Y-56180000D03*
X179250000Y-56180000D03*
X180750000Y-56180000D03*
X181750000Y-56180000D03*
D31*
X182400000Y-56180000D03*
X183200000Y-56180000D03*
D33*
X184320000Y-55605000D03*
D34*
X184320000Y-51425000D03*
D33*
X175680000Y-55605000D03*
D34*
X175680000Y-51425000D03*
%TD*%
D21*
%TO.C,C2*%
X171690000Y-116462858D03*
X170730000Y-116462858D03*
%TD*%
D35*
%TO.C,C4*%
X172055000Y-99970000D03*
X173085000Y-99970000D03*
%TD*%
D18*
%TO.C,C39*%
X110861069Y-105000000D03*
X112411069Y-105000000D03*
%TD*%
D21*
%TO.C,C22*%
X166110000Y-89680000D03*
X165150000Y-89680000D03*
%TD*%
D20*
%TO.C,R25*%
X102120000Y-63560000D03*
X102120000Y-64580000D03*
%TD*%
D36*
%TO.C,SW1*%
X174090000Y-122020000D03*
X174090000Y-117520000D03*
X176240000Y-122020000D03*
X176240000Y-117520000D03*
%TD*%
D15*
%TO.C,C24*%
X120658091Y-61142574D03*
X121618091Y-61142574D03*
%TD*%
D37*
%TO.C,L1*%
X171870000Y-97370000D03*
X173270000Y-97370000D03*
%TD*%
D18*
%TO.C,C7*%
X115415000Y-135530000D03*
X116965000Y-135530000D03*
%TD*%
D12*
%TO.C,R7*%
X158090000Y-89490000D03*
X159110000Y-89490000D03*
%TD*%
D17*
%TO.C,C15*%
X168570000Y-97620000D03*
X168570000Y-96660000D03*
%TD*%
D38*
%TO.C,C59*%
X124826069Y-101675000D03*
X124826069Y-103225000D03*
%TD*%
D24*
%TO.C,U5*%
X109376069Y-103530000D03*
X109876069Y-103530000D03*
X110376069Y-103530000D03*
X110876069Y-103530000D03*
X110876069Y-102050000D03*
X110376069Y-102050000D03*
X109876069Y-102050000D03*
X109376069Y-102050000D03*
%TD*%
D39*
%TO.C,D4*%
X128442500Y-114190000D03*
X130017500Y-114190000D03*
%TD*%
D21*
%TO.C,C13*%
X162850000Y-103550000D03*
X161890000Y-103550000D03*
%TD*%
D25*
%TO.C,R32*%
X107996069Y-101260000D03*
X106976069Y-101260000D03*
%TD*%
D13*
%TO.C,C40*%
X110745000Y-89320000D03*
X113695000Y-89320000D03*
%TD*%
D25*
%TO.C,R30*%
X107936069Y-122550000D03*
X106916069Y-122550000D03*
%TD*%
%TO.C,R17*%
X122290000Y-58510000D03*
X121270000Y-58510000D03*
%TD*%
D38*
%TO.C,C58*%
X124786069Y-83915000D03*
X124786069Y-85465000D03*
%TD*%
D15*
%TO.C,C50*%
X111086069Y-115190000D03*
X112046069Y-115190000D03*
%TD*%
D28*
%TO.C,C52*%
X119056069Y-83195000D03*
X119056069Y-86145000D03*
%TD*%
D21*
%TO.C,C20*%
X162020000Y-105860000D03*
X161060000Y-105860000D03*
%TD*%
D13*
%TO.C,C38*%
X110641069Y-125260000D03*
X113591069Y-125260000D03*
%TD*%
D28*
%TO.C,C57*%
X122316069Y-119235000D03*
X122316069Y-122185000D03*
%TD*%
D16*
%TO.C,TP7*%
X103220000Y-68230000D03*
%TD*%
D30*
%TO.C,J4*%
X122890000Y-55105000D03*
X117110000Y-55105000D03*
D31*
X123200000Y-56180000D03*
X122400000Y-56180000D03*
D32*
X121250000Y-56180000D03*
X120250000Y-56180000D03*
X119750000Y-56180000D03*
X118750000Y-56180000D03*
D31*
X117600000Y-56180000D03*
X116800000Y-56180000D03*
X116800000Y-56180000D03*
X117600000Y-56180000D03*
D32*
X118250000Y-56180000D03*
X119250000Y-56180000D03*
X120750000Y-56180000D03*
X121750000Y-56180000D03*
D31*
X122400000Y-56180000D03*
X123200000Y-56180000D03*
D33*
X124320000Y-55605000D03*
D34*
X124320000Y-51425000D03*
D33*
X115680000Y-55605000D03*
D34*
X115680000Y-51425000D03*
%TD*%
D29*
%TO.C,L2*%
X113451069Y-82380000D03*
X115821069Y-82380000D03*
%TD*%
D25*
%TO.C,R27*%
X107936069Y-123550000D03*
X106916069Y-123550000D03*
%TD*%
D13*
%TO.C,C33*%
X123835000Y-70170000D03*
X126785000Y-70170000D03*
%TD*%
D20*
%TO.C,R2*%
X169570000Y-96630000D03*
X169570000Y-97650000D03*
%TD*%
D16*
%TO.C,TP10*%
X127506069Y-99380000D03*
%TD*%
D25*
%TO.C,R28*%
X107956069Y-86410000D03*
X106936069Y-86410000D03*
%TD*%
D40*
%TO.C,C12*%
X168330000Y-113870000D03*
X168330000Y-114830000D03*
%TD*%
D16*
%TO.C,TP12*%
X127436069Y-118330000D03*
%TD*%
D15*
%TO.C,C51*%
X106946069Y-117510000D03*
X107906069Y-117510000D03*
%TD*%
D19*
%TO.C,R34*%
X111076069Y-99880000D03*
X111076069Y-98860000D03*
%TD*%
D41*
%TO.C,U1*%
X164620000Y-102240000D03*
X164620000Y-102640000D03*
X164620000Y-103040000D03*
X164620000Y-103440000D03*
X164620000Y-103840000D03*
X164620000Y-104240000D03*
X164620000Y-104640000D03*
X164620000Y-105040000D03*
X164620000Y-105440000D03*
X164620000Y-105840000D03*
X164620000Y-106240000D03*
X164620000Y-106640000D03*
X164620000Y-107040000D03*
X164620000Y-107440000D03*
X164620000Y-107840000D03*
X164620000Y-108240000D03*
X164620000Y-108640000D03*
X164620000Y-109040000D03*
X164620000Y-109440000D03*
X164620000Y-109840000D03*
D42*
X165770000Y-110990000D03*
X166170000Y-110990000D03*
X166570000Y-110990000D03*
X166970000Y-110990000D03*
X167370000Y-110990000D03*
X167770000Y-110990000D03*
X168170000Y-110990000D03*
X168570000Y-110990000D03*
X168970000Y-110990000D03*
X169370000Y-110990000D03*
X169770000Y-110990000D03*
X170170000Y-110990000D03*
X170570000Y-110990000D03*
X170970000Y-110990000D03*
X171370000Y-110990000D03*
X171770000Y-110990000D03*
X172170000Y-110990000D03*
X172570000Y-110990000D03*
X172970000Y-110990000D03*
X173370000Y-110990000D03*
D41*
X174520000Y-109840000D03*
X174520000Y-109440000D03*
X174520000Y-109040000D03*
X174520000Y-108640000D03*
X174520000Y-108240000D03*
X174520000Y-107840000D03*
X174520000Y-107440000D03*
X174520000Y-107040000D03*
X174520000Y-106640000D03*
X174520000Y-106240000D03*
X174520000Y-105840000D03*
X174520000Y-105440000D03*
X174520000Y-105040000D03*
X174520000Y-104640000D03*
X174520000Y-104240000D03*
X174520000Y-103840000D03*
X174520000Y-103440000D03*
X174520000Y-103040000D03*
X174520000Y-102640000D03*
X174520000Y-102240000D03*
D42*
X173370000Y-101090000D03*
X172970000Y-101090000D03*
X172570000Y-101090000D03*
X172170000Y-101090000D03*
X171770000Y-101090000D03*
X171370000Y-101090000D03*
X170970000Y-101090000D03*
X170570000Y-101090000D03*
X170170000Y-101090000D03*
X169770000Y-101090000D03*
X169370000Y-101090000D03*
X168970000Y-101090000D03*
X168570000Y-101090000D03*
X168170000Y-101090000D03*
X167770000Y-101090000D03*
X167370000Y-101090000D03*
X166970000Y-101090000D03*
X166570000Y-101090000D03*
X166170000Y-101090000D03*
X165770000Y-101090000D03*
D43*
X169570000Y-106040000D03*
%TD*%
D25*
%TO.C,R36*%
X107926069Y-82450000D03*
X106906069Y-82450000D03*
%TD*%
D12*
%TO.C,R42*%
X106916069Y-116520000D03*
X107936069Y-116520000D03*
%TD*%
D44*
%TO.C,U3*%
X115803091Y-63442574D03*
X115803091Y-63842574D03*
X115803091Y-64242574D03*
X115803091Y-64642574D03*
X115803091Y-65042574D03*
X115803091Y-65442574D03*
D45*
X116328091Y-66367574D03*
X116728091Y-66367574D03*
X117128091Y-66367574D03*
X117528091Y-66367574D03*
X117928091Y-66367574D03*
X118328091Y-66367574D03*
X118728091Y-66367574D03*
X119128091Y-66367574D03*
X119528091Y-66367574D03*
X119928091Y-66367574D03*
X120328091Y-66367574D03*
X120728091Y-66367574D03*
X121128091Y-66367574D03*
X121128091Y-62517574D03*
X120728091Y-62517574D03*
X120328091Y-62517574D03*
X119928091Y-62517574D03*
X119528091Y-62517574D03*
X119128091Y-62517574D03*
X117128091Y-62517574D03*
X116728091Y-62517574D03*
X116328091Y-62517574D03*
D46*
X117763091Y-64442574D03*
D47*
X120288091Y-64442574D03*
%TD*%
D25*
%TO.C,R39*%
X107936069Y-118510000D03*
X106916069Y-118510000D03*
%TD*%
D15*
%TO.C,C49*%
X107006069Y-99250000D03*
X107966069Y-99250000D03*
%TD*%
D48*
%TO.C,U2*%
X158952500Y-91277500D03*
X158952500Y-92547500D03*
X158952500Y-93817500D03*
X158952500Y-95087500D03*
X166127500Y-95087500D03*
X166127500Y-93817500D03*
X166127500Y-92547500D03*
X166127500Y-91277500D03*
%TD*%
D18*
%TO.C,C41*%
X110741069Y-123310000D03*
X112291069Y-123310000D03*
%TD*%
D49*
%TO.C,SW3*%
X103320000Y-63520000D03*
X107820000Y-63520000D03*
X103320000Y-65670000D03*
X107820000Y-65670000D03*
%TD*%
D28*
%TO.C,C53*%
X119116069Y-100965000D03*
X119116069Y-103915000D03*
%TD*%
D39*
%TO.C,D2*%
X128292500Y-77620000D03*
X129867500Y-77620000D03*
%TD*%
D12*
%TO.C,R6*%
X158080000Y-88450000D03*
X159100000Y-88450000D03*
%TD*%
D25*
%TO.C,R35*%
X107936069Y-119520000D03*
X106916069Y-119520000D03*
%TD*%
D12*
%TO.C,R40*%
X106916069Y-80430000D03*
X107936069Y-80430000D03*
%TD*%
D25*
%TO.C,R9*%
X177920000Y-57840000D03*
X176900000Y-57840000D03*
%TD*%
D16*
%TO.C,TP13*%
X127406069Y-123150000D03*
%TD*%
D21*
%TO.C,C10*%
X162280000Y-108080000D03*
X161320000Y-108080000D03*
%TD*%
D20*
%TO.C,R4*%
X170570000Y-96630000D03*
X170570000Y-97650000D03*
%TD*%
D50*
%TO.C,Y1*%
X168420000Y-120772858D03*
X170620000Y-120772858D03*
X170620000Y-119072858D03*
X168420000Y-119072858D03*
%TD*%
D15*
%TO.C,C46*%
X111026069Y-79250000D03*
X111986069Y-79250000D03*
%TD*%
D35*
%TO.C,C6*%
X172055000Y-99000000D03*
X173085000Y-99000000D03*
%TD*%
D16*
%TO.C,TP11*%
X127706069Y-106300000D03*
%TD*%
D38*
%TO.C,C9*%
X127190000Y-135485000D03*
X127190000Y-137035000D03*
%TD*%
D51*
%TO.C,R44*%
X130120000Y-98225000D03*
X130120000Y-96575000D03*
%TD*%
D52*
%TO.C,TP5*%
X114260000Y-58500000D03*
%TD*%
D24*
%TO.C,U6*%
X109336069Y-121760000D03*
X109836069Y-121760000D03*
X110336069Y-121760000D03*
X110836069Y-121760000D03*
X110836069Y-120280000D03*
X110336069Y-120280000D03*
X109836069Y-120280000D03*
X109336069Y-120280000D03*
%TD*%
D13*
%TO.C,C34*%
X110781069Y-106960000D03*
X113731069Y-106960000D03*
%TD*%
D17*
%TO.C,C44*%
X109606069Y-100840000D03*
X109606069Y-99880000D03*
%TD*%
D28*
%TO.C,C54*%
X119016069Y-119225000D03*
X119016069Y-122175000D03*
%TD*%
D53*
%TO.C,D1*%
X110090000Y-66862500D03*
X110090000Y-68437500D03*
%TD*%
D19*
%TO.C,R37*%
X111056069Y-118050000D03*
X111056069Y-117030000D03*
%TD*%
D13*
%TO.C,C31*%
X123835000Y-65440000D03*
X126785000Y-65440000D03*
%TD*%
D25*
%TO.C,R15*%
X122258091Y-59520000D03*
X121238091Y-59520000D03*
%TD*%
D39*
%TO.C,D3*%
X128242500Y-95030000D03*
X129817500Y-95030000D03*
%TD*%
D21*
%TO.C,C17*%
X165480000Y-112880000D03*
X164520000Y-112880000D03*
%TD*%
D15*
%TO.C,C1*%
X167630000Y-116462858D03*
X168590000Y-116462858D03*
%TD*%
D25*
%TO.C,R38*%
X107996069Y-100250000D03*
X106976069Y-100250000D03*
%TD*%
D40*
%TO.C,C3*%
X174780000Y-98680000D03*
X174780000Y-99640000D03*
%TD*%
D22*
%TO.C,H3*%
X193600000Y-146000000D03*
X194302944Y-144302944D03*
X194302944Y-147697056D03*
X196000000Y-143600000D03*
D23*
X196000000Y-146000000D03*
D22*
X196000000Y-148400000D03*
X197697056Y-144302944D03*
X197697056Y-147697056D03*
X198400000Y-146000000D03*
%TD*%
D17*
%TO.C,C45*%
X109510000Y-118960000D03*
X109510000Y-118000000D03*
%TD*%
D25*
%TO.C,R31*%
X107926069Y-83470000D03*
X106906069Y-83470000D03*
%TD*%
D22*
%TO.C,H2*%
X101600000Y-54000000D03*
X102302944Y-52302944D03*
X102302944Y-55697056D03*
X104000000Y-51600000D03*
D23*
X104000000Y-54000000D03*
D22*
X104000000Y-56400000D03*
X105697056Y-52302944D03*
X105697056Y-55697056D03*
X106400000Y-54000000D03*
%TD*%
D51*
%TO.C,R43*%
X130590000Y-80735000D03*
X130590000Y-79085000D03*
%TD*%
D21*
%TO.C,C27*%
X114688091Y-62082574D03*
X113728091Y-62082574D03*
%TD*%
%TO.C,C29*%
X114723091Y-64662574D03*
X113763091Y-64662574D03*
%TD*%
D13*
%TO.C,C36*%
X110651069Y-127650000D03*
X113601069Y-127650000D03*
%TD*%
%TO.C,C37*%
X110735000Y-91700000D03*
X113685000Y-91700000D03*
%TD*%
D15*
%TO.C,C30*%
X124960000Y-61770000D03*
X125920000Y-61770000D03*
%TD*%
D16*
%TO.C,TP8*%
X127926069Y-82360000D03*
%TD*%
D29*
%TO.C,L3*%
X113501069Y-100380000D03*
X115871069Y-100380000D03*
%TD*%
D15*
%TO.C,C16*%
X177220000Y-106190000D03*
X178180000Y-106190000D03*
%TD*%
D12*
%TO.C,R10*%
X181810000Y-57890000D03*
X182830000Y-57890000D03*
%TD*%
D25*
%TO.C,R26*%
X108036069Y-105170000D03*
X107016069Y-105170000D03*
%TD*%
D19*
%TO.C,R5*%
X169770000Y-114840000D03*
X169770000Y-113820000D03*
%TD*%
D15*
%TO.C,C47*%
X106966069Y-81440000D03*
X107926069Y-81440000D03*
%TD*%
D49*
%TO.C,SW2*%
X154530000Y-84830000D03*
X159030000Y-84830000D03*
X154530000Y-86980000D03*
X159030000Y-86980000D03*
%TD*%
D25*
%TO.C,R11*%
X114758091Y-60102574D03*
X113738091Y-60102574D03*
%TD*%
D38*
%TO.C,C60*%
X124766069Y-119965000D03*
X124766069Y-121515000D03*
%TD*%
D40*
%TO.C,C19*%
X170940000Y-113840000D03*
X170940000Y-114800000D03*
%TD*%
D21*
%TO.C,C11*%
X164260000Y-97930000D03*
X163300000Y-97930000D03*
%TD*%
M02*
