M48
; DRILL file KiCad 10.0.2 date 2026-05-17T20:36:13
; FORMAT={-:-/ absolute / metric / decimal}
; #@! TF.CreationDate,2026-05-17T20:36:13-07:00
; #@! TF.GenerationSoftware,Kicad,Pcbnew,10.0.2
; #@! TF.FileFunction,Plated,1,2,PTH
FMAT,2
METRIC
; #@! TA.AperFunction,Plated,PTH,ViaDrill
T1C0.300
; #@! TA.AperFunction,Plated,PTH,ComponentDrill
T2C0.300
; #@! TA.AperFunction,Plated,PTH,ComponentDrill
T3C0.400
; #@! TA.AperFunction,Plated,PTH,ComponentDrill
T4C0.600
; #@! TA.AperFunction,Plated,PTH,ComponentDrill
T5C1.000
; #@! TA.AperFunction,Plated,PTH,ComponentDrill
T6C2.200
%
G90
G05
T1
X52.5Y-132.14
X52.5Y-133.04
X52.515Y-131.3
X53.475Y-132.14
X53.475Y-133.04
X53.49Y-131.3
X54.45Y-132.145
X54.45Y-133.045
X54.465Y-131.305
X54.7Y-99.035
X54.7Y-100.835
X55.485Y-137.75
X55.485Y-138.74
X55.485Y-139.61
X55.485Y-140.49
X55.49Y-134.89
X55.49Y-135.84
X55.49Y-136.74
X55.5Y-132.17
X55.5Y-133.07
X55.5Y-133.98
X55.515Y-131.33
X56.3Y-110.4
X56.4Y-120.55
X56.46Y-137.75
X56.46Y-138.74
X56.46Y-139.61
X56.46Y-140.49
X56.465Y-134.89
X56.465Y-135.84
X56.465Y-136.74
X56.475Y-132.17
X56.475Y-133.07
X56.475Y-133.98
X56.49Y-131.33
X57.36Y-137.73
X57.36Y-138.72
X57.36Y-139.59
X57.36Y-140.47
X57.365Y-134.87
X57.365Y-135.82
X57.365Y-136.72
X57.375Y-129.6
X57.375Y-130.45
X57.375Y-131.325
X57.375Y-132.175
X57.375Y-133.05
X57.375Y-133.96
X58.425Y-129.625
X58.425Y-130.475
X58.425Y-131.35
X58.425Y-132.2
X58.425Y-133.075
X58.65Y-121.7
X59.4Y-129.625
X59.4Y-130.475
X59.4Y-131.35
X59.4Y-132.2
X59.4Y-133.075
X59.425Y-127.975
X59.425Y-128.775
X60.7Y-121.45
X61.45Y-95.5
X61.45Y-99.15
X62.7Y-97.85
X63.65Y-95.4
X65.65Y-125.1
X67.0Y-110.3
X67.0Y-120.2
X67.35Y-94.635
X67.5Y-98.185
X67.75Y-99.185
X69.45Y-139.1
X72.6Y-110.1
X72.875Y-132.33
X72.875Y-133.23
X72.89Y-131.49
X73.85Y-132.33
X73.85Y-133.23
X73.865Y-131.49
X74.7Y-92.95
X74.825Y-132.335
X74.825Y-133.235
X74.84Y-131.495
X75.185Y-86.01
X75.86Y-137.94
X75.86Y-138.93
X75.86Y-139.8
X75.86Y-140.68
X75.865Y-135.08
X75.865Y-136.03
X75.865Y-136.93
X75.875Y-132.36
X75.875Y-133.26
X75.875Y-134.17
X75.89Y-131.52
X76.445Y-85.16
X76.71Y-120.36
X76.835Y-137.94
X76.835Y-138.93
X76.835Y-139.8
X76.835Y-140.68
X76.84Y-135.08
X76.84Y-136.03
X76.84Y-136.93
X76.85Y-132.36
X76.85Y-133.26
X76.85Y-134.17
X76.865Y-131.52
X77.1Y-90.2
X77.735Y-137.92
X77.735Y-138.91
X77.735Y-139.78
X77.735Y-140.66
X77.74Y-135.06
X77.74Y-136.01
X77.74Y-136.91
X77.75Y-129.79
X77.75Y-130.64
X77.75Y-131.515
X77.75Y-132.365
X77.75Y-133.24
X77.75Y-134.15
X77.84Y-120.53
X78.8Y-129.815
X78.8Y-130.665
X78.8Y-131.54
X78.8Y-132.39
X78.8Y-133.265
X78.85Y-120.55
X79.1Y-110.2
X79.33Y-90.62
X79.34Y-88.82
X79.34Y-89.75
X79.462Y-86.71
X79.55Y-93.52
X79.775Y-129.815
X79.775Y-130.665
X79.775Y-131.54
X79.775Y-132.39
X79.775Y-133.265
X79.8Y-128.165
X79.8Y-128.965
X80.2Y-89.748
X80.23Y-90.62
X80.25Y-88.81
X80.275Y-84.822
X80.545Y-100.11
X80.9Y-120.0
X81.14Y-88.81
X81.15Y-89.74
X81.15Y-90.66
X81.55Y-121.45
X81.609Y-82.639
X81.67Y-86.74
X82.1Y-101.2
X82.875Y-91.722
X83.16Y-88.726
X84.125Y-82.675
X84.199Y-87.309
X84.25Y-90.597
X84.31Y-91.68
X86.05Y-125.1
X88.2Y-89.5
X88.3Y-88.35
X89.7Y-135.5
X89.96Y-82.69
X90.25Y-144.6
X91.2Y-101.3
X91.8Y-93.55
X91.93Y-91.47
X92.95Y-95.8
X94.0Y-113.45
X94.05Y-106.45
X94.05Y-111.45
X96.42Y-131.85
X96.42Y-132.68
X97.19Y-131.85
X97.2Y-132.67
X99.1Y-103.4
X99.1Y-136.6
X101.3Y-137.3
X101.825Y-109.88
X102.625Y-109.88
X103.1Y-135.45
X103.45Y-111.93
X103.475Y-109.905
X103.475Y-110.88
X104.3Y-111.93
X104.325Y-109.905
X104.325Y-110.88
X105.15Y-115.815
X105.15Y-116.79
X105.155Y-114.84
X105.175Y-111.93
X105.18Y-112.815
X105.18Y-113.79
X105.2Y-109.905
X105.2Y-110.88
X105.53Y-131.32
X105.54Y-130.45
X105.99Y-115.83
X105.99Y-116.805
X105.995Y-114.855
X106.02Y-112.83
X106.02Y-113.805
X106.025Y-111.93
X106.05Y-109.905
X106.05Y-110.88
X106.23Y-131.32
X106.25Y-130.45
X106.89Y-115.83
X106.89Y-116.805
X106.895Y-114.855
X106.9Y-111.93
X106.92Y-112.83
X106.92Y-113.805
X106.925Y-109.905
X106.925Y-110.88
X107.81Y-111.93
X107.83Y-112.83
X107.83Y-113.805
X107.85Y-131.65
X107.87Y-132.76
X108.72Y-111.94
X108.74Y-112.84
X108.74Y-113.815
X108.8Y-131.65
X108.82Y-132.76
X109.25Y-137.4
X109.67Y-111.94
X109.69Y-112.84
X109.69Y-113.815
X109.74Y-131.645
X109.75Y-132.76
X110.57Y-111.94
X110.59Y-112.84
X110.59Y-113.815
X110.69Y-131.645
X110.7Y-132.76
X111.04Y-135.46
X111.35Y-95.2
X111.36Y-81.82
X111.58Y-111.945
X111.59Y-131.645
X111.6Y-112.845
X111.6Y-113.82
X111.6Y-132.76
X112.57Y-111.945
X112.59Y-112.845
X112.59Y-113.82
X112.6Y-131.65
X112.61Y-132.765
X113.06Y-99.64
X113.44Y-111.945
X113.46Y-112.845
X113.46Y-113.82
X113.59Y-131.65
X113.6Y-132.765
X114.32Y-111.945
X114.34Y-112.845
X114.34Y-113.82
X114.75Y-130.615
X114.76Y-131.645
X114.77Y-132.705
X115.7Y-130.615
X115.71Y-131.645
X115.72Y-132.705
X116.6Y-130.615
X116.61Y-131.645
X116.62Y-132.705
X117.61Y-130.62
X117.62Y-131.65
X117.63Y-132.71
X118.6Y-130.62
X118.61Y-131.65
X118.62Y-132.71
X119.8Y-148.4
X121.35Y-121.175
X122.8Y-95.2
X122.82Y-81.78
T2
X100.4Y-132.525
X101.35Y-131.95
X101.35Y-133.1
X102.3Y-132.525
T3
X51.35Y-78.0
X51.35Y-147.0
X51.833Y-76.833
X51.833Y-79.167
X51.833Y-145.833
X51.833Y-148.167
X53.0Y-76.35
X53.0Y-79.65
X53.0Y-145.35
X53.0Y-148.65
X54.167Y-76.833
X54.167Y-79.167
X54.167Y-145.833
X54.167Y-148.167
X54.65Y-78.0
X54.65Y-147.0
X125.35Y-78.0
X125.35Y-147.0
X125.833Y-76.833
X125.833Y-79.167
X125.833Y-145.833
X125.833Y-148.167
X127.0Y-76.35
X127.0Y-79.65
X127.0Y-145.35
X127.0Y-148.65
X128.167Y-76.833
X128.167Y-79.167
X128.167Y-145.833
X128.167Y-148.167
X128.65Y-78.0
X128.65Y-147.0
T5
X58.885Y-144.65
X59.875Y-105.475
X61.425Y-144.65
X62.375Y-105.475
X64.875Y-105.475
X67.375Y-105.475
X68.597Y-76.38
X68.597Y-81.46
X68.597Y-84.0
X68.597Y-86.54
X69.875Y-105.475
X71.138Y-76.38
X71.138Y-81.46
X71.138Y-84.0
X71.138Y-86.54
X79.11Y-144.3
X81.65Y-144.3
X98.825Y-80.2
X98.825Y-82.7
X98.825Y-85.2
X98.9Y-145.275
X101.4Y-145.275
X103.9Y-145.275
X106.4Y-145.275
X108.9Y-145.275
X111.4Y-145.275
X113.9Y-145.275
X116.4Y-145.275
X118.21Y-107.815
X118.21Y-110.355
X121.0Y-126.1
X121.0Y-128.64
T6
X53.0Y-78.0
X53.0Y-147.0
X127.0Y-78.0
X127.0Y-147.0
T4
G00X78.555Y-76.858
M15
G01X78.555Y-76.057
M16
G05
G00X78.555Y-81.188
M15
G01X78.555Y-80.087
M16
G05
G00X87.195Y-76.858
M15
G01X87.195Y-76.057
M16
G05
G00X87.195Y-81.188
M15
G01X87.195Y-80.087
M16
G05
M30
