%TF.GenerationSoftware,KiCad,Pcbnew,10.0.2*%
%TF.CreationDate,2026-05-17T20:36:09-07:00*%
%TF.ProjectId,usb_pd,7573625f-7064-42e6-9b69-6361645f7063,rev?*%
%TF.SameCoordinates,Original*%
%TF.FileFunction,Copper,L1,Top*%
%TF.FilePolarity,Positive*%
%FSLAX46Y46*%
G04 Gerber Fmt 4.6, Leading zero omitted, Abs format (unit mm)*
G04 Created by KiCad (PCBNEW 10.0.2) date 2026-05-17 20:36:09*
%MOMM*%
%LPD*%
G01*
G04 APERTURE LIST*
G04 Aperture macros list*
%AMRoundRect*
0 Rectangle with rounded corners*
0 $1 Rounding radius*
0 $2 $3 $4 $5 $6 $7 $8 $9 X,Y pos of 4 corners*
0 Add a 4 corners polygon primitive as box body*
4,1,4,$2,$3,$4,$5,$6,$7,$8,$9,$2,$3,0*
0 Add four circle primitives for the rounded corners*
1,1,$1+$1,$2,$3*
1,1,$1+$1,$4,$5*
1,1,$1+$1,$6,$7*
1,1,$1+$1,$8,$9*
0 Add four rect primitives between the rounded corners*
20,1,$1+$1,$2,$3,$4,$5,0*
20,1,$1+$1,$4,$5,$6,$7,0*
20,1,$1+$1,$6,$7,$8,$9,0*
20,1,$1+$1,$8,$9,$2,$3,0*%
%AMFreePoly0*
4,1,21,-0.125000,1.200000,0.125000,1.200000,0.125000,1.700000,0.375000,1.700000,0.375000,1.200000,0.825000,1.200000,0.825000,-1.200000,0.375000,-1.200000,0.375000,-1.700000,0.125000,-1.700000,0.125000,-1.200000,-0.125000,-1.200000,-0.125000,-1.700000,-0.375000,-1.700000,-0.375000,-1.200000,-0.825000,-1.200000,-0.825000,1.200000,-0.375000,1.200000,-0.375000,1.700000,-0.125000,1.700000,
-0.125000,1.200000,-0.125000,1.200000,$1*%
%AMFreePoly1*
4,1,9,-0.101600,0.165100,0.457200,0.165100,0.457200,-0.165100,-0.101600,-0.165100,-0.101600,-2.156099,-2.209800,-2.156099,-2.209800,0.206101,-0.101600,0.206101,-0.101600,0.165100,-0.101600,0.165100,$1*%
G04 Aperture macros list end*
%TA.AperFunction,ComponentPad*%
%ADD10C,0.500000*%
%TD*%
%TA.AperFunction,SMDPad,CuDef*%
%ADD11FreePoly0,90.000000*%
%TD*%
%TA.AperFunction,SMDPad,CuDef*%
%ADD12RoundRect,0.060000X0.060000X-0.240000X0.060000X0.240000X-0.060000X0.240000X-0.060000X-0.240000X0*%
%TD*%
%TA.AperFunction,ComponentPad*%
%ADD13C,0.700000*%
%TD*%
%TA.AperFunction,ComponentPad*%
%ADD14C,4.400000*%
%TD*%
%TA.AperFunction,ComponentPad*%
%ADD15C,1.508000*%
%TD*%
%TA.AperFunction,ComponentPad*%
%ADD16R,1.508000X1.508000*%
%TD*%
%TA.AperFunction,SMDPad,CuDef*%
%ADD17RoundRect,0.250000X-0.325000X-1.100000X0.325000X-1.100000X0.325000X1.100000X-0.325000X1.100000X0*%
%TD*%
%TA.AperFunction,SMDPad,CuDef*%
%ADD18RoundRect,0.250000X1.100000X-0.325000X1.100000X0.325000X-1.100000X0.325000X-1.100000X-0.325000X0*%
%TD*%
%TA.AperFunction,SMDPad,CuDef*%
%ADD19RoundRect,0.250000X-1.100000X0.325000X-1.100000X-0.325000X1.100000X-0.325000X1.100000X0.325000X0*%
%TD*%
%TA.AperFunction,ComponentPad*%
%ADD20O,1.700000X1.700000*%
%TD*%
%TA.AperFunction,ComponentPad*%
%ADD21R,1.700000X1.700000*%
%TD*%
%TA.AperFunction,SMDPad,CuDef*%
%ADD22RoundRect,0.200000X0.200000X0.275000X-0.200000X0.275000X-0.200000X-0.275000X0.200000X-0.275000X0*%
%TD*%
%TA.AperFunction,SMDPad,CuDef*%
%ADD23RoundRect,0.150000X0.150000X0.425000X-0.150000X0.425000X-0.150000X-0.425000X0.150000X-0.425000X0*%
%TD*%
%TA.AperFunction,SMDPad,CuDef*%
%ADD24RoundRect,0.075000X0.075000X0.500000X-0.075000X0.500000X-0.075000X-0.500000X0.075000X-0.500000X0*%
%TD*%
%TA.AperFunction,HeatsinkPad*%
%ADD25O,1.000000X2.100000*%
%TD*%
%TA.AperFunction,HeatsinkPad*%
%ADD26O,1.000000X1.800000*%
%TD*%
%TA.AperFunction,SMDPad,CuDef*%
%ADD27RoundRect,0.225000X-0.225000X-0.250000X0.225000X-0.250000X0.225000X0.250000X-0.225000X0.250000X0*%
%TD*%
%TA.AperFunction,SMDPad,CuDef*%
%ADD28RoundRect,0.250000X0.650000X-0.325000X0.650000X0.325000X-0.650000X0.325000X-0.650000X-0.325000X0*%
%TD*%
%TA.AperFunction,SMDPad,CuDef*%
%ADD29RoundRect,0.225000X-0.250000X0.225000X-0.250000X-0.225000X0.250000X-0.225000X0.250000X0.225000X0*%
%TD*%
%TA.AperFunction,SMDPad,CuDef*%
%ADD30RoundRect,0.200000X-0.200000X-0.275000X0.200000X-0.275000X0.200000X0.275000X-0.200000X0.275000X0*%
%TD*%
%TA.AperFunction,SMDPad,CuDef*%
%ADD31RoundRect,0.250000X-0.650000X0.325000X-0.650000X-0.325000X0.650000X-0.325000X0.650000X0.325000X0*%
%TD*%
%TA.AperFunction,SMDPad,CuDef*%
%ADD32RoundRect,0.200000X-0.275000X0.200000X-0.275000X-0.200000X0.275000X-0.200000X0.275000X0.200000X0*%
%TD*%
%TA.AperFunction,SMDPad,CuDef*%
%ADD33RoundRect,0.050000X-0.285000X-0.100000X0.285000X-0.100000X0.285000X0.100000X-0.285000X0.100000X0*%
%TD*%
%TA.AperFunction,SMDPad,CuDef*%
%ADD34RoundRect,0.225000X0.225000X0.250000X-0.225000X0.250000X-0.225000X-0.250000X0.225000X-0.250000X0*%
%TD*%
%TA.AperFunction,SMDPad,CuDef*%
%ADD35RoundRect,0.150000X0.200000X-0.150000X0.200000X0.150000X-0.200000X0.150000X-0.200000X-0.150000X0*%
%TD*%
%TA.AperFunction,SMDPad,CuDef*%
%ADD36RoundRect,0.218750X-0.218750X-0.256250X0.218750X-0.256250X0.218750X0.256250X-0.218750X0.256250X0*%
%TD*%
%TA.AperFunction,SMDPad,CuDef*%
%ADD37RoundRect,0.218750X0.256250X-0.218750X0.256250X0.218750X-0.256250X0.218750X-0.256250X-0.218750X0*%
%TD*%
%TA.AperFunction,SMDPad,CuDef*%
%ADD38RoundRect,0.112500X0.350000X0.112500X-0.350000X0.112500X-0.350000X-0.112500X0.350000X-0.112500X0*%
%TD*%
%TA.AperFunction,SMDPad,CuDef*%
%ADD39RoundRect,0.200000X0.275000X-0.200000X0.275000X0.200000X-0.275000X0.200000X-0.275000X-0.200000X0*%
%TD*%
%TA.AperFunction,SMDPad,CuDef*%
%ADD40RoundRect,0.250000X-0.325000X-0.650000X0.325000X-0.650000X0.325000X0.650000X-0.325000X0.650000X0*%
%TD*%
%TA.AperFunction,SMDPad,CuDef*%
%ADD41RoundRect,0.250000X0.325000X1.100000X-0.325000X1.100000X-0.325000X-1.100000X0.325000X-1.100000X0*%
%TD*%
%TA.AperFunction,SMDPad,CuDef*%
%ADD42RoundRect,0.225000X0.250000X-0.225000X0.250000X0.225000X-0.250000X0.225000X-0.250000X-0.225000X0*%
%TD*%
%TA.AperFunction,SMDPad,CuDef*%
%ADD43RoundRect,0.218750X0.218750X0.256250X-0.218750X0.256250X-0.218750X-0.256250X0.218750X-0.256250X0*%
%TD*%
%TA.AperFunction,SMDPad,CuDef*%
%ADD44R,3.400000X0.980000*%
%TD*%
%TA.AperFunction,SMDPad,CuDef*%
%ADD45RoundRect,0.050000X0.100000X-0.285000X0.100000X0.285000X-0.100000X0.285000X-0.100000X-0.285000X0*%
%TD*%
%TA.AperFunction,SMDPad,CuDef*%
%ADD46R,6.600000X2.300000*%
%TD*%
%TA.AperFunction,SMDPad,CuDef*%
%ADD47RoundRect,0.218750X-0.256250X0.218750X-0.256250X-0.218750X0.256250X-0.218750X0.256250X0.218750X0*%
%TD*%
%TA.AperFunction,SMDPad,CuDef*%
%ADD48RoundRect,0.150000X-0.150000X-0.200000X0.150000X-0.200000X0.150000X0.200000X-0.150000X0.200000X0*%
%TD*%
%TA.AperFunction,SMDPad,CuDef*%
%ADD49R,0.980000X3.400000*%
%TD*%
%TA.AperFunction,SMDPad,CuDef*%
%ADD50RoundRect,0.100000X0.637500X0.100000X-0.637500X0.100000X-0.637500X-0.100000X0.637500X-0.100000X0*%
%TD*%
%TA.AperFunction,SMDPad,CuDef*%
%ADD51RoundRect,0.062500X-0.062500X0.350000X-0.062500X-0.350000X0.062500X-0.350000X0.062500X0.350000X0*%
%TD*%
%TA.AperFunction,SMDPad,CuDef*%
%ADD52RoundRect,0.062500X-0.350000X0.062500X-0.350000X-0.062500X0.350000X-0.062500X0.350000X0.062500X0*%
%TD*%
%TA.AperFunction,HeatsinkPad*%
%ADD53R,2.700000X2.700000*%
%TD*%
%TA.AperFunction,SMDPad,CuDef*%
%ADD54R,1.220000X1.120000*%
%TD*%
%TA.AperFunction,SMDPad,CuDef*%
%ADD55R,0.330200X0.914400*%
%TD*%
%TA.AperFunction,SMDPad,CuDef*%
%ADD56FreePoly1,270.000000*%
%TD*%
%TA.AperFunction,ViaPad*%
%ADD57C,0.600000*%
%TD*%
%TA.AperFunction,Conductor*%
%ADD58C,0.200000*%
%TD*%
G04 APERTURE END LIST*
D10*
%TO.P,U5,11,EP_11*%
%TO.N,GND*%
X101350000Y-131950000D03*
X102300000Y-132525000D03*
D11*
X101350000Y-132525000D03*
D10*
X100400000Y-132525000D03*
X101350000Y-133100000D03*
D12*
%TO.P,U5,10,VREF_10*%
%TO.N,Net-(U5-VREF)*%
X100350000Y-131125000D03*
%TO.P,U5,9,FB_9*%
%TO.N,Net-(U5-FB)*%
X100850000Y-131125000D03*
%TO.P,U5,8,OUT_8*%
%TO.N,-15V*%
X101350000Y-131125000D03*
%TO.P,U5,7,PS_GND_7*%
%TO.N,GND*%
X101850000Y-131125000D03*
%TO.P,U5,6,SW_6*%
%TO.N,Net-(D11-K)*%
X102350000Y-131125000D03*
%TO.P,U5,5,IN_5*%
%TO.N,+5V*%
X102350000Y-133925000D03*
%TO.P,U5,4,EN_4*%
%TO.N,-15V_EN*%
X101850000Y-133925000D03*
%TO.P,U5,3,VIN_3*%
%TO.N,Net-(U5-VIN)*%
X101350000Y-133925000D03*
%TO.P,U5,2,GND_2*%
%TO.N,GND*%
X100850000Y-133925000D03*
%TO.P,U5,1,COMP_1*%
%TO.N,Net-(U5-COMP)*%
X100350000Y-133925000D03*
%TD*%
D13*
%TO.P,H2,1,1_1*%
%TO.N,GND*%
X128650000Y-78000000D03*
X128166726Y-79166726D03*
X128166726Y-76833274D03*
X127000000Y-79650000D03*
D14*
X127000000Y-78000000D03*
D13*
X127000000Y-76350000D03*
X125833274Y-79166726D03*
X125833274Y-76833274D03*
X125350000Y-78000000D03*
%TD*%
D15*
%TO.P,J9,5,Pin_5_5*%
%TO.N,GND*%
X59875000Y-105475000D03*
%TO.P,J9,4,Pin_4_4*%
%TO.N,/power_delivery/PD_SCA*%
X62375000Y-105475000D03*
%TO.P,J9,3,Pin_3_3*%
%TO.N,/power_delivery/PD_SCL*%
X64875000Y-105475000D03*
%TO.P,J9,2,Pin_2_2*%
%TO.N,/power_delivery/~{PWR_CTRL_INT}*%
X67375000Y-105475000D03*
D16*
%TO.P,J9,1,Pin_1_1*%
%TO.N,/power_delivery/~{PWR_CTRL_RST}*%
X69875000Y-105475000D03*
%TD*%
D15*
%TO.P,J2,8,Pin_8_8*%
%TO.N,GND*%
X98900000Y-145275000D03*
%TO.P,J2,7,Pin_7_7*%
%TO.N,+3.3V*%
X101400000Y-145275000D03*
%TO.P,J2,6,Pin_6_6*%
%TO.N,GND*%
X103900000Y-145275000D03*
%TO.P,J2,5,Pin_5_5*%
%TO.N,+5V*%
X106400000Y-145275000D03*
%TO.P,J2,4,Pin_4_4*%
%TO.N,GND*%
X108900000Y-145275000D03*
%TO.P,J2,3,Pin_3_3*%
%TO.N,-15V*%
X111400000Y-145275000D03*
%TO.P,J2,2,Pin_2_2*%
%TO.N,GND*%
X113900000Y-145275000D03*
D16*
%TO.P,J2,1,Pin_1_1*%
%TO.N,+15V*%
X116400000Y-145275000D03*
%TD*%
D17*
%TO.P,C45,2*%
%TO.N,GND*%
X109225000Y-139725000D03*
%TO.P,C45,1*%
%TO.N,+5V*%
X106275000Y-139725000D03*
%TD*%
D18*
%TO.P,C46,2*%
%TO.N,GND*%
X92600000Y-144625000D03*
%TO.P,C46,1*%
%TO.N,+3.3V*%
X92600000Y-147575000D03*
%TD*%
%TO.P,C44,1*%
%TO.N,-15V*%
X113150000Y-138425000D03*
%TO.P,C44,2*%
%TO.N,GND*%
X113150000Y-135475000D03*
%TD*%
D19*
%TO.P,C43,1*%
%TO.N,+15V*%
X122100000Y-145325000D03*
%TO.P,C43,2*%
%TO.N,GND*%
X122100000Y-148275000D03*
%TD*%
D20*
%TO.P,J6,2,Pin_2_2*%
%TO.N,GND*%
X121000000Y-128640000D03*
D21*
%TO.P,J6,1,Pin_1_1*%
%TO.N,-15V*%
X121000000Y-126100000D03*
%TD*%
D15*
%TO.P,J8,3,Pin_3_3*%
%TO.N,GND*%
X98825000Y-80200000D03*
%TO.P,J8,2,Pin_2_2*%
%TO.N,Net-(J8-Pin_2)*%
X98825000Y-82700000D03*
D16*
%TO.P,J8,1,Pin_1_1*%
%TO.N,Net-(J8-Pin_1)*%
X98825000Y-85200000D03*
%TD*%
D22*
%TO.P,R5,1*%
%TO.N,+Vbus*%
X86875000Y-86720000D03*
%TO.P,R5,2*%
%TO.N,Net-(U1-VBUS_VS_DISCH)*%
X85225000Y-86720000D03*
%TD*%
D21*
%TO.P,J4,1,Pin_1_1*%
%TO.N,+5V*%
X81650000Y-144300000D03*
D20*
%TO.P,J4,2,Pin_2_2*%
%TO.N,GND*%
X79110000Y-144300000D03*
%TD*%
D22*
%TO.P,R38,1*%
%TO.N,Net-(J8-Pin_1)*%
X95105000Y-85350000D03*
%TO.P,R38,2*%
%TO.N,USB_DM*%
X93455000Y-85350000D03*
%TD*%
D23*
%TO.P,J1,A1,GND_A1*%
%TO.N,GND*%
X86075000Y-81212500D03*
%TO.P,J1,A4,VBUS_A4*%
%TO.N,+Vbus*%
X85275000Y-81212500D03*
D24*
%TO.P,J1,A5,CC1_A5*%
%TO.N,/power_delivery/CC1*%
X84125000Y-81212500D03*
%TO.P,J1,A6,D+_A6*%
%TO.N,USB_DP*%
X83125000Y-81212500D03*
%TO.P,J1,A7,D-_A7*%
%TO.N,USB_DM*%
X82625000Y-81212500D03*
%TO.P,J1,A8,SBU1_A8*%
%TO.N,unconnected-(J1-SBU1-PadA8)*%
X81625000Y-81212500D03*
D23*
%TO.P,J1,A9,VBUS_A9*%
%TO.N,+Vbus*%
X80475000Y-81212500D03*
%TO.P,J1,A12,GND_A12*%
%TO.N,GND*%
X79675000Y-81212500D03*
%TO.P,J1,B1,GND_B1*%
X79675000Y-81212500D03*
%TO.P,J1,B4,VBUS_B4*%
%TO.N,+Vbus*%
X80475000Y-81212500D03*
D24*
%TO.P,J1,B5,CC2_B5*%
%TO.N,/power_delivery/CC2*%
X81125000Y-81212500D03*
%TO.P,J1,B6,D+_B6*%
%TO.N,USB_DP*%
X82125000Y-81212500D03*
%TO.P,J1,B7,D-_B7*%
%TO.N,USB_DM*%
X83625000Y-81212500D03*
%TO.P,J1,B8,SBU2_B8*%
%TO.N,unconnected-(J1-SBU2-PadB8)*%
X84625000Y-81212500D03*
D23*
%TO.P,J1,B9,VBUS_B9*%
%TO.N,+Vbus*%
X85275000Y-81212500D03*
%TO.P,J1,B12,GND_B12*%
%TO.N,GND*%
X86075000Y-81212500D03*
D25*
%TO.P,J1,S1,SHIELD_S1*%
X87195000Y-80637500D03*
D26*
X87195000Y-76457500D03*
D25*
X78555000Y-80637500D03*
D26*
X78555000Y-76457500D03*
%TD*%
D27*
%TO.P,C41,1*%
%TO.N,GND*%
X56025000Y-100785000D03*
%TO.P,C41,2*%
%TO.N,+3.3V*%
X57575000Y-100785000D03*
%TD*%
%TO.P,C12,1*%
%TO.N,GND*%
X59445000Y-141910000D03*
%TO.P,C12,2*%
%TO.N,+3.3V*%
X60995000Y-141910000D03*
%TD*%
D19*
%TO.P,C26,1*%
%TO.N,+15V*%
X112960000Y-107515000D03*
%TO.P,C26,2*%
%TO.N,GND*%
X112960000Y-110465000D03*
%TD*%
D28*
%TO.P,C31,1*%
%TO.N,+5V*%
X106250000Y-135575000D03*
%TO.P,C31,2*%
%TO.N,GND*%
X106250000Y-132625000D03*
%TD*%
D13*
%TO.P,H3,1,1_1*%
%TO.N,GND*%
X125350000Y-147000000D03*
X125833274Y-145833274D03*
X125833274Y-148166726D03*
X127000000Y-145350000D03*
D14*
X127000000Y-147000000D03*
D13*
X127000000Y-148650000D03*
X128166726Y-145833274D03*
X128166726Y-148166726D03*
X128650000Y-147000000D03*
%TD*%
D22*
%TO.P,R8,1*%
%TO.N,Net-(D3-K)*%
X94625000Y-94500000D03*
%TO.P,R8,2*%
%TO.N,GND*%
X92975000Y-94500000D03*
%TD*%
D21*
%TO.P,J3,1,Pin_1_1*%
%TO.N,+3.3V*%
X61425000Y-144650000D03*
D20*
%TO.P,J3,2,Pin_2_2*%
%TO.N,GND*%
X58885000Y-144650000D03*
%TD*%
D22*
%TO.P,R37,1*%
%TO.N,Net-(J8-Pin_2)*%
X95050000Y-82750000D03*
%TO.P,R37,2*%
%TO.N,USB_DP*%
X93400000Y-82750000D03*
%TD*%
D29*
%TO.P,C33,1*%
%TO.N,GND*%
X98350000Y-133825000D03*
%TO.P,C33,2*%
%TO.N,Net-(U5-COMP)*%
X98350000Y-135375000D03*
%TD*%
D30*
%TO.P,R24,1*%
%TO.N,+3.3V*%
X64995000Y-137400000D03*
%TO.P,R24,2*%
%TO.N,Net-(D8-A)*%
X66645000Y-137400000D03*
%TD*%
D21*
%TO.P,J5,1,Pin_1_1*%
%TO.N,+15V*%
X118210000Y-107815000D03*
D20*
%TO.P,J5,2,Pin_2_2*%
%TO.N,GND*%
X118210000Y-110355000D03*
%TD*%
D31*
%TO.P,C13,1*%
%TO.N,+Vsink*%
X75900000Y-127150000D03*
%TO.P,C13,2*%
%TO.N,GND*%
X75900000Y-130100000D03*
%TD*%
D32*
%TO.P,R16,1*%
%TO.N,Net-(C35-Pad1)*%
X87840000Y-121500000D03*
%TO.P,R16,2*%
%TO.N,+5V*%
X87840000Y-123150000D03*
%TD*%
D33*
%TO.P,U2,1,RT_1*%
%TO.N,Net-(U2-RT)*%
X59520000Y-125550000D03*
%TO.P,U2,2,EN_2*%
%TO.N,/power_rails/3V3_EN*%
X59520000Y-126050000D03*
%TO.P,U2,3,VIN_3*%
%TO.N,+Vsink*%
X59520000Y-126550000D03*
%TO.P,U2,4,GND_4*%
%TO.N,GND*%
X59520000Y-127050000D03*
%TO.P,U2,5,SW_5*%
%TO.N,Net-(U2-SW)*%
X61000000Y-127050000D03*
%TO.P,U2,6,BST_6*%
%TO.N,Net-(U2-BST)*%
X61000000Y-126550000D03*
%TO.P,U2,7,SS_7*%
%TO.N,Net-(U2-SS)*%
X61000000Y-126050000D03*
%TO.P,U2,8,FB_8*%
%TO.N,Net-(U2-FB)*%
X61000000Y-125550000D03*
%TD*%
D34*
%TO.P,C8,1*%
%TO.N,GND*%
X64275000Y-125050000D03*
%TO.P,C8,2*%
%TO.N,Net-(U2-SS)*%
X62725000Y-125050000D03*
%TD*%
D35*
%TO.P,D4,1,K_1*%
%TO.N,+Vbus*%
X81675000Y-84422500D03*
%TO.P,D4,2,A_2*%
%TO.N,GND*%
X81675000Y-85822500D03*
%TD*%
D33*
%TO.P,U3,1,RT_1*%
%TO.N,Net-(U3-RT)*%
X79860000Y-125450000D03*
%TO.P,U3,2,EN_2*%
%TO.N,5V_EN*%
X79860000Y-125950000D03*
%TO.P,U3,3,VIN_3*%
%TO.N,+Vsink*%
X79860000Y-126450000D03*
%TO.P,U3,4,GND_4*%
%TO.N,GND*%
X79860000Y-126950000D03*
%TO.P,U3,5,SW_5*%
%TO.N,Net-(U3-SW)*%
X81340000Y-126950000D03*
%TO.P,U3,6,BST_6*%
%TO.N,Net-(U3-BST)*%
X81340000Y-126450000D03*
%TO.P,U3,7,SS_7*%
%TO.N,Net-(U3-SS)*%
X81340000Y-125950000D03*
%TO.P,U3,8,FB_8*%
%TO.N,Net-(U3-FB)*%
X81340000Y-125450000D03*
%TD*%
D36*
%TO.P,D3,1,K_1*%
%TO.N,Net-(D3-K)*%
X96337500Y-94500000D03*
%TO.P,D3,2,A_2*%
%TO.N,+Vsink*%
X97912500Y-94500000D03*
%TD*%
D30*
%TO.P,R23,1*%
%TO.N,+5V*%
X85295000Y-137150000D03*
%TO.P,R23,2*%
%TO.N,Net-(D7-A)*%
X86945000Y-137150000D03*
%TD*%
D22*
%TO.P,R6,1*%
%TO.N,Net-(D1-K)*%
X94685000Y-91140000D03*
%TO.P,R6,2*%
%TO.N,/power_delivery/POWER_OK2*%
X93035000Y-91140000D03*
%TD*%
D37*
%TO.P,D10,1,K_1*%
%TO.N,-15V*%
X116600000Y-122687500D03*
%TO.P,D10,2,A_2*%
%TO.N,Net-(D10-A)*%
X116600000Y-121112500D03*
%TD*%
D20*
%TO.P,S1,*%
%TO.N,*%
X71137500Y-76380000D03*
X68597500Y-76380000D03*
%TO.P,S1,1,Down_1*%
%TO.N,Net-(S1-Down)*%
X68597500Y-86540000D03*
%TO.P,S1,2*%
%TO.N,GND*%
X68597500Y-84000000D03*
%TO.P,S1,3,Up_3*%
%TO.N,/power_rails/3V3_EN*%
X68597500Y-81460000D03*
%TO.P,S1,4,K_4*%
%TO.N,Net-(S1-Down)*%
X71137500Y-86540000D03*
%TO.P,S1,5,A_5*%
%TO.N,Net-(S1-A)*%
X71137500Y-84000000D03*
%TO.P,S1,6,K_6*%
%TO.N,/power_rails/3V3_EN*%
X71137500Y-81460000D03*
%TD*%
D38*
%TO.P,D6,1,K_1*%
%TO.N,/power_delivery/CC2*%
X79462500Y-85772500D03*
%TO.P,D6,2,K_2*%
%TO.N,/power_delivery/CC1*%
X79462500Y-84472500D03*
%TO.P,D6,3,A_3*%
%TO.N,GND*%
X77687500Y-85122500D03*
%TD*%
D29*
%TO.P,C39,1*%
%TO.N,Net-(C39-Pad1)*%
X96750000Y-127425000D03*
%TO.P,C39,2*%
%TO.N,Net-(U5-FB)*%
X96750000Y-128975000D03*
%TD*%
D30*
%TO.P,R10,1*%
%TO.N,Net-(U2-BST)*%
X64195000Y-127050000D03*
%TO.P,R10,2*%
%TO.N,Net-(C9-Pad2)*%
X65845000Y-127050000D03*
%TD*%
D22*
%TO.P,R33,1*%
%TO.N,+5V*%
X104155000Y-137600000D03*
%TO.P,R33,2*%
%TO.N,Net-(U5-VIN)*%
X102505000Y-137600000D03*
%TD*%
D13*
%TO.P,H4,1,1_1*%
%TO.N,GND*%
X51350000Y-147000000D03*
X51833274Y-145833274D03*
X51833274Y-148166726D03*
X53000000Y-145350000D03*
D14*
X53000000Y-147000000D03*
D13*
X53000000Y-148650000D03*
X54166726Y-145833274D03*
X54166726Y-148166726D03*
X54650000Y-147000000D03*
%TD*%
D29*
%TO.P,C38,1*%
%TO.N,GND*%
X104150000Y-132825000D03*
%TO.P,C38,2*%
%TO.N,+5V*%
X104150000Y-134375000D03*
%TD*%
D39*
%TO.P,R25,1*%
%TO.N,Net-(U2-RT)*%
X57450000Y-123355000D03*
%TO.P,R25,2*%
%TO.N,GND*%
X57450000Y-121705000D03*
%TD*%
D22*
%TO.P,R7,1*%
%TO.N,Net-(D2-K)*%
X94630000Y-92800000D03*
%TO.P,R7,2*%
%TO.N,/power_delivery/POWER_OK3*%
X92980000Y-92800000D03*
%TD*%
D40*
%TO.P,C4,1*%
%TO.N,+Vbus*%
X87045000Y-84360000D03*
%TO.P,C4,2*%
%TO.N,GND*%
X89995000Y-84360000D03*
%TD*%
D41*
%TO.P,C10,1*%
%TO.N,+3.3V*%
X61715000Y-139120000D03*
%TO.P,C10,2*%
%TO.N,GND*%
X58765000Y-139120000D03*
%TD*%
D22*
%TO.P,R3,1*%
%TO.N,+Vsink*%
X81975000Y-97222500D03*
%TO.P,R3,2*%
%TO.N,Net-(U1-DISCH)*%
X80325000Y-97222500D03*
%TD*%
D27*
%TO.P,C42,1*%
%TO.N,GND*%
X56025000Y-99035000D03*
%TO.P,C42,2*%
%TO.N,+3.3V*%
X57575000Y-99035000D03*
%TD*%
D31*
%TO.P,C40,1*%
%TO.N,-15V*%
X105350000Y-126175000D03*
%TO.P,C40,2*%
%TO.N,GND*%
X105350000Y-129125000D03*
%TD*%
D36*
%TO.P,D2,1,K_1*%
%TO.N,Net-(D2-K)*%
X96350000Y-92800000D03*
%TO.P,D2,2,A_2*%
%TO.N,+Vsink*%
X97925000Y-92800000D03*
%TD*%
D42*
%TO.P,C17,1*%
%TO.N,Net-(U3-SW)*%
X87840000Y-128355000D03*
%TO.P,C17,2*%
%TO.N,Net-(C17-Pad2)*%
X87840000Y-126805000D03*
%TD*%
D43*
%TO.P,D7,1,K_1*%
%TO.N,GND*%
X88537500Y-135450000D03*
%TO.P,D7,2,A_2*%
%TO.N,Net-(D7-A)*%
X86962500Y-135450000D03*
%TD*%
D39*
%TO.P,R14,1*%
%TO.N,Net-(U3-FB)*%
X82840000Y-123110000D03*
%TO.P,R14,2*%
%TO.N,GND*%
X82840000Y-121460000D03*
%TD*%
%TO.P,R11,1*%
%TO.N,Net-(U2-FB)*%
X63670000Y-123080000D03*
%TO.P,R11,2*%
%TO.N,Net-(C34-Pad1)*%
X63670000Y-121430000D03*
%TD*%
D13*
%TO.P,H1,1,1_1*%
%TO.N,GND*%
X51350000Y-78000000D03*
X51833274Y-76833274D03*
X51833274Y-79166726D03*
X53000000Y-76350000D03*
D14*
X53000000Y-78000000D03*
D13*
X53000000Y-79650000D03*
X54166726Y-76833274D03*
X54166726Y-79166726D03*
X54650000Y-78000000D03*
%TD*%
D19*
%TO.P,C27,1*%
%TO.N,+15V*%
X109460000Y-107515000D03*
%TO.P,C27,2*%
%TO.N,GND*%
X109460000Y-110465000D03*
%TD*%
D31*
%TO.P,C14,1*%
%TO.N,+Vsink*%
X73400000Y-127150000D03*
%TO.P,C14,2*%
%TO.N,GND*%
X73400000Y-130100000D03*
%TD*%
D27*
%TO.P,C32,1*%
%TO.N,GND*%
X100375000Y-135950000D03*
%TO.P,C32,2*%
%TO.N,Net-(U5-VIN)*%
X101925000Y-135950000D03*
%TD*%
D44*
%TO.P,L1,1,1_1*%
%TO.N,Net-(U2-SW)*%
X63000000Y-130115000D03*
%TO.P,L1,2,2_2*%
%TO.N,+3.3V*%
X63000000Y-132485000D03*
%TD*%
%TO.P,L2,1,1_1*%
%TO.N,Net-(U3-SW)*%
X83300000Y-130115000D03*
%TO.P,L2,2,2_2*%
%TO.N,+5V*%
X83300000Y-132485000D03*
%TD*%
D36*
%TO.P,D1,1,K_1*%
%TO.N,Net-(D1-K)*%
X96337500Y-91100000D03*
%TO.P,D1,2,A_2*%
%TO.N,+Vsink*%
X97912500Y-91100000D03*
%TD*%
D29*
%TO.P,C34,1*%
%TO.N,Net-(C34-Pad1)*%
X65370000Y-121500000D03*
%TO.P,C34,2*%
%TO.N,Net-(U2-FB)*%
X65370000Y-123050000D03*
%TD*%
D22*
%TO.P,R30,1*%
%TO.N,+3.3V*%
X66505000Y-108950000D03*
%TO.P,R30,2*%
%TO.N,/power_delivery/PD_SCL*%
X64855000Y-108950000D03*
%TD*%
D40*
%TO.P,C22,1*%
%TO.N,+Vsink*%
X100710000Y-116390000D03*
%TO.P,C22,2*%
%TO.N,GND*%
X103660000Y-116390000D03*
%TD*%
D30*
%TO.P,R29,1*%
%TO.N,Net-(D10-A)*%
X118345000Y-121175000D03*
%TO.P,R29,2*%
%TO.N,GND*%
X119995000Y-121175000D03*
%TD*%
D22*
%TO.P,R39,1*%
%TO.N,+VREG_2V7*%
X75215000Y-83152500D03*
%TO.P,R39,2*%
%TO.N,Net-(S1-A)*%
X73565000Y-83152500D03*
%TD*%
D45*
%TO.P,U4,1,RT_1*%
%TO.N,Net-(U4-RT)*%
X99160000Y-109690000D03*
%TO.P,U4,2,EN_2*%
%TO.N,15V_EN*%
X99660000Y-109690000D03*
%TO.P,U4,3,VIN_3*%
%TO.N,+Vsink*%
X100160000Y-109690000D03*
%TO.P,U4,4,GND_4*%
%TO.N,GND*%
X100660000Y-109690000D03*
%TO.P,U4,5,SW_5*%
%TO.N,Net-(U4-SW)*%
X100660000Y-108210000D03*
%TO.P,U4,6,BST_6*%
%TO.N,Net-(U4-BST)*%
X100160000Y-108210000D03*
%TO.P,U4,7,SS_7*%
%TO.N,Net-(U4-SS)*%
X99660000Y-108210000D03*
%TO.P,U4,8,FB_8*%
%TO.N,Net-(U4-FB)*%
X99160000Y-108210000D03*
%TD*%
D39*
%TO.P,R9,1*%
%TO.N,Net-(U2-FB)*%
X62000000Y-123080000D03*
%TO.P,R9,2*%
%TO.N,GND*%
X62000000Y-121430000D03*
%TD*%
D29*
%TO.P,C24,1*%
%TO.N,GND*%
X99095000Y-104675000D03*
%TO.P,C24,2*%
%TO.N,Net-(U4-SS)*%
X99095000Y-106225000D03*
%TD*%
D46*
%TO.P,L4,1,1_1*%
%TO.N,Net-(D11-K)*%
X110350000Y-125450000D03*
%TO.P,L4,2,2_2*%
%TO.N,GND*%
X110350000Y-129750000D03*
%TD*%
D34*
%TO.P,C3,1*%
%TO.N,GND*%
X87025000Y-88422500D03*
%TO.P,C3,2*%
%TO.N,+VREG_2V7*%
X85475000Y-88422500D03*
%TD*%
D47*
%TO.P,D9,1,K_1*%
%TO.N,GND*%
X113060000Y-101002500D03*
%TO.P,D9,2,A_2*%
%TO.N,Net-(D9-A)*%
X113060000Y-102577500D03*
%TD*%
D27*
%TO.P,C20,1*%
%TO.N,GND*%
X79825000Y-141600000D03*
%TO.P,C20,2*%
%TO.N,+5V*%
X81375000Y-141600000D03*
%TD*%
D34*
%TO.P,C2,1*%
%TO.N,GND*%
X87025000Y-90122500D03*
%TO.P,C2,2*%
%TO.N,+VREG_1V2*%
X85475000Y-90122500D03*
%TD*%
D48*
%TO.P,D5,1,K_1*%
%TO.N,+Vsink*%
X81970000Y-98922500D03*
%TO.P,D5,2,A_2*%
%TO.N,GND*%
X80570000Y-98922500D03*
%TD*%
D31*
%TO.P,C6,1*%
%TO.N,+Vsink*%
X52970000Y-127050000D03*
%TO.P,C6,2*%
%TO.N,GND*%
X52970000Y-130000000D03*
%TD*%
%TO.P,C29,1*%
%TO.N,-15V*%
X117850000Y-126025000D03*
%TO.P,C29,2*%
%TO.N,GND*%
X117850000Y-128975000D03*
%TD*%
D22*
%TO.P,R21,1*%
%TO.N,15V_EN*%
X96900000Y-113450000D03*
%TO.P,R21,2*%
%TO.N,GND*%
X95250000Y-113450000D03*
%TD*%
D34*
%TO.P,C1,1*%
%TO.N,Net-(C1-Pad1)*%
X78755000Y-94930000D03*
%TO.P,C1,2*%
%TO.N,+Vsink*%
X77205000Y-94930000D03*
%TD*%
D42*
%TO.P,C7,1*%
%TO.N,GND*%
X58000000Y-128325000D03*
%TO.P,C7,2*%
%TO.N,+Vsink*%
X58000000Y-126775000D03*
%TD*%
D41*
%TO.P,C18,1*%
%TO.N,+5V*%
X82050000Y-139050000D03*
%TO.P,C18,2*%
%TO.N,GND*%
X79100000Y-139050000D03*
%TD*%
D42*
%TO.P,C9,1*%
%TO.N,Net-(U2-SW)*%
X67500000Y-128825000D03*
%TO.P,C9,2*%
%TO.N,Net-(C9-Pad2)*%
X67500000Y-127275000D03*
%TD*%
D31*
%TO.P,C5,1*%
%TO.N,+Vsink*%
X55500000Y-127050000D03*
%TO.P,C5,2*%
%TO.N,GND*%
X55500000Y-130000000D03*
%TD*%
D32*
%TO.P,R12,1*%
%TO.N,Net-(C34-Pad1)*%
X67070000Y-121470000D03*
%TO.P,R12,2*%
%TO.N,+3.3V*%
X67070000Y-123120000D03*
%TD*%
D39*
%TO.P,R22,1*%
%TO.N,5V_EN*%
X77240000Y-123385000D03*
%TO.P,R22,2*%
%TO.N,GND*%
X77240000Y-121735000D03*
%TD*%
%TO.P,R35,1*%
%TO.N,-15V_EN*%
X96550000Y-135405000D03*
%TO.P,R35,2*%
%TO.N,GND*%
X96550000Y-133755000D03*
%TD*%
D40*
%TO.P,C21,1*%
%TO.N,+Vsink*%
X100710000Y-113890000D03*
%TO.P,C21,2*%
%TO.N,GND*%
X103660000Y-113890000D03*
%TD*%
D39*
%TO.P,R15,1*%
%TO.N,Net-(U3-FB)*%
X84540000Y-123110000D03*
%TO.P,R15,2*%
%TO.N,Net-(C35-Pad1)*%
X84540000Y-121460000D03*
%TD*%
D34*
%TO.P,C25,1*%
%TO.N,Net-(U4-SW)*%
X102370000Y-101450000D03*
%TO.P,C25,2*%
%TO.N,Net-(C25-Pad2)*%
X100820000Y-101450000D03*
%TD*%
D49*
%TO.P,L3,1,1_1*%
%TO.N,Net-(U4-SW)*%
X103890000Y-106290000D03*
%TO.P,L3,2,2_2*%
%TO.N,+15V*%
X106260000Y-106290000D03*
%TD*%
D22*
%TO.P,R19,1*%
%TO.N,Net-(U4-FB)*%
X96900000Y-104850000D03*
%TO.P,R19,2*%
%TO.N,Net-(C36-Pad1)*%
X95250000Y-104850000D03*
%TD*%
D30*
%TO.P,R31,1*%
%TO.N,+3.3V*%
X60695000Y-108950000D03*
%TO.P,R31,2*%
%TO.N,/power_delivery/PD_SCA*%
X62345000Y-108950000D03*
%TD*%
D22*
%TO.P,R27,1*%
%TO.N,Net-(U4-RT)*%
X96900000Y-111450000D03*
%TO.P,R27,2*%
%TO.N,GND*%
X95250000Y-111450000D03*
%TD*%
%TO.P,R4,1*%
%TO.N,Net-(Q1-G)*%
X81985000Y-94920000D03*
%TO.P,R4,2*%
%TO.N,Net-(C1-Pad1)*%
X80335000Y-94920000D03*
%TD*%
D27*
%TO.P,C36,1*%
%TO.N,Net-(C36-Pad1)*%
X95320000Y-103150000D03*
%TO.P,C36,2*%
%TO.N,Net-(U4-FB)*%
X96870000Y-103150000D03*
%TD*%
D39*
%TO.P,R17,1*%
%TO.N,Net-(U4-BST)*%
X100910000Y-104755000D03*
%TO.P,R17,2*%
%TO.N,Net-(C25-Pad2)*%
X100910000Y-103105000D03*
%TD*%
D43*
%TO.P,D8,1,K_1*%
%TO.N,GND*%
X68187500Y-139100000D03*
%TO.P,D8,2,A_2*%
%TO.N,Net-(D8-A)*%
X66612500Y-139100000D03*
%TD*%
D39*
%TO.P,R26,1*%
%TO.N,Net-(U3-RT)*%
X78840000Y-123385000D03*
%TO.P,R26,2*%
%TO.N,GND*%
X78840000Y-121735000D03*
%TD*%
%TO.P,R28,1*%
%TO.N,+15V*%
X111310000Y-104245000D03*
%TO.P,R28,2*%
%TO.N,Net-(D9-A)*%
X111310000Y-102595000D03*
%TD*%
D50*
%TO.P,U6,1,A0_1*%
%TO.N,GND*%
X65712500Y-99200000D03*
%TO.P,U6,2,A1_2*%
X65712500Y-98550000D03*
%TO.P,U6,3,~{RESET}_3*%
%TO.N,/power_delivery/~{PWR_CTRL_RST}*%
X65712500Y-97900000D03*
%TO.P,U6,4,IO0_4*%
%TO.N,5V_EN*%
X65712500Y-97250000D03*
%TO.P,U6,5,IO1_5*%
%TO.N,-15V_EN*%
X65712500Y-96600000D03*
%TO.P,U6,6,IO2_6*%
%TO.N,15V_EN*%
X65712500Y-95950000D03*
%TO.P,U6,7,IO3_7*%
%TO.N,/power_delivery/PD_ALERT*%
X65712500Y-95300000D03*
%TO.P,U6,8,V_{SS}_8*%
%TO.N,GND*%
X65712500Y-94650000D03*
%TO.P,U6,9,IO4_9*%
%TO.N,/power_delivery/PD_RST*%
X59987500Y-94650000D03*
%TO.P,U6,10,IO5_10*%
%TO.N,unconnected-(U6-IO5-Pad10)*%
X59987500Y-95300000D03*
%TO.P,U6,11,IO6_11*%
%TO.N,unconnected-(U6-IO6-Pad11)*%
X59987500Y-95950000D03*
%TO.P,U6,12,IO7_12*%
%TO.N,unconnected-(U6-IO7-Pad12)*%
X59987500Y-96600000D03*
%TO.P,U6,13,~{INT}_13*%
%TO.N,/power_delivery/~{PWR_CTRL_INT}*%
X59987500Y-97250000D03*
%TO.P,U6,14,SCL_14*%
%TO.N,/power_delivery/PD_SCL*%
X59987500Y-97900000D03*
%TO.P,U6,15,SDA_15*%
%TO.N,/power_delivery/PD_SCA*%
X59987500Y-98550000D03*
%TO.P,U6,16,V_{DD}_16*%
%TO.N,+3.3V*%
X59987500Y-99200000D03*
%TD*%
D22*
%TO.P,R1,1*%
%TO.N,+Vbus*%
X87055000Y-93522500D03*
%TO.P,R1,2*%
%TO.N,Net-(Q1-G)*%
X85405000Y-93522500D03*
%TD*%
D30*
%TO.P,R36,1*%
%TO.N,Net-(C39-Pad1)*%
X98245000Y-125800000D03*
%TO.P,R36,2*%
%TO.N,-15V*%
X99895000Y-125800000D03*
%TD*%
D29*
%TO.P,C35,1*%
%TO.N,Net-(C35-Pad1)*%
X86140000Y-121530000D03*
%TO.P,C35,2*%
%TO.N,Net-(U3-FB)*%
X86140000Y-123080000D03*
%TD*%
D51*
%TO.P,U1,1,CC1DB_1*%
%TO.N,/power_delivery/CC1*%
X81450000Y-87785000D03*
%TO.P,U1,2,CC1_2*%
X80950000Y-87785000D03*
%TO.P,U1,3,NC_3*%
%TO.N,unconnected-(U1-NC-Pad3)*%
X80450000Y-87785000D03*
%TO.P,U1,4,CC2_4*%
%TO.N,/power_delivery/CC2*%
X79950000Y-87785000D03*
%TO.P,U1,5,CC2DB_5*%
X79450000Y-87785000D03*
%TO.P,U1,6,RESET_6*%
%TO.N,/power_delivery/PD_RST*%
X78950000Y-87785000D03*
D52*
%TO.P,U1,7,SCL_7*%
%TO.N,/power_delivery/PD_SCL*%
X78237500Y-88497500D03*
%TO.P,U1,8,SDA_8*%
%TO.N,/power_delivery/PD_SCA*%
X78237500Y-88997500D03*
%TO.P,U1,9,DISCH_9*%
%TO.N,Net-(U1-DISCH)*%
X78237500Y-89497500D03*
%TO.P,U1,10,GND_10*%
%TO.N,GND*%
X78237500Y-89997500D03*
%TO.P,U1,11,ATTACH_11*%
%TO.N,/power_delivery/PD_ATTACH*%
X78237500Y-90497500D03*
%TO.P,U1,12,ADDR0_12*%
%TO.N,GND*%
X78237500Y-90997500D03*
D51*
%TO.P,U1,13,ADDR1_13*%
X78950000Y-91710000D03*
%TO.P,U1,14,POWER_OK3_14*%
%TO.N,/power_delivery/POWER_OK3*%
X79450000Y-91710000D03*
%TO.P,U1,15,GPIO_15*%
%TO.N,/power_delivery/PD_GPIO*%
X79950000Y-91710000D03*
%TO.P,U1,16,VBUS_EN_SNK_16*%
%TO.N,Net-(U1-VBUS_EN_SNK)*%
X80450000Y-91710000D03*
%TO.P,U1,17,A_B_SIDE_17*%
%TO.N,/power_delivery/PD_A_B_SIDE*%
X80950000Y-91710000D03*
%TO.P,U1,18,VBUS_VS_DISCH_18*%
%TO.N,Net-(U1-VBUS_VS_DISCH)*%
X81450000Y-91710000D03*
D52*
%TO.P,U1,19,ALERT_19*%
%TO.N,/power_delivery/PD_ALERT*%
X82162500Y-90997500D03*
%TO.P,U1,20,POWER_OK2_20*%
%TO.N,/power_delivery/POWER_OK2*%
X82162500Y-90497500D03*
%TO.P,U1,21,VREG_1V2_21*%
%TO.N,+VREG_1V2*%
X82162500Y-89997500D03*
%TO.P,U1,22,VSYS_22*%
%TO.N,GND*%
X82162500Y-89497500D03*
%TO.P,U1,23,VREG_2V7_23*%
%TO.N,+VREG_2V7*%
X82162500Y-88997500D03*
%TO.P,U1,24,VDD_24*%
%TO.N,+Vbus*%
X82162500Y-88497500D03*
D53*
%TO.P,U1,25,GND_25*%
%TO.N,GND*%
X80200000Y-89747500D03*
%TD*%
D54*
%TO.P,D11,1,A_1*%
%TO.N,-15V*%
X102950000Y-126000000D03*
%TO.P,D11,2,K_2*%
%TO.N,Net-(D11-K)*%
X102950000Y-129200000D03*
%TD*%
D30*
%TO.P,R20,1*%
%TO.N,Net-(C36-Pad1)*%
X95290000Y-101450000D03*
%TO.P,R20,2*%
%TO.N,+15V*%
X96940000Y-101450000D03*
%TD*%
D34*
%TO.P,C23,1*%
%TO.N,GND*%
X101870000Y-111450000D03*
%TO.P,C23,2*%
%TO.N,+Vsink*%
X100320000Y-111450000D03*
%TD*%
D22*
%TO.P,R18,1*%
%TO.N,Net-(U4-FB)*%
X96900000Y-106450000D03*
%TO.P,R18,2*%
%TO.N,GND*%
X95250000Y-106450000D03*
%TD*%
D41*
%TO.P,C19,1*%
%TO.N,+5V*%
X82050000Y-135550000D03*
%TO.P,C19,2*%
%TO.N,GND*%
X79100000Y-135550000D03*
%TD*%
D34*
%TO.P,C16,1*%
%TO.N,GND*%
X84615000Y-125080000D03*
%TO.P,C16,2*%
%TO.N,Net-(U3-SS)*%
X83065000Y-125080000D03*
%TD*%
D55*
%TO.P,Q1,1,S_1*%
%TO.N,+Vbus*%
X85824998Y-95522500D03*
X85175000Y-95522500D03*
X84524998Y-95522500D03*
%TO.P,Q1,2,G_2*%
%TO.N,Net-(Q1-G)*%
X83875000Y-95522500D03*
D56*
%TO.P,Q1,3,D_3*%
%TO.N,+Vsink*%
X85824998Y-98722900D03*
D55*
X85175000Y-98722900D03*
X84524998Y-98722900D03*
X83875000Y-98722900D03*
%TD*%
D42*
%TO.P,C15,2*%
%TO.N,+Vsink*%
X78340000Y-126805000D03*
%TO.P,C15,1*%
%TO.N,GND*%
X78340000Y-128355000D03*
%TD*%
D22*
%TO.P,R2,1*%
%TO.N,Net-(Q1-G)*%
X87055000Y-91822500D03*
%TO.P,R2,2*%
%TO.N,Net-(U1-VBUS_EN_SNK)*%
X85405000Y-91822500D03*
%TD*%
D41*
%TO.P,C11,1*%
%TO.N,+3.3V*%
X61705000Y-135670000D03*
%TO.P,C11,2*%
%TO.N,GND*%
X58755000Y-135670000D03*
%TD*%
D31*
%TO.P,C30,1*%
%TO.N,-15V*%
X115350000Y-126025000D03*
%TO.P,C30,2*%
%TO.N,GND*%
X115350000Y-128975000D03*
%TD*%
D39*
%TO.P,R34,1*%
%TO.N,Net-(U5-FB)*%
X99950000Y-129005000D03*
%TO.P,R34,2*%
%TO.N,-15V*%
X99950000Y-127355000D03*
%TD*%
D30*
%TO.P,R13,1*%
%TO.N,Net-(U3-BST)*%
X84535000Y-126950000D03*
%TO.P,R13,2*%
%TO.N,Net-(C17-Pad2)*%
X86185000Y-126950000D03*
%TD*%
D42*
%TO.P,C37,1*%
%TO.N,GND*%
X98350000Y-132175000D03*
%TO.P,C37,2*%
%TO.N,Net-(U5-VREF)*%
X98350000Y-130625000D03*
%TD*%
D39*
%TO.P,R32,1*%
%TO.N,Net-(U5-VREF)*%
X98350000Y-129005000D03*
%TO.P,R32,2*%
%TO.N,Net-(U5-FB)*%
X98350000Y-127355000D03*
%TD*%
D42*
%TO.P,C28,1*%
%TO.N,GND*%
X115460000Y-109815000D03*
%TO.P,C28,2*%
%TO.N,+15V*%
X115460000Y-108265000D03*
%TD*%
D57*
%TO.N,GND*%
X111360000Y-81820000D03*
X111350000Y-95200000D03*
X122800000Y-95200000D03*
X122820000Y-81780000D03*
X81150000Y-90660000D03*
X80230000Y-90620000D03*
X79330000Y-90620000D03*
X79340000Y-89750000D03*
X81150000Y-89740000D03*
X80200000Y-89747500D03*
X81140000Y-88810000D03*
X80250000Y-88810000D03*
X79340000Y-88820000D03*
X105180000Y-113790000D03*
X97200000Y-132670000D03*
X97190000Y-131850000D03*
X96420000Y-131850000D03*
X107870000Y-132760000D03*
X108820000Y-132760000D03*
X107850000Y-131650000D03*
X108800000Y-131650000D03*
X105530000Y-131320000D03*
X106230000Y-131320000D03*
X105540000Y-130450000D03*
X106250000Y-130450000D03*
X109750000Y-132760000D03*
X112610000Y-132765000D03*
X111600000Y-132760000D03*
X113600000Y-132765000D03*
X110700000Y-132760000D03*
X110690000Y-131645000D03*
X113590000Y-131650000D03*
X111590000Y-131645000D03*
X109740000Y-131645000D03*
X112600000Y-131650000D03*
X115720000Y-132705000D03*
X118620000Y-132710000D03*
X116620000Y-132705000D03*
X114770000Y-132705000D03*
X117630000Y-132710000D03*
X115710000Y-131645000D03*
X118610000Y-131650000D03*
X116610000Y-131645000D03*
X114760000Y-131645000D03*
X117620000Y-131650000D03*
X115700000Y-130615000D03*
X118600000Y-130620000D03*
X116600000Y-130615000D03*
X114750000Y-130615000D03*
X117610000Y-130620000D03*
X106925000Y-109905000D03*
X108720000Y-111940000D03*
X113460000Y-112845000D03*
X110590000Y-112840000D03*
X106050000Y-110880000D03*
X110590000Y-113815000D03*
X103475000Y-110880000D03*
X106920000Y-112830000D03*
X106890000Y-116805000D03*
X111600000Y-112845000D03*
X107810000Y-111930000D03*
X108740000Y-113815000D03*
X106895000Y-114855000D03*
X105155000Y-114840000D03*
X114340000Y-113820000D03*
X104325000Y-109905000D03*
X105180000Y-112815000D03*
X105200000Y-110880000D03*
X105150000Y-115815000D03*
X105150000Y-116790000D03*
X112570000Y-111945000D03*
X112590000Y-113820000D03*
X106050000Y-109905000D03*
X106900000Y-111930000D03*
X110570000Y-111940000D03*
X106925000Y-110880000D03*
X103450000Y-111930000D03*
X104300000Y-111930000D03*
X105990000Y-115830000D03*
X105175000Y-111930000D03*
X106020000Y-113805000D03*
X108740000Y-112840000D03*
X111600000Y-113820000D03*
X106920000Y-113805000D03*
X106890000Y-115830000D03*
X103475000Y-109905000D03*
X114340000Y-112845000D03*
X106025000Y-111930000D03*
X109690000Y-112840000D03*
X107830000Y-112830000D03*
X102625000Y-109880000D03*
X101825000Y-109880000D03*
X113440000Y-111945000D03*
X109690000Y-113815000D03*
X112590000Y-112845000D03*
X104325000Y-110880000D03*
X113460000Y-113820000D03*
X111580000Y-111945000D03*
X107830000Y-113805000D03*
X106020000Y-112830000D03*
X105200000Y-109905000D03*
X105990000Y-116805000D03*
X114320000Y-111945000D03*
X105995000Y-114855000D03*
X109670000Y-111940000D03*
X79775000Y-133265000D03*
X77740000Y-135060000D03*
X76835000Y-139800000D03*
X76840000Y-136930000D03*
X78800000Y-132390000D03*
X75865000Y-136930000D03*
X78800000Y-129815000D03*
X76850000Y-133260000D03*
X72875000Y-133230000D03*
X76835000Y-137940000D03*
X77750000Y-134150000D03*
X75865000Y-135080000D03*
X74825000Y-133235000D03*
X74840000Y-131495000D03*
X75860000Y-140680000D03*
X79775000Y-130665000D03*
X76865000Y-131520000D03*
X78800000Y-131540000D03*
X73865000Y-131490000D03*
X72890000Y-131490000D03*
X77735000Y-138910000D03*
X75860000Y-138930000D03*
X79775000Y-132390000D03*
X77750000Y-133240000D03*
X77740000Y-136910000D03*
X78800000Y-133265000D03*
X77750000Y-129790000D03*
X75890000Y-131520000D03*
X77750000Y-130640000D03*
X73850000Y-132330000D03*
X77750000Y-131515000D03*
X75875000Y-132360000D03*
X76840000Y-135080000D03*
X75860000Y-137940000D03*
X75875000Y-133260000D03*
X73850000Y-133230000D03*
X79775000Y-129815000D03*
X76835000Y-140680000D03*
X77750000Y-132365000D03*
X76840000Y-136030000D03*
X76850000Y-134170000D03*
X79800000Y-128965000D03*
X79800000Y-128165000D03*
X77735000Y-139780000D03*
X75865000Y-136030000D03*
X76835000Y-138930000D03*
X78800000Y-130665000D03*
X75860000Y-139800000D03*
X77735000Y-137920000D03*
X75875000Y-134170000D03*
X76850000Y-132360000D03*
X79775000Y-131540000D03*
X72875000Y-132330000D03*
X77735000Y-140660000D03*
X74825000Y-132335000D03*
X77740000Y-136010000D03*
X56460000Y-140490000D03*
X55485000Y-140490000D03*
X57360000Y-140470000D03*
X56460000Y-139610000D03*
X55485000Y-139610000D03*
X57360000Y-139590000D03*
X56460000Y-138740000D03*
X55485000Y-138740000D03*
X57360000Y-138720000D03*
X56460000Y-137750000D03*
X55485000Y-137750000D03*
X57360000Y-137730000D03*
X56465000Y-136740000D03*
X57365000Y-136720000D03*
X55490000Y-136740000D03*
X56465000Y-135840000D03*
X57365000Y-135820000D03*
X55490000Y-135840000D03*
X56465000Y-134890000D03*
X57365000Y-134870000D03*
X55490000Y-134890000D03*
X56475000Y-133980000D03*
X57375000Y-133960000D03*
X55500000Y-133980000D03*
X54450000Y-133045000D03*
X56475000Y-133070000D03*
X53475000Y-133040000D03*
X52500000Y-133040000D03*
X55500000Y-133070000D03*
X54450000Y-132145000D03*
X56475000Y-132170000D03*
X53475000Y-132140000D03*
X52500000Y-132140000D03*
X55500000Y-132170000D03*
X52515000Y-131300000D03*
X53490000Y-131300000D03*
X55515000Y-131330000D03*
X54465000Y-131305000D03*
X56490000Y-131330000D03*
X58425000Y-133075000D03*
X59400000Y-133075000D03*
X57375000Y-133050000D03*
X58425000Y-132200000D03*
X57375000Y-132175000D03*
X59400000Y-132200000D03*
X58425000Y-131350000D03*
X57375000Y-131325000D03*
X59400000Y-131350000D03*
X58425000Y-130475000D03*
X57375000Y-130450000D03*
X59400000Y-130475000D03*
X58425000Y-129625000D03*
X59400000Y-129625000D03*
X59425000Y-128775000D03*
X59425000Y-127975000D03*
X90250000Y-144600000D03*
X119800000Y-148400000D03*
X111040000Y-135460000D03*
X109250000Y-137400000D03*
X77100000Y-90200000D03*
%TO.N,Net-(U1-VBUS_VS_DISCH)*%
X84199265Y-87309265D03*
X82875000Y-91722500D03*
%TO.N,GND*%
X94050000Y-106450000D03*
X88200000Y-89500000D03*
X69450000Y-139100000D03*
X54700000Y-100835000D03*
X121350000Y-121175000D03*
X89700000Y-135500000D03*
X67500000Y-98185000D03*
X54700000Y-99035000D03*
X78850000Y-120550000D03*
X113060000Y-99640000D03*
X96420000Y-132680000D03*
X81550000Y-121450000D03*
X65650000Y-125100000D03*
X81670000Y-86740000D03*
X76445000Y-85160000D03*
X58650000Y-121700000D03*
X94050000Y-111450000D03*
X57375000Y-129600000D03*
X86050000Y-125100000D03*
X60700000Y-121450000D03*
X67350000Y-94635000D03*
X99100000Y-136600000D03*
X92950000Y-95800000D03*
X99100000Y-103400000D03*
X80545000Y-100110000D03*
X89960000Y-82690000D03*
X77840000Y-120530000D03*
X67750000Y-99185000D03*
X88300000Y-88350000D03*
X94000000Y-113450000D03*
%TO.N,/power_delivery/CC1*%
X80275000Y-84822500D03*
X84125000Y-82675000D03*
%TO.N,/power_delivery/CC2*%
X79462500Y-86710000D03*
X81609485Y-82639485D03*
%TO.N,+3.3V*%
X67000000Y-110300000D03*
X67000000Y-120200000D03*
%TO.N,/power_rails/3V3_EN*%
X56400000Y-120550000D03*
X56300000Y-110400000D03*
%TO.N,5V_EN*%
X72600000Y-110100000D03*
X76710000Y-120360000D03*
%TO.N,/power_delivery/POWER_OK2*%
X84250000Y-90597500D03*
X91930000Y-91470000D03*
%TO.N,/power_delivery/POWER_OK3*%
X91800000Y-93550000D03*
X79550000Y-93520000D03*
%TO.N,-15V_EN*%
X80900000Y-120000000D03*
X79100000Y-110200000D03*
X101300000Y-137300000D03*
X103100000Y-135450000D03*
%TO.N,+VREG_2V7*%
X83160000Y-88725735D03*
X75185000Y-86010000D03*
%TO.N,15V_EN*%
X82100000Y-101200000D03*
X91200000Y-101300000D03*
%TO.N,/power_delivery/PD_SCA*%
X61450000Y-99150000D03*
X62700000Y-97850000D03*
%TO.N,/power_delivery/PD_ALERT*%
X84310000Y-91680000D03*
X74700000Y-92950000D03*
%TO.N,/power_delivery/~{PWR_CTRL_INT}*%
X63650000Y-95400000D03*
X61450000Y-95500000D03*
%TD*%
%TO.N,Net-(C39-Pad1)*%
D58*
X97390000Y-125800000D02*
X98245000Y-125800000D01*
X96750000Y-126440000D02*
X97390000Y-125800000D01*
X96750000Y-127425000D02*
X96750000Y-126440000D01*
%TO.N,/power_delivery/POWER_OK3*%
X79450000Y-93420000D02*
X79450000Y-91710000D01*
X79550000Y-93520000D02*
X79450000Y-93420000D01*
%TO.N,Net-(Q1-G)*%
X82285000Y-94620000D02*
X82682500Y-94222500D01*
X82275000Y-94900000D02*
X82285000Y-94890000D01*
X82682500Y-94222500D02*
X83947500Y-94222500D01*
X82005000Y-94900000D02*
X82275000Y-94900000D01*
X83947500Y-94222500D02*
X84647500Y-93522500D01*
X81985000Y-94920000D02*
X82005000Y-94900000D01*
X82285000Y-94890000D02*
X82285000Y-94620000D01*
%TO.N,Net-(C1-Pad1)*%
X80305000Y-94930000D02*
X78755000Y-94930000D01*
X80315000Y-94920000D02*
X80305000Y-94930000D01*
X80335000Y-94920000D02*
X80315000Y-94920000D01*
%TO.N,+Vsink*%
X81575000Y-96822500D02*
X81975000Y-97222500D01*
X81575000Y-96080000D02*
X81575000Y-96822500D01*
X77830000Y-96080000D02*
X81575000Y-96080000D01*
X77250000Y-95500000D02*
X77830000Y-96080000D01*
X77250000Y-94975000D02*
X77250000Y-95500000D01*
X77205000Y-94930000D02*
X77250000Y-94975000D01*
%TO.N,+VREG_1V2*%
X82190000Y-89970000D02*
X82162500Y-89997500D01*
X82620000Y-89970000D02*
X82190000Y-89970000D01*
X83226886Y-89360000D02*
X82664386Y-89922500D01*
X82664386Y-89922500D02*
X82664386Y-89925614D01*
X84240000Y-89360000D02*
X83226886Y-89360000D01*
X84477500Y-89597500D02*
X84240000Y-89360000D01*
X82664386Y-89925614D02*
X82620000Y-89970000D01*
X84477500Y-89600000D02*
X84477500Y-89597500D01*
X85000000Y-90122500D02*
X84477500Y-89600000D01*
X85475000Y-90122500D02*
X85000000Y-90122500D01*
%TO.N,/power_delivery/POWER_OK2*%
X84150000Y-90497500D02*
X82162500Y-90497500D01*
X84250000Y-90597500D02*
X84150000Y-90497500D01*
%TO.N,/power_delivery/PD_ALERT*%
X83627500Y-90997500D02*
X82162500Y-90997500D01*
X84310000Y-91680000D02*
X83627500Y-90997500D01*
%TO.N,Net-(U1-VBUS_VS_DISCH)*%
X85225000Y-86865000D02*
X85225000Y-86720000D01*
X84992500Y-87097500D02*
X85225000Y-86865000D01*
X84800000Y-87097500D02*
X84992500Y-87097500D01*
X84199265Y-87309265D02*
X84588235Y-87309265D01*
X84588235Y-87309265D02*
X84800000Y-87097500D01*
%TO.N,+VREG_2V7*%
X82802500Y-88997500D02*
X82162500Y-88997500D01*
X83074265Y-88725735D02*
X82802500Y-88997500D01*
X83160000Y-88725735D02*
X83074265Y-88725735D01*
X83422500Y-88422500D02*
X85475000Y-88422500D01*
X83375735Y-88510000D02*
X83375735Y-88469265D01*
X83375735Y-88469265D02*
X83422500Y-88422500D01*
X83160000Y-88725735D02*
X83375735Y-88510000D01*
%TO.N,Net-(U4-SW)*%
X102380000Y-106490000D02*
X100660000Y-108210000D01*
X102370000Y-101450000D02*
X102370000Y-105095000D01*
X102370000Y-105095000D02*
X102380000Y-105105000D01*
X102380000Y-105105000D02*
X102380000Y-106490000D01*
%TO.N,Net-(D10-A)*%
X116662500Y-121175000D02*
X116600000Y-121112500D01*
X118345000Y-121175000D02*
X116662500Y-121175000D01*
%TO.N,5V_EN*%
X76410000Y-122555000D02*
X77240000Y-123385000D01*
X76410000Y-120660000D02*
X76410000Y-122555000D01*
X76710000Y-120360000D02*
X76410000Y-120660000D01*
%TO.N,GND*%
X77240000Y-121130000D02*
X77240000Y-121735000D01*
X77840000Y-120530000D02*
X77240000Y-121130000D01*
%TO.N,/power_delivery/PD_RST*%
X78950000Y-87200000D02*
X78950000Y-87785000D01*
X78600000Y-86850000D02*
X78950000Y-87200000D01*
X73590000Y-86850000D02*
X78600000Y-86850000D01*
X65090000Y-88560000D02*
X71880000Y-88560000D01*
X59987500Y-93662500D02*
X65090000Y-88560000D01*
X59987500Y-94650000D02*
X59987500Y-93662500D01*
X71880000Y-88560000D02*
X73590000Y-86850000D01*
%TO.N,+VREG_2V7*%
X75185000Y-83182500D02*
X75215000Y-83152500D01*
X75185000Y-86010000D02*
X75185000Y-83182500D01*
%TO.N,GND*%
X81670000Y-86740000D02*
X81670000Y-86495000D01*
X81675000Y-86490000D02*
X81675000Y-85822500D01*
X81670000Y-86495000D02*
X81675000Y-86490000D01*
%TO.N,Net-(Q1-G)*%
X83875000Y-94295000D02*
X83875000Y-95522500D01*
X84647500Y-93522500D02*
X83875000Y-94295000D01*
X85405000Y-93522500D02*
X84647500Y-93522500D01*
%TO.N,GND*%
X89960000Y-84290000D02*
X89995000Y-84325000D01*
X89960000Y-82690000D02*
X89960000Y-84290000D01*
X89995000Y-84325000D02*
X89995000Y-84360000D01*
%TO.N,+Vbus*%
X84200000Y-85605000D02*
X84200000Y-86460000D01*
X84200000Y-86460000D02*
X82162500Y-88497500D01*
X85445000Y-84360000D02*
X84200000Y-85605000D01*
X87045000Y-84360000D02*
X85445000Y-84360000D01*
%TO.N,/power_delivery/POWER_OK3*%
X91800000Y-93550000D02*
X92230000Y-93550000D01*
X92230000Y-93550000D02*
X92980000Y-92800000D01*
%TO.N,/power_delivery/POWER_OK2*%
X92985000Y-91190000D02*
X92985000Y-91090000D01*
X92705000Y-91470000D02*
X92985000Y-91190000D01*
X92985000Y-91090000D02*
X93035000Y-91140000D01*
X91930000Y-91470000D02*
X92705000Y-91470000D01*
%TO.N,+VREG_2V7*%
X82162500Y-88997500D02*
X82185000Y-89020000D01*
%TO.N,/power_delivery/CC2*%
X81175000Y-81765000D02*
X81125000Y-81715000D01*
X81175000Y-81869910D02*
X81175000Y-81765000D01*
X81609485Y-82304395D02*
X81175000Y-81869910D01*
X81125000Y-81715000D02*
X81125000Y-81212500D01*
X81609485Y-82639485D02*
X81609485Y-82304395D01*
%TO.N,/power_delivery/CC1*%
X84125000Y-82675000D02*
X84125000Y-81212500D01*
%TO.N,USB_DP*%
X93400000Y-81600000D02*
X93400000Y-82750000D01*
X83250000Y-78400000D02*
X90200000Y-78400000D01*
X82125000Y-79525000D02*
X83250000Y-78400000D01*
X90200000Y-78400000D02*
X93400000Y-81600000D01*
X82125000Y-81212500D02*
X82125000Y-79525000D01*
%TO.N,-15V_EN*%
X95200000Y-122450000D02*
X95200000Y-134600000D01*
X92600000Y-119850000D02*
X95200000Y-122450000D01*
X81050000Y-119850000D02*
X92600000Y-119850000D01*
X80900000Y-120000000D02*
X81050000Y-119850000D01*
X95200000Y-134600000D02*
X96005000Y-135405000D01*
X96005000Y-135405000D02*
X96550000Y-135405000D01*
%TO.N,GND*%
X111055000Y-135475000D02*
X111040000Y-135460000D01*
X113150000Y-135475000D02*
X111055000Y-135475000D01*
%TO.N,/power_delivery/PD_SCA*%
X75033872Y-88997500D02*
X78237500Y-88997500D01*
X72741372Y-91290000D02*
X75033872Y-88997500D01*
X66510000Y-91290000D02*
X72741372Y-91290000D01*
X62750000Y-95050000D02*
X66510000Y-91290000D01*
X62700000Y-97850000D02*
X62750000Y-97800000D01*
X62750000Y-97800000D02*
X62750000Y-95050000D01*
%TO.N,/power_delivery/PD_SCL*%
X62100000Y-97385000D02*
X61650000Y-97835000D01*
X62100000Y-94450000D02*
X62100000Y-97385000D01*
X66280000Y-90270000D02*
X62100000Y-94450000D01*
X73872500Y-88497500D02*
X72100000Y-90270000D01*
X78237500Y-88497500D02*
X73872500Y-88497500D01*
X72100000Y-90270000D02*
X66280000Y-90270000D01*
%TO.N,/power_delivery/PD_SCA*%
X61985000Y-99685000D02*
X60850000Y-98550000D01*
X61985000Y-105085000D02*
X61985000Y-99685000D01*
X60850000Y-98550000D02*
X59987500Y-98550000D01*
X62375000Y-105475000D02*
X61985000Y-105085000D01*
%TO.N,/power_delivery/PD_SCL*%
X62800000Y-103400000D02*
X64875000Y-105475000D01*
X62800000Y-98985000D02*
X62800000Y-103400000D01*
X61650000Y-97835000D02*
X62800000Y-98985000D01*
%TO.N,/power_delivery/~{PWR_CTRL_INT}*%
X63500000Y-101600000D02*
X67375000Y-105475000D01*
X63500000Y-95550000D02*
X63500000Y-101600000D01*
X63650000Y-95400000D02*
X63500000Y-95550000D01*
%TO.N,/power_delivery/~{PWR_CTRL_RST}*%
X64301471Y-99901471D02*
X69875000Y-105475000D01*
X64301471Y-98218529D02*
X64301471Y-99901471D01*
X64620000Y-97900000D02*
X64301471Y-98218529D01*
X65712500Y-97900000D02*
X64620000Y-97900000D01*
%TO.N,-15V_EN*%
X71470000Y-96600000D02*
X65712500Y-96600000D01*
X78250000Y-103380000D02*
X71470000Y-96600000D01*
X78250000Y-109950000D02*
X78250000Y-103380000D01*
X79100000Y-110200000D02*
X78500000Y-110200000D01*
X78500000Y-110200000D02*
X78250000Y-109950000D01*
%TO.N,/power_rails/3V3_EN*%
X52950000Y-85620000D02*
X57297500Y-81272500D01*
X57297500Y-81272500D02*
X68597500Y-81272500D01*
X54700000Y-110400000D02*
X52950000Y-108650000D01*
X52950000Y-108650000D02*
X52950000Y-85620000D01*
X56300000Y-110400000D02*
X54700000Y-110400000D01*
%TO.N,Net-(D11-K)*%
X110350000Y-127030000D02*
X110350000Y-125450000D01*
X109970000Y-127410000D02*
X110350000Y-127030000D01*
X103100000Y-127950000D02*
X103640000Y-127410000D01*
X103100000Y-129050000D02*
X103100000Y-127950000D01*
X102950000Y-129200000D02*
X103100000Y-129050000D01*
X103640000Y-127410000D02*
X109970000Y-127410000D01*
%TO.N,GND*%
X109250000Y-137400000D02*
X109225000Y-137425000D01*
X109225000Y-137425000D02*
X109225000Y-139725000D01*
X90275000Y-144625000D02*
X90250000Y-144600000D01*
X92600000Y-144625000D02*
X90275000Y-144625000D01*
X119925000Y-148275000D02*
X119800000Y-148400000D01*
X122100000Y-148275000D02*
X119925000Y-148275000D01*
%TO.N,-15V*%
X111800000Y-145275000D02*
X111400000Y-145275000D01*
%TO.N,+15V*%
X116400000Y-145725000D02*
X116400000Y-145275000D01*
X116475000Y-145800000D02*
X116400000Y-145725000D01*
X116950000Y-145800000D02*
X116475000Y-145800000D01*
%TO.N,GND*%
X78950000Y-90997500D02*
X80200000Y-89747500D01*
X78237500Y-90997500D02*
X78950000Y-90997500D01*
X77302500Y-89997500D02*
X77100000Y-90200000D01*
X78237500Y-89997500D02*
X77302500Y-89997500D01*
%TO.N,Net-(U1-DISCH)*%
X76802500Y-89497500D02*
X78237500Y-89497500D01*
X76000000Y-96665000D02*
X76000000Y-90300000D01*
X76557500Y-97222500D02*
X76000000Y-96665000D01*
X80325000Y-97222500D02*
X76557500Y-97222500D01*
X76000000Y-90300000D02*
X76802500Y-89497500D01*
%TO.N,5V_EN*%
X65812500Y-97150000D02*
X65712500Y-97250000D01*
X75300000Y-102500000D02*
X69950000Y-97150000D01*
X72600000Y-110100000D02*
X75300000Y-107400000D01*
X69950000Y-97150000D02*
X65812500Y-97150000D01*
X75300000Y-107400000D02*
X75300000Y-102500000D01*
%TO.N,15V_EN*%
X73450000Y-95950000D02*
X65712500Y-95950000D01*
X78700000Y-101200000D02*
X73450000Y-95950000D01*
X82100000Y-101200000D02*
X78700000Y-101200000D01*
%TO.N,+3.3V*%
X67300000Y-109745000D02*
X66505000Y-108950000D01*
X62195000Y-110300000D02*
X60845000Y-108950000D01*
X60845000Y-108950000D02*
X60695000Y-108950000D01*
X67000000Y-110300000D02*
X62195000Y-110300000D01*
X67000000Y-110300000D02*
X67300000Y-110000000D01*
X67300000Y-110000000D02*
X67300000Y-109745000D01*
X68800000Y-120600000D02*
X69850000Y-121650000D01*
X67400000Y-120600000D02*
X68800000Y-120600000D01*
X67000000Y-120200000D02*
X67400000Y-120600000D01*
%TO.N,15V_EN*%
X93525000Y-112225000D02*
X95675000Y-112225000D01*
X91200000Y-109900000D02*
X93525000Y-112225000D01*
X95675000Y-112225000D02*
X96900000Y-113450000D01*
X91200000Y-101300000D02*
X91200000Y-109900000D01*
%TO.N,+Vsink*%
X83675400Y-98922500D02*
X83875000Y-98722900D01*
X81970000Y-98922500D02*
X83675400Y-98922500D01*
%TO.N,+3.3V*%
X69770000Y-123120000D02*
X69850000Y-123200000D01*
X69850000Y-123200000D02*
X69850000Y-121650000D01*
X67070000Y-123120000D02*
X69770000Y-123120000D01*
X69850000Y-121650000D02*
X69850000Y-125000000D01*
%TO.N,Net-(U1-VBUS_VS_DISCH)*%
X82875000Y-91722500D02*
X81462500Y-91722500D01*
X81462500Y-91722500D02*
X81450000Y-91710000D01*
%TO.N,+5V*%
X90750000Y-131600000D02*
X89865000Y-132485000D01*
X90750000Y-125150000D02*
X90750000Y-131600000D01*
X103700000Y-133925000D02*
X104150000Y-134375000D01*
X102350000Y-133925000D02*
X103700000Y-133925000D01*
X87840000Y-123150000D02*
X88750000Y-123150000D01*
X88750000Y-123150000D02*
X90750000Y-125150000D01*
X89865000Y-132485000D02*
X83300000Y-132485000D01*
%TO.N,GND*%
X100725000Y-135850000D02*
X100850000Y-135725000D01*
X79130000Y-81212500D02*
X78555000Y-80637500D01*
X81560000Y-121460000D02*
X81550000Y-121450000D01*
X100850000Y-133025000D02*
X101350000Y-132525000D01*
X100375000Y-135950000D02*
X99750000Y-135950000D01*
X67735000Y-99200000D02*
X67750000Y-99185000D01*
X67335000Y-94650000D02*
X67350000Y-94635000D01*
X100850000Y-133925000D02*
X100850000Y-133025000D01*
X84615000Y-125080000D02*
X86030000Y-125080000D01*
X99095000Y-104675000D02*
X99095000Y-103405000D01*
X57450000Y-121705000D02*
X58645000Y-121705000D01*
X65712500Y-98550000D02*
X67135000Y-98550000D01*
X92975000Y-94500000D02*
X92975000Y-95775000D01*
X101850000Y-131125000D02*
X101850000Y-132025000D01*
X56025000Y-100785000D02*
X54750000Y-100785000D01*
X100375000Y-135950000D02*
X100475000Y-135850000D01*
X88587500Y-135500000D02*
X88537500Y-135450000D01*
X58645000Y-121705000D02*
X58650000Y-121700000D01*
X78840000Y-121735000D02*
X78840000Y-120560000D01*
X92975000Y-95775000D02*
X92950000Y-95800000D01*
X99750000Y-135950000D02*
X99100000Y-136600000D01*
X56025000Y-99035000D02*
X54700000Y-99035000D01*
X60720000Y-121430000D02*
X60700000Y-121450000D01*
X76482500Y-85122500D02*
X76445000Y-85160000D01*
X67135000Y-98550000D02*
X67500000Y-98185000D01*
X78840000Y-120560000D02*
X78850000Y-120550000D01*
X65712500Y-94650000D02*
X67335000Y-94650000D01*
X87025000Y-88422500D02*
X88227500Y-88422500D01*
X101850000Y-132025000D02*
X101350000Y-132525000D01*
X78950000Y-91710000D02*
X78950000Y-90997500D01*
X89700000Y-135500000D02*
X88587500Y-135500000D01*
X100850000Y-135725000D02*
X100850000Y-133925000D01*
X65600000Y-125050000D02*
X65650000Y-125100000D01*
X62000000Y-121430000D02*
X60720000Y-121430000D01*
X86075000Y-81212500D02*
X86620000Y-81212500D01*
X95250000Y-111450000D02*
X94050000Y-111450000D01*
X99095000Y-103405000D02*
X99100000Y-103400000D01*
X54750000Y-100785000D02*
X54700000Y-100835000D01*
X79950000Y-89997500D02*
X80200000Y-89747500D01*
X113060000Y-101002500D02*
X113060000Y-99640000D01*
X80570000Y-98922500D02*
X80570000Y-100085000D01*
X64275000Y-125050000D02*
X65600000Y-125050000D01*
X65712500Y-99200000D02*
X67735000Y-99200000D01*
X80570000Y-100085000D02*
X80545000Y-100110000D01*
X79675000Y-81212500D02*
X79130000Y-81212500D01*
X82840000Y-121460000D02*
X81560000Y-121460000D01*
X77687500Y-85122500D02*
X76482500Y-85122500D01*
X69450000Y-139100000D02*
X68187500Y-139100000D01*
X86030000Y-125080000D02*
X86050000Y-125100000D01*
X119995000Y-121175000D02*
X121350000Y-121175000D01*
X88227500Y-88422500D02*
X88300000Y-88350000D01*
X95250000Y-113450000D02*
X94000000Y-113450000D01*
X100475000Y-135850000D02*
X100725000Y-135850000D01*
X87577500Y-90122500D02*
X88200000Y-89500000D01*
X82162500Y-89497500D02*
X80450000Y-89497500D01*
X78237500Y-89997500D02*
X79950000Y-89997500D01*
X86620000Y-81212500D02*
X87195000Y-80637500D01*
X80450000Y-89497500D02*
X80200000Y-89747500D01*
X87025000Y-90122500D02*
X87577500Y-90122500D01*
X95250000Y-106450000D02*
X94050000Y-106450000D01*
%TO.N,Net-(J8-Pin_1)*%
X95105000Y-85350000D02*
X98675000Y-85350000D01*
X98675000Y-85350000D02*
X98825000Y-85200000D01*
%TO.N,USB_DM*%
X92300000Y-85350000D02*
X93455000Y-85350000D01*
X83625000Y-80200000D02*
X83625000Y-81212500D01*
X89737500Y-79287500D02*
X92000000Y-81550000D01*
X82800000Y-80200000D02*
X83625000Y-80200000D01*
X92000000Y-81550000D02*
X92000000Y-85050000D01*
X82625000Y-80375000D02*
X82800000Y-80200000D01*
X84362500Y-79287500D02*
X89737500Y-79287500D01*
X92000000Y-85050000D02*
X92300000Y-85350000D01*
X83625000Y-81212500D02*
X83625000Y-80025000D01*
X82625000Y-81212500D02*
X82625000Y-80375000D01*
X83625000Y-80025000D02*
X84362500Y-79287500D01*
%TO.N,/power_delivery/CC1*%
X79462500Y-84472500D02*
X79925000Y-84472500D01*
X81450000Y-87785000D02*
X80950000Y-87785000D01*
X79925000Y-84472500D02*
X80275000Y-84822500D01*
X80950000Y-86897500D02*
X80950000Y-87785000D01*
X80275000Y-86222500D02*
X80950000Y-86897500D01*
X80275000Y-84822500D02*
X80275000Y-86222500D01*
%TO.N,USB_DP*%
X82125000Y-81875000D02*
X82337500Y-82087500D01*
X82857410Y-82087500D02*
X83125000Y-81819910D01*
X82125000Y-81212500D02*
X82125000Y-81875000D01*
X83125000Y-81819910D02*
X83125000Y-81212500D01*
X82337500Y-82087500D02*
X82857410Y-82087500D01*
%TO.N,/power_delivery/CC2*%
X79462500Y-85772500D02*
X79462500Y-87772500D01*
X79950000Y-87785000D02*
X79450000Y-87785000D01*
X79462500Y-87772500D02*
X79450000Y-87785000D01*
%TO.N,+3.3V*%
X56700000Y-109000000D02*
X54645000Y-106945000D01*
X57740000Y-99200000D02*
X57575000Y-99035000D01*
X69850000Y-131550000D02*
X68900000Y-132500000D01*
X60545000Y-108950000D02*
X60495000Y-109000000D01*
X55945000Y-101685000D02*
X56675000Y-101685000D01*
X54645000Y-106945000D02*
X54645000Y-102985000D01*
X56675000Y-101685000D02*
X57575000Y-100785000D01*
X60695000Y-108950000D02*
X60545000Y-108950000D01*
X68900000Y-132500000D02*
X68885000Y-132485000D01*
X54645000Y-102985000D02*
X55945000Y-101685000D01*
X68885000Y-132485000D02*
X63000000Y-132485000D01*
X57575000Y-99035000D02*
X57575000Y-100785000D01*
X60495000Y-109000000D02*
X56700000Y-109000000D01*
X69850000Y-125000000D02*
X69850000Y-131550000D01*
X59987500Y-99200000D02*
X57740000Y-99200000D01*
%TO.N,+15V*%
X106260000Y-100610000D02*
X106260000Y-106290000D01*
X97990000Y-100400000D02*
X106050000Y-100400000D01*
X106050000Y-100400000D02*
X106260000Y-100610000D01*
X96940000Y-101450000D02*
X97990000Y-100400000D01*
%TO.N,Net-(D3-K)*%
X94625000Y-94500000D02*
X96337500Y-94500000D01*
%TO.N,Net-(U5-COMP)*%
X99400000Y-134875000D02*
X98350000Y-134875000D01*
X100350000Y-133925000D02*
X99400000Y-134875000D01*
%TO.N,Net-(D8-A)*%
X66645000Y-139067500D02*
X66645000Y-137400000D01*
X66612500Y-139100000D02*
X66645000Y-139067500D01*
%TO.N,+Vsink*%
X81975000Y-98917500D02*
X81970000Y-98922500D01*
X97912500Y-91100000D02*
X97912500Y-92787500D01*
X100160000Y-111290000D02*
X100160000Y-109690000D01*
X55775000Y-126775000D02*
X55500000Y-127050000D01*
X59520000Y-126550000D02*
X58225000Y-126550000D01*
X81975000Y-97222500D02*
X81975000Y-98917500D01*
X97912500Y-94500000D02*
X93912500Y-98500000D01*
X97912500Y-94500000D02*
X97912500Y-92812500D01*
X78695000Y-126450000D02*
X78340000Y-126805000D01*
X76665000Y-126805000D02*
X76470000Y-127000000D01*
X58225000Y-126550000D02*
X58000000Y-126775000D01*
X93912500Y-98500000D02*
X88000000Y-98500000D01*
X76470000Y-127000000D02*
X76470000Y-127080000D01*
X100620000Y-111750000D02*
X100320000Y-111450000D01*
X76400000Y-127150000D02*
X75900000Y-127150000D01*
X58000000Y-126775000D02*
X55775000Y-126775000D01*
X97912500Y-92812500D02*
X97925000Y-92800000D01*
X78340000Y-126805000D02*
X76665000Y-126805000D01*
X52970000Y-127050000D02*
X55500000Y-127050000D01*
X100320000Y-111450000D02*
X100160000Y-111290000D01*
X79860000Y-126450000D02*
X78695000Y-126450000D01*
X73400000Y-127150000D02*
X75900000Y-127150000D01*
X100710000Y-113890000D02*
X100620000Y-113800000D01*
X76470000Y-127080000D02*
X76400000Y-127150000D01*
X100710000Y-116390000D02*
X100710000Y-113890000D01*
X97912500Y-92787500D02*
X97925000Y-92800000D01*
X100620000Y-113800000D02*
X100620000Y-111750000D01*
%TO.N,Net-(C35-Pad1)*%
X86140000Y-121530000D02*
X87245000Y-121530000D01*
X86070000Y-121460000D02*
X86140000Y-121530000D01*
X87275000Y-121500000D02*
X87840000Y-121500000D01*
X87245000Y-121530000D02*
X87275000Y-121500000D01*
X84540000Y-121460000D02*
X86070000Y-121460000D01*
%TO.N,-15V*%
X99950000Y-127355000D02*
X100050000Y-127355000D01*
X101350000Y-128280000D02*
X100425000Y-127355000D01*
X99895000Y-127000000D02*
X99895000Y-125800000D01*
X100425000Y-127355000D02*
X99950000Y-127355000D01*
X99950000Y-127055000D02*
X99895000Y-127000000D01*
X101350000Y-131125000D02*
X101350000Y-128280000D01*
X105175000Y-126000000D02*
X105350000Y-126175000D01*
X99950000Y-127355000D02*
X99950000Y-127055000D01*
%TO.N,Net-(U2-RT)*%
X59520000Y-125550000D02*
X57450000Y-123480000D01*
X57450000Y-123480000D02*
X57450000Y-123355000D01*
%TO.N,/power_rails/3V3_EN*%
X58957352Y-126050000D02*
X56400000Y-123492648D01*
X56400000Y-123492648D02*
X56400000Y-120550000D01*
X71137500Y-81272500D02*
X68597500Y-81272500D01*
X59520000Y-126050000D02*
X58957352Y-126050000D01*
%TO.N,Net-(U2-SW)*%
X67500000Y-128825000D02*
X63040000Y-128825000D01*
X63040000Y-128825000D02*
X63000000Y-128865000D01*
%TO.N,Net-(U2-BST)*%
X63695000Y-126550000D02*
X61000000Y-126550000D01*
X64195000Y-127050000D02*
X63695000Y-126550000D01*
%TO.N,Net-(U2-SS)*%
X61725000Y-126050000D02*
X62725000Y-125050000D01*
X61000000Y-126050000D02*
X61725000Y-126050000D01*
%TO.N,Net-(U2-FB)*%
X64030000Y-123050000D02*
X64000000Y-123080000D01*
X61000000Y-125550000D02*
X62000000Y-124550000D01*
X65370000Y-123050000D02*
X64030000Y-123050000D01*
X62000000Y-123080000D02*
X63670000Y-123080000D01*
X64000000Y-123080000D02*
X63670000Y-123080000D01*
X62000000Y-124550000D02*
X62000000Y-123080000D01*
%TO.N,Net-(U3-RT)*%
X78840000Y-124430000D02*
X79860000Y-125450000D01*
X78840000Y-123385000D02*
X78840000Y-124430000D01*
%TO.N,5V_EN*%
X79860000Y-125950000D02*
X79210000Y-125950000D01*
X77340000Y-123485000D02*
X77240000Y-123385000D01*
X77340000Y-124080000D02*
X77340000Y-123485000D01*
X79210000Y-125950000D02*
X77340000Y-124080000D01*
%TO.N,Net-(U3-SW)*%
X85025000Y-128895000D02*
X83340000Y-128895000D01*
X87840000Y-128355000D02*
X87470000Y-128725000D01*
X87470000Y-128725000D02*
X85195000Y-128725000D01*
X81340000Y-126950000D02*
X81340000Y-128080000D01*
X81340000Y-128080000D02*
X82155000Y-128895000D01*
X85195000Y-128725000D02*
X85025000Y-128895000D01*
X82155000Y-128895000D02*
X83340000Y-128895000D01*
%TO.N,Net-(U3-BST)*%
X81340000Y-126450000D02*
X84035000Y-126450000D01*
X84035000Y-126450000D02*
X84535000Y-126950000D01*
%TO.N,Net-(U3-SS)*%
X81340000Y-125950000D02*
X82195000Y-125950000D01*
X82195000Y-125950000D02*
X83065000Y-125080000D01*
%TO.N,Net-(U3-FB)*%
X85165000Y-123110000D02*
X85195000Y-123080000D01*
X82840000Y-123950000D02*
X82840000Y-123110000D01*
X81340000Y-125450000D02*
X82840000Y-123950000D01*
X82840000Y-123110000D02*
X84540000Y-123110000D01*
X85195000Y-123080000D02*
X86140000Y-123080000D01*
X84540000Y-123110000D02*
X85165000Y-123110000D01*
%TO.N,Net-(D7-A)*%
X86945000Y-137150000D02*
X86962500Y-137132500D01*
X86962500Y-137132500D02*
X86962500Y-135450000D01*
%TO.N,Net-(D1-K)*%
X96297500Y-91140000D02*
X96337500Y-91100000D01*
X94685000Y-91140000D02*
X96297500Y-91140000D01*
%TO.N,Net-(S1-Down)*%
X71137500Y-86352500D02*
X68597500Y-86352500D01*
%TO.N,Net-(S1-A)*%
X73565000Y-83460000D02*
X73212500Y-83812500D01*
X73565000Y-83152500D02*
X73565000Y-83460000D01*
X73212500Y-83812500D02*
X71137500Y-83812500D01*
%TO.N,Net-(U5-FB)*%
X98050000Y-127355000D02*
X97030000Y-128375000D01*
X99950000Y-128700000D02*
X98605000Y-127355000D01*
X97030000Y-128375000D02*
X97030000Y-128395000D01*
X100350000Y-130255000D02*
X100350000Y-129105000D01*
X96750000Y-128675000D02*
X96750000Y-128975000D01*
X100850000Y-131125000D02*
X100850000Y-130755000D01*
X100850000Y-130755000D02*
X100350000Y-130255000D01*
X98605000Y-127355000D02*
X98350000Y-127355000D01*
X99950000Y-129005000D02*
X99950000Y-128700000D01*
X100350000Y-129105000D02*
X100250000Y-129005000D01*
X97030000Y-128395000D02*
X96750000Y-128675000D01*
X100250000Y-129005000D02*
X99950000Y-129005000D01*
X98350000Y-127355000D02*
X98050000Y-127355000D01*
%TO.N,Net-(C9-Pad2)*%
X67275000Y-127050000D02*
X67500000Y-127275000D01*
X65845000Y-127050000D02*
X67275000Y-127050000D01*
%TO.N,Net-(U5-VIN)*%
X101925000Y-135250000D02*
X101350000Y-134675000D01*
X101350000Y-134675000D02*
X101350000Y-133925000D01*
X101925000Y-135950000D02*
X101925000Y-137020000D01*
X101925000Y-135950000D02*
X101925000Y-135250000D01*
X101925000Y-137020000D02*
X102505000Y-137600000D01*
%TO.N,Net-(D2-K)*%
X94630000Y-92800000D02*
X96350000Y-92800000D01*
%TO.N,-15V_EN*%
X101300000Y-137300000D02*
X96800000Y-137300000D01*
X96550000Y-137050000D02*
X96550000Y-135405000D01*
X101850000Y-133925000D02*
X101850000Y-134250000D01*
X96800000Y-137300000D02*
X96550000Y-137050000D01*
X103050000Y-135450000D02*
X103100000Y-135450000D01*
X101850000Y-134250000D02*
X103050000Y-135450000D01*
%TO.N,Net-(D11-K)*%
X102350000Y-129800000D02*
X102950000Y-129200000D01*
X102350000Y-131125000D02*
X102350000Y-129800000D01*
%TO.N,Net-(U5-VREF)*%
X98350000Y-129005000D02*
X98350000Y-130325000D01*
X99550000Y-130325000D02*
X100350000Y-131125000D01*
X98350000Y-130325000D02*
X99550000Y-130325000D01*
%TO.N,Net-(C17-Pad2)*%
X87695000Y-126950000D02*
X87840000Y-126805000D01*
X86185000Y-126950000D02*
X87695000Y-126950000D01*
%TO.N,Net-(C34-Pad1)*%
X65300000Y-121430000D02*
X65370000Y-121500000D01*
X67070000Y-121470000D02*
X66030000Y-121470000D01*
X63670000Y-121430000D02*
X65300000Y-121430000D01*
X66000000Y-121500000D02*
X65370000Y-121500000D01*
X66030000Y-121470000D02*
X66000000Y-121500000D01*
%TO.N,/power_delivery/PD_SCL*%
X59987500Y-97900000D02*
X60052500Y-97835000D01*
X64875000Y-108930000D02*
X64855000Y-108950000D01*
X60052500Y-97835000D02*
X61650000Y-97835000D01*
X64875000Y-105475000D02*
X64875000Y-108930000D01*
%TO.N,Net-(U4-RT)*%
X97400000Y-111450000D02*
X96900000Y-111450000D01*
X99160000Y-109690000D02*
X97400000Y-111450000D01*
%TO.N,15V_EN*%
X96900000Y-112831360D02*
X96900000Y-113450000D01*
X99660000Y-109690000D02*
X99660000Y-110071360D01*
X99660000Y-110071360D02*
X96900000Y-112831360D01*
%TO.N,Net-(U4-BST)*%
X100160000Y-105505000D02*
X100160000Y-108210000D01*
X100910000Y-104755000D02*
X100160000Y-105505000D01*
%TO.N,Net-(U4-SS)*%
X99660000Y-106790000D02*
X99660000Y-108210000D01*
X99095000Y-106225000D02*
X99660000Y-106790000D01*
%TO.N,Net-(U4-FB)*%
X96900000Y-103180000D02*
X96870000Y-103150000D01*
X96900000Y-104850000D02*
X96900000Y-103180000D01*
X96900000Y-106450000D02*
X96900000Y-104850000D01*
X99160000Y-108210000D02*
X97400000Y-106450000D01*
X97400000Y-106450000D02*
X96900000Y-106450000D01*
%TO.N,Net-(D9-A)*%
X113042500Y-102595000D02*
X113060000Y-102577500D01*
X111310000Y-102595000D02*
X113042500Y-102595000D01*
%TO.N,/power_delivery/PD_SCA*%
X62375000Y-105475000D02*
X62375000Y-108920000D01*
X62375000Y-108920000D02*
X62345000Y-108950000D01*
%TO.N,Net-(C25-Pad2)*%
X100820000Y-103015000D02*
X100910000Y-103105000D01*
X100820000Y-101450000D02*
X100820000Y-103015000D01*
%TO.N,Net-(C36-Pad1)*%
X95290000Y-102420000D02*
X95320000Y-102450000D01*
X95320000Y-103150000D02*
X95320000Y-104380000D01*
X95320000Y-104380000D02*
X95250000Y-104450000D01*
X95290000Y-101450000D02*
X95290000Y-102420000D01*
X95250000Y-104450000D02*
X95250000Y-104850000D01*
X95320000Y-102450000D02*
X95320000Y-103150000D01*
%TO.N,Net-(Q1-G)*%
X87055000Y-91872500D02*
X85405000Y-93522500D01*
X87055000Y-91822500D02*
X87055000Y-91872500D01*
%TO.N,/power_delivery/PD_ALERT*%
X72350000Y-95300000D02*
X65712500Y-95300000D01*
X74700000Y-92950000D02*
X72350000Y-95300000D01*
%TO.N,/power_delivery/~{PWR_CTRL_INT}*%
X61350000Y-95600000D02*
X61350000Y-96950000D01*
X61050000Y-97250000D02*
X59987500Y-97250000D01*
X61450000Y-95500000D02*
X61350000Y-95600000D01*
X61350000Y-96950000D02*
X61050000Y-97250000D01*
%TO.N,Net-(U1-VBUS_EN_SNK)*%
X85130000Y-92422500D02*
X80735614Y-92422500D01*
X85405000Y-91822500D02*
X85405000Y-92147500D01*
X80450000Y-92136886D02*
X80450000Y-91710000D01*
X80735614Y-92422500D02*
X80450000Y-92136886D01*
X85405000Y-92147500D02*
X85130000Y-92422500D01*
%TO.N,Net-(J8-Pin_2)*%
X98775000Y-82750000D02*
X98825000Y-82700000D01*
X95050000Y-82750000D02*
X98775000Y-82750000D01*
%TD*%
%TA.AperFunction,Conductor*%
%TO.N,+Vbus*%
G36*
X86580000Y-83160000D02*
G01*
X88728302Y-83160000D01*
X88736434Y-83163368D01*
X88739802Y-83171500D01*
X88739800Y-83171697D01*
X88699999Y-85499999D01*
X88700000Y-85499999D01*
X88700000Y-85500000D01*
X91411289Y-86177822D01*
X91418361Y-86183062D01*
X91420000Y-86188979D01*
X91420000Y-93217422D01*
X91416632Y-93225554D01*
X91399499Y-93242686D01*
X91333610Y-93356809D01*
X91333606Y-93356819D01*
X91299500Y-93484108D01*
X91299500Y-93615891D01*
X91333606Y-93743180D01*
X91333610Y-93743190D01*
X91399499Y-93857313D01*
X91416632Y-93874446D01*
X91420000Y-93882578D01*
X91420000Y-96193384D01*
X91416632Y-96201516D01*
X91408500Y-96204884D01*
X91408386Y-96204883D01*
X84371386Y-96135111D01*
X84363288Y-96131663D01*
X84360000Y-96123612D01*
X84360000Y-95074764D01*
X84363368Y-95066632D01*
X84886596Y-94543403D01*
X84894726Y-94540036D01*
X86200000Y-94550000D01*
X86225795Y-93131227D01*
X86229159Y-93123310D01*
X86449102Y-92903368D01*
X86457234Y-92900000D01*
X88799999Y-92900000D01*
X88800000Y-92900000D01*
X88800000Y-88419270D01*
X88800391Y-88416298D01*
X88800500Y-88415892D01*
X88800500Y-88284108D01*
X88800389Y-88283696D01*
X88800000Y-88280728D01*
X88800000Y-87580001D01*
X88800000Y-87580000D01*
X88799999Y-87580000D01*
X86071500Y-87580000D01*
X86063368Y-87576632D01*
X86060000Y-87568500D01*
X86060000Y-85610001D01*
X86060000Y-85610000D01*
X86070000Y-82630000D01*
X86580000Y-83160000D01*
G37*
%TD.AperFunction*%
%TD*%
%TA.AperFunction,Conductor*%
%TO.N,+Vbus*%
G36*
X80771133Y-81633368D02*
G01*
X80774501Y-81641500D01*
X80774501Y-81739631D01*
X80779779Y-81766167D01*
X80780000Y-81768410D01*
X80780000Y-82030000D01*
X81107371Y-82426813D01*
X81110000Y-82434131D01*
X81110000Y-82568291D01*
X81109608Y-82571266D01*
X81108985Y-82573591D01*
X81108985Y-82573593D01*
X81108985Y-82705377D01*
X81109608Y-82707704D01*
X81110000Y-82710677D01*
X81110000Y-85047886D01*
X81106970Y-85046632D01*
X81106576Y-85046217D01*
X80748368Y-84650454D01*
X80745786Y-84645713D01*
X80741393Y-84629319D01*
X80741392Y-84629314D01*
X80675500Y-84515186D01*
X80582314Y-84422000D01*
X80582313Y-84421999D01*
X80498582Y-84373657D01*
X80495806Y-84371415D01*
X79872974Y-83683285D01*
X79870000Y-83675568D01*
X79870000Y-82483419D01*
X79871867Y-82477137D01*
X80170000Y-82020000D01*
X80170000Y-81708506D01*
X80175500Y-81670759D01*
X80175500Y-81630000D01*
X80710000Y-81630000D01*
X80710001Y-81630000D01*
X80763001Y-81630000D01*
X80771133Y-81633368D01*
G37*
%TD.AperFunction*%
%TD*%
%TA.AperFunction,Conductor*%
%TO.N,+Vbus*%
G36*
X85487023Y-80641540D02*
G01*
X85542865Y-80673781D01*
X85571614Y-80681484D01*
X85574715Y-80682315D01*
X85581698Y-80687673D01*
X85583119Y-80695081D01*
X85574500Y-80754240D01*
X85574500Y-81670759D01*
X85584427Y-81738894D01*
X85586126Y-81742369D01*
X85588831Y-81747903D01*
X85590000Y-81752952D01*
X85590000Y-82100000D01*
X86070000Y-82630000D01*
X86060000Y-85610000D01*
X82914950Y-85610000D01*
X82906818Y-85606632D01*
X82906598Y-85606405D01*
X82380000Y-85050000D01*
X81115102Y-85050000D01*
X81110000Y-85047886D01*
X81110000Y-83100000D01*
X81110001Y-83100000D01*
X81403039Y-83100000D01*
X81408788Y-83101540D01*
X81416299Y-83105877D01*
X81543593Y-83139985D01*
X81675377Y-83139985D01*
X81802671Y-83105877D01*
X81810181Y-83101540D01*
X81815931Y-83100000D01*
X83857040Y-83100000D01*
X83862790Y-83101541D01*
X83931814Y-83141392D01*
X84059108Y-83175500D01*
X84190892Y-83175500D01*
X84318186Y-83141392D01*
X84387210Y-83101541D01*
X84392960Y-83100000D01*
X84639999Y-83100000D01*
X84640000Y-83100000D01*
X84640000Y-82593395D01*
X84641845Y-82587148D01*
X84957059Y-82100000D01*
X84970000Y-82080000D01*
X84970000Y-81768415D01*
X84970221Y-81766172D01*
X84975500Y-81739633D01*
X84975499Y-80685368D01*
X84974892Y-80682315D01*
X84970221Y-80658831D01*
X84970000Y-80656588D01*
X84970000Y-80651500D01*
X84973368Y-80643368D01*
X84981500Y-80640000D01*
X85481274Y-80640000D01*
X85487023Y-80641540D01*
G37*
%TD.AperFunction*%
%TA.AperFunction,Conductor*%
G36*
X80170000Y-82020000D02*
G01*
X80165439Y-82026992D01*
X80166410Y-81733928D01*
X80166529Y-81732329D01*
X80170000Y-81708507D01*
X80170000Y-82020000D01*
G37*
%TD.AperFunction*%
%TA.AperFunction,Conductor*%
G36*
X80706632Y-80643368D02*
G01*
X80710000Y-80651500D01*
X80710000Y-81630000D01*
X80175500Y-81630000D01*
X80175500Y-80754240D01*
X80169904Y-80715836D01*
X80169787Y-80714180D01*
X80169859Y-80692551D01*
X80173253Y-80684433D01*
X80178378Y-80681485D01*
X80207135Y-80673781D01*
X80262976Y-80641540D01*
X80268726Y-80640000D01*
X80698500Y-80640000D01*
X80706632Y-80643368D01*
G37*
%TD.AperFunction*%
%TD*%
%TA.AperFunction,Conductor*%
%TO.N,-15V*%
G36*
X123367198Y-122200875D02*
G01*
X123370985Y-122202443D01*
X123374896Y-122205118D01*
X125565545Y-124495053D01*
X125567909Y-124498724D01*
X125569445Y-124502556D01*
X125570271Y-124506845D01*
X125560007Y-136051446D01*
X125559127Y-136055847D01*
X125557829Y-136058972D01*
X125553440Y-136064227D01*
X112700000Y-144350000D01*
X112700000Y-146586212D01*
X112699125Y-146590612D01*
X112698455Y-146592230D01*
X112692232Y-146598454D01*
X112690615Y-146599124D01*
X112686213Y-146600000D01*
X110213787Y-146600000D01*
X110209387Y-146599125D01*
X110209385Y-146599124D01*
X110207768Y-146598454D01*
X110207766Y-146598452D01*
X110207762Y-146598452D01*
X110207760Y-146598451D01*
X110204652Y-146595338D01*
X110201546Y-146592233D01*
X110200875Y-146590612D01*
X110200873Y-146590606D01*
X110200000Y-146586212D01*
X110200000Y-137193787D01*
X110200873Y-137189393D01*
X110201082Y-137188885D01*
X110201543Y-137187773D01*
X110207758Y-137181549D01*
X110208885Y-137181082D01*
X110209393Y-137180873D01*
X110213787Y-137180000D01*
X115039999Y-137180000D01*
X115040000Y-137180000D01*
X118325285Y-134523810D01*
X118328690Y-134521908D01*
X118332214Y-134520667D01*
X118336061Y-134520015D01*
X122126159Y-134529963D01*
X122126488Y-134529963D01*
X122139958Y-134530000D01*
X122139999Y-134530000D01*
X122140000Y-134530000D01*
X122140001Y-134530000D01*
X122140056Y-134529946D01*
X123100000Y-133620000D01*
X123100000Y-127000000D01*
X123099999Y-127000000D01*
X114113787Y-127000000D01*
X114109387Y-126999125D01*
X114107768Y-126998454D01*
X114101546Y-126992233D01*
X114101330Y-126991711D01*
X114100873Y-126990606D01*
X114100000Y-126986212D01*
X114100000Y-123850001D01*
X114100000Y-123850000D01*
X114099999Y-123850000D01*
X106600001Y-123850000D01*
X106600000Y-123850000D01*
X106600000Y-123850001D01*
X106600000Y-127036212D01*
X106599125Y-127040612D01*
X106598455Y-127042230D01*
X106592232Y-127048454D01*
X106590615Y-127049124D01*
X106586213Y-127050000D01*
X101800000Y-127050000D01*
X101800000Y-127050001D01*
X101800000Y-130263516D01*
X101799248Y-130267606D01*
X101797844Y-130271296D01*
X101795691Y-130274846D01*
X101479998Y-130629998D01*
X101469919Y-131426358D01*
X101468989Y-131430746D01*
X101468282Y-131432394D01*
X101462052Y-131438510D01*
X101460481Y-131439150D01*
X101456142Y-131440000D01*
X101243787Y-131440000D01*
X101239387Y-131439125D01*
X101237902Y-131438510D01*
X101237768Y-131438454D01*
X101237766Y-131438452D01*
X101237762Y-131438452D01*
X101237760Y-131438451D01*
X101234652Y-131435338D01*
X101231546Y-131432233D01*
X101231330Y-131431711D01*
X101230873Y-131430606D01*
X101230000Y-131426212D01*
X101230000Y-130630001D01*
X101230000Y-130630000D01*
X101229999Y-130629999D01*
X100785962Y-130264902D01*
X100783119Y-130261432D01*
X100781351Y-130258117D01*
X100780000Y-130252707D01*
X100780000Y-122213787D01*
X100780873Y-122209393D01*
X100781082Y-122208885D01*
X100781543Y-122207773D01*
X100787758Y-122201549D01*
X100788885Y-122201082D01*
X100789393Y-122200873D01*
X100793787Y-122200000D01*
X123362799Y-122200000D01*
X123367198Y-122200875D01*
G37*
%TD.AperFunction*%
%TD*%
%TA.AperFunction,Conductor*%
%TO.N,-15V*%
G36*
X115040000Y-137180000D02*
G01*
X118325285Y-134523810D01*
X118325293Y-134523805D01*
X115040000Y-137180000D01*
G37*
%TD.AperFunction*%
%TA.AperFunction,Conductor*%
G36*
X122126159Y-134529963D02*
G01*
X118336055Y-134520015D01*
X118336061Y-134520015D01*
X122126159Y-134529963D01*
G37*
%TD.AperFunction*%
%TA.AperFunction,Conductor*%
G36*
X122140039Y-134529963D02*
G01*
X122140056Y-134529946D01*
X123100000Y-133620000D01*
X122140039Y-134529963D01*
G37*
%TD.AperFunction*%
%TD*%
%TA.AperFunction,Conductor*%
%TO.N,+3.3V*%
G36*
X65461835Y-131628799D02*
G01*
X65463032Y-131629294D01*
X65463427Y-131629458D01*
X65463452Y-131629468D01*
X65463455Y-131629470D01*
X65463457Y-131629470D01*
X65463462Y-131629472D01*
X65466568Y-131632581D01*
X65469679Y-131635689D01*
X65469682Y-131635698D01*
X65470339Y-131637286D01*
X65471213Y-131641744D01*
X65390000Y-146779999D01*
X65390000Y-146780000D01*
X100060902Y-146770000D01*
X100060902Y-144263787D01*
X100061775Y-144259393D01*
X100061984Y-144258885D01*
X100062445Y-144257773D01*
X100068660Y-144251549D01*
X100069787Y-144251082D01*
X100070295Y-144250873D01*
X100074689Y-144250000D01*
X102717437Y-144250000D01*
X102721834Y-144250874D01*
X102723463Y-144251548D01*
X102729683Y-144257755D01*
X102730349Y-144259355D01*
X102731232Y-144263730D01*
X102749947Y-149168241D01*
X102749086Y-149172650D01*
X102748421Y-149174271D01*
X102742232Y-149180510D01*
X102740640Y-149181178D01*
X102736190Y-149182074D01*
X60493814Y-149182074D01*
X60489414Y-149181199D01*
X60487795Y-149180528D01*
X60481573Y-149174307D01*
X60480904Y-149172692D01*
X60480032Y-149168272D01*
X60480032Y-149168241D01*
X60521255Y-131641679D01*
X60522139Y-131637290D01*
X60522819Y-131635661D01*
X60529045Y-131629458D01*
X60530656Y-131628794D01*
X60535041Y-131627925D01*
X65457439Y-131627925D01*
X65461835Y-131628799D01*
G37*
%TD.AperFunction*%
%TD*%
%TA.AperFunction,Conductor*%
%TO.N,+5V*%
G36*
X85720592Y-131450874D02*
G01*
X85722209Y-131451543D01*
X85722211Y-131451545D01*
X85722214Y-131451545D01*
X85722221Y-131451548D01*
X85725844Y-131455175D01*
X85728435Y-131457763D01*
X85728932Y-131458964D01*
X85729106Y-131459383D01*
X85729979Y-131463796D01*
X85724615Y-135138739D01*
X85723715Y-135755510D01*
X85720000Y-138300000D01*
X103499999Y-138300000D01*
X103500000Y-138300000D01*
X103500000Y-135762772D01*
X103500390Y-135759803D01*
X103501150Y-135756966D01*
X103502297Y-135754199D01*
X103566392Y-135643186D01*
X103600500Y-135515892D01*
X103600500Y-135384108D01*
X103566392Y-135256814D01*
X103502298Y-135145800D01*
X103501149Y-135143026D01*
X103500392Y-135140200D01*
X103500000Y-135137224D01*
X103500000Y-135000001D01*
X103500000Y-135000000D01*
X103499999Y-134999999D01*
X103499989Y-134999990D01*
X102656252Y-134250000D01*
X102656251Y-134250000D01*
X102656250Y-134250000D01*
X102282022Y-134250000D01*
X102277620Y-134249124D01*
X102273715Y-134247506D01*
X102269985Y-134245014D01*
X102204985Y-134180014D01*
X102202492Y-134176282D01*
X102200875Y-134172377D01*
X102200000Y-134167977D01*
X102200000Y-133613787D01*
X102200873Y-133609393D01*
X102201082Y-133608885D01*
X102201543Y-133607773D01*
X102207758Y-133601549D01*
X102208885Y-133601082D01*
X102209393Y-133600873D01*
X102213787Y-133600000D01*
X104791202Y-133600000D01*
X104795601Y-133600874D01*
X104798645Y-133602135D01*
X104804106Y-133606843D01*
X105140786Y-134167977D01*
X105250000Y-134350000D01*
X107586213Y-134350000D01*
X107590609Y-134350874D01*
X107592226Y-134351543D01*
X107598453Y-134357764D01*
X107598455Y-134357769D01*
X107599125Y-134359387D01*
X107600000Y-134363787D01*
X107600000Y-146536259D01*
X107599123Y-146540664D01*
X107598447Y-146542294D01*
X107592249Y-146548504D01*
X107590649Y-146549171D01*
X107586272Y-146550056D01*
X105213834Y-146559941D01*
X105209430Y-146559084D01*
X105207810Y-146558421D01*
X105201561Y-146552225D01*
X105200891Y-146550627D01*
X105200000Y-146546187D01*
X105200000Y-143250001D01*
X105200000Y-143250000D01*
X105199999Y-143250000D01*
X85680000Y-143250000D01*
X85676902Y-146236224D01*
X85676022Y-146240624D01*
X85675349Y-146242244D01*
X85669127Y-146248458D01*
X85667513Y-146249126D01*
X85663115Y-146250000D01*
X80782873Y-146250000D01*
X80778473Y-146249125D01*
X80776854Y-146248454D01*
X80776853Y-146248453D01*
X80776851Y-146248453D01*
X80773740Y-146245341D01*
X80770632Y-146242233D01*
X80769966Y-146240624D01*
X80769092Y-146236195D01*
X80798935Y-135761260D01*
X80800704Y-135140200D01*
X80811178Y-131463749D01*
X80812066Y-131459355D01*
X80812745Y-131457728D01*
X80818974Y-131451530D01*
X80820583Y-131450866D01*
X80824963Y-131450000D01*
X85716196Y-131450000D01*
X85720592Y-131450874D01*
G37*
%TD.AperFunction*%
%TD*%
%TA.AperFunction,Conductor*%
%TO.N,GND*%
G36*
X120780498Y-109221903D02*
G01*
X120784893Y-109222792D01*
X120786521Y-109223473D01*
X120792683Y-109229666D01*
X120792715Y-109229698D01*
X120793377Y-109231303D01*
X120794246Y-109235688D01*
X120794246Y-118870751D01*
X120793371Y-118875152D01*
X120792700Y-118876772D01*
X120786478Y-118882995D01*
X120784864Y-118883664D01*
X120780468Y-118884540D01*
X102222103Y-118895458D01*
X102217705Y-118894587D01*
X102216086Y-118893917D01*
X102209859Y-118887701D01*
X102209185Y-118886077D01*
X102208310Y-118881676D01*
X102208310Y-112951203D01*
X101850286Y-112678424D01*
X101696769Y-112561459D01*
X101696402Y-112561168D01*
X101169638Y-112122197D01*
X101165547Y-112114403D01*
X101165500Y-112113362D01*
X101165500Y-110788999D01*
X101160802Y-110745311D01*
X101158573Y-110735064D01*
X101158310Y-110732619D01*
X101158310Y-110251206D01*
X101158310Y-110251205D01*
X101158309Y-110251205D01*
X100522097Y-110251205D01*
X100517697Y-110250330D01*
X100516078Y-110249659D01*
X100509856Y-110243438D01*
X100509640Y-110242916D01*
X100509183Y-110241811D01*
X100508310Y-110237417D01*
X100508310Y-110012383D01*
X100508364Y-110011265D01*
X100508477Y-110010117D01*
X100508638Y-110009032D01*
X100510500Y-109999672D01*
X100510500Y-109380326D01*
X100508641Y-109370981D01*
X100508476Y-109369867D01*
X100508365Y-109368738D01*
X100508310Y-109367613D01*
X100508310Y-109165032D01*
X100509184Y-109160636D01*
X100509853Y-109159019D01*
X100516074Y-109152792D01*
X100516080Y-109152790D01*
X100517679Y-109152128D01*
X100522117Y-109151253D01*
X120780498Y-109221903D01*
G37*
%TD.AperFunction*%
%TD*%
%TA.AperFunction,Conductor*%
%TO.N,+Vsink*%
G36*
X100903039Y-110684685D02*
G01*
X100948794Y-110737489D01*
X100960000Y-110789000D01*
X100960000Y-112215000D01*
X101815383Y-112927819D01*
X101854282Y-112985858D01*
X101860000Y-113023078D01*
X101860000Y-118776000D01*
X101840315Y-118843039D01*
X101787511Y-118888794D01*
X101736000Y-118900000D01*
X88310000Y-118900000D01*
X88310000Y-114615000D01*
X97960000Y-114615000D01*
X97960000Y-112610256D01*
X97979685Y-112543217D01*
X97989151Y-112530383D01*
X99455579Y-110789000D01*
X99522840Y-110709126D01*
X99581079Y-110670527D01*
X99617689Y-110665000D01*
X100836000Y-110665000D01*
X100903039Y-110684685D01*
G37*
%TD.AperFunction*%
%TD*%
%TA.AperFunction,Conductor*%
%TO.N,Net-(U3-SW)*%
G36*
X80996511Y-126795595D02*
G01*
X81008605Y-126796787D01*
X81020618Y-126798569D01*
X81030325Y-126800500D01*
X81030326Y-126800500D01*
X81030327Y-126800500D01*
X81649675Y-126800500D01*
X81649676Y-126800500D01*
X81652139Y-126800009D01*
X81659370Y-126798571D01*
X81671394Y-126796787D01*
X81683487Y-126795595D01*
X81695631Y-126795000D01*
X81790314Y-126795000D01*
X81825249Y-126800023D01*
X81855777Y-126808987D01*
X81892351Y-126826660D01*
X81970374Y-126881735D01*
X83547500Y-127995000D01*
X85178308Y-127995000D01*
X85213240Y-128000021D01*
X85238484Y-128007434D01*
X85291230Y-128038730D01*
X85598573Y-128346073D01*
X85619723Y-128374325D01*
X85632331Y-128397414D01*
X85647500Y-128456843D01*
X85647500Y-131053170D01*
X85647499Y-131053176D01*
X85647500Y-131053179D01*
X85642475Y-131088114D01*
X85638070Y-131103112D01*
X85600327Y-131161855D01*
X85600292Y-131161885D01*
X85600291Y-131161887D01*
X85600289Y-131161887D01*
X85598958Y-131163042D01*
X85544097Y-131190518D01*
X85536539Y-131192163D01*
X85510168Y-131195000D01*
X80989330Y-131195000D01*
X80989325Y-131194999D01*
X80989323Y-131195000D01*
X80954389Y-131189975D01*
X80939390Y-131185570D01*
X80880644Y-131147827D01*
X80880615Y-131147793D01*
X80880614Y-131147793D01*
X80880613Y-131147791D01*
X80879457Y-131146458D01*
X80851977Y-131091583D01*
X80850332Y-131084021D01*
X80847500Y-131057668D01*
X80847500Y-126936824D01*
X80849369Y-126915375D01*
X80851006Y-126906054D01*
X80852405Y-126903224D01*
X80852522Y-126901893D01*
X80853805Y-126897523D01*
X80854776Y-126897808D01*
X80858879Y-126881735D01*
X80858187Y-126881477D01*
X80859248Y-126878631D01*
X80859891Y-126877771D01*
X80860349Y-126875978D01*
X80861587Y-126873268D01*
X80862834Y-126873838D01*
X80871777Y-126861888D01*
X80874657Y-126852103D01*
X80879976Y-126847498D01*
X80881990Y-126843430D01*
X80888520Y-126839514D01*
X80897520Y-126827487D01*
X80896623Y-126826452D01*
X80897679Y-126825536D01*
X80899658Y-126824630D01*
X80901110Y-126822691D01*
X80901147Y-126822664D01*
X80903586Y-126820839D01*
X80904698Y-126822325D01*
X80913954Y-126818092D01*
X80927488Y-126806380D01*
X80961093Y-126796534D01*
X80961216Y-126796478D01*
X80962800Y-126796250D01*
X80980370Y-126795000D01*
X80984369Y-126795000D01*
X80996511Y-126795595D01*
G37*
%TD.AperFunction*%
%TD*%
%TA.AperFunction,Conductor*%
%TO.N,Net-(U2-SW)*%
G36*
X60682188Y-126900149D02*
G01*
X60684894Y-126900281D01*
X60689336Y-126900500D01*
X60690326Y-126900500D01*
X61310659Y-126900500D01*
X61310664Y-126900500D01*
X61315105Y-126900281D01*
X61317812Y-126900149D01*
X61323889Y-126900000D01*
X61442814Y-126900000D01*
X61477749Y-126905023D01*
X61508277Y-126913987D01*
X61544851Y-126931660D01*
X61622874Y-126986735D01*
X63200000Y-128100000D01*
X64830808Y-128100000D01*
X64865740Y-128105021D01*
X64890984Y-128112434D01*
X64943730Y-128143730D01*
X65251073Y-128451073D01*
X65272223Y-128479325D01*
X65284831Y-128502414D01*
X65300000Y-128561843D01*
X65300000Y-131158170D01*
X65299999Y-131158176D01*
X65300000Y-131158179D01*
X65294975Y-131193114D01*
X65290570Y-131208112D01*
X65252827Y-131266855D01*
X65252792Y-131266885D01*
X65252791Y-131266887D01*
X65252789Y-131266887D01*
X65251458Y-131268042D01*
X65196597Y-131295518D01*
X65189039Y-131297163D01*
X65162668Y-131300000D01*
X60641830Y-131300000D01*
X60641825Y-131299999D01*
X60641823Y-131300000D01*
X60606889Y-131294975D01*
X60591890Y-131290570D01*
X60533144Y-131252827D01*
X60533115Y-131252793D01*
X60533114Y-131252793D01*
X60533113Y-131252791D01*
X60531957Y-131251458D01*
X60504477Y-131196583D01*
X60502832Y-131189021D01*
X60500000Y-131162668D01*
X60500000Y-127041824D01*
X60501869Y-127020375D01*
X60503506Y-127011054D01*
X60504905Y-127008224D01*
X60505022Y-127006893D01*
X60506305Y-127002523D01*
X60507276Y-127002808D01*
X60511379Y-126986735D01*
X60510687Y-126986477D01*
X60511748Y-126983631D01*
X60512391Y-126982771D01*
X60512849Y-126980978D01*
X60514087Y-126978268D01*
X60515334Y-126978838D01*
X60524277Y-126966888D01*
X60527157Y-126957103D01*
X60532476Y-126952498D01*
X60534490Y-126948430D01*
X60541020Y-126944514D01*
X60550020Y-126932487D01*
X60549123Y-126931452D01*
X60550179Y-126930536D01*
X60552158Y-126929630D01*
X60553610Y-126927691D01*
X60553647Y-126927664D01*
X60556086Y-126925839D01*
X60557198Y-126927325D01*
X60566454Y-126923092D01*
X60579988Y-126911380D01*
X60613593Y-126901534D01*
X60613716Y-126901478D01*
X60615300Y-126901250D01*
X60632870Y-126900000D01*
X60676111Y-126900000D01*
X60682188Y-126900149D01*
G37*
%TD.AperFunction*%
%TD*%
%TA.AperFunction,Conductor*%
%TO.N,Net-(U4-SW)*%
G36*
X104783106Y-103930023D02*
G01*
X104798104Y-103934427D01*
X104813094Y-103944057D01*
X104830175Y-103949067D01*
X104856855Y-103972172D01*
X104858042Y-103973541D01*
X104885518Y-104028402D01*
X104887163Y-104035960D01*
X104890000Y-104062331D01*
X104890000Y-108583170D01*
X104884975Y-108618114D01*
X104880570Y-108633112D01*
X104870939Y-108648101D01*
X104865932Y-108665175D01*
X104842827Y-108691855D01*
X104841458Y-108693042D01*
X104786597Y-108720518D01*
X104779039Y-108722163D01*
X104752668Y-108725000D01*
X100638582Y-108725000D01*
X100603643Y-108719976D01*
X100590325Y-108716065D01*
X100575329Y-108706427D01*
X100558227Y-108701406D01*
X100546550Y-108687931D01*
X100531548Y-108678289D01*
X100524142Y-108662071D01*
X100512471Y-108648603D01*
X100502527Y-108614739D01*
X100500960Y-108603842D01*
X100502079Y-108562003D01*
X100510500Y-108519675D01*
X100510500Y-107900323D01*
X100495346Y-107824146D01*
X100494232Y-107817637D01*
X100493884Y-107815222D01*
X100493886Y-107815222D01*
X100491537Y-107798884D01*
X100495299Y-107746311D01*
X100503987Y-107716722D01*
X100521658Y-107680150D01*
X101690000Y-106025000D01*
X101690000Y-104394191D01*
X101695022Y-104359258D01*
X101702434Y-104334013D01*
X101733728Y-104281271D01*
X102041076Y-103973923D01*
X102069326Y-103952775D01*
X102092418Y-103940167D01*
X102151843Y-103925000D01*
X104748170Y-103925000D01*
X104783106Y-103930023D01*
G37*
%TD.AperFunction*%
%TD*%
%TA.AperFunction,Conductor*%
%TO.N,+Vsink*%
G36*
X90416819Y-96555023D02*
G01*
X90431817Y-96559427D01*
X90446809Y-96569059D01*
X90463890Y-96574069D01*
X90490570Y-96597174D01*
X90491711Y-96598490D01*
X90519214Y-96653483D01*
X90520876Y-96661160D01*
X90523684Y-96687664D01*
X90492689Y-111100000D01*
X90490291Y-112215000D01*
X90485129Y-114615000D01*
X88310000Y-114615000D01*
X88310000Y-118900000D01*
X76200000Y-118900000D01*
X76200000Y-120375870D01*
X76199999Y-120375872D01*
X76200000Y-120375873D01*
X76194976Y-120410808D01*
X76186376Y-120440094D01*
X76171490Y-120471939D01*
X76171564Y-120471982D01*
X76171071Y-120472834D01*
X76170512Y-120474032D01*
X76169542Y-120475484D01*
X76169535Y-120475494D01*
X76169534Y-120475497D01*
X76164563Y-120484108D01*
X76130486Y-120543130D01*
X76130008Y-120543940D01*
X76129977Y-120544013D01*
X76116326Y-120594958D01*
X76116326Y-120594962D01*
X76109500Y-120620438D01*
X76109500Y-122594562D01*
X76129979Y-122670989D01*
X76136139Y-122681658D01*
X76169540Y-122739511D01*
X76170468Y-122740439D01*
X76175101Y-122748372D01*
X76177448Y-122757842D01*
X76187820Y-122778893D01*
X76189286Y-122784381D01*
X76189289Y-122784389D01*
X76191654Y-122790505D01*
X76200000Y-122835228D01*
X76200000Y-124150000D01*
X76200001Y-124150001D01*
X78684384Y-125952397D01*
X78709709Y-125976973D01*
X78723308Y-125994582D01*
X78747028Y-126047439D01*
X78747861Y-126051865D01*
X78748553Y-126059286D01*
X78748704Y-126059673D01*
X78748625Y-126060061D01*
X78750000Y-126074800D01*
X78750000Y-127108173D01*
X78744975Y-127143117D01*
X78740570Y-127158115D01*
X78730939Y-127173104D01*
X78725932Y-127190178D01*
X78702827Y-127216858D01*
X78701458Y-127218045D01*
X78646591Y-127245523D01*
X78639031Y-127247168D01*
X78612669Y-127250003D01*
X77228616Y-127250036D01*
X77228613Y-127250037D01*
X77228608Y-127250041D01*
X76523930Y-128174929D01*
X76523930Y-128174931D01*
X76498764Y-128199676D01*
X76480106Y-128213399D01*
X76428409Y-128235582D01*
X76425572Y-128236088D01*
X76415039Y-128237043D01*
X76414438Y-128237262D01*
X76413920Y-128237144D01*
X76404349Y-128238013D01*
X70442378Y-128264436D01*
X70407422Y-128259568D01*
X70392405Y-128255231D01*
X70377369Y-128245664D01*
X70360259Y-128240727D01*
X70333478Y-128217739D01*
X70332382Y-128216486D01*
X70304606Y-128161465D01*
X70302891Y-128153662D01*
X70300000Y-128127044D01*
X70300000Y-119950000D01*
X67523012Y-119950000D01*
X67523009Y-119949999D01*
X67523008Y-119950000D01*
X67488074Y-119944976D01*
X67470019Y-119939674D01*
X67415215Y-119906269D01*
X67387254Y-119876945D01*
X67385878Y-119876423D01*
X67373092Y-119865278D01*
X67371498Y-119863684D01*
X67307316Y-119799502D01*
X67307314Y-119799500D01*
X67250250Y-119766554D01*
X67193187Y-119733608D01*
X67129539Y-119716554D01*
X67065892Y-119699500D01*
X67065891Y-119699500D01*
X66934108Y-119699500D01*
X66806808Y-119733609D01*
X66806806Y-119733610D01*
X66692696Y-119799493D01*
X66692682Y-119799502D01*
X66628500Y-119863684D01*
X66625634Y-119866459D01*
X66592478Y-119897546D01*
X66592320Y-119897425D01*
X66575317Y-119913636D01*
X66574928Y-119914002D01*
X66567590Y-119917707D01*
X66519349Y-119944049D01*
X66509230Y-119946504D01*
X66479994Y-119950000D01*
X55900000Y-119950000D01*
X55900000Y-120482241D01*
X55899500Y-120484108D01*
X55899500Y-120615892D01*
X55900000Y-120617758D01*
X55900000Y-124628572D01*
X58522048Y-126126885D01*
X58549879Y-126148573D01*
X58562825Y-126162029D01*
X58593900Y-126218488D01*
X58596438Y-126228850D01*
X58600000Y-126258352D01*
X58600000Y-127208170D01*
X58594975Y-127243114D01*
X58590570Y-127258112D01*
X58580939Y-127273101D01*
X58575932Y-127290175D01*
X58552827Y-127316855D01*
X58551458Y-127318042D01*
X58496597Y-127345518D01*
X58489039Y-127347163D01*
X58462668Y-127350000D01*
X56899997Y-127350000D01*
X56248932Y-128047573D01*
X56221424Y-128069685D01*
X56199395Y-128082719D01*
X56136252Y-128100000D01*
X51142191Y-128100000D01*
X51107250Y-128094975D01*
X51092251Y-128090570D01*
X51033520Y-128052845D01*
X51032395Y-128051548D01*
X51004861Y-127996470D01*
X51003192Y-127988744D01*
X51000401Y-127962217D01*
X51005673Y-126148575D01*
X51049586Y-111042333D01*
X51054709Y-111007419D01*
X51059157Y-110992431D01*
X51097097Y-110933765D01*
X51098407Y-110932636D01*
X51153532Y-110905322D01*
X51161336Y-110903664D01*
X51187951Y-110900962D01*
X79700000Y-111100000D01*
X83650000Y-99200000D01*
X83650000Y-96691829D01*
X83654410Y-96661160D01*
X83655023Y-96656893D01*
X83656025Y-96653483D01*
X83659427Y-96641894D01*
X83697172Y-96583144D01*
X83697200Y-96583119D01*
X83697199Y-96583119D01*
X83698541Y-96581956D01*
X83753420Y-96554477D01*
X83760979Y-96552833D01*
X83787332Y-96550000D01*
X90381883Y-96550000D01*
X90416819Y-96555023D01*
G37*
%TD.AperFunction*%
%TD*%
%TA.AperFunction,Conductor*%
%TO.N,GND*%
G36*
X121996632Y-127763368D02*
G01*
X122000000Y-127771500D01*
X122000000Y-133828500D01*
X121996632Y-133836632D01*
X121988500Y-133840000D01*
X107410000Y-133840000D01*
X105336017Y-133840000D01*
X105327885Y-133836632D01*
X105326569Y-133835056D01*
X104990001Y-133350000D01*
X104990000Y-133350000D01*
X102471500Y-133350000D01*
X102463368Y-133346632D01*
X102460000Y-133338500D01*
X102460000Y-131711500D01*
X102463368Y-131703368D01*
X102471500Y-131700000D01*
X104050000Y-131700000D01*
X104060792Y-127771468D01*
X104064183Y-127763346D01*
X104072292Y-127760000D01*
X121988500Y-127760000D01*
X121996632Y-127763368D01*
G37*
%TD.AperFunction*%
%TD*%
%TA.AperFunction,Conductor*%
%TO.N,GND*%
G36*
X59207238Y-126900055D02*
G01*
X59208351Y-126900164D01*
X59209482Y-126900332D01*
X59210319Y-126900499D01*
X59210324Y-126900499D01*
X59210326Y-126900500D01*
X59210327Y-126900500D01*
X59829673Y-126900500D01*
X59829674Y-126900500D01*
X59830521Y-126900330D01*
X59831638Y-126900164D01*
X59832769Y-126900053D01*
X59833882Y-126900000D01*
X60036162Y-126900000D01*
X60040558Y-126900874D01*
X60041755Y-126901369D01*
X60042172Y-126901542D01*
X60042175Y-126901543D01*
X60048402Y-126907764D01*
X60048404Y-126907770D01*
X60049064Y-126909364D01*
X60049939Y-126913813D01*
X59965712Y-146159022D01*
X59964816Y-146163420D01*
X59964163Y-146164978D01*
X59964139Y-146165036D01*
X59957887Y-146171230D01*
X59956275Y-146171889D01*
X59951852Y-146172744D01*
X55803495Y-146147228D01*
X55799099Y-146146324D01*
X55797464Y-146145635D01*
X55791296Y-146139405D01*
X55790642Y-146137811D01*
X55789781Y-146133446D01*
X55789781Y-142760001D01*
X55789781Y-142760000D01*
X55789780Y-142760000D01*
X50984158Y-142760000D01*
X50979756Y-142759124D01*
X50978139Y-142758454D01*
X50971918Y-142752235D01*
X50971247Y-142750617D01*
X50970370Y-142746217D01*
X50969631Y-128613788D01*
X50970505Y-128609391D01*
X50971175Y-128607772D01*
X50971177Y-128607768D01*
X50971176Y-128607768D01*
X50971179Y-128607762D01*
X50974289Y-128604655D01*
X50977395Y-128601547D01*
X50978087Y-128601260D01*
X50979022Y-128600874D01*
X50983418Y-128600000D01*
X56250000Y-128600000D01*
X57042358Y-127560031D01*
X57049965Y-127555604D01*
X57051505Y-127555500D01*
X58462677Y-127555500D01*
X58462685Y-127555499D01*
X58484649Y-127554321D01*
X58484654Y-127554320D01*
X58484662Y-127554320D01*
X58500620Y-127552602D01*
X58511020Y-127551484D01*
X58519260Y-127550147D01*
X58521100Y-127550000D01*
X58949999Y-127550000D01*
X58950000Y-127550000D01*
X58950000Y-126913787D01*
X58950873Y-126909393D01*
X58951082Y-126908885D01*
X58951543Y-126907773D01*
X58957758Y-126901549D01*
X58958885Y-126901082D01*
X58959393Y-126900873D01*
X58963787Y-126900000D01*
X59206117Y-126900000D01*
X59207238Y-126900055D01*
G37*
%TD.AperFunction*%
%TD*%
%TA.AperFunction,Conductor*%
%TO.N,GND*%
G36*
X79547238Y-126800055D02*
G01*
X79548351Y-126800164D01*
X79549482Y-126800332D01*
X79550319Y-126800499D01*
X79550324Y-126800499D01*
X79550326Y-126800500D01*
X79550327Y-126800500D01*
X80169673Y-126800500D01*
X80169674Y-126800500D01*
X80170521Y-126800330D01*
X80171638Y-126800164D01*
X80172769Y-126800053D01*
X80173882Y-126800000D01*
X80386171Y-126800000D01*
X80390570Y-126800875D01*
X80392186Y-126801544D01*
X80398411Y-126807766D01*
X80398412Y-126807769D01*
X80399073Y-126809365D01*
X80399948Y-126813807D01*
X80333916Y-144816884D01*
X80328710Y-146236255D01*
X80327817Y-146240656D01*
X80327136Y-146242282D01*
X80320913Y-146248470D01*
X80319306Y-146249132D01*
X80314926Y-146250000D01*
X72374120Y-146250000D01*
X72369721Y-146249125D01*
X72368098Y-146248453D01*
X72361877Y-146242233D01*
X72361206Y-146240613D01*
X72360331Y-146236225D01*
X72350008Y-128513792D01*
X72350881Y-128509393D01*
X72351550Y-128507775D01*
X72357767Y-128501548D01*
X72359389Y-128500875D01*
X72363791Y-128500000D01*
X76600000Y-128500000D01*
X77392334Y-127460059D01*
X77399939Y-127455634D01*
X77401466Y-127455530D01*
X78612674Y-127455503D01*
X78612730Y-127455500D01*
X78623490Y-127455500D01*
X78628997Y-127454627D01*
X78634642Y-127454325D01*
X78655375Y-127452095D01*
X78660987Y-127451492D01*
X78660990Y-127451491D01*
X78661004Y-127451490D01*
X78667901Y-127450371D01*
X78669283Y-127450148D01*
X78671122Y-127450000D01*
X79299999Y-127450000D01*
X79300000Y-127450000D01*
X79300000Y-126813787D01*
X79300873Y-126809393D01*
X79301082Y-126808885D01*
X79301543Y-126807773D01*
X79307758Y-126801549D01*
X79308885Y-126801082D01*
X79309393Y-126800873D01*
X79313787Y-126800000D01*
X79546117Y-126800000D01*
X79547238Y-126800055D01*
G37*
%TD.AperFunction*%
%TD*%
%TA.AperFunction,Conductor*%
%TO.N,+15V*%
G36*
X128586283Y-103909235D02*
G01*
X128590679Y-103910138D01*
X128592309Y-103910825D01*
X128598427Y-103916996D01*
X128598478Y-103917047D01*
X128599135Y-103918644D01*
X128600000Y-103923019D01*
X128600000Y-143006212D01*
X128599125Y-143010612D01*
X128598455Y-143012230D01*
X128592232Y-143018454D01*
X128590615Y-143019124D01*
X128586213Y-143020000D01*
X123890000Y-143020000D01*
X123846700Y-146786342D01*
X123845774Y-146790733D01*
X123845069Y-146792381D01*
X123838839Y-146798506D01*
X123838774Y-146798532D01*
X123838774Y-146798533D01*
X123838772Y-146798532D01*
X123837265Y-146799148D01*
X123832922Y-146800000D01*
X115164002Y-146800000D01*
X115159602Y-146799125D01*
X115157983Y-146798454D01*
X115157982Y-146798453D01*
X115157980Y-146798453D01*
X115155491Y-146795963D01*
X115151761Y-146792233D01*
X115151128Y-146790706D01*
X115150257Y-146786099D01*
X115155861Y-146483476D01*
X115199846Y-144108235D01*
X115200803Y-144103857D01*
X115202202Y-144100648D01*
X115206281Y-144095734D01*
X126100000Y-136700000D01*
X126100000Y-122590000D01*
X126099999Y-122589999D01*
X122096280Y-119494854D01*
X122093335Y-119491471D01*
X122091527Y-119488314D01*
X122090006Y-119482590D01*
X122100000Y-108800000D01*
X122088871Y-108799993D01*
X105451086Y-108790007D01*
X105446684Y-108789128D01*
X105445065Y-108788456D01*
X105438848Y-108782233D01*
X105438180Y-108780619D01*
X105437306Y-108776221D01*
X105437306Y-103791187D01*
X105438180Y-103786790D01*
X105438850Y-103785171D01*
X105445070Y-103778946D01*
X105446661Y-103778287D01*
X105451122Y-103777413D01*
X128586283Y-103909235D01*
G37*
%TD.AperFunction*%
%TD*%
%TA.AperFunction,Conductor*%
%TO.N,GND*%
G36*
X99119407Y-131490056D02*
G01*
X99120568Y-131490173D01*
X99121689Y-131490343D01*
X100148916Y-131699778D01*
X100149640Y-131700000D01*
X100149998Y-131700000D01*
X100150000Y-131700000D01*
X100316213Y-131700000D01*
X100320609Y-131700874D01*
X100322226Y-131701543D01*
X100328453Y-131707764D01*
X100328455Y-131707769D01*
X100329125Y-131709387D01*
X100330000Y-131713787D01*
X100330000Y-133336212D01*
X100329125Y-133340612D01*
X100328455Y-133342230D01*
X100322232Y-133348454D01*
X100320615Y-133349124D01*
X100316213Y-133350000D01*
X99590000Y-133350000D01*
X99014259Y-134451845D01*
X99011446Y-134455340D01*
X99009011Y-134457377D01*
X99001712Y-134460056D01*
X96083867Y-134480320D01*
X96079458Y-134479474D01*
X96077836Y-134478815D01*
X96071570Y-134472634D01*
X96071570Y-134472632D01*
X96070905Y-134471056D01*
X96070000Y-134466585D01*
X96070000Y-131503787D01*
X96070873Y-131499393D01*
X96071082Y-131498885D01*
X96071543Y-131497773D01*
X96077758Y-131491549D01*
X96078885Y-131491082D01*
X96079393Y-131490873D01*
X96083787Y-131490000D01*
X99118266Y-131490000D01*
X99119407Y-131490056D01*
G37*
%TD.AperFunction*%
%TD*%
%TA.AperFunction,Conductor*%
%TO.N,GND*%
G36*
X123063039Y-81499236D02*
G01*
X123108794Y-81552040D01*
X123120000Y-81603551D01*
X123120000Y-95395551D01*
X123100315Y-95462590D01*
X123047511Y-95508345D01*
X122996000Y-95519551D01*
X111144000Y-95519551D01*
X111076961Y-95499866D01*
X111031206Y-95447062D01*
X111020000Y-95395551D01*
X111020000Y-81603551D01*
X111039685Y-81536512D01*
X111092489Y-81490757D01*
X111144000Y-81479551D01*
X122996000Y-81479551D01*
X123063039Y-81499236D01*
G37*
%TD.AperFunction*%
%TD*%
M02*
