ISO-10303-21;
HEADER;
FILE_DESCRIPTION (( 'STEP AP214' ),
    '1' );
FILE_NAME ('XAL4030-472MEC.STEP',
    '2022-05-16T13:02:38',
    ( '' ),
    ( '' ),
    'SwSTEP 2.0',
    'SolidWorks 2018',
    '' );
FILE_SCHEMA (( 'AUTOMOTIVE_DESIGN' ));
ENDSEC;

DATA;
#1 = DIRECTION ( 'NONE',  ( -1.000000000000000000, 4.404571325722361763E-17, -0.000000000000000000 ) ) ;
#2 = APPLICATION_CONTEXT ( 'automotive_design' ) ;
#3 = DIRECTION ( 'NONE',  ( 0.000000000000000000, 0.000000000000000000, -1.000000000000000000 ) ) ;
#4 =( GEOMETRIC_REPRESENTATION_CONTEXT ( 3 ) GLOBAL_UNCERTAINTY_ASSIGNED_CONTEXT ( ( #201 ) ) GLOBAL_UNIT_ASSIGNED_CONTEXT ( ( #184, #334, #833 ) ) REPRESENTATION_CONTEXT ( 'NONE', 'WORKASPACE' ) );
#5 = FACE_OUTER_BOUND ( 'NONE', #498, .T. ) ;
#6 = UNCERTAINTY_MEASURE_WITH_UNIT (LENGTH_MEASURE( 1.000000000000000082E-05 ), #36, 'distance_accuracy_value', 'NONE');
#7 = SURFACE_STYLE_FILL_AREA ( #291 ) ;
#8 = VECTOR ( 'NONE', #272, 1000.000000000000000 ) ;
#9 = DIRECTION ( 'NONE',  ( -0.000000000000000000, -0.000000000000000000, -1.000000000000000000 ) ) ;
#10 = ORIENTED_EDGE ( 'NONE', *, *, #676, .T. ) ;
#11 = ORIENTED_EDGE ( 'NONE', *, *, #377, .F. ) ;
#12 = CLOSED_SHELL ( 'NONE', ( #928, #707, #496, #429, #160, #372, #171, #311, #780, #877, #630, #285, #635, #655, #226, #515, #658, #700, #355, #26 ) ) ;
#13 = STYLED_ITEM ( 'NONE', ( #65 ), #877 ) ;
#14 =( NAMED_UNIT ( * ) PLANE_ANGLE_UNIT ( ) SI_UNIT ( $, .RADIAN. ) );
#15 = CARTESIAN_POINT ( 'NONE',  ( -0.7850000000000003642, 0.09999999999999995004, -1.625000000000000222 ) ) ;
#16 = PRODUCT_DEFINITION_CONTEXT ( 'detailed design', #2, 'design' ) ;
#17 =( NAMED_UNIT ( * ) SI_UNIT ( $, .STERADIAN. ) SOLID_ANGLE_UNIT ( ) );
#18 = LINE ( 'NONE', #193, #188 ) ;
#19 = STYLED_ITEM ( 'NONE', ( #748 ), #515 ) ;
#20 = EDGE_LOOP ( 'NONE', ( #71, #930, #921, #325 ) ) ;
#21 = CARTESIAN_POINT ( 'NONE',  ( 1.604999999999999538, 0.09999999999999983902, -1.625000000000000000 ) ) ;
#22 = DIRECTION ( 'NONE',  ( -1.000000000000000000, 3.305494428309464708E-17, -2.644395542647572259E-16 ) ) ;
#23 = STYLED_ITEM ( 'NONE', ( #396 ), #501 ) ;
#24 = CARTESIAN_POINT ( 'NONE',  ( -1.099076897412900638E-18, -1.084202172485504434E-16, 0.000000000000000000 ) ) ;
#25 = EDGE_CURVE ( 'NONE', #104, #529, #91, .T. ) ;
#26 = ADVANCED_FACE ( 'NONE', ( #239 ), #308, .T. ) ;
#27 = EDGE_CURVE ( 'NONE', #313, #151, #611, .T. ) ;
#28 = DIRECTION ( 'NONE',  ( -1.000000000000000000, 6.776263578034399015E-17, 0.000000000000000000 ) ) ;
#29 = SURFACE_STYLE_FILL_AREA ( #363 ) ;
#30 = SURFACE_STYLE_USAGE ( .BOTH. , #669 ) ;
#31 = UNCERTAINTY_MEASURE_WITH_UNIT (LENGTH_MEASURE( 1.000000000000000082E-05 ), #920, 'distance_accuracy_value', 'NONE');
#32 = MECHANICAL_DESIGN_GEOMETRIC_PRESENTATION_REPRESENTATION (  '', ( #19 ), #880 ) ;
#33 = LINE ( 'NONE', #546, #561 ) ;
#34 = CARTESIAN_POINT ( 'NONE',  ( -2.000000000000000444, 0.09999999999999983902, 1.800000000000000044 ) ) ;
#35 = EDGE_LOOP ( 'NONE', ( #840, #694, #149, #117 ) ) ;
#36 =( LENGTH_UNIT ( ) NAMED_UNIT ( * ) SI_UNIT ( .MILLI., .METRE. ) );
#37 = CARTESIAN_POINT ( 'NONE',  ( -1.099076897412899867E-18, -8.131516293641283255E-17, 0.000000000000000000 ) ) ;
#38 = SURFACE_STYLE_USAGE ( .BOTH. , #750 ) ;
#39 = COLOUR_RGB ( '',0.2509803921568627416, 0.2509803921568627416, 0.2509803921568627416 ) ;
#40 = LINE ( 'NONE', #119, #585 ) ;
#41 = CIRCLE ( 'NONE', #136, 0.1000000000000000056 ) ;
#42 = ORIENTED_EDGE ( 'NONE', *, *, #200, .T. ) ;
#43 = CARTESIAN_POINT ( 'NONE',  ( -0.7850000000000003642, 0.09999999999999995004, 1.524999999999999467 ) ) ;
#44 = EDGE_CURVE ( 'NONE', #313, #728, #124, .T. ) ;
#45 = ORIENTED_EDGE ( 'NONE', *, *, #556, .T. ) ;
#46 = DIRECTION ( 'NONE',  ( 0.000000000000000000, 0.000000000000000000, 1.000000000000000000 ) ) ;
#47 = DIRECTION ( 'NONE',  ( 1.000000000000000000, -3.305494428309464708E-17, 2.644395542647571766E-16 ) ) ;
#48 = AXIS2_PLACEMENT_3D ( 'NONE', #37, #895, #255 ) ;
#49 = DIRECTION ( 'NONE',  ( 0.000000000000000000, 0.000000000000000000, -1.000000000000000000 ) ) ;
#50 = CARTESIAN_POINT ( 'NONE',  ( -1.800000000000000488, 3.100000000000000089, -1.800000000000000044 ) ) ;
#51 = COLOUR_RGB ( '',1.000000000000000000, 1.000000000000000000, 1.000000000000000000 ) ;
#52 = DIRECTION ( 'NONE',  ( 0.000000000000000000, 0.000000000000000000, -1.000000000000000000 ) ) ;
#53 = FACE_OUTER_BOUND ( 'NONE', #624, .T. ) ;
#54 = PRESENTATION_LAYER_ASSIGNMENT (  '', '', ( #607 ) ) ;
#55 = VERTEX_POINT ( 'NONE', #811 ) ;
#56 = CARTESIAN_POINT ( 'NONE',  ( 1.799999999999999600, 0.09999999999999982514, -1.800000000000000488 ) ) ;
#57 = ORIENTED_EDGE ( 'NONE', *, *, #27, .F. ) ;
#58 = PRESENTATION_LAYER_ASSIGNMENT (  '', '', ( #349 ) ) ;
#59 = FILL_AREA_STYLE ('',( #67 ) ) ;
#60 =( LENGTH_UNIT ( ) NAMED_UNIT ( * ) SI_UNIT ( .MILLI., .METRE. ) );
#61 = MECHANICAL_DESIGN_GEOMETRIC_PRESENTATION_REPRESENTATION (  '', ( #896 ), #679 ) ;
#62 = CARTESIAN_POINT ( 'NONE',  ( 1.999999999999999556, 3.100000000000000089, 1.799999999999999600 ) ) ;
#63 = SHAPE_DEFINITION_REPRESENTATION ( #652, #351 ) ;
#64 = FACE_OUTER_BOUND ( 'NONE', #542, .T. ) ;
#65 = PRESENTATION_STYLE_ASSIGNMENT (( #350 ) ) ;
#66 = SURFACE_STYLE_FILL_AREA ( #89 ) ;
#67 = FILL_AREA_STYLE_COLOUR ( '', #39 ) ;
#68 = FILL_AREA_STYLE_COLOUR ( '', #467 ) ;
#69 = VERTEX_POINT ( 'NONE', #737 ) ;
#70 = MECHANICAL_DESIGN_GEOMETRIC_PRESENTATION_REPRESENTATION (  '', ( #23 ), #214 ) ;
#71 = ORIENTED_EDGE ( 'NONE', *, *, #676, .F. ) ;
#72 = DIRECTION ( 'NONE',  ( 0.000000000000000000, -1.000000000000000000, 0.000000000000000000 ) ) ;
#73 = MECHANICAL_DESIGN_GEOMETRIC_PRESENTATION_REPRESENTATION (  '', ( #84 ), #756 ) ;
#74 = PRODUCT_RELATED_PRODUCT_CATEGORY ( 'part', '', ( #906 ) ) ;
#75 = SURFACE_STYLE_FILL_AREA ( #110 ) ;
#76 = LINE ( 'NONE', #206, #845 ) ;
#77 = VECTOR ( 'NONE', #914, 1000.000000000000000 ) ;
#78 = VERTEX_POINT ( 'NONE', #390 ) ;
#79 = DIRECTION ( 'NONE',  ( -1.000000000000000000, 3.305494428309464708E-17, -2.644395542647571766E-16 ) ) ;
#80 = STYLED_ITEM ( 'NONE', ( #256 ), #630 ) ;
#81 =( NAMED_UNIT ( * ) SI_UNIT ( $, .STERADIAN. ) SOLID_ANGLE_UNIT ( ) );
#82 = DIRECTION ( 'NONE',  ( -1.000000000000000000, 4.404571325722361763E-17, 0.000000000000000000 ) ) ;
#83 =( NAMED_UNIT ( * ) SI_UNIT ( $, .STERADIAN. ) SOLID_ANGLE_UNIT ( ) );
#84 = STYLED_ITEM ( 'NONE', ( #798 ), #285 ) ;
#85 = FACE_OUTER_BOUND ( 'NONE', #35, .T. ) ;
#86 = COLOUR_RGB ( '',0.2509803921568627416, 0.2509803921568627416, 0.2509803921568627416 ) ;
#87 = DIRECTION ( 'NONE',  ( 4.404571325722361763E-17, 1.000000000000000000, 0.000000000000000000 ) ) ;
#88 = FACE_OUTER_BOUND ( 'NONE', #360, .T. ) ;
#89 = FILL_AREA_STYLE ('',( #799 ) ) ;
#90 = EDGE_CURVE ( 'NONE', #776, #892, #165, .T. ) ;
#91 = LINE ( 'NONE', #886, #380 ) ;
#92 = ORIENTED_EDGE ( 'NONE', *, *, #874, .T. ) ;
#93 = FILL_AREA_STYLE_COLOUR ( '', #417 ) ;
#94 = ORIENTED_EDGE ( 'NONE', *, *, #726, .F. ) ;
#95 = PRODUCT_DEFINITION ( 'UNKNOWN', '', #253, #16 ) ;
#96 =( NAMED_UNIT ( * ) PLANE_ANGLE_UNIT ( ) SI_UNIT ( $, .RADIAN. ) );
#97 = DIRECTION ( 'NONE',  ( -2.644395542647572752E-16, 0.000000000000000000, 1.000000000000000000 ) ) ;
#98 = PLANE ( 'NONE',  #264 ) ;
#99 = LINE ( 'NONE', #792, #331 ) ;
#100 = AXIS2_PLACEMENT_3D ( 'NONE', #593, #164, #169 ) ;
#101 = ORIENTED_EDGE ( 'NONE', *, *, #282, .F. ) ;
#102 = DIRECTION ( 'NONE',  ( 4.404571325722361763E-17, 1.000000000000000000, 0.000000000000000000 ) ) ;
#103 = ORIENTED_EDGE ( 'NONE', *, *, #816, .F. ) ;
#104 = VERTEX_POINT ( 'NONE', #316 ) ;
#105 = AXIS2_PLACEMENT_3D ( 'NONE', #314, #22, #97 ) ;
#106 =( LENGTH_UNIT ( ) NAMED_UNIT ( * ) SI_UNIT ( .MILLI., .METRE. ) );
#107 = CARTESIAN_POINT ( 'NONE',  ( 0.7849999999999994760, 0.09999999999999986677, -1.625000000000000222 ) ) ;
#108 =( GEOMETRIC_REPRESENTATION_CONTEXT ( 3 ) GLOBAL_UNCERTAINTY_ASSIGNED_CONTEXT ( ( #821 ) ) GLOBAL_UNIT_ASSIGNED_CONTEXT ( ( #430, #14, #645 ) ) REPRESENTATION_CONTEXT ( 'NONE', 'WORKASPACE' ) );
#109 = UNCERTAINTY_MEASURE_WITH_UNIT (LENGTH_MEASURE( 1.000000000000000082E-05 ), #442, 'distance_accuracy_value', 'NONE');
#110 = FILL_AREA_STYLE ('',( #260 ) ) ;
#111 = DIRECTION ( 'NONE',  ( -2.644395542647572752E-16, 0.000000000000000000, -1.000000000000000000 ) ) ;
#112 = AXIS2_PLACEMENT_3D ( 'NONE', #460, #608, #523 ) ;
#113 = DIRECTION ( 'NONE',  ( -4.404571325722361763E-17, -1.000000000000000000, 0.000000000000000000 ) ) ;
#114 = EDGE_CURVE ( 'NONE', #151, #69, #860, .T. ) ;
#115 = ORIENTED_EDGE ( 'NONE', *, *, #760, .T. ) ;
#116 = SURFACE_SIDE_STYLE ('',( #807 ) ) ;
#117 = ORIENTED_EDGE ( 'NONE', *, *, #910, .F. ) ;
#118 = DIRECTION ( 'NONE',  ( 1.000000000000000000, -4.404571325722361763E-17, -0.000000000000000000 ) ) ;
#119 = CARTESIAN_POINT ( 'NONE',  ( -2.000000000000000444, 3.100000000000000089, -1.800000000000000044 ) ) ;
#120 = DIRECTION ( 'NONE',  ( -0.000000000000000000, -1.000000000000000000, 0.000000000000000000 ) ) ;
#121 =( LENGTH_UNIT ( ) NAMED_UNIT ( * ) SI_UNIT ( .MILLI., .METRE. ) );
#122 = SURFACE_STYLE_FILL_AREA ( #559 ) ;
#123 = MECHANICAL_DESIGN_GEOMETRIC_PRESENTATION_REPRESENTATION (  '', ( #280 ), #804 ) ;
#124 = CIRCLE ( 'NONE', #468, 0.2000000000000000944 ) ;
#125 = DIRECTION ( 'NONE',  ( 0.000000000000000000, -1.000000000000000000, 0.000000000000000000 ) ) ;
#126 = ORIENTED_EDGE ( 'NONE', *, *, #200, .F. ) ;
#127 = CARTESIAN_POINT ( 'NONE',  ( 1.604999999999999538, 0.09999999999999983902, -1.524999999999999911 ) ) ;
#128 = DIRECTION ( 'NONE',  ( -0.000000000000000000, 1.000000000000000000, -0.000000000000000000 ) ) ;
#129 =( GEOMETRIC_REPRESENTATION_CONTEXT ( 3 ) GLOBAL_UNCERTAINTY_ASSIGNED_CONTEXT ( ( #487 ) ) GLOBAL_UNIT_ASSIGNED_CONTEXT ( ( #662, #601, #599 ) ) REPRESENTATION_CONTEXT ( 'NONE', 'WORKASPACE' ) );
#130 = CARTESIAN_POINT ( 'NONE',  ( 1.999999999999999556, 3.100000000000000089, 1.999999999999999556 ) ) ;
#131 = UNCERTAINTY_MEASURE_WITH_UNIT (LENGTH_MEASURE( 1.000000000000000082E-05 ), #384, 'distance_accuracy_value', 'NONE');
#132 = SURFACE_SIDE_STYLE ('',( #122 ) ) ;
#133 = SURFACE_STYLE_FILL_AREA ( #583 ) ;
#134 = FACE_BOUND ( 'NONE', #518, .T. ) ;
#135 = CARTESIAN_POINT ( 'NONE',  ( -0.7850000000000003642, -5.536703167418351752E-17, -1.525000000000000133 ) ) ;
#136 = AXIS2_PLACEMENT_3D ( 'NONE', #43, #330, #618 ) ;
#137 = PRESENTATION_STYLE_ASSIGNMENT (( #908 ) ) ;
#138 = DIRECTION ( 'NONE',  ( -4.404571325722361763E-17, -1.000000000000000000, 0.000000000000000000 ) ) ;
#139 = ORIENTED_EDGE ( 'NONE', *, *, #175, .T. ) ;
#140 = FILL_AREA_STYLE ('',( #352 ) ) ;
#141 = PLANE ( 'NONE',  #704 ) ;
#142 = EDGE_CURVE ( 'NONE', #179, #907, #303, .T. ) ;
#143 = VECTOR ( 'NONE', #297, 1000.000000000000000 ) ;
#144 = CYLINDRICAL_SURFACE ( 'NONE', #762, 0.1000000000000000472 ) ;
#145 = PRESENTATION_STYLE_ASSIGNMENT (( #541 ) ) ;
#146 = SURFACE_SIDE_STYLE ('',( #29 ) ) ;
#147 = EDGE_LOOP ( 'NONE', ( #480, #348, #881, #663 ) ) ;
#148 =( GEOMETRIC_REPRESENTATION_CONTEXT ( 3 ) GLOBAL_UNCERTAINTY_ASSIGNED_CONTEXT ( ( #636 ) ) GLOBAL_UNIT_ASSIGNED_CONTEXT ( ( #462, #674, #531 ) ) REPRESENTATION_CONTEXT ( 'NONE', 'WORKASPACE' ) );
#149 = ORIENTED_EDGE ( 'NONE', *, *, #556, .F. ) ;
#150 = FILL_AREA_STYLE ('',( #298 ) ) ;
#151 = VERTEX_POINT ( 'NONE', #34 ) ;
#152 = EDGE_CURVE ( 'NONE', #78, #907, #904, .T. ) ;
#153 = DIRECTION ( 'NONE',  ( -1.000000000000000000, 0.000000000000000000, 0.000000000000000000 ) ) ;
#154 = LINE ( 'NONE', #569, #574 ) ;
#155 = CARTESIAN_POINT ( 'NONE',  ( 0.000000000000000000, 3.100000000000000089, 0.000000000000000000 ) ) ;
#156 = CARTESIAN_POINT ( 'NONE',  ( 0.000000000000000000, 0.000000000000000000, 0.000000000000000000 ) ) ;
#157 = COLOUR_RGB ( '',0.2509803921568627416, 0.2509803921568627416, 0.2509803921568627416 ) ;
#158 = DIRECTION ( 'NONE',  ( 0.000000000000000000, 0.000000000000000000, 1.000000000000000000 ) ) ;
#159 = VERTEX_POINT ( 'NONE', #252 ) ;
#160 = ADVANCED_FACE ( 'NONE', ( #236 ), #393, .F. ) ;
#161 = EDGE_CURVE ( 'NONE', #69, #566, #828, .T. ) ;
#162 =( NAMED_UNIT ( * ) PLANE_ANGLE_UNIT ( ) SI_UNIT ( $, .RADIAN. ) );
#163 = PRESENTATION_LAYER_ASSIGNMENT (  '', '', ( #80 ) ) ;
#164 = DIRECTION ( 'NONE',  ( -1.000000000000000000, 4.404571325722361763E-17, -0.000000000000000000 ) ) ;
#165 = LINE ( 'NONE', #241, #215 ) ;
#166 = CARTESIAN_POINT ( 'NONE',  ( -1.800000000000000488, 0.09999999999999982514, -1.800000000000000044 ) ) ;
#167 = ORIENTED_EDGE ( 'NONE', *, *, #570, .F. ) ;
#168 = PRESENTATION_LAYER_ASSIGNMENT (  '', '', ( #457 ) ) ;
#169 = DIRECTION ( 'NONE',  ( 0.000000000000000000, 1.000000000000000000, 0.000000000000000000 ) ) ;
#170 = ORIENTED_EDGE ( 'NONE', *, *, #503, .T. ) ;
#171 = ADVANCED_FACE ( 'NONE', ( #447 ), #398, .T. ) ;
#172 = UNCERTAINTY_MEASURE_WITH_UNIT (LENGTH_MEASURE( 1.000000000000000082E-05 ), #604, 'distance_accuracy_value', 'NONE');
#173 = STYLED_ITEM ( 'NONE', ( #785 ), #658 ) ;
#174 = FILL_AREA_STYLE_COLOUR ( '', #927 ) ;
#175 = EDGE_CURVE ( 'NONE', #789, #813, #345, .T. ) ;
#176 = DIRECTION ( 'NONE',  ( -4.404571325722361763E-17, -1.000000000000000000, -0.000000000000000000 ) ) ;
#177 = ORIENTED_EDGE ( 'NONE', *, *, #287, .F. ) ;
#178 = VERTEX_POINT ( 'NONE', #182 ) ;
#179 = VERTEX_POINT ( 'NONE', #328 ) ;
#180 = AXIS2_PLACEMENT_3D ( 'NONE', #338, #212, #484 ) ;
#181 = SURFACE_SIDE_STYLE ('',( #75 ) ) ;
#182 = CARTESIAN_POINT ( 'NONE',  ( -1.605000000000000204, 0.09999999999999999167, -1.624999999999999778 ) ) ;
#183 =( NAMED_UNIT ( * ) PLANE_ANGLE_UNIT ( ) SI_UNIT ( $, .RADIAN. ) );
#184 =( LENGTH_UNIT ( ) NAMED_UNIT ( * ) SI_UNIT ( .MILLI., .METRE. ) );
#185 = PRESENTATION_STYLE_ASSIGNMENT (( #504 ) ) ;
#186 = SURFACE_STYLE_FILL_AREA ( #794 ) ;
#187 = LINE ( 'NONE', #614, #418 ) ;
#188 = VECTOR ( 'NONE', #482, 1000.000000000000000 ) ;
#189 = CARTESIAN_POINT ( 'NONE',  ( 1.799999999999999600, 0.09999999999999982514, 1.999999999999999556 ) ) ;
#190 = AXIS2_PLACEMENT_3D ( 'NONE', #156, #362, #441 ) ;
#191 = DIRECTION ( 'NONE',  ( 1.000000000000000000, 0.000000000000000000, -1.084202172485504681E-16 ) ) ;
#192 = VERTEX_POINT ( 'NONE', #836 ) ;
#193 = CARTESIAN_POINT ( 'NONE',  ( 0.7849999999999994760, 0.09999999999999986677, -1.625000000000000222 ) ) ;
#194 = ORIENTED_EDGE ( 'NONE', *, *, #824, .F. ) ;
#195 = VERTEX_POINT ( 'NONE', #684 ) ;
#196 = FILL_AREA_STYLE_COLOUR ( '', #157 ) ;
#197 = STYLED_ITEM ( 'NONE', ( #454 ), #635 ) ;
#198 = DIRECTION ( 'NONE',  ( -0.000000000000000000, -0.000000000000000000, 1.000000000000000000 ) ) ;
#199 =( NAMED_UNIT ( * ) SI_UNIT ( $, .STERADIAN. ) SOLID_ANGLE_UNIT ( ) );
#200 = EDGE_CURVE ( 'NONE', #55, #862, #586, .T. ) ;
#201 = UNCERTAINTY_MEASURE_WITH_UNIT (LENGTH_MEASURE( 1.000000000000000082E-05 ), #184, 'distance_accuracy_value', 'NONE');
#202 =( NAMED_UNIT ( * ) SI_UNIT ( $, .STERADIAN. ) SOLID_ANGLE_UNIT ( ) );
#203 = STYLED_ITEM ( 'NONE', ( #137 ), #171 ) ;
#204 = DIRECTION ( 'NONE',  ( 1.000000000000000000, -0.000000000000000000, 0.000000000000000000 ) ) ;
#205 = ORIENTED_EDGE ( 'NONE', *, *, #893, .T. ) ;
#206 = CARTESIAN_POINT ( 'NONE',  ( -1.605000000000000204, 0.09999999999999997780, -1.625000000000000000 ) ) ;
#207 = EDGE_CURVE ( 'NONE', #192, #55, #41, .T. ) ;
#208 = CARTESIAN_POINT ( 'NONE',  ( 4.054767377846514641E-16, 0.09999999999999989453, -1.525000000000000355 ) ) ;
#209 = CARTESIAN_POINT ( 'NONE',  ( -0.7850000000000003642, -5.421010862427522170E-17, -1.625000000000000222 ) ) ;
#210 = VECTOR ( 'NONE', #771, 1000.000000000000000 ) ;
#211 = FACE_OUTER_BOUND ( 'NONE', #295, .T. ) ;
#212 = DIRECTION ( 'NONE',  ( 1.000000000000000000, -4.404571325722361763E-17, -0.000000000000000000 ) ) ;
#213 = VECTOR ( 'NONE', #763, 1000.000000000000000 ) ;
#214 =( GEOMETRIC_REPRESENTATION_CONTEXT ( 3 ) GLOBAL_UNCERTAINTY_ASSIGNED_CONTEXT ( ( #218 ) ) GLOBAL_UNIT_ASSIGNED_CONTEXT ( ( #703, #231, #376 ) ) REPRESENTATION_CONTEXT ( 'NONE', 'WORKASPACE' ) );
#215 = VECTOR ( 'NONE', #665, 1000.000000000000000 ) ;
#216 = ORIENTED_EDGE ( 'NONE', *, *, #382, .F. ) ;
#217 = SURFACE_STYLE_USAGE ( .BOTH. , #146 ) ;
#218 = UNCERTAINTY_MEASURE_WITH_UNIT (LENGTH_MEASURE( 1.000000000000000082E-05 ), #703, 'distance_accuracy_value', 'NONE');
#219 = DIRECTION ( 'NONE',  ( -1.000000000000000000, 0.000000000000000000, 1.084202172485504681E-16 ) ) ;
#220 = FILL_AREA_STYLE ('',( #640 ) ) ;
#221 = PRESENTATION_STYLE_ASSIGNMENT (( #217 ) ) ;
#222 = PRESENTATION_STYLE_ASSIGNMENT (( #521 ) ) ;
#223 = EDGE_LOOP ( 'NONE', ( #437, #591, #500, #101 ) ) ;
#224 = AXIS2_PLACEMENT_3D ( 'NONE', #853, #702, #627 ) ;
#225 = ORIENTED_EDGE ( 'NONE', *, *, #114, .T. ) ;
#226 = ADVANCED_FACE ( 'NONE', ( #53 ), #530, .F. ) ;
#227 = VERTEX_POINT ( 'NONE', #536 ) ;
#228 = EDGE_CURVE ( 'NONE', #195, #653, #826, .T. ) ;
#229 = SURFACE_SIDE_STYLE ('',( #366 ) ) ;
#230 = UNCERTAINTY_MEASURE_WITH_UNIT (LENGTH_MEASURE( 1.000000000000000082E-05 ), #575, 'distance_accuracy_value', 'NONE');
#231 =( NAMED_UNIT ( * ) PLANE_ANGLE_UNIT ( ) SI_UNIT ( $, .RADIAN. ) );
#232 = PRESENTATION_LAYER_ASSIGNMENT (  '', '', ( #84 ) ) ;
#233 = DIRECTION ( 'NONE',  ( -1.000000000000000000, 3.305494428309464708E-17, 0.000000000000000000 ) ) ;
#234 = LINE ( 'NONE', #686, #341 ) ;
#235 = VECTOR ( 'NONE', #839, 1000.000000000000000 ) ;
#236 = FACE_OUTER_BOUND ( 'NONE', #755, .T. ) ;
#237 = ORIENTED_EDGE ( 'NONE', *, *, #371, .F. ) ;
#238 = SURFACE_SIDE_STYLE ('',( #66 ) ) ;
#239 = FACE_OUTER_BOUND ( 'NONE', #471, .T. ) ;
#240 = EDGE_CURVE ( 'NONE', #315, #195, #812, .T. ) ;
#241 = CARTESIAN_POINT ( 'NONE',  ( 1.999999999999999556, 3.100000000000000089, -2.000000000000000444 ) ) ;
#242 = PRESENTATION_LAYER_ASSIGNMENT (  '', '', ( #19 ) ) ;
#243 = VECTOR ( 'NONE', #404, 1000.000000000000000 ) ;
#244 = EDGE_CURVE ( 'NONE', #281, #55, #672, .T. ) ;
#245 = CYLINDRICAL_SURFACE ( 'NONE', #579, 0.2000000000000000944 ) ;
#246 = CARTESIAN_POINT ( 'NONE',  ( -2.000000000000000444, 3.100000000000000089, 1.800000000000000044 ) ) ;
#247 = EDGE_LOOP ( 'NONE', ( #598, #11, #283, #170, #459, #576, #848, #57 ) ) ;
#248 = VERTEX_POINT ( 'NONE', #420 ) ;
#249 = MECHANICAL_DESIGN_GEOMETRIC_PRESENTATION_REPRESENTATION (  '', ( #545 ), #558 ) ;
#250 = CARTESIAN_POINT ( 'NONE',  ( 0.7849999999999994760, -1.355252715606880543E-16, -1.625000000000000222 ) ) ;
#251 = ORIENTED_EDGE ( 'NONE', *, *, #465, .T. ) ;
#252 = CARTESIAN_POINT ( 'NONE',  ( 1.999999999999999556, 0.09999999999999982514, 1.799999999999999600 ) ) ;
#253 = PRODUCT_DEFINITION_FORMATION_WITH_SPECIFIED_SOURCE ( 'ANY', '', #906, .NOT_KNOWN. ) ;
#254 = DIRECTION ( 'NONE',  ( -1.000000000000000000, 6.776263578034399015E-17, 0.000000000000000000 ) ) ;
#255 = DIRECTION ( 'NONE',  ( 1.000000000000000000, -3.305494428309464708E-17, 0.000000000000000000 ) ) ;
#256 = PRESENTATION_STYLE_ASSIGNMENT (( #519 ) ) ;
#257 = CIRCLE ( 'NONE', #368, 0.1000000000000000056 ) ;
#258 = FILL_AREA_STYLE_COLOUR ( '', #660 ) ;
#259 = VECTOR ( 'NONE', #284, 1000.000000000000000 ) ;
#260 = FILL_AREA_STYLE_COLOUR ( '', #606 ) ;
#261 = ORIENTED_EDGE ( 'NONE', *, *, #503, .F. ) ;
#262 = FILL_AREA_STYLE ('',( #675 ) ) ;
#263 = ORIENTED_EDGE ( 'NONE', *, *, #752, .F. ) ;
#264 = AXIS2_PLACEMENT_3D ( 'NONE', #307, #722, #873 ) ;
#265 = DIRECTION ( 'NONE',  ( -1.000000000000000000, 4.404571325722361763E-17, 0.000000000000000000 ) ) ;
#266 = DIRECTION ( 'NONE',  ( -4.404571325722361763E-17, -1.000000000000000000, -0.000000000000000000 ) ) ;
#267 = FILL_AREA_STYLE ('',( #196 ) ) ;
#268 = PRESENTATION_LAYER_ASSIGNMENT (  '', '', ( #203 ) ) ;
#269 = COLOUR_RGB ( '',0.7921568627450980005, 0.8196078431372548767, 0.9333333333333333481 ) ;
#270 = DIRECTION ( 'NONE',  ( -1.000000000000000000, 4.404571325722361763E-17, -0.000000000000000000 ) ) ;
#271 = EDGE_CURVE ( 'NONE', #838, #179, #33, .T. ) ;
#272 = DIRECTION ( 'NONE',  ( -1.000000000000000000, 3.305494428309464708E-17, 2.644395542647572259E-16 ) ) ;
#273 = ORIENTED_EDGE ( 'NONE', *, *, #382, .T. ) ;
#274 = FILL_AREA_STYLE_COLOUR ( '', #535 ) ;
#275 = EDGE_LOOP ( 'NONE', ( #742, #139, #305, #580 ) ) ;
#276 = AXIS2_PLACEMENT_3D ( 'NONE', #677, #125, #837 ) ;
#277 = CARTESIAN_POINT ( 'NONE',  ( 0.7849999999999994760, -1.355252715606880543E-16, -1.525000000000000133 ) ) ;
#278 = UNCERTAINTY_MEASURE_WITH_UNIT (LENGTH_MEASURE( 1.000000000000000082E-05 ), #863, 'distance_accuracy_value', 'NONE');
#279 = SURFACE_SIDE_STYLE ('',( #343 ) ) ;
#280 = STYLED_ITEM ( 'NONE', ( #407 ), #355 ) ;
#281 = VERTEX_POINT ( 'NONE', #550 ) ;
#282 = EDGE_CURVE ( 'NONE', #248, #281, #421, .T. ) ;
#283 = ORIENTED_EDGE ( 'NONE', *, *, #781, .T. ) ;
#284 = DIRECTION ( 'NONE',  ( 1.000000000000000000, -3.305494428309464708E-17, -2.644395542647572259E-16 ) ) ;
#285 = ADVANCED_FACE ( 'NONE', ( #88 ), #842, .F. ) ;
#286 =( NAMED_UNIT ( * ) PLANE_ANGLE_UNIT ( ) SI_UNIT ( $, .RADIAN. ) );
#287 = EDGE_CURVE ( 'NONE', #543, #178, #76, .T. ) ;
#288 = VECTOR ( 'NONE', #654, 1000.000000000000000 ) ;
#289 = PRESENTATION_STYLE_ASSIGNMENT (( #934 ) ) ;
#290 = DIRECTION ( 'NONE',  ( 0.000000000000000000, 0.000000000000000000, -1.000000000000000000 ) ) ;
#291 = FILL_AREA_STYLE ('',( #782 ) ) ;
#292 = PRESENTATION_LAYER_ASSIGNMENT (  '', '', ( #197 ) ) ;
#293 = SURFACE_SIDE_STYLE ('',( #699 ) ) ;
#294 = ORIENTED_EDGE ( 'NONE', *, *, #752, .T. ) ;
#295 = EDGE_LOOP ( 'NONE', ( #294, #929, #225, #194 ) ) ;
#296 = SURFACE_SIDE_STYLE ('',( #7 ) ) ;
#297 = DIRECTION ( 'NONE',  ( -0.000000000000000000, 1.000000000000000000, -0.000000000000000000 ) ) ;
#298 = FILL_AREA_STYLE_COLOUR ( '', #477 ) ;
#299 = SURFACE_STYLE_USAGE ( .BOTH. , #229 ) ;
#300 = CIRCLE ( 'NONE', #664, 0.2000000000000000944 ) ;
#301 = LINE ( 'NONE', #397, #243 ) ;
#302 =( LENGTH_UNIT ( ) NAMED_UNIT ( * ) SI_UNIT ( .MILLI., .METRE. ) );
#303 = CIRCLE ( 'NONE', #719, 0.1000000000000000056 ) ;
#304 = CARTESIAN_POINT ( 'NONE',  ( -1.605000000000000204, 0.09999999999999997780, 1.624999999999999778 ) ) ;
#305 = ORIENTED_EDGE ( 'NONE', *, *, #910, .T. ) ;
#306 = AXIS2_PLACEMENT_3D ( 'NONE', #250, #596, #102 ) ;
#307 = CARTESIAN_POINT ( 'NONE',  ( -1.605000000000000204, -2.710505431213761085E-17, -1.625000000000000000 ) ) ;
#308 = CYLINDRICAL_SURFACE ( 'NONE', #105, 0.1000000000000000472 ) ;
#309 =( GEOMETRIC_REPRESENTATION_CONTEXT ( 3 ) GLOBAL_UNCERTAINTY_ASSIGNED_CONTEXT ( ( #230 ) ) GLOBAL_UNIT_ASSIGNED_CONTEXT ( ( #575, #926, #637 ) ) REPRESENTATION_CONTEXT ( 'NONE', 'WORKASPACE' ) );
#310 = ORIENTED_EDGE ( 'NONE', *, *, #443, .T. ) ;
#311 = ADVANCED_FACE ( 'NONE', ( #902 ), #245, .T. ) ;
#312 = PLANE ( 'NONE',  #741 ) ;
#313 = VERTEX_POINT ( 'NONE', #850 ) ;
#314 = CARTESIAN_POINT ( 'NONE',  ( -4.010639027228579788E-16, 0.09999999999999989453, 1.524999999999999245 ) ) ;
#315 = VERTEX_POINT ( 'NONE', #923 ) ;
#316 = CARTESIAN_POINT ( 'NONE',  ( 1.999999999999999556, 0.09999999999999982514, -1.800000000000000488 ) ) ;
#317 = FILL_AREA_STYLE ('',( #817 ) ) ;
#318 = DIRECTION ( 'NONE',  ( -4.404571325722361763E-17, -1.000000000000000000, -0.000000000000000000 ) ) ;
#319 = FACE_OUTER_BOUND ( 'NONE', #890, .T. ) ;
#320 = FACE_BOUND ( 'NONE', #520, .T. ) ;
#321 = FILL_AREA_STYLE ('',( #327 ) ) ;
#322 =( GEOMETRIC_REPRESENTATION_CONTEXT ( 3 ) GLOBAL_UNCERTAINTY_ASSIGNED_CONTEXT ( ( #172 ) ) GLOBAL_UNIT_ASSIGNED_CONTEXT ( ( #604, #831, #199 ) ) REPRESENTATION_CONTEXT ( 'NONE', 'WORKASPACE' ) );
#323 = CARTESIAN_POINT ( 'NONE',  ( 0.7849999999999994760, 0.09999999999999986677, 1.624999999999999556 ) ) ;
#324 = ORIENTED_EDGE ( 'NONE', *, *, #90, .F. ) ;
#325 = ORIENTED_EDGE ( 'NONE', *, *, #271, .F. ) ;
#326 = CARTESIAN_POINT ( 'NONE',  ( 1.999999999999999556, 3.100000000000000089, -2.000000000000000444 ) ) ;
#327 = FILL_AREA_STYLE_COLOUR ( '', #51 ) ;
#328 = CARTESIAN_POINT ( 'NONE',  ( 1.604999999999999538, -1.626303258728256651E-16, -1.524999999999999911 ) ) ;
#329 = DIRECTION ( 'NONE',  ( 0.000000000000000000, 1.000000000000000000, 0.000000000000000000 ) ) ;
#330 = DIRECTION ( 'NONE',  ( 1.000000000000000000, -4.404571325722361763E-17, -0.000000000000000000 ) ) ;
#331 = VECTOR ( 'NONE', #9, 1000.000000000000000 ) ;
#332 = VECTOR ( 'NONE', #385, 1000.000000000000000 ) ;
#333 = ORIENTED_EDGE ( 'NONE', *, *, #775, .F. ) ;
#334 =( NAMED_UNIT ( * ) PLANE_ANGLE_UNIT ( ) SI_UNIT ( $, .RADIAN. ) );
#335 =( GEOMETRIC_REPRESENTATION_CONTEXT ( 3 ) GLOBAL_UNCERTAINTY_ASSIGNED_CONTEXT ( ( #6 ) ) GLOBAL_UNIT_ASSIGNED_CONTEXT ( ( #36, #392, #887 ) ) REPRESENTATION_CONTEXT ( 'NONE', 'WORKASPACE' ) );
#336 = DIRECTION ( 'NONE',  ( 0.000000000000000000, 0.000000000000000000, -1.000000000000000000 ) ) ;
#337 = UNCERTAINTY_MEASURE_WITH_UNIT (LENGTH_MEASURE( 1.000000000000000082E-05 ), #505, 'distance_accuracy_value', 'NONE');
#338 = CARTESIAN_POINT ( 'NONE',  ( 1.604999999999999538, 0.09999999999999983902, 1.524999999999999689 ) ) ;
#339 = PRESENTATION_LAYER_ASSIGNMENT (  '', '', ( #545 ) ) ;
#340 = LINE ( 'NONE', #786, #537 ) ;
#341 = VECTOR ( 'NONE', #539, 1000.000000000000000 ) ;
#342 =( GEOMETRIC_REPRESENTATION_CONTEXT ( 3 ) GLOBAL_UNCERTAINTY_ASSIGNED_CONTEXT ( ( #278 ) ) GLOBAL_UNIT_ASSIGNED_CONTEXT ( ( #863, #435, #369 ) ) REPRESENTATION_CONTEXT ( 'NONE', 'WORKASPACE' ) );
#343 = SURFACE_STYLE_FILL_AREA ( #766 ) ;
#344 = SURFACE_STYLE_USAGE ( .BOTH. , #132 ) ;
#345 = LINE ( 'NONE', #761, #235 ) ;
#346 =( NAMED_UNIT ( * ) PLANE_ANGLE_UNIT ( ) SI_UNIT ( $, .RADIAN. ) );
#347 =( NAMED_UNIT ( * ) PLANE_ANGLE_UNIT ( ) SI_UNIT ( $, .RADIAN. ) );
#348 = ORIENTED_EDGE ( 'NONE', *, *, #915, .F. ) ;
#349 = STYLED_ITEM ( 'NONE', ( #185 ), #351 ) ;
#350 = SURFACE_STYLE_USAGE ( .BOTH. , #705 ) ;
#351 = ADVANCED_BREP_SHAPE_REPRESENTATION ( 'XAL4030-472MEC', ( #501, #190 ), #830 ) ;
#352 = FILL_AREA_STYLE_COLOUR ( '', #787 ) ;
#353 = VECTOR ( 'NONE', #46, 1000.000000000000000 ) ;
#354 = STYLED_ITEM ( 'NONE', ( #701 ), #655 ) ;
#355 = ADVANCED_FACE ( 'NONE', ( #619 ), #549, .T. ) ;
#356 = DIRECTION ( 'NONE',  ( 0.000000000000000000, 1.000000000000000000, 0.000000000000000000 ) ) ;
#357 = VECTOR ( 'NONE', #461, 1000.000000000000000 ) ;
#358 = CARTESIAN_POINT ( 'NONE',  ( 1.799999999999999600, 0.09999999999999983902, -2.000000000000000000 ) ) ;
#359 = ORIENTED_EDGE ( 'NONE', *, *, #428, .T. ) ;
#360 = EDGE_LOOP ( 'NONE', ( #388, #802, #801, #764 ) ) ;
#361 = MECHANICAL_DESIGN_GEOMETRIC_PRESENTATION_REPRESENTATION (  '', ( #349 ), #342 ) ;
#362 = DIRECTION ( 'NONE',  ( 0.000000000000000000, 0.000000000000000000, 1.000000000000000000 ) ) ;
#363 = FILL_AREA_STYLE ('',( #644 ) ) ;
#364 = UNCERTAINTY_MEASURE_WITH_UNIT (LENGTH_MEASURE( 1.000000000000000082E-05 ), #901, 'distance_accuracy_value', 'NONE');
#365 = SURFACE_SIDE_STYLE ('',( #670 ) ) ;
#366 = SURFACE_STYLE_FILL_AREA ( #439 ) ;
#367 = SURFACE_STYLE_FILL_AREA ( #528 ) ;
#368 = AXIS2_PLACEMENT_3D ( 'NONE', #841, #473, #683 ) ;
#369 =( NAMED_UNIT ( * ) SI_UNIT ( $, .STERADIAN. ) SOLID_ANGLE_UNIT ( ) );
#370 = ORIENTED_EDGE ( 'NONE', *, *, #371, .T. ) ;
#371 = EDGE_CURVE ( 'NONE', #862, #543, #738, .T. ) ;
#372 = ADVANCED_FACE ( 'NONE', ( #715 ), #629, .T. ) ;
#373 = CARTESIAN_POINT ( 'NONE',  ( 1.999999999999999556, 0.09999999999999982514, -2.000000000000000000 ) ) ;
#374 = EDGE_LOOP ( 'NONE', ( #115, #10, #333, #589 ) ) ;
#375 = PRESENTATION_LAYER_ASSIGNMENT (  '', '', ( #280 ) ) ;
#376 =( NAMED_UNIT ( * ) SI_UNIT ( $, .STERADIAN. ) SOLID_ANGLE_UNIT ( ) );
#377 = EDGE_CURVE ( 'NONE', #399, #728, #154, .T. ) ;
#378 = COLOUR_RGB ( '',0.7921568627450980005, 0.8196078431372548767, 0.9333333333333333481 ) ;
#379 = FACE_OUTER_BOUND ( 'NONE', #557, .T. ) ;
#380 = VECTOR ( 'NONE', #734, 1000.000000000000000 ) ;
#381 = ORIENTED_EDGE ( 'NONE', *, *, #882, .T. ) ;
#382 = EDGE_CURVE ( 'NONE', #315, #753, #340, .T. ) ;
#383 = CARTESIAN_POINT ( 'NONE',  ( 1.799999999999999600, 3.100000000000000089, 1.799999999999999600 ) ) ;
#384 =( LENGTH_UNIT ( ) NAMED_UNIT ( * ) SI_UNIT ( .MILLI., .METRE. ) );
#385 = DIRECTION ( 'NONE',  ( 0.000000000000000000, 1.000000000000000000, -0.000000000000000000 ) ) ;
#386 = PLANE ( 'NONE',  #522 ) ;
#387 = AXIS2_PLACEMENT_3D ( 'NONE', #405, #903, #476 ) ;
#388 = ORIENTED_EDGE ( 'NONE', *, *, #244, .F. ) ;
#389 = CARTESIAN_POINT ( 'NONE',  ( -2.000000000000000444, 3.100000000000000089, 2.000000000000000000 ) ) ;
#390 = CARTESIAN_POINT ( 'NONE',  ( 0.7849999999999996980, 0.09999999999999988065, -1.625000000000000444 ) ) ;
#391 =( NAMED_UNIT ( * ) SI_UNIT ( $, .STERADIAN. ) SOLID_ANGLE_UNIT ( ) );
#392 =( NAMED_UNIT ( * ) PLANE_ANGLE_UNIT ( ) SI_UNIT ( $, .RADIAN. ) );
#393 = PLANE ( 'NONE',  #884 ) ;
#394 = CIRCLE ( 'NONE', #100, 0.1000000000000000056 ) ;
#395 = CYLINDRICAL_SURFACE ( 'NONE', #276, 0.2000000000000000944 ) ;
#396 = PRESENTATION_STYLE_ASSIGNMENT (( #299 ) ) ;
#397 = CARTESIAN_POINT ( 'NONE',  ( 0.7849999999999994760, -1.355252715606880543E-16, -1.625000000000000222 ) ) ;
#398 = CYLINDRICAL_SURFACE ( 'NONE', #642, 0.2000000000000000944 ) ;
#399 = VERTEX_POINT ( 'NONE', #358 ) ;
#400 = AXIS2_PLACEMENT_3D ( 'NONE', #603, #176, #28 ) ;
#401 = ORIENTED_EDGE ( 'NONE', *, *, #25, .F. ) ;
#402 = ORIENTED_EDGE ( 'NONE', *, *, #428, .F. ) ;
#403 = FILL_AREA_STYLE ('',( #258 ) ) ;
#404 = DIRECTION ( 'NONE',  ( -0.000000000000000000, -0.000000000000000000, -1.000000000000000000 ) ) ;
#405 = CARTESIAN_POINT ( 'NONE',  ( -1.800000000000000488, 3.100000000000000089, 1.800000000000000044 ) ) ;
#406 = LINE ( 'NONE', #373, #628 ) ;
#407 = PRESENTATION_STYLE_ASSIGNMENT (( #769 ) ) ;
#408 = ORIENTED_EDGE ( 'NONE', *, *, #547, .F. ) ;
#409 = DIRECTION ( 'NONE',  ( 1.000000000000000000, -3.305494428309464708E-17, 2.644395542647572259E-16 ) ) ;
#410 = ORIENTED_EDGE ( 'NONE', *, *, #377, .T. ) ;
#411 = MECHANICAL_DESIGN_GEOMETRIC_PRESENTATION_REPRESENTATION (  '', ( #13 ), #779 ) ;
#412 = CARTESIAN_POINT ( 'NONE',  ( -0.7850000000000003642, -5.421010862427522170E-17, -1.625000000000000222 ) ) ;
#413 = DIRECTION ( 'NONE',  ( 0.000000000000000000, -1.000000000000000000, 0.000000000000000000 ) ) ;
#414 =( NAMED_UNIT ( * ) PLANE_ANGLE_UNIT ( ) SI_UNIT ( $, .RADIAN. ) );
#415 =( GEOMETRIC_REPRESENTATION_CONTEXT ( 3 ) GLOBAL_UNCERTAINTY_ASSIGNED_CONTEXT ( ( #745 ) ) GLOBAL_UNIT_ASSIGNED_CONTEXT ( ( #121, #610, #616 ) ) REPRESENTATION_CONTEXT ( 'NONE', 'WORKASPACE' ) );
#416 = UNCERTAINTY_MEASURE_WITH_UNIT (LENGTH_MEASURE( 1.000000000000000082E-05 ), #724, 'distance_accuracy_value', 'NONE');
#417 = COLOUR_RGB ( '',1.000000000000000000, 1.000000000000000000, 1.000000000000000000 ) ;
#418 = VECTOR ( 'NONE', #198, 1000.000000000000000 ) ;
#419 = CARTESIAN_POINT ( 'NONE',  ( 1.799999999999999600, 3.100000000000000089, -1.800000000000000488 ) ) ;
#420 = CARTESIAN_POINT ( 'NONE',  ( -1.605000000000000204, -2.710505431213761085E-17, -1.524999999999999911 ) ) ;
#421 = LINE ( 'NONE', #135, #259 ) ;
#422 = VECTOR ( 'NONE', #47, 1000.000000000000000 ) ;
#423 = ORIENTED_EDGE ( 'NONE', *, *, #90, .T. ) ;
#424 = ORIENTED_EDGE ( 'NONE', *, *, #726, .T. ) ;
#425 = SURFACE_STYLE_USAGE ( .BOTH. , #296 ) ;
#426 = ORIENTED_EDGE ( 'NONE', *, *, #240, .F. ) ;
#427 = SURFACE_STYLE_USAGE ( .BOTH. , #499 ) ;
#428 = EDGE_CURVE ( 'NONE', #227, #529, #751, .T. ) ;
#429 = ADVANCED_FACE ( 'NONE', ( #5 ), #141, .F. ) ;
#430 =( LENGTH_UNIT ( ) NAMED_UNIT ( * ) SI_UNIT ( .MILLI., .METRE. ) );
#431 = SURFACE_STYLE_FILL_AREA ( #861 ) ;
#432 = PRESENTATION_STYLE_ASSIGNMENT (( #525 ) ) ;
#433 = PRESENTATION_LAYER_ASSIGNMENT (  '', '', ( #173 ) ) ;
#434 = PRESENTATION_STYLE_ASSIGNMENT (( #344 ) ) ;
#435 =( NAMED_UNIT ( * ) PLANE_ANGLE_UNIT ( ) SI_UNIT ( $, .RADIAN. ) );
#436 = DIRECTION ( 'NONE',  ( 0.000000000000000000, -1.000000000000000000, 0.000000000000000000 ) ) ;
#437 = ORIENTED_EDGE ( 'NONE', *, *, #770, .F. ) ;
#438 = UNCERTAINTY_MEASURE_WITH_UNIT (LENGTH_MEASURE( 1.000000000000000082E-05 ), #60, 'distance_accuracy_value', 'NONE');
#439 = FILL_AREA_STYLE ('',( #713 ) ) ;
#440 = MECHANICAL_DESIGN_GEOMETRIC_PRESENTATION_REPRESENTATION (  '', ( #607 ), #322 ) ;
#441 = DIRECTION ( 'NONE',  ( 1.000000000000000000, 0.000000000000000000, 0.000000000000000000 ) ) ;
#442 =( LENGTH_UNIT ( ) NAMED_UNIT ( * ) SI_UNIT ( .MILLI., .METRE. ) );
#443 = EDGE_CURVE ( 'NONE', #862, #248, #99, .T. ) ;
#444 = LINE ( 'NONE', #15, #288 ) ;
#445 = DIRECTION ( 'NONE',  ( -0.000000000000000000, -0.000000000000000000, 1.000000000000000000 ) ) ;
#446 = SURFACE_STYLE_FILL_AREA ( #140 ) ;
#447 = FACE_OUTER_BOUND ( 'NONE', #757, .T. ) ;
#448 = ORIENTED_EDGE ( 'NONE', *, *, #816, .T. ) ;
#449 = CARTESIAN_POINT ( 'NONE',  ( -0.7850000000000003642, 0.09999999999999995004, -1.625000000000000222 ) ) ;
#450 = UNCERTAINTY_MEASURE_WITH_UNIT (LENGTH_MEASURE( 1.000000000000000082E-05 ), #846, 'distance_accuracy_value', 'NONE');
#451 = DIRECTION ( 'NONE',  ( 0.000000000000000000, 1.000000000000000000, 0.000000000000000000 ) ) ;
#452 = STYLED_ITEM ( 'NONE', ( #432 ), #700 ) ;
#453 = CARTESIAN_POINT ( 'NONE',  ( -1.800000000000000488, 3.100000000000000089, 2.000000000000000000 ) ) ;
#454 = PRESENTATION_STYLE_ASSIGNMENT (( #805 ) ) ;
#455 = CYLINDRICAL_SURFACE ( 'NONE', #844, 0.1000000000000000472 ) ;
#456 = COLOUR_RGB ( '',1.000000000000000000, 1.000000000000000000, 1.000000000000000000 ) ;
#457 = STYLED_ITEM ( 'NONE', ( #221 ), #429 ) ;
#458 = CARTESIAN_POINT ( 'NONE',  ( 4.054767377846511683E-16, 0.09999999999999992228, 1.524999999999999245 ) ) ;
#459 = ORIENTED_EDGE ( 'NONE', *, *, #859, .T. ) ;
#460 = CARTESIAN_POINT ( 'NONE',  ( 0.7849999999999994760, 0.09999999999999986677, -1.525000000000000133 ) ) ;
#461 = DIRECTION ( 'NONE',  ( -0.000000000000000000, -0.000000000000000000, 1.000000000000000000 ) ) ;
#462 =( LENGTH_UNIT ( ) NAMED_UNIT ( * ) SI_UNIT ( .MILLI., .METRE. ) );
#463 = PRESENTATION_LAYER_ASSIGNMENT (  '', '', ( #23 ) ) ;
#464 = SURFACE_SIDE_STYLE ('',( #563 ) ) ;
#465 = EDGE_CURVE ( 'NONE', #776, #399, #657, .T. ) ;
#466 = VECTOR ( 'NONE', #878, 1000.000000000000000 ) ;
#467 = COLOUR_RGB ( '',0.2509803921568627416, 0.2509803921568627416, 0.2509803921568627416 ) ;
#468 = AXIS2_PLACEMENT_3D ( 'NONE', #166, #318, #254 ) ;
#469 = CARTESIAN_POINT ( 'NONE',  ( 0.7849999999999994760, -1.355252715606880543E-16, 1.524999999999999467 ) ) ;
#470 = EDGE_LOOP ( 'NONE', ( #540, #731, #829, #894 ) ) ;
#471 = EDGE_LOOP ( 'NONE', ( #426, #273, #577, #905 ) ) ;
#472 = STYLED_ITEM ( 'NONE', ( #588 ), #26 ) ;
#473 = DIRECTION ( 'NONE',  ( 1.000000000000000000, -4.404571325722361763E-17, -0.000000000000000000 ) ) ;
#474 = DIRECTION ( 'NONE',  ( 1.084202172485504681E-16, -0.000000000000000000, 1.000000000000000000 ) ) ;
#475 = CARTESIAN_POINT ( 'NONE',  ( 1.799999999999999600, 3.100000000000000089, -2.000000000000000444 ) ) ;
#476 = DIRECTION ( 'NONE',  ( 0.000000000000000000, 0.000000000000000000, 1.000000000000000000 ) ) ;
#477 = COLOUR_RGB ( '',0.2509803921568627416, 0.2509803921568627416, 0.2509803921568627416 ) ;
#478 = CIRCLE ( 'NONE', #400, 0.2000000000000000944 ) ;
#479 = CARTESIAN_POINT ( 'NONE',  ( -1.605000000000000204, 0.09999999999999997780, -1.524999999999999911 ) ) ;
#480 = ORIENTED_EDGE ( 'NONE', *, *, #666, .F. ) ;
#481 = PRESENTATION_LAYER_ASSIGNMENT (  '', '', ( #452 ) ) ;
#482 = DIRECTION ( 'NONE',  ( -0.000000000000000000, -0.000000000000000000, -1.000000000000000000 ) ) ;
#483 = DIRECTION ( 'NONE',  ( -1.000000000000000000, 4.404571325722361763E-17, 0.000000000000000000 ) ) ;
#484 = DIRECTION ( 'NONE',  ( 0.000000000000000000, -1.000000000000000000, 0.000000000000000000 ) ) ;
#485 = AXIS2_PLACEMENT_3D ( 'NONE', #754, #265, #113 ) ;
#486 = DIRECTION ( 'NONE',  ( 0.000000000000000000, 0.000000000000000000, 1.000000000000000000 ) ) ;
#487 = UNCERTAINTY_MEASURE_WITH_UNIT (LENGTH_MEASURE( 1.000000000000000082E-05 ), #662, 'distance_accuracy_value', 'NONE');
#488 = CARTESIAN_POINT ( 'NONE',  ( -1.800000000000000488, 3.100000000000000089, -2.000000000000000000 ) ) ;
#489 = SURFACE_SIDE_STYLE ('',( #446 ) ) ;
#490 = CARTESIAN_POINT ( 'NONE',  ( 1.799999999999999600, 3.100000000000000089, 1.999999999999999556 ) ) ;
#491 = FILL_AREA_STYLE_COLOUR ( '', #924 ) ;
#492 = MECHANICAL_DESIGN_GEOMETRIC_PRESENTATION_REPRESENTATION (  '', ( #815 ), #129 ) ;
#493 = LINE ( 'NONE', #631, #856 ) ;
#494 = DIRECTION ( 'NONE',  ( -4.404571325722361763E-17, -1.000000000000000000, -0.000000000000000000 ) ) ;
#495 = COLOUR_RGB ( '',1.000000000000000000, 1.000000000000000000, 1.000000000000000000 ) ;
#496 = ADVANCED_FACE ( 'NONE', ( #858 ), #790, .F. ) ;
#497 = CARTESIAN_POINT ( 'NONE',  ( 1.999999999999999556, 3.100000000000000089, 1.999999999999999556 ) ) ;
#498 = EDGE_LOOP ( 'NONE', ( #381, #261, #777, #402 ) ) ;
#499 = SURFACE_SIDE_STYLE ('',( #431 ) ) ;
#500 = ORIENTED_EDGE ( 'NONE', *, *, #791, .F. ) ;
#501 = MANIFOLD_SOLID_BREP ( 'Fillet2', #12 ) ;
#502 =( LENGTH_UNIT ( ) NAMED_UNIT ( * ) SI_UNIT ( .MILLI., .METRE. ) );
#503 = EDGE_CURVE ( 'NONE', #104, #159, #406, .T. ) ;
#504 = SURFACE_STYLE_USAGE ( .BOTH. , #293 ) ;
#505 =( LENGTH_UNIT ( ) NAMED_UNIT ( * ) SI_UNIT ( .MILLI., .METRE. ) );
#506 = CIRCLE ( 'NONE', #647, 0.2000000000000000944 ) ;
#507 = AXIS2_PLACEMENT_3D ( 'NONE', #56, #266, #548 ) ;
#508 = APPLICATION_PROTOCOL_DEFINITION ( 'draft international standard', 'automotive_design', 1998, #582 ) ;
#509 =( NAMED_UNIT ( * ) PLANE_ANGLE_UNIT ( ) SI_UNIT ( $, .RADIAN. ) );
#510 = SURFACE_STYLE_FILL_AREA ( #267 ) ;
#511 =( NAMED_UNIT ( * ) SI_UNIT ( $, .STERADIAN. ) SOLID_ANGLE_UNIT ( ) );
#512 = SURFACE_STYLE_USAGE ( .BOTH. , #727 ) ;
#513 = ORIENTED_EDGE ( 'NONE', *, *, #465, .F. ) ;
#514 = UNCERTAINTY_MEASURE_WITH_UNIT (LENGTH_MEASURE( 1.000000000000000082E-05 ), #106, 'distance_accuracy_value', 'NONE');
#515 = ADVANCED_FACE ( 'NONE', ( #597 ), #312, .F. ) ;
#516 = FACE_OUTER_BOUND ( 'NONE', #247, .T. ) ;
#517 = AXIS2_PLACEMENT_3D ( 'NONE', #553, #72, #290 ) ;
#518 = EDGE_LOOP ( 'NONE', ( #732, #216, #661, #708 ) ) ;
#519 = SURFACE_STYLE_USAGE ( .BOTH. , #238 ) ;
#520 = EDGE_LOOP ( 'NONE', ( #177, #94, #167, #408 ) ) ;
#521 = SURFACE_STYLE_USAGE ( .BOTH. , #181 ) ;
#522 = AXIS2_PLACEMENT_3D ( 'NONE', #389, #204, #49 ) ;
#523 = DIRECTION ( 'NONE',  ( 0.000000000000000000, 1.000000000000000000, 0.000000000000000000 ) ) ;
#524 = STYLED_ITEM ( 'NONE', ( #916 ), #372 ) ;
#525 = SURFACE_STYLE_USAGE ( .BOTH. , #825 ) ;
#526 = ORIENTED_EDGE ( 'NONE', *, *, #567, .T. ) ;
#527 = PRESENTATION_LAYER_ASSIGNMENT (  '', '', ( #472 ) ) ;
#528 = FILL_AREA_STYLE ('',( #885 ) ) ;
#529 = VERTEX_POINT ( 'NONE', #581 ) ;
#530 = PLANE ( 'NONE',  #485 ) ;
#531 =( NAMED_UNIT ( * ) SI_UNIT ( $, .STERADIAN. ) SOLID_ANGLE_UNIT ( ) );
#532 = CARTESIAN_POINT ( 'NONE',  ( -4.043693971511674940E-16, -1.084202172485504311E-16, 1.524999999999999245 ) ) ;
#533 = CARTESIAN_POINT ( 'NONE',  ( -1.800000000000000488, 3.100000000000000089, -2.000000000000000000 ) ) ;
#534 = VECTOR ( 'NONE', #729, 1000.000000000000000 ) ;
#535 = COLOUR_RGB ( '',0.2509803921568627416, 0.2509803921568627416, 0.2509803921568627416 ) ;
#536 = CARTESIAN_POINT ( 'NONE',  ( 1.999999999999999556, 3.100000000000000089, 1.799999999999999600 ) ) ;
#537 = VECTOR ( 'NONE', #79, 1000.000000000000000 ) ;
#538 = AXIS2_PLACEMENT_3D ( 'NONE', #479, #270, #329 ) ;
#539 = DIRECTION ( 'NONE',  ( -1.000000000000000000, 3.305494428309464708E-17, 2.644395542647571766E-16 ) ) ;
#540 = ORIENTED_EDGE ( 'NONE', *, *, #775, .T. ) ;
#541 = SURFACE_STYLE_USAGE ( .BOTH. , #898 ) ;
#542 = EDGE_LOOP ( 'NONE', ( #554, #693, #876, #370 ) ) ;
#543 = VERTEX_POINT ( 'NONE', #304 ) ;
#544 = CARTESIAN_POINT ( 'NONE',  ( -1.605000000000000204, -2.826197736204591284E-17, 1.524999999999999689 ) ) ;
#545 = STYLED_ITEM ( 'NONE', ( #434 ), #311 ) ;
#546 = CARTESIAN_POINT ( 'NONE',  ( 4.021712433563419489E-16, -1.084202172485504681E-16, -1.525000000000000355 ) ) ;
#547 = EDGE_CURVE ( 'NONE', #178, #720, #855, .T. ) ;
#548 = DIRECTION ( 'NONE',  ( -1.000000000000000000, 6.776263578034399015E-17, 0.000000000000000000 ) ) ;
#549 = CYLINDRICAL_SURFACE ( 'NONE', #615, 0.1000000000000000472 ) ;
#550 = CARTESIAN_POINT ( 'NONE',  ( -0.7850000000000003642, -5.421010862427522170E-17, -1.525000000000000133 ) ) ;
#551 = ORIENTED_EDGE ( 'NONE', *, *, #781, .F. ) ;
#552 = MECHANICAL_DESIGN_GEOMETRIC_PRESENTATION_REPRESENTATION (  '', ( #197 ), #933 ) ;
#553 = CARTESIAN_POINT ( 'NONE',  ( 1.799999999999999600, 3.100000000000000089, 1.799999999999999600 ) ) ;
#554 = ORIENTED_EDGE ( 'NONE', *, *, #287, .T. ) ;
#555 = CARTESIAN_POINT ( 'NONE',  ( -1.800000000000000488, 3.100000000000000089, 1.800000000000000044 ) ) ;
#556 = EDGE_CURVE ( 'NONE', #643, #227, #300, .T. ) ;
#557 = EDGE_LOOP ( 'NONE', ( #551, #513, #695, #401 ) ) ;
#558 =( GEOMETRIC_REPRESENTATION_CONTEXT ( 3 ) GLOBAL_UNCERTAINTY_ASSIGNED_CONTEXT ( ( #438 ) ) GLOBAL_UNIT_ASSIGNED_CONTEXT ( ( #60, #347, #202 ) ) REPRESENTATION_CONTEXT ( 'NONE', 'WORKASPACE' ) );
#559 = FILL_AREA_STYLE ('',( #68 ) ) ;
#560 = LINE ( 'NONE', #832, #353 ) ;
#561 = VECTOR ( 'NONE', #623, 1000.000000000000000 ) ;
#562 = DIRECTION ( 'NONE',  ( -1.000000000000000000, 6.776263578034399015E-17, 0.000000000000000000 ) ) ;
#563 = SURFACE_STYLE_FILL_AREA ( #739 ) ;
#564 = CARTESIAN_POINT ( 'NONE',  ( 1.999999999999999556, 3.100000000000000089, 1.999999999999999556 ) ) ;
#565 = MECHANICAL_DESIGN_GEOMETRIC_PRESENTATION_REPRESENTATION (  '', ( #685 ), #857 ) ;
#566 = VERTEX_POINT ( 'NONE', #453 ) ;
#567 = EDGE_CURVE ( 'NONE', #907, #315, #638, .T. ) ;
#568 = MECHANICAL_DESIGN_GEOMETRIC_PRESENTATION_REPRESENTATION (  '', ( #793 ), #108 ) ;
#569 = CARTESIAN_POINT ( 'NONE',  ( -2.000000000000000444, 0.1000000000000000056, -2.000000000000000000 ) ) ;
#570 = EDGE_CURVE ( 'NONE', #720, #192, #444, .T. ) ;
#571 =( NAMED_UNIT ( * ) PLANE_ANGLE_UNIT ( ) SI_UNIT ( $, .RADIAN. ) );
#572 = DIRECTION ( 'NONE',  ( 0.000000000000000000, 0.000000000000000000, 1.000000000000000000 ) ) ;
#573 = MECHANICAL_DESIGN_GEOMETRIC_PRESENTATION_REPRESENTATION (  '', ( #80 ), #834 ) ;
#574 = VECTOR ( 'NONE', #1, 1000.000000000000000 ) ;
#575 =( LENGTH_UNIT ( ) NAMED_UNIT ( * ) SI_UNIT ( .MILLI., .METRE. ) );
#576 = ORIENTED_EDGE ( 'NONE', *, *, #175, .F. ) ;
#577 = ORIENTED_EDGE ( 'NONE', *, *, #633, .F. ) ;
#578 = CARTESIAN_POINT ( 'NONE',  ( -1.605000000000000204, 0.09999999999999997780, 1.524999999999999689 ) ) ;
#579 = AXIS2_PLACEMENT_3D ( 'NONE', #555, #852, #52 ) ;
#580 = ORIENTED_EDGE ( 'NONE', *, *, #874, .F. ) ;
#581 = CARTESIAN_POINT ( 'NONE',  ( 1.999999999999999556, 3.100000000000000089, -1.800000000000000488 ) ) ;
#582 = APPLICATION_CONTEXT ( 'automotive_design' ) ;
#583 = FILL_AREA_STYLE ('',( #590 ) ) ;
#584 = VECTOR ( 'NONE', #413, 1000.000000000000000 ) ;
#585 = VECTOR ( 'NONE', #120, 1000.000000000000000 ) ;
#586 = LINE ( 'NONE', #544, #8 ) ;
#587 = DIRECTION ( 'NONE',  ( 3.305494428309464708E-17, 1.000000000000000000, -0.000000000000000000 ) ) ;
#588 = PRESENTATION_STYLE_ASSIGNMENT (( #671 ) ) ;
#589 = ORIENTED_EDGE ( 'NONE', *, *, #633, .T. ) ;
#590 = FILL_AREA_STYLE_COLOUR ( '', #795 ) ;
#591 = ORIENTED_EDGE ( 'NONE', *, *, #547, .T. ) ;
#592 = PRESENTATION_LAYER_ASSIGNMENT (  '', '', ( #896 ) ) ;
#593 = CARTESIAN_POINT ( 'NONE',  ( 0.7849999999999994760, 0.09999999999999986677, 1.524999999999999467 ) ) ;
#594 = LINE ( 'NONE', #490, #143 ) ;
#595 = MECHANICAL_DESIGN_GEOMETRIC_PRESENTATION_REPRESENTATION (  '', ( #524 ), #872 ) ;
#596 = DIRECTION ( 'NONE',  ( 1.000000000000000000, -4.404571325722361763E-17, 0.000000000000000000 ) ) ;
#597 = FACE_OUTER_BOUND ( 'NONE', #470, .T. ) ;
#598 = ORIENTED_EDGE ( 'NONE', *, *, #44, .T. ) ;
#599 =( NAMED_UNIT ( * ) SI_UNIT ( $, .STERADIAN. ) SOLID_ANGLE_UNIT ( ) );
#600 = UNCERTAINTY_MEASURE_WITH_UNIT (LENGTH_MEASURE( 1.000000000000000082E-05 ), #911, 'distance_accuracy_value', 'NONE');
#601 =( NAMED_UNIT ( * ) PLANE_ANGLE_UNIT ( ) SI_UNIT ( $, .RADIAN. ) );
#602 = PRESENTATION_LAYER_ASSIGNMENT (  '', '', ( #13 ) ) ;
#603 = CARTESIAN_POINT ( 'NONE',  ( -1.800000000000000488, 0.09999999999999982514, 1.800000000000000044 ) ) ;
#604 =( LENGTH_UNIT ( ) NAMED_UNIT ( * ) SI_UNIT ( .MILLI., .METRE. ) );
#605 = PRESENTATION_STYLE_ASSIGNMENT (( #427 ) ) ;
#606 = COLOUR_RGB ( '',0.2509803921568627416, 0.2509803921568627416, 0.2509803921568627416 ) ;
#607 = STYLED_ITEM ( 'NONE', ( #717 ), #226 ) ;
#608 = DIRECTION ( 'NONE',  ( -1.000000000000000000, 4.404571325722361763E-17, -0.000000000000000000 ) ) ;
#609 = SURFACE_STYLE_FILL_AREA ( #262 ) ;
#610 =( NAMED_UNIT ( * ) PLANE_ANGLE_UNIT ( ) SI_UNIT ( $, .RADIAN. ) );
#611 = LINE ( 'NONE', #818, #357 ) ;
#612 = EDGE_LOOP ( 'NONE', ( #423, #740, #634, #932, #92, #45, #359, #205 ) ) ;
#613 = MECHANICAL_DESIGN_GEOMETRIC_PRESENTATION_REPRESENTATION (  '', ( #472 ), #803 ) ;
#614 = CARTESIAN_POINT ( 'NONE',  ( -2.000000000000000444, 3.100000000000000089, 2.000000000000000000 ) ) ;
#615 = AXIS2_PLACEMENT_3D ( 'NONE', #208, #409, #692 ) ;
#616 =( NAMED_UNIT ( * ) SI_UNIT ( $, .STERADIAN. ) SOLID_ANGLE_UNIT ( ) );
#617 = SURFACE_STYLE_FILL_AREA ( #59 ) ;
#618 = DIRECTION ( 'NONE',  ( 0.000000000000000000, -1.000000000000000000, 0.000000000000000000 ) ) ;
#619 = FACE_OUTER_BOUND ( 'NONE', #20, .T. ) ;
#620 = PRESENTATION_LAYER_ASSIGNMENT (  '', '', ( #354 ) ) ;
#621 = CARTESIAN_POINT ( 'NONE',  ( -1.605000000000000204, -2.710505431213761085E-17, 1.524999999999999689 ) ) ;
#622 = ORIENTED_EDGE ( 'NONE', *, *, #240, .T. ) ;
#623 = DIRECTION ( 'NONE',  ( 1.000000000000000000, -3.305494428309464708E-17, 2.644395542647572259E-16 ) ) ;
#624 = EDGE_LOOP ( 'NONE', ( #875, #849, #526, #622 ) ) ;
#625 = CARTESIAN_POINT ( 'NONE',  ( -1.800000000000000488, 0.09999999999999999167, 2.000000000000000000 ) ) ;
#626 = AXIS2_PLACEMENT_3D ( 'NONE', #412, #483, #138 ) ;
#627 = DIRECTION ( 'NONE',  ( 0.000000000000000000, 0.000000000000000000, 1.000000000000000000 ) ) ;
#628 = VECTOR ( 'NONE', #445, 1000.000000000000000 ) ;
#629 = PLANE ( 'NONE',  #735 ) ;
#630 = ADVANCED_FACE ( 'NONE', ( #64 ), #98, .F. ) ;
#631 = CARTESIAN_POINT ( 'NONE',  ( -1.800000000000000488, 3.100000000000000089, 2.000000000000000000 ) ) ;
#632 = VERTEX_POINT ( 'NONE', #879 ) ;
#633 = EDGE_CURVE ( 'NONE', #653, #753, #394, .T. ) ;
#634 = ORIENTED_EDGE ( 'NONE', *, *, #824, .T. ) ;
#635 = ADVANCED_FACE ( 'NONE', ( #319 ), #733, .T. ) ;
#636 = UNCERTAINTY_MEASURE_WITH_UNIT (LENGTH_MEASURE( 1.000000000000000082E-05 ), #462, 'distance_accuracy_value', 'NONE');
#637 =( NAMED_UNIT ( * ) SI_UNIT ( $, .STERADIAN. ) SOLID_ANGLE_UNIT ( ) );
#638 = LINE ( 'NONE', #21, #534 ) ;
#639 = SURFACE_STYLE_FILL_AREA ( #321 ) ;
#640 = FILL_AREA_STYLE_COLOUR ( '', #378 ) ;
#641 = CARTESIAN_POINT ( 'NONE',  ( 1.999999999999999556, 3.100000000000000089, 1.999999999999999556 ) ) ;
#642 = AXIS2_PLACEMENT_3D ( 'NONE', #50, #827, #336 ) ;
#643 = VERTEX_POINT ( 'NONE', #659 ) ;
#644 = FILL_AREA_STYLE_COLOUR ( '', #714 ) ;
#645 =( NAMED_UNIT ( * ) SI_UNIT ( $, .STERADIAN. ) SOLID_ANGLE_UNIT ( ) );
#646 = DIRECTION ( 'NONE',  ( -1.084202172485504681E-16, 0.000000000000000000, -1.000000000000000000 ) ) ;
#647 = AXIS2_PLACEMENT_3D ( 'NONE', #419, #356, #486 ) ;
#648 = PRODUCT_CONTEXT ( 'NONE', #582, 'mechanical' ) ;
#649 = COLOUR_RGB ( '',1.000000000000000000, 1.000000000000000000, 1.000000000000000000 ) ;
#650 = CIRCLE ( 'NONE', #538, 0.1000000000000000056 ) ;
#651 = PRESENTATION_LAYER_ASSIGNMENT (  '', '', ( #685 ) ) ;
#652 = PRODUCT_DEFINITION_SHAPE ( 'NONE', 'NONE',  #95 ) ;
#653 = VERTEX_POINT ( 'NONE', #469 ) ;
#654 = DIRECTION ( 'NONE',  ( 0.000000000000000000, 0.000000000000000000, 1.000000000000000000 ) ) ;
#655 = ADVANCED_FACE ( 'NONE', ( #899 ), #744, .F. ) ;
#656 = STYLED_ITEM ( 'NONE', ( #145 ), #160 ) ;
#657 = LINE ( 'NONE', #854, #797 ) ;
#658 = ADVANCED_FACE ( 'NONE', ( #689 ), #144, .T. ) ;
#659 = CARTESIAN_POINT ( 'NONE',  ( 1.799999999999999600, 3.100000000000000089, 1.999999999999999556 ) ) ;
#660 = COLOUR_RGB ( '',0.2509803921568627416, 0.2509803921568627416, 0.2509803921568627416 ) ;
#661 = ORIENTED_EDGE ( 'NONE', *, *, #567, .F. ) ;
#662 =( LENGTH_UNIT ( ) NAMED_UNIT ( * ) SI_UNIT ( .MILLI., .METRE. ) );
#663 = ORIENTED_EDGE ( 'NONE', *, *, #114, .F. ) ;
#664 = AXIS2_PLACEMENT_3D ( 'NONE', #383, #451, #158 ) ;
#665 = DIRECTION ( 'NONE',  ( -1.000000000000000000, 0.000000000000000000, 1.084202172485504434E-16 ) ) ;
#666 = EDGE_CURVE ( 'NONE', #789, #151, #478, .T. ) ;
#667 = CARTESIAN_POINT ( 'NONE',  ( -0.7850000000000003642, 0.09999999999999995004, -1.625000000000000222 ) ) ;
#668 = PRESENTATION_LAYER_ASSIGNMENT (  '', '', ( #524 ) ) ;
#669 = SURFACE_SIDE_STYLE ('',( #367 ) ) ;
#670 = SURFACE_STYLE_FILL_AREA ( #150 ) ;
#671 = SURFACE_STYLE_USAGE ( .BOTH. , #464 ) ;
#672 = LINE ( 'NONE', #209, #213 ) ;
#673 = ORIENTED_EDGE ( 'NONE', *, *, #244, .T. ) ;
#674 =( NAMED_UNIT ( * ) PLANE_ANGLE_UNIT ( ) SI_UNIT ( $, .RADIAN. ) );
#675 = FILL_AREA_STYLE_COLOUR ( '', #691 ) ;
#676 = EDGE_CURVE ( 'NONE', #78, #838, #925, .T. ) ;
#677 = CARTESIAN_POINT ( 'NONE',  ( 1.799999999999999600, 3.100000000000000089, -1.800000000000000488 ) ) ;
#678 = CIRCLE ( 'NONE', #224, 0.2000000000000000944 ) ;
#679 =( GEOMETRIC_REPRESENTATION_CONTEXT ( 3 ) GLOBAL_UNCERTAINTY_ASSIGNED_CONTEXT ( ( #364 ) ) GLOBAL_UNIT_ASSIGNED_CONTEXT ( ( #901, #897, #835 ) ) REPRESENTATION_CONTEXT ( 'NONE', 'WORKASPACE' ) );
#680 = DIRECTION ( 'NONE',  ( 0.000000000000000000, -1.000000000000000000, 0.000000000000000000 ) ) ;
#681 = SURFACE_STYLE_FILL_AREA ( #403 ) ;
#682 = ORIENTED_EDGE ( 'NONE', *, *, #207, .F. ) ;
#683 = DIRECTION ( 'NONE',  ( 0.000000000000000000, -1.000000000000000000, 0.000000000000000000 ) ) ;
#684 = CARTESIAN_POINT ( 'NONE',  ( 1.604999999999999538, -1.626303258728256651E-16, 1.524999999999999689 ) ) ;
#685 = STYLED_ITEM ( 'NONE', ( #605 ), #496 ) ;
#686 = CARTESIAN_POINT ( 'NONE',  ( -0.7850000000000003642, 0.09999999999999995004, 1.624999999999999556 ) ) ;
#687 = SURFACE_SIDE_STYLE ('',( #796 ) ) ;
#688 = FILL_AREA_STYLE_COLOUR ( '', #456 ) ;
#689 = FACE_OUTER_BOUND ( 'NONE', #223, .T. ) ;
#690 = AXIS2_PLACEMENT_3D ( 'NONE', #641, #646, #219 ) ;
#691 = COLOUR_RGB ( '',1.000000000000000000, 1.000000000000000000, 1.000000000000000000 ) ;
#692 = DIRECTION ( 'NONE',  ( 2.644395542647572752E-16, 0.000000000000000000, -1.000000000000000000 ) ) ;
#693 = ORIENTED_EDGE ( 'NONE', *, *, #770, .T. ) ;
#694 = ORIENTED_EDGE ( 'NONE', *, *, #882, .F. ) ;
#695 = ORIENTED_EDGE ( 'NONE', *, *, #893, .F. ) ;
#696 =( NAMED_UNIT ( * ) SI_UNIT ( $, .STERADIAN. ) SOLID_ANGLE_UNIT ( ) );
#697 = MECHANICAL_DESIGN_GEOMETRIC_PRESENTATION_REPRESENTATION (  '', ( #656 ), #415 ) ;
#698 = DIRECTION ( 'NONE',  ( -0.000000000000000000, -0.000000000000000000, -1.000000000000000000 ) ) ;
#699 = SURFACE_STYLE_FILL_AREA ( #220 ) ;
#700 = ADVANCED_FACE ( 'NONE', ( #889 ), #455, .T. ) ;
#701 = PRESENTATION_STYLE_ASSIGNMENT (( #820 ) ) ;
#702 = DIRECTION ( 'NONE',  ( 0.000000000000000000, 1.000000000000000000, 0.000000000000000000 ) ) ;
#703 =( LENGTH_UNIT ( ) NAMED_UNIT ( * ) SI_UNIT ( .MILLI., .METRE. ) );
#704 = AXIS2_PLACEMENT_3D ( 'NONE', #497, #153, #572 ) ;
#705 = SURFACE_SIDE_STYLE ('',( #617 ) ) ;
#706 = ORIENTED_EDGE ( 'NONE', *, *, #868, .F. ) ;
#707 = ADVANCED_FACE ( 'NONE', ( #211 ), #386, .F. ) ;
#708 = ORIENTED_EDGE ( 'NONE', *, *, #152, .F. ) ;
#709 = CARTESIAN_POINT ( 'NONE',  ( -2.000000000000000444, 0.1000000000000000056, -2.000000000000000000 ) ) ;
#710 = DIRECTION ( 'NONE',  ( 0.000000000000000000, 1.000000000000000000, 0.000000000000000000 ) ) ;
#711 = MECHANICAL_DESIGN_GEOMETRIC_PRESENTATION_REPRESENTATION (  '', ( #354 ), #335 ) ;
#712 = APPLICATION_PROTOCOL_DEFINITION ( 'draft international standard', 'automotive_design', 1998, #2 ) ;
#713 = FILL_AREA_STYLE_COLOUR ( '', #269 ) ;
#714 = COLOUR_RGB ( '',0.2509803921568627416, 0.2509803921568627416, 0.2509803921568627416 ) ;
#715 = FACE_OUTER_BOUND ( 'NONE', #612, .T. ) ;
#716 = DIRECTION ( 'NONE',  ( 0.000000000000000000, -1.000000000000000000, 0.000000000000000000 ) ) ;
#717 = PRESENTATION_STYLE_ASSIGNMENT (( #38 ) ) ;
#718 =( NAMED_UNIT ( * ) SI_UNIT ( $, .STERADIAN. ) SOLID_ANGLE_UNIT ( ) );
#719 = AXIS2_PLACEMENT_3D ( 'NONE', #127, #118, #680 ) ;
#720 = VERTEX_POINT ( 'NONE', #667 ) ;
#721 = ORIENTED_EDGE ( 'NONE', *, *, #44, .F. ) ;
#722 = DIRECTION ( 'NONE',  ( 1.000000000000000000, -4.404571325722361763E-17, 0.000000000000000000 ) ) ;
#723 = ORIENTED_EDGE ( 'NONE', *, *, #282, .T. ) ;
#724 =( LENGTH_UNIT ( ) NAMED_UNIT ( * ) SI_UNIT ( .MILLI., .METRE. ) );
#725 = PRESENTATION_LAYER_ASSIGNMENT (  '', '', ( #793 ) ) ;
#726 = EDGE_CURVE ( 'NONE', #192, #543, #234, .T. ) ;
#727 = SURFACE_SIDE_STYLE ('',( #186 ) ) ;
#728 = VERTEX_POINT ( 'NONE', #765 ) ;
#729 = DIRECTION ( 'NONE',  ( 0.000000000000000000, 0.000000000000000000, 1.000000000000000000 ) ) ;
#730 = AXIS2_PLACEMENT_3D ( 'NONE', #768, #494, #562 ) ;
#731 = ORIENTED_EDGE ( 'NONE', *, *, #271, .T. ) ;
#732 = ORIENTED_EDGE ( 'NONE', *, *, #760, .F. ) ;
#733 = PLANE ( 'NONE',  #48 ) ;
#734 = DIRECTION ( 'NONE',  ( -0.000000000000000000, 1.000000000000000000, -0.000000000000000000 ) ) ;
#735 = AXIS2_PLACEMENT_3D ( 'NONE', #155, #865, #778 ) ;
#736 = DIRECTION ( 'NONE',  ( 1.000000000000000000, -3.305494428309464708E-17, -2.644395542647572259E-16 ) ) ;
#737 = CARTESIAN_POINT ( 'NONE',  ( -2.000000000000000444, 3.100000000000000089, 1.800000000000000044 ) ) ;
#738 = CIRCLE ( 'NONE', #767, 0.1000000000000000056 ) ;
#739 = FILL_AREA_STYLE ('',( #174 ) ) ;
#740 = ORIENTED_EDGE ( 'NONE', *, *, #868, .T. ) ;
#741 = AXIS2_PLACEMENT_3D ( 'NONE', #24, #587, #233 ) ;
#742 = ORIENTED_EDGE ( 'NONE', *, *, #915, .T. ) ;
#743 =( NAMED_UNIT ( * ) SI_UNIT ( $, .STERADIAN. ) SOLID_ANGLE_UNIT ( ) );
#744 = PLANE ( 'NONE',  #306 ) ;
#745 = UNCERTAINTY_MEASURE_WITH_UNIT (LENGTH_MEASURE( 1.000000000000000082E-05 ), #121, 'distance_accuracy_value', 'NONE');
#746 = PRESENTATION_LAYER_ASSIGNMENT (  '', '', ( #656 ) ) ;
#747 = DIRECTION ( 'NONE',  ( 2.644395542647572752E-16, 0.000000000000000000, 1.000000000000000000 ) ) ;
#748 = PRESENTATION_STYLE_ASSIGNMENT (( #512 ) ) ;
#749 = CIRCLE ( 'NONE', #730, 0.2000000000000000944 ) ;
#750 = SURFACE_SIDE_STYLE ('',( #609 ) ) ;
#751 = LINE ( 'NONE', #564, #774 ) ;
#752 = EDGE_CURVE ( 'NONE', #632, #313, #40, .T. ) ;
#753 = VERTEX_POINT ( 'NONE', #323 ) ;
#754 = CARTESIAN_POINT ( 'NONE',  ( 1.604999999999999538, -1.626303258728256651E-16, -1.625000000000000000 ) ) ;
#755 = EDGE_LOOP ( 'NONE', ( #251, #410, #448, #324 ) ) ;
#756 =( GEOMETRIC_REPRESENTATION_CONTEXT ( 3 ) GLOBAL_UNCERTAINTY_ASSIGNED_CONTEXT ( ( #600 ) ) GLOBAL_UNIT_ASSIGNED_CONTEXT ( ( #911, #772, #696 ) ) REPRESENTATION_CONTEXT ( 'NONE', 'WORKASPACE' ) );
#757 = EDGE_LOOP ( 'NONE', ( #721, #263, #706, #103 ) ) ;
#758 = FILL_AREA_STYLE ('',( #274 ) ) ;
#759 = SURFACE_SIDE_STYLE ('',( #510 ) ) ;
#760 = EDGE_CURVE ( 'NONE', #753, #78, #18, .T. ) ;
#761 = CARTESIAN_POINT ( 'NONE',  ( 1.999999999999999556, 0.09999999999999982514, 1.999999999999999556 ) ) ;
#762 = AXIS2_PLACEMENT_3D ( 'NONE', #883, #814, #747 ) ;
#763 = DIRECTION ( 'NONE',  ( 0.000000000000000000, 0.000000000000000000, 1.000000000000000000 ) ) ;
#764 = ORIENTED_EDGE ( 'NONE', *, *, #207, .T. ) ;
#765 = CARTESIAN_POINT ( 'NONE',  ( -1.800000000000000488, 0.09999999999999999167, -2.000000000000000000 ) ) ;
#766 = FILL_AREA_STYLE ('',( #688 ) ) ;
#767 = AXIS2_PLACEMENT_3D ( 'NONE', #578, #931, #710 ) ;
#768 = CARTESIAN_POINT ( 'NONE',  ( 1.799999999999999600, 0.09999999999999982514, 1.799999999999999600 ) ) ;
#769 = SURFACE_STYLE_USAGE ( .BOTH. , #279 ) ;
#770 = EDGE_CURVE ( 'NONE', #178, #248, #650, .T. ) ;
#771 = DIRECTION ( 'NONE',  ( 1.000000000000000000, -0.000000000000000000, -1.084202172485504434E-16 ) ) ;
#772 =( NAMED_UNIT ( * ) PLANE_ANGLE_UNIT ( ) SI_UNIT ( $, .RADIAN. ) );
#773 = LINE ( 'NONE', #62, #584 ) ;
#774 = VECTOR ( 'NONE', #3, 1000.000000000000000 ) ;
#775 = EDGE_CURVE ( 'NONE', #653, #838, #301, .T. ) ;
#776 = VERTEX_POINT ( 'NONE', #475 ) ;
#777 = ORIENTED_EDGE ( 'NONE', *, *, #25, .T. ) ;
#778 = DIRECTION ( 'NONE',  ( 0.000000000000000000, -0.000000000000000000, 1.000000000000000000 ) ) ;
#779 =( GEOMETRIC_REPRESENTATION_CONTEXT ( 3 ) GLOBAL_UNCERTAINTY_ASSIGNED_CONTEXT ( ( #31 ) ) GLOBAL_UNIT_ASSIGNED_CONTEXT ( ( #920, #346, #847 ) ) REPRESENTATION_CONTEXT ( 'NONE', 'WORKASPACE' ) );
#780 = ADVANCED_FACE ( 'NONE', ( #379 ), #395, .T. ) ;
#781 = EDGE_CURVE ( 'NONE', #399, #104, #900, .T. ) ;
#782 = FILL_AREA_STYLE_COLOUR ( '', #86 ) ;
#783 = VECTOR ( 'NONE', #128, 1000.000000000000000 ) ;
#784 = PLANE ( 'NONE',  #788 ) ;
#785 = PRESENTATION_STYLE_ASSIGNMENT (( #30 ) ) ;
#786 = CARTESIAN_POINT ( 'NONE',  ( 0.7849999999999994760, 0.09999999999999986677, 1.624999999999999556 ) ) ;
#787 = COLOUR_RGB ( '',1.000000000000000000, 1.000000000000000000, 1.000000000000000000 ) ;
#788 = AXIS2_PLACEMENT_3D ( 'NONE', #709, #87, #82 ) ;
#789 = VERTEX_POINT ( 'NONE', #625 ) ;
#790 = PLANE ( 'NONE',  #690 ) ;
#791 = EDGE_CURVE ( 'NONE', #281, #720, #257, .T. ) ;
#792 = CARTESIAN_POINT ( 'NONE',  ( -1.605000000000000204, -2.710505431213761085E-17, -1.625000000000000000 ) ) ;
#793 = STYLED_ITEM ( 'NONE', ( #289 ), #928 ) ;
#794 = FILL_AREA_STYLE ('',( #93 ) ) ;
#795 = COLOUR_RGB ( '',1.000000000000000000, 1.000000000000000000, 1.000000000000000000 ) ;
#796 = SURFACE_STYLE_FILL_AREA ( #758 ) ;
#797 = VECTOR ( 'NONE', #436, 1000.000000000000000 ) ;
#798 = PRESENTATION_STYLE_ASSIGNMENT (( #918 ) ) ;
#799 = FILL_AREA_STYLE_COLOUR ( '', #649 ) ;
#800 = MECHANICAL_DESIGN_GEOMETRIC_PRESENTATION_REPRESENTATION (  '', ( #452 ), #866 ) ;
#801 = ORIENTED_EDGE ( 'NONE', *, *, #570, .T. ) ;
#802 = ORIENTED_EDGE ( 'NONE', *, *, #791, .T. ) ;
#803 =( GEOMETRIC_REPRESENTATION_CONTEXT ( 3 ) GLOBAL_UNCERTAINTY_ASSIGNED_CONTEXT ( ( #131 ) ) GLOBAL_UNIT_ASSIGNED_CONTEXT ( ( #384, #891, #743 ) ) REPRESENTATION_CONTEXT ( 'NONE', 'WORKASPACE' ) );
#804 =( GEOMETRIC_REPRESENTATION_CONTEXT ( 3 ) GLOBAL_UNCERTAINTY_ASSIGNED_CONTEXT ( ( #450 ) ) GLOBAL_UNIT_ASSIGNED_CONTEXT ( ( #846, #414, #922 ) ) REPRESENTATION_CONTEXT ( 'NONE', 'WORKASPACE' ) );
#805 = SURFACE_STYLE_USAGE ( .BOTH. , #810 ) ;
#806 = UNCERTAINTY_MEASURE_WITH_UNIT (LENGTH_MEASURE( 1.000000000000000082E-05 ), #867, 'distance_accuracy_value', 'NONE');
#807 = SURFACE_STYLE_FILL_AREA ( #317 ) ;
#808 = EDGE_CURVE ( 'NONE', #179, #195, #560, .T. ) ;
#809 = PRESENTATION_STYLE_ASSIGNMENT (( #913 ) ) ;
#810 = SURFACE_SIDE_STYLE ('',( #133 ) ) ;
#811 = CARTESIAN_POINT ( 'NONE',  ( -0.7850000000000003642, -5.421010862427522170E-17, 1.524999999999999467 ) ) ;
#812 = CIRCLE ( 'NONE', #180, 0.1000000000000000056 ) ;
#813 = VERTEX_POINT ( 'NONE', #189 ) ;
#814 = DIRECTION ( 'NONE',  ( -1.000000000000000000, 3.305494428309464708E-17, 2.644395542647572259E-16 ) ) ;
#815 = STYLED_ITEM ( 'NONE', ( #222 ), #707 ) ;
#816 = EDGE_CURVE ( 'NONE', #728, #892, #843, .T. ) ;
#817 = FILL_AREA_STYLE_COLOUR ( '', #822 ) ;
#818 = CARTESIAN_POINT ( 'NONE',  ( -2.000000000000000444, 0.1000000000000000056, -2.000000000000000000 ) ) ;
#819 = MECHANICAL_DESIGN_GEOMETRIC_PRESENTATION_REPRESENTATION (  '', ( #203 ), #4 ) ;
#820 = SURFACE_STYLE_USAGE ( .BOTH. , #116 ) ;
#821 = UNCERTAINTY_MEASURE_WITH_UNIT (LENGTH_MEASURE( 1.000000000000000082E-05 ), #430, 'distance_accuracy_value', 'NONE');
#822 = COLOUR_RGB ( '',1.000000000000000000, 1.000000000000000000, 1.000000000000000000 ) ;
#823 = LINE ( 'NONE', #130, #210 ) ;
#824 = EDGE_CURVE ( 'NONE', #632, #69, #187, .T. ) ;
#825 = SURFACE_SIDE_STYLE ('',( #639 ) ) ;
#826 = LINE ( 'NONE', #532, #77 ) ;
#827 = DIRECTION ( 'NONE',  ( 0.000000000000000000, -1.000000000000000000, 0.000000000000000000 ) ) ;
#828 = CIRCLE ( 'NONE', #387, 0.2000000000000000944 ) ;
#829 = ORIENTED_EDGE ( 'NONE', *, *, #808, .T. ) ;
#830 =( GEOMETRIC_REPRESENTATION_CONTEXT ( 3 ) GLOBAL_UNCERTAINTY_ASSIGNED_CONTEXT ( ( #806 ) ) GLOBAL_UNIT_ASSIGNED_CONTEXT ( ( #867, #571, #511 ) ) REPRESENTATION_CONTEXT ( 'NONE', 'WORKASPACE' ) );
#831 =( NAMED_UNIT ( * ) PLANE_ANGLE_UNIT ( ) SI_UNIT ( $, .RADIAN. ) );
#832 = CARTESIAN_POINT ( 'NONE',  ( 1.604999999999999538, -1.626303258728256651E-16, -1.625000000000000000 ) ) ;
#833 =( NAMED_UNIT ( * ) SI_UNIT ( $, .STERADIAN. ) SOLID_ANGLE_UNIT ( ) );
#834 =( GEOMETRIC_REPRESENTATION_CONTEXT ( 3 ) GLOBAL_UNCERTAINTY_ASSIGNED_CONTEXT ( ( #888 ) ) GLOBAL_UNIT_ASSIGNED_CONTEXT ( ( #302, #96, #17 ) ) REPRESENTATION_CONTEXT ( 'NONE', 'WORKASPACE' ) );
#835 =( NAMED_UNIT ( * ) SI_UNIT ( $, .STERADIAN. ) SOLID_ANGLE_UNIT ( ) );
#836 = CARTESIAN_POINT ( 'NONE',  ( -0.7850000000000003642, 0.09999999999999995004, 1.625000000000000000 ) ) ;
#837 = DIRECTION ( 'NONE',  ( 0.000000000000000000, 0.000000000000000000, -1.000000000000000000 ) ) ;
#838 = VERTEX_POINT ( 'NONE', #277 ) ;
#839 = DIRECTION ( 'NONE',  ( 1.000000000000000000, -4.404571325722362379E-17, -1.084202172485504681E-16 ) ) ;
#840 = ORIENTED_EDGE ( 'NONE', *, *, #859, .F. ) ;
#841 = CARTESIAN_POINT ( 'NONE',  ( -0.7850000000000003642, 0.09999999999999995004, -1.525000000000000133 ) ) ;
#842 = PLANE ( 'NONE',  #626 ) ;
#843 = LINE ( 'NONE', #533, #783 ) ;
#844 = AXIS2_PLACEMENT_3D ( 'NONE', #458, #736, #111 ) ;
#845 = VECTOR ( 'NONE', #698, 1000.000000000000000 ) ;
#846 =( LENGTH_UNIT ( ) NAMED_UNIT ( * ) SI_UNIT ( .MILLI., .METRE. ) );
#847 =( NAMED_UNIT ( * ) SI_UNIT ( $, .STERADIAN. ) SOLID_ANGLE_UNIT ( ) );
#848 = ORIENTED_EDGE ( 'NONE', *, *, #666, .T. ) ;
#849 = ORIENTED_EDGE ( 'NONE', *, *, #142, .T. ) ;
#850 = CARTESIAN_POINT ( 'NONE',  ( -2.000000000000000444, 0.09999999999999983902, -1.800000000000000044 ) ) ;
#851 = PRESENTATION_LAYER_ASSIGNMENT (  '', '', ( #815 ) ) ;
#852 = DIRECTION ( 'NONE',  ( 0.000000000000000000, -1.000000000000000000, 0.000000000000000000 ) ) ;
#853 = CARTESIAN_POINT ( 'NONE',  ( -1.800000000000000488, 3.100000000000000089, -1.800000000000000044 ) ) ;
#854 = CARTESIAN_POINT ( 'NONE',  ( 1.799999999999999600, 3.100000000000000089, -2.000000000000000444 ) ) ;
#855 = LINE ( 'NONE', #449, #466 ) ;
#856 = VECTOR ( 'NONE', #716, 1000.000000000000000 ) ;
#857 =( GEOMETRIC_REPRESENTATION_CONTEXT ( 3 ) GLOBAL_UNCERTAINTY_ASSIGNED_CONTEXT ( ( #909 ) ) GLOBAL_UNIT_ASSIGNED_CONTEXT ( ( #502, #869, #81 ) ) REPRESENTATION_CONTEXT ( 'NONE', 'WORKASPACE' ) );
#858 = FACE_OUTER_BOUND ( 'NONE', #275, .T. ) ;
#859 = EDGE_CURVE ( 'NONE', #159, #813, #749, .T. ) ;
#860 = LINE ( 'NONE', #246, #332 ) ;
#861 = FILL_AREA_STYLE ('',( #491 ) ) ;
#862 = VERTEX_POINT ( 'NONE', #621 ) ;
#863 =( LENGTH_UNIT ( ) NAMED_UNIT ( * ) SI_UNIT ( .MILLI., .METRE. ) );
#864 = EDGE_LOOP ( 'NONE', ( #682, #424, #237, #126 ) ) ;
#865 = DIRECTION ( 'NONE',  ( 0.000000000000000000, 1.000000000000000000, 0.000000000000000000 ) ) ;
#866 =( GEOMETRIC_REPRESENTATION_CONTEXT ( 3 ) GLOBAL_UNCERTAINTY_ASSIGNED_CONTEXT ( ( #514 ) ) GLOBAL_UNIT_ASSIGNED_CONTEXT ( ( #106, #183, #391 ) ) REPRESENTATION_CONTEXT ( 'NONE', 'WORKASPACE' ) );
#867 =( LENGTH_UNIT ( ) NAMED_UNIT ( * ) SI_UNIT ( .MILLI., .METRE. ) );
#868 = EDGE_CURVE ( 'NONE', #892, #632, #678, .T. ) ;
#869 =( NAMED_UNIT ( * ) PLANE_ANGLE_UNIT ( ) SI_UNIT ( $, .RADIAN. ) );
#870 = CYLINDRICAL_SURFACE ( 'NONE', #517, 0.2000000000000000944 ) ;
#871 =( NAMED_UNIT ( * ) SI_UNIT ( $, .STERADIAN. ) SOLID_ANGLE_UNIT ( ) );
#872 =( GEOMETRIC_REPRESENTATION_CONTEXT ( 3 ) GLOBAL_UNCERTAINTY_ASSIGNED_CONTEXT ( ( #337 ) ) GLOBAL_UNIT_ASSIGNED_CONTEXT ( ( #505, #286, #718 ) ) REPRESENTATION_CONTEXT ( 'NONE', 'WORKASPACE' ) );
#873 = DIRECTION ( 'NONE',  ( 4.404571325722361763E-17, 1.000000000000000000, 0.000000000000000000 ) ) ;
#874 = EDGE_CURVE ( 'NONE', #566, #643, #823, .T. ) ;
#875 = ORIENTED_EDGE ( 'NONE', *, *, #808, .F. ) ;
#876 = ORIENTED_EDGE ( 'NONE', *, *, #443, .F. ) ;
#877 = ADVANCED_FACE ( 'NONE', ( #85 ), #870, .T. ) ;
#878 = DIRECTION ( 'NONE',  ( 1.000000000000000000, -3.305494428309464708E-17, -2.644395542647571766E-16 ) ) ;
#879 = CARTESIAN_POINT ( 'NONE',  ( -2.000000000000000444, 3.100000000000000089, -1.800000000000000044 ) ) ;
#880 =( GEOMETRIC_REPRESENTATION_CONTEXT ( 3 ) GLOBAL_UNCERTAINTY_ASSIGNED_CONTEXT ( ( #416 ) ) GLOBAL_UNIT_ASSIGNED_CONTEXT ( ( #724, #509, #83 ) ) REPRESENTATION_CONTEXT ( 'NONE', 'WORKASPACE' ) );
#881 = ORIENTED_EDGE ( 'NONE', *, *, #161, .F. ) ;
#882 = EDGE_CURVE ( 'NONE', #227, #159, #773, .T. ) ;
#883 = CARTESIAN_POINT ( 'NONE',  ( -4.010639027228582746E-16, 0.09999999999999992228, -1.525000000000000355 ) ) ;
#884 = AXIS2_PLACEMENT_3D ( 'NONE', #326, #474, #191 ) ;
#885 = FILL_AREA_STYLE_COLOUR ( '', #495 ) ;
#886 = CARTESIAN_POINT ( 'NONE',  ( 1.999999999999999556, 3.100000000000000089, -1.800000000000000488 ) ) ;
#887 =( NAMED_UNIT ( * ) SI_UNIT ( $, .STERADIAN. ) SOLID_ANGLE_UNIT ( ) );
#888 = UNCERTAINTY_MEASURE_WITH_UNIT (LENGTH_MEASURE( 1.000000000000000082E-05 ), #302, 'distance_accuracy_value', 'NONE');
#889 = FACE_OUTER_BOUND ( 'NONE', #864, .T. ) ;
#890 = EDGE_LOOP ( 'NONE', ( #310, #723, #673, #42 ) ) ;
#891 =( NAMED_UNIT ( * ) PLANE_ANGLE_UNIT ( ) SI_UNIT ( $, .RADIAN. ) );
#892 = VERTEX_POINT ( 'NONE', #488 ) ;
#893 = EDGE_CURVE ( 'NONE', #529, #776, #506, .T. ) ;
#894 = ORIENTED_EDGE ( 'NONE', *, *, #228, .T. ) ;
#895 = DIRECTION ( 'NONE',  ( -3.305494428309464708E-17, -1.000000000000000000, 0.000000000000000000 ) ) ;
#896 = STYLED_ITEM ( 'NONE', ( #809 ), #780 ) ;
#897 =( NAMED_UNIT ( * ) PLANE_ANGLE_UNIT ( ) SI_UNIT ( $, .RADIAN. ) );
#898 = SURFACE_SIDE_STYLE ('',( #681 ) ) ;
#899 = FACE_OUTER_BOUND ( 'NONE', #374, .T. ) ;
#900 = CIRCLE ( 'NONE', #507, 0.2000000000000000944 ) ;
#901 =( LENGTH_UNIT ( ) NAMED_UNIT ( * ) SI_UNIT ( .MILLI., .METRE. ) );
#902 = FACE_OUTER_BOUND ( 'NONE', #147, .T. ) ;
#903 = DIRECTION ( 'NONE',  ( 0.000000000000000000, 1.000000000000000000, 0.000000000000000000 ) ) ;
#904 = LINE ( 'NONE', #107, #422 ) ;
#905 = ORIENTED_EDGE ( 'NONE', *, *, #228, .F. ) ;
#906 = PRODUCT ( 'XAL4030-472MEC', 'XAL4030-472MEC', '', ( #648 ) ) ;
#907 = VERTEX_POINT ( 'NONE', #917 ) ;
#908 = SURFACE_STYLE_USAGE ( .BOTH. , #759 ) ;
#909 = UNCERTAINTY_MEASURE_WITH_UNIT (LENGTH_MEASURE( 1.000000000000000082E-05 ), #502, 'distance_accuracy_value', 'NONE');
#910 = EDGE_CURVE ( 'NONE', #813, #643, #594, .T. ) ;
#911 =( LENGTH_UNIT ( ) NAMED_UNIT ( * ) SI_UNIT ( .MILLI., .METRE. ) );
#912 = MECHANICAL_DESIGN_GEOMETRIC_PRESENTATION_REPRESENTATION (  '', ( #173 ), #148 ) ;
#913 = SURFACE_STYLE_USAGE ( .BOTH. , #687 ) ;
#914 = DIRECTION ( 'NONE',  ( -1.000000000000000000, 3.305494428309464708E-17, -2.644395542647572259E-16 ) ) ;
#915 = EDGE_CURVE ( 'NONE', #566, #789, #493, .T. ) ;
#916 = PRESENTATION_STYLE_ASSIGNMENT (( #425 ) ) ;
#917 = CARTESIAN_POINT ( 'NONE',  ( 1.604999999999999316, 0.09999999999999983902, -1.625000000000000000 ) ) ;
#918 = SURFACE_STYLE_USAGE ( .BOTH. , #489 ) ;
#919 = MECHANICAL_DESIGN_GEOMETRIC_PRESENTATION_REPRESENTATION (  '', ( #457 ), #309 ) ;
#920 =( LENGTH_UNIT ( ) NAMED_UNIT ( * ) SI_UNIT ( .MILLI., .METRE. ) );
#921 = ORIENTED_EDGE ( 'NONE', *, *, #142, .F. ) ;
#922 =( NAMED_UNIT ( * ) SI_UNIT ( $, .STERADIAN. ) SOLID_ANGLE_UNIT ( ) );
#923 = CARTESIAN_POINT ( 'NONE',  ( 1.604999999999999316, 0.09999999999999983902, 1.624999999999999778 ) ) ;
#924 = COLOUR_RGB ( '',0.2509803921568627416, 0.2509803921568627416, 0.2509803921568627416 ) ;
#925 = CIRCLE ( 'NONE', #112, 0.1000000000000000056 ) ;
#926 =( NAMED_UNIT ( * ) PLANE_ANGLE_UNIT ( ) SI_UNIT ( $, .RADIAN. ) );
#927 = COLOUR_RGB ( '',1.000000000000000000, 1.000000000000000000, 1.000000000000000000 ) ;
#928 = ADVANCED_FACE ( 'NONE', ( #320, #516, #134 ), #784, .F. ) ;
#929 = ORIENTED_EDGE ( 'NONE', *, *, #27, .T. ) ;
#930 = ORIENTED_EDGE ( 'NONE', *, *, #152, .T. ) ;
#931 = DIRECTION ( 'NONE',  ( -1.000000000000000000, 4.404571325722361763E-17, -0.000000000000000000 ) ) ;
#932 = ORIENTED_EDGE ( 'NONE', *, *, #161, .T. ) ;
#933 =( GEOMETRIC_REPRESENTATION_CONTEXT ( 3 ) GLOBAL_UNCERTAINTY_ASSIGNED_CONTEXT ( ( #109 ) ) GLOBAL_UNIT_ASSIGNED_CONTEXT ( ( #442, #162, #871 ) ) REPRESENTATION_CONTEXT ( 'NONE', 'WORKASPACE' ) );
#934 = SURFACE_STYLE_USAGE ( .BOTH. , #365 ) ;
ENDSEC;
END-ISO-10303-21;
